<?xml version="1.0" encoding="utf-8"?>
<!-- Generator: Adobe Illustrator 27.1.1, SVG Export Plug-In . SVG Version: 6.00 Build 0)  -->
<svg version="1.1" id="Layer_1" xmlns="http://www.w3.org/2000/svg" xmlns:xlink="http://www.w3.org/1999/xlink" x="0px" y="0px"
	 viewBox="0 0 250 72" style="enable-background:new 0 0 250 72;" xml:space="preserve">
<style type="text/css">
	.st0{fill:#3300FF;}
	.st1{fill:#3E00FF;}
	.st2{fill:#FF00FF;}
	.st3{fill:#0000FF;}
	.st4{fill:#FFFFFF;}
	.st5{fill:#0000FF;stroke:#0000FF;stroke-width:4.7694;stroke-miterlimit:10;}
	.st6{fill:#0000FF;stroke:#0000FF;stroke-width:4.9043;stroke-miterlimit:10;}
	.st7{fill:#0000FF;stroke:#0000FF;stroke-width:4.926;stroke-miterlimit:10;}
	.st8{fill:#0000FF;stroke:#0000FF;stroke-width:1.7968;stroke-miterlimit:10;}
	.st9{fill:#0000FF;stroke:#0000FF;stroke-width:1.8477;stroke-miterlimit:10;}
	.st10{fill:#0000FF;stroke:#0000FF;stroke-width:1.8559;stroke-miterlimit:10;}
	.st11{fill:#1B26C5;}
	.st12{fill:none;stroke:#1B26C5;stroke-width:2.5603;stroke-miterlimit:10;}
	.st13{fill:none;stroke:#1B26C5;stroke-width:5;stroke-miterlimit:10;}
	.st14{clip-path:url(#SVGID_00000105391928125244165500000011668559907957285540_);}
	.st15{fill:#1B26C5;stroke:#1B26C5;stroke-width:4;stroke-miterlimit:10;}
	.st16{clip-path:url(#SVGID_00000034791301659459037960000012592177303627485858_);}
	.st17{fill:#FFFFFF;stroke:#0000FF;stroke-width:4.926;stroke-miterlimit:10;}
	.st18{fill:#0000FF;stroke:#0000FF;stroke-width:5;stroke-miterlimit:10;}
	.st19{fill:#D2145A;stroke:#D2145A;stroke-width:5;stroke-miterlimit:10;}
	.st20{fill:#EF5A24;stroke:#EF5A24;stroke-width:4.9043;stroke-miterlimit:10;}
	.st21{fill:#2E3190;stroke:#2E3190;stroke-width:4.9043;stroke-miterlimit:10;}
	.st22{fill:#D2145A;stroke:#D2145A;stroke-width:4;stroke-miterlimit:10;}
	.st23{fill:#2E3190;stroke:#2E3190;stroke-width:4;stroke-miterlimit:10;}
	.st24{fill:#FFFFFF;stroke:#000000;stroke-width:2;stroke-linecap:round;stroke-linejoin:round;stroke-miterlimit:10;}
	.st25{stroke:#000000;stroke-width:2;stroke-linecap:round;stroke-linejoin:round;stroke-miterlimit:10;}
	.st26{stroke:#000000;stroke-miterlimit:10;}
	.st27{fill:none;stroke:#FFFFFF;stroke-width:5;stroke-miterlimit:10;}
	.st28{fill:none;stroke:#000000;stroke-width:1.5276;stroke-miterlimit:10;}
	.st29{fill:none;stroke:#000000;stroke-width:1.682;stroke-miterlimit:10;}
	.st30{stroke:#000000;stroke-width:1.0184;stroke-linejoin:round;stroke-miterlimit:10;}
	.st31{fill:#FF00FF;stroke:#000000;stroke-width:1.0184;stroke-miterlimit:10;}
	.st32{stroke:#000000;stroke-width:1.5276;stroke-miterlimit:10;}
	.st33{fill:none;stroke:#0000FF;stroke-width:4;stroke-miterlimit:10;}
	.st34{fill:none;stroke:#0000FF;stroke-width:3.8011;stroke-miterlimit:10;}
	.st35{fill:none;stroke:#0000FF;stroke-width:2.0688;stroke-miterlimit:10;}
	.st36{fill:#0000FF;stroke:#0000FF;stroke-width:2.1145;stroke-linecap:round;stroke-linejoin:round;stroke-miterlimit:10;}
	.st37{fill:#11081F;}
	.st38{fill:#C9FA4B;}
	.st39{fill:url(#SVGID_00000007400954588341332600000013903923709815609761_);}
	.st40{fill:url(#SVGID_00000008124440938566500770000001305625195690152111_);}
	.st41{fill:url(#SVGID_00000109739139289839512930000003965990301107914673_);}
	.st42{fill:#FF008A;}
	.st43{fill:none;stroke:#1B1464;stroke-width:0.5;stroke-miterlimit:10;}
	.st44{fill:none;stroke:#000000;stroke-width:2.1102;stroke-miterlimit:10;}
	.st45{fill:none;stroke:#000000;stroke-width:2.3234;stroke-miterlimit:10;}
	.st46{stroke:#000000;stroke-width:1.4068;stroke-linejoin:round;stroke-miterlimit:10;}
	.st47{fill:#FF00FF;stroke:#000000;stroke-width:1.4068;stroke-miterlimit:10;}
	.st48{stroke:#000000;stroke-width:2.1102;stroke-miterlimit:10;}
	.st49{fill:none;stroke:#0000FF;stroke-width:2.8578;stroke-miterlimit:10;}
	.st50{fill:#0000FF;stroke:#0000FF;stroke-width:2.9208;stroke-linecap:round;stroke-linejoin:round;stroke-miterlimit:10;}
	.st51{fill:#0000FF;stroke:#0000FF;stroke-width:3.4427;stroke-miterlimit:10;}
	.st52{fill:none;stroke:#FFFFFF;stroke-width:3.5099;stroke-miterlimit:10;}
	.st53{fill:url(#SVGID_00000148653053143384844940000012914591395236111504_);}
	.st54{fill:url(#SVGID_00000127025609995792794230000013685768450277197747_);}
	.st55{fill:url(#SVGID_00000096040533802692584220000013280114464655265153_);}
	.st56{fill:url(#SVGID_00000058565125489416138150000010242058868782209408_);}
	.st57{fill-rule:evenodd;clip-rule:evenodd;}
	.st58{fill:#4945FF;}
	.st59{fill-rule:evenodd;clip-rule:evenodd;fill:#FFFFFF;}
	.st60{opacity:0.42;fill-rule:evenodd;clip-rule:evenodd;fill:#FFFFFF;enable-background:new    ;}
	.st61{opacity:0.42;fill:#FFFFFF;enable-background:new    ;}
	.st62{fill:#EC4815;}
	.st63{fill:none;stroke:#1B1464;stroke-width:0.768;stroke-miterlimit:10;}
	.st64{opacity:0.19;fill:none;stroke:#231F20;stroke-width:0.2863;stroke-miterlimit:10;}
	.st65{fill:#FF0082;}
	.st66{clip-path:url(#SVGID_00000137095694210564248550000015019599776264701060_);}
	.st67{clip-path:url(#SVGID_00000139274212279768344380000014432215541469683382_);}
	.st68{clip-path:url(#SVGID_00000170994302323121301130000002351061877739496605_);}
	.st69{fill:url(#SVGID_00000006710117784960796860000008405209533609861524_);}
	.st70{fill:url(#SVGID_00000078757813846753156260000001913155232734161039_);}
	.st71{fill:url(#SVGID_00000137831712526901282880000008919452700044819120_);}
	.st72{fill:#EA0F86;}
	.st73{fill:none;stroke:#000000;stroke-width:0.4812;stroke-miterlimit:10;}
	.st74{clip-path:url(#SVGID_00000035519015106569570510000009166430507062953096_);}
	.st75{fill:url(#SVGID_00000049942510654623530690000009247944809001205653_);}
	.st76{fill:url(#SVGID_00000157994636106970212280000008754201848058424735_);}
	.st77{fill:url(#SVGID_00000171701889027327776570000006226296819708667820_);}
	.st78{fill:#FF0080;}
	.st79{fill:#6649AB;}
	.st80{fill:#683BAB;}
	.st81{fill:#472CAB;}
	.st82{fill:url(#SVGID_00000150064811930236512170000005823817326523660730_);}
	.st83{fill:url(#SVGID_00000095301214146182081980000017652825672791111572_);}
</style>
<g>
	<path class="st65" d="M24.2,2.9L1.7,5l2.7,29.5l14.7-1.3l-1.5-16l7.8-0.7c7.8-0.7,14,5.5,14.9,14.8c0,0,0,0,0,0l14.4-1.3
		C53.3,13.6,39.6,1.5,24.2,2.9z"/>
	<path class="st65" d="M55.7,39.1c0,9.3-5.7,16.1-13.5,16.1h-7.9V39.1H19.6v29.6h22.6c15.4,0,27.9-13.3,27.9-29.6c0,0,0,0,0,0
		L55.7,39.1C55.7,39.1,55.7,39.1,55.7,39.1z"/>
	<g>
		<g>
			<path d="M98.2,20.2h14.7c10.6,0,17.8,6.7,17.8,16.9S123.4,54,112.8,54H98.2V20.2z M112.5,47.5c6.4,0,10.6-4,10.6-10.5
				c0-6.5-4.2-10.5-10.6-10.5h-6.8v20.9H112.5z"/>
			<path d="M153.8,45.8l3.8,4.3c-2.3,2.8-5.8,4.2-10.2,4.2c-8.6,0-14.2-5.6-14.2-13.4c0-7.8,5.6-13.4,13.3-13.4
				c7,0,12.8,4.8,12.8,13.1L141,44.5c1.1,2.6,3.4,3.9,6.6,3.9C150.2,48.3,152.1,47.5,153.8,45.8z M140.3,40.2l12.1-2.5
				c-0.7-2.7-2.9-4.4-5.9-4.4C142.9,33.3,140.4,35.8,140.3,40.2z"/>
			<path d="M161.6,41c0-7.8,5.8-13.4,13.8-13.4c5.2,0,9.3,2.4,11.1,6.6l-5.6,3.1c-1.3-2.5-3.3-3.6-5.6-3.6c-3.6,0-6.5,2.7-6.5,7.2
				s2.9,7.2,6.5,7.2c2.3,0,4.2-1.1,5.6-3.6l5.6,3.2c-1.8,4.2-5.9,6.6-11.1,6.6C167.4,54.3,161.6,48.8,161.6,41z"/>
			<path d="M214.9,28v26H208v-3c-1.8,2.3-4.4,3.4-7.7,3.4c-7,0-12.4-5.2-12.4-13.4s5.4-13.4,12.4-13.4c3,0,5.6,1,7.4,3.1V28H214.9z
				 M207.8,41c0-4.5-2.8-7.2-6.3-7.2c-3.6,0-6.4,2.7-6.4,7.2s2.8,7.2,6.4,7.2C205.1,48.2,207.8,45.5,207.8,41z"/>
			<path d="M247.9,41c0,8.2-5.4,13.4-12.4,13.4c-3.1,0-5.6-1-7.5-3.1v12.1h-7.2V28h6.9v3c1.8-2.3,4.5-3.4,7.8-3.4
				C242.5,27.6,247.9,32.8,247.9,41z M240.6,41c0-4.5-2.7-7.2-6.3-7.2s-6.3,2.7-6.3,7.2s2.7,7.2,6.3,7.2S240.6,45.5,240.6,41z"/>
		</g>
	</g>
</g>
</svg>
