<svg width="270" height="313" fill="none" xmlns="http://www.w3.org/2000/svg"><path d="M150.588 283.082l84.264-49.718-7.622-13.491-84.263 49.718 7.621 13.491zM42.403 89.858l85.911-50.69-7.621-13.492-85.912 50.69 7.622 13.492zM21.924 203.214h15.243l-.002-97.275H21.922l.002 97.275zM122.427 265.266l13.201-7.79-84.842-154.368-13.2 7.789 84.841 154.369z" fill="#4DBA87"/><path d="M134.228 259.792l13.201 7.789 93.887-161.822-13.201-7.79-93.887 161.823zM45.397 222.134l-7.622 13.491 75.215 44.381 7.621-13.492-75.214-44.38zM153.456 30.182l-7.621 13.491 84.523 49.873 1.816-9.324 5.805-4.167-84.523-49.873z" fill="#4DBA87"/><path d="M236.697 204.595h15.243l-.001-95.74h-15.243l.001 95.74z" fill="#4DBA87"/><path fill-rule="evenodd" clip-rule="evenodd" d="M253.159 85.353l-.017-.03c-3.13-5.57-10.046-7.516-15.605-4.249-5.474 3.25-7.311 10.41-4.181 15.92 3.197 5.629 10.237 7.507 15.626 4.317 5.485-3.248 7.326-10.413 4.194-15.928l-.017-.03zm-23.25-17.766c-12.727 7.535-17.123 24.22-9.737 37.227 7.387 13.007 23.724 17.511 36.451 9.976 12.727-7.535 17.124-24.22 9.737-37.226-7.349-13.075-23.62-17.54-36.451-9.977zM32.392 227.487c5.502-3.261 7.344-10.449 4.214-15.966-3.161-5.571-10.123-7.51-15.653-4.289-5.479 3.269-7.308 10.441-4.184 15.949 3.19 5.623 10.225 7.505 15.623 4.306zm-19.055-33.749C.604 201.283-3.8 217.982 3.583 230.995c7.383 13.013 23.722 17.514 36.455 9.968 12.734-7.545 17.138-24.244 9.754-37.257-7.383-13.013-23.656-17.475-36.455-9.968zM124.204 284.869c.035 6.504 5.159 11.697 11.46 11.709 6.212.012 11.365-5.113 11.423-11.698-.045-6.483-5.148-11.658-11.427-11.689-6.352.036-11.426 5.254-11.456 11.678zm-15.243.005c.038 15.082 11.956 27.254 26.674 27.282 14.719.028 26.629-12.151 26.695-27.261-.039-15.082-11.956-27.254-26.675-27.282-14.757.039-26.667 12.219-26.694 27.261zM122.679 27.256c.035 6.504 5.16 11.697 11.461 11.709 6.229.012 11.392-5.194 11.422-11.678-.035-6.492-5.141-11.678-11.426-11.709-6.353.036-11.427 5.254-11.457 11.678zm-15.243.006c.039 15.081 11.956 27.253 26.675 27.281 14.719.028 26.667-12.219 26.694-27.261C160.767 12.2 148.849.028 134.131 0c-14.758.04-26.667 12.219-26.695 27.262zM237.611 227.469c5.484 3.236 12.45 1.329 15.616-4.277 3.153-5.58 1.259-12.748-4.184-15.96-5.485-3.236-12.45-1.329-15.617 4.277-3.167 5.605-1.3 12.724 4.185 15.96zm-7.622 13.491c12.775 7.538 29.063 3.078 36.439-9.979 7.376-13.056 2.946-29.741-9.764-37.24-12.775-7.538-29.063-3.078-36.439 9.978-7.376 13.057-3.011 29.703 9.764 37.241zM22.481 101.285c5.485 3.236 12.45 1.328 15.617-4.277 3.167-5.605 1.3-12.724-4.184-15.96-5.485-3.236-12.45-1.329-15.617 4.276-3.167 5.606-1.3 12.724 4.184 15.961zm-7.621 13.491c12.775 7.538 29.063 3.078 36.439-9.979 7.376-13.056 3.011-29.702-9.764-37.24-12.775-7.538-29.063-3.078-36.44 9.978-7.375 13.056-3.01 29.703 9.765 37.241z" fill="#4DBA87"/><path d="M145.847 177.082l-32.086-60.675 66.316.171 9.56-17.102-106.934.002 53.584 94.707 9.56-17.103z" fill="#4DBA87"/><path d="M170.543 133.213l-24.696 43.869-12.118-12.725 17.446-31.146 6.423.001 12.945.001z" fill="#4DBA87"/><path d="M140.992 133.213h12.288l-6.144 10.969-6.144-10.969z" fill="#4DBA87"/></svg>