<svg width="512" height="134" viewBox="0 0 512 134" xmlns="http://www.w3.org/2000/svg" preserveAspectRatio="xMidYMid"><g fill-rule="evenodd"><path d="M113.9 85.4v-42c0-5.4-2.9-10.4-7.6-13.2-10-6-28-16.4-38.8-22.8a18 18 0 0 0-18.6.2L14.4 28.8c-5.9 3.6-9.4 10-9.4 17v42.9c0 6.8 3.6 13.1 9.5 16.6l35.9 21a15.6 15.6 0 0 0 15.5.1l39.8-22.1a16 16 0 0 0 8.2-14v-5z" fill="#FF4088"/><path d="M58.4.3H61l.1.1H61.8l.1.1h.6l.1.1h.5v.1H63.4l.1.1h.4V1h.4V1H64.6l.1.1H65v.1H65.3v.1h.2l.1.1H65.8v.1H66.2v.1h.2l.1.1h.2l.1.1h.1V2h.2l.2.1h.1l.1.1h.1v.1H67.9v.1h.1l.1.1h.2v.1h.1l.2.1.1.1h.2l.1.1h.1V3h.2V3h.1l.1.1h.1v.1h.2v.1l39 22.8v.1h.1v.1h.2v.1h.1l.1.1h.1v.1h.1l.1.1.1.1h.1l.1.1h.1v.1h.1l.1.1.1.1h.1v.1h.1l.1.1.1.1h.1v.1h.1l.1.1.1.1.1.1.2.1v.1h.1l.1.1.1.1.2.1v.1h.1l.1.1.1.2h.1l.2.2v.1l.2.1.1.1.1.1.1.2h.1l.1.2.2.1v.1l.2.1v.2h.2v.2h.1v.1h.1v.2h.1l.1.1v.1h.1v.1h.1v.2h.1v.1l.2.1v.2h.2v.2l.2.1v.2l.1.1.1.2h.1v.2h.1v.2h.2v.2l.1.2.1.1v.1h.1v.2l.1.1.1.2.1.1v.1l.1.2.1.1v.2l.2.1V35.1h.1v.2l.1.1v.2l.1.1.1.2v.1l.1.2v.1l.1.2v.1h.1V37h.1v.2l.1.1V37.5l.1.2v.1l.1.2v.1l.1.2V38.6h.1V39l.1.2V39.4l.1.2v.4l.1.2v.5l.1.2v.7l.1.2V92.7h-.1v.7l-.1.2v.5h-.1v.5h-.1v.4l-.1.1v.4h-.1v.2l-.1.2v.2h-.1V96.4l-.1.1V96.7h-.1V97h-.1v.2l-.1.1v.2l-.1.1v.2h-.1v.2l-.1.1v.2h-.1v.2h-.1v.2l-.1.1v.2h-.1v.1l-.1.2v.1h-.1v.1l-.1.1v.2h-.1v.1l-.1.1v.1l-.1.1v.1h-.1v.2l-.1.1-.1.2-.1.1v.1l-.1.1v.1h-.1v.1l-.1.1-.1.1v.1h-.1v.1l-.1.1v.2h-.1l-.1.1v.1l-.1.1-.1.1v.1h-.1v.1l-.1.1h-.1v.2h-.1l-.1.1v.1h-.1v.1l-.1.1-.1.1v.1h-.1v.1h-.1v.1h-.1v.1h-.1v.1l-.1.1-.1.1v.1h-.1l-.1.1v.1h-.1v.1h-.1l-.1.1v.1h-.1v.1h-.1l-.1.1v.1h-.1v.1h-.1l-.1.1v.1h-.1l-.1.1-.1.1h-.1v.1l-.1.1h-.1v.1h-.1v.1h-.2v.1l-.2.1v.1l-.1.1h-.1v.1h-.1l-.1.1-.2.1v.1h-.1l-.1.1h-.1v.1h-.1l-.1.1-.2.1-.1.1-.1.1h-.1v.1h-.2v.1h-.1v.1h-.1l-.1.1h-.1v.1h-.2v.1h-.1l-.1.1h-.1l-.1.1-.2.1L68 130.4H68l-.1.1h-.2v.1h-.1v.1h-.2l-.1.1h-.1v.1H67l-.2.1h-.1v.1h-.2l-.1.1h-.2v.1h-.1l-.2.1h-.1v.1H65.5l-.1.1h-.2v.1H65l-.1.1h-.2v.1H64.4l-.1.1h-.2l-.2.1h-.1l-.2.1H63.4l-.2.1h-.1l-.2.1H62.6l-.2.1H62.1l-.1.1h-.5v.1h-.7l-.1.1H59.8l-.2.1H56l-.1-.1h-.5l-.2-.1h-.5l-.1-.1H54.2l-.2-.1H53.8l-.2-.1h-.1l-.2-.1H53l-.2-.1h-.1l-.2-.1h-.2l-.1-.1H52v-.1H51.6v-.1H51.3v-.1h-.2l-.1-.1h-.2v-.1h-.2l-.1-.1h-.2v-.1h-.2l-.1-.1h-.2v-.1h-.2v-.1h-.2v-.1h-.2v-.1H49v-.1h-.2v-.1h-.2v-.1h-.1v-.1h-.2l-.1-.1h-.1l-.1-.1-36-21-.1-.1h-.1l-.1-.1-.2-.1-.1-.1h-.1l-.1-.1-.1-.1H11l-.1-.1-.1-.1-.2-.1-.1-.1h-.1v-.1l-.2-.1-.1-.1H10v-.1h-.2v-.1l-.1-.1h-.1v-.1l-.2-.1-.1-.1-.2-.1v-.1H9v-.1h-.2v-.1l-.1-.1-.2-.1v-.1h-.1v-.1h-.1v-.1h-.1v-.1h-.1L8 106H8l-.2-.1v-.1h-.1v-.2h-.2v-.1l-.1-.1h-.1v-.1l-.2-.1v-.1l-.2-.1v-.1l-.2-.2v-.1h-.2v-.2h-.1l-.1-.2-.1-.1H6v-.2H6v-.1h-.1l-.1-.1v-.1h-.1v-.1h-.1v-.1l-.1-.1-.1-.1-.1-.1v-.1h-.1v-.1l-.1-.1-.1-.1v-.1h-.1v-.2h-.1v-.1h-.1v-.2h-.1l-.1-.1v-.1h-.1v-.2h-.1v-.1l-.1-.1-.1-.2-.1-.1v-.1h-.1v-.1h-.1v-.2h-.1v-.1l-.1-.1v-.2h-.1v-.1h-.1v-.2h-.1v-.2h-.1v-.1l-.1-.1v-.1H3V99.3h-.1v-.1l-.1-.1V99h-.1V98.7h-.1v-.1l-.1-.1v-.2h-.1v-.2h-.1V98l-.1-.1v-.1l-.1-.1v-.2H2v-.2l-.1-.1V97l-.1-.1v-.2h-.1v-.2l-.1-.1v-.2l-.1-.1v-.2l-.1-.1v-.2l-.1-.2v-.2h-.1V94.8l-.1-.1V94.5H1V94L.8 94v-.4l-.1-.1V93H.6v-.4l-.1-.2V92l-.1-.1v-.7L.3 91v-1l-.1-.2V43.2h.1V42.5l.1-.1v-.6l.1-.1v-.5h.1v-.4l.1-.1v-.4l.1-.1V39.9l.1-.1V39.4l.1-.2V39h.1V38.7l.1-.1v-.2l.1-.1V38h.1v-.2l.1-.1v-.2l.1-.1v-.1l.1-.2V37H2v-.2l.1-.1v-.2h.1V36.1h.1V36h.1v-.2l.1-.1v-.1h.1v-.2l.1-.1v-.1l.1-.1V35l.1-.1v-.2H3v-.1l.1-.1v-.1h.1V34h.1V34l.1-.1v-.1h.1v-.2h.1v-.1l.1-.1v-.1h.1V33h.1V33l.1-.1v-.1H4v-.2h.1v-.1h.1v-.1l.1-.2.1-.1V32h.1l.1-.1v-.1l.1-.1.1-.2.1-.1v-.1H5l.1-.2.1-.1.1-.2h.1v-.1h.1v-.2h.1l.1-.1.1-.2H6V30H6v-.2h.1l.1-.1.1-.2h.1v-.1h.1v-.1l.1-.1h.1V29h.1L7 29l.1-.1.1-.1.1-.2h.1v-.1h.2v-.1l.1-.1.1-.1.1-.1.1-.1.1-.1.2-.1v-.1h.1v-.1l.1-.1h.1v-.1h.2v-.1l.1-.1H9V27L9 27h.1v-.1h.2v-.1l.1-.1h.1v-.1l.1-.1h.1l.1-.1.2-.1v-.1h.1V26h.1l.2-.1.1-.1v-.1h.1l.2-.1.1-.1h.1v-.1h.2v-.1l.1-.1h.1v-.1h.1l.2-.1.1-.1h.1L46.4 3.6l.1-.1h.1l.1-.1h.1v-.1h.2v-.1h.1l.1-.1h.1V3h.1l.2-.1.1-.1h.1l.1-.1h.1l.2-.1.1-.1h.2l.1-.1h.1v-.1h.2v-.1h.2l.1-.1h.2V2h.1l.2-.1h.1l.1-.1h.2l.1-.1h.2v-.1h.2l.2-.1h.1l.1-.1h.2l.1-.1h.2l.2-.1h.2l.1-.1h.2l.1-.1H52.6V1h.4l.2-.1H53.6l.1-.1h.4V.6H54.7V.5h.6l.1-.1h.8V.3H57.7V.2h.8zm-.1 9.2H57v.1h-.7v.1h-.5l-.1.1h-.4l-.1.1H55l-.1.1H54.5v.1H54.2l-.1.1H54v.1H53.6v.1h-.2l-.1.1h-.2l-.1.1H53l-.1.1h-.1l-.1.1h-.1l-.1.1h-.1l-.1.1h-.1l-.1.1H52l-.1.1h-.1v.1h-.2v.1h-.1l-.1.1h-.1L16.7 32.9h-.1v.1h-.1l-.1.1h-.1v.1h-.1l-.1.1H16v.1H16l-.1.1-.1.1h-.1v.1h-.1v.1h-.1l-.1.1-.1.1h-.1v.1H15l-.1.1-.1.1-.1.1-.1.1h-.1v.1h-.1v.1h-.1v.1h-.1v.1h-.1l-.1.1v.1H14v.1h-.1v.1h-.1v.1h-.1v.1h-.1v.1h-.1v.1h-.1v.1l-.1.1-.1.1v.1H13v.1H13v.1h-.1v.1l-.1.1v.1h-.1v.1h-.1v.1l-.1.1v.1h-.1v.1l-.1.1v.1h-.1v.1l-.1.1v.1H12v.1l-.1.1v.1l-.1.1v.1h-.1v.1l-.1.1v.1h-.1v.2l-.1.1v.1h-.1v.2h-.1v.2H11v.2H11v.2l-.1.1v.1l-.1.1v.2h-.1v.2h-.1V40.6h-.1V40.9h-.1V41.2l-.1.1v.2h-.1V41.8l-.1.1V42.2l-.1.1v.4l-.1.1v.5h-.1v.6l-.1.1V45.3h-.1V90.5h.1v.7h.1v.5l.1.1v.4h.1v.4h.1V92.9l.1.1V93.3h.1v.2l.1.1v.2l.1.1v.2h.1V94.4h.1v.2h.1v.2l.1.1v.2h.1v.1l.1.1v.1l.1.1v.1l.1.1v.1l.1.1v.1l.1.1v.1h.1v.1l.1.1v.1l.1.1v.1h.1v.1l.1.1v.1h.1v.1h.1v.1l.1.1v.1h.1v.1l.1.1v.1h.1v.1h.1v.1l.1.1.1.1.1.1v.1h.1v.1h.1v.1h.1v.1l.1.1.1.1.1.1.1.1v.1h.1l.1.1v.1h.1l.1.1.1.1.1.1.1.1h.1v.1h.1v.1h.1v.1h.1v.1h.1l.1.1h.1v.1h.1v.1h.1v.1h.1l.1.1h.1v.1h.1l.1.1h.1v.1h.1l.1.1.1.1h.1l.1.1h.1v.1h.1l.1.1h.1l35.9 21 .1.1h.1l.1.1h.1l.1.1h.1l.1.1h.1l.1.1h.2v.1h.2v.1h.2v.1H54.6v.1h.2l.1.1h.2l.2.1h.2l.1.1H55.8l.1.1h.5v.1h.7l.2.1H60l.2-.1h.4v-.1h.4l.1-.1H61.3v-.1H61.7v-.1H62v-.1H62.3v-.1h.2l.1-.1h.2v-.1h.2v-.1h.2v-.1h.2v-.1h.2v-.1h.1l39.8-22.2h.1v-.1h.2v-.1h.1v-.1h.2v-.1h.1l.1-.1h.1v-.1h.1l.1-.1h.1v-.1h.1v-.1h.1l.1-.1h.1v-.1h.1V99h.1V99h.1l.1-.1.1-.1h.1v-.1h.1v-.1h.1v-.1h.1v-.1h.1v-.1h.1v-.1h.1V98h.1v-.2h.1v-.1h.1v-.1h.1v-.1h.1v-.1h.1v-.1l.1-.1v-.1h.1V97l.1-.1.1-.1v-.1h.1v-.1l.1-.1v-.1h.1v-.2h.1v-.1l.1-.1V96l.1-.1v-.1h.1v-.2h.1v-.2h.1v-.2h.1V95h.1V94.6h.1v-.2h.1V94.1h.1V93.8h.1V93.5h.1V93.2l.1-.1V92.8l.1-.1v-.4l.1-.1v-.7h.1V41.6h-.1v-.5l-.1-.1V40.7l-.1-.1v-.2l-.1-.2V40l-.1-.1v-.2h-.1v-.2l-.1-.2v-.1l-.1-.1V39h-.1v-.1l-.1-.1v-.2h-.1v-.1l-.1-.1v-.2h-.1V38h-.1v-.2l-.1-.1-.1-.2-.1-.1-.1-.1v-.1h-.1V37h-.1l-.1-.2-.1-.1-.1-.1v-.1h-.1v-.1l-.2-.1v-.1l-.1-.1-.1-.1h-.1v-.2h-.1l-.1-.1-.1-.1-.1-.1h-.1v-.1l-.1-.1h-.1v-.1h-.1l-.1-.1-.1-.1-.1-.1h-.1v-.1h-.1v-.1h-.1l-.1-.1-.1-.1h-.1v-.1h-.1l-.1-.1h-.1v-.1h-.2v-.1h-.1L65.2 11.3H65l-.1-.1h-.1v-.1h-.2V11h-.2V11h-.1l-.1-.1h-.1l-.1-.1H64l-.1-.1h-.1l-.1-.1h-.2l-.1-.1h-.2v-.1H63v-.1H62.6l-.1-.1h-.2l-.1-.1H62V10H61.6v-.1h-.4l-.1-.1h-.4l-.1-.1H60v-.1h-1.3l-.1-.1h-.4z" fill="#C9177E"/><path fill="#FFF" fill-rule="nonzero" d="M32.2 101.9V30.8h14.9v25.9h24.6v-26h15V102h-15V70.8H47.1v31z"/><path d="M244.5 85.5v-42c0-5.5-2.9-10.4-7.5-13.1l-39-23a18 18 0 0 0-18.5.3l-33 20.3a23 23 0 0 0-11 19.6v41.2c0 6.8 3.7 13.1 9.6 16.6l35.9 21a15.6 15.6 0 0 0 15.5.1l39.8-22.1a16 16 0 0 0 8.2-14v-5z" fill="#0594CB"/><path d="M189 .4H191.5l.1.1h.7l.1.1h.6l.1.1h.5v.1h.4l.1.1H194.3l.2.1h.2l.1.1H195.2l.1.1h.2l.2.1h.2v.1H196.2l.1.1h.2v.1H196.8v.1h.2l.1.1h.2l.1.1h.1V2h.2l.2.1h.1l.1.1h.1v.1H198.5v.1h.1l.1.1h.2v.1h.1l.2.1.1.1h.2l.1.1h.1V3h.2v.1h.1l.1.1h.1v.1h.2v.1l39 23h.2l.1.1.2.1.2.1v.1h.1l.1.1h.1l.1.1.2.1v.1h.1l.1.1.1.1h.2v.1h.1v.1h.1l.2.2.1.1h.1v.1h.1v.1h.2v.2h.2v.1l.1.1.1.1.2.1v.1l.2.1.1.1.1.1.1.1.2.2.2.2v.1h.1l.1.1.1.1.1.2h.1l.1.2.1.1.1.1.1.2h.1l.1.2.1.1.1.1.1.2.1.1.1.1.1.2h.1l.1.2.1.1v.2h.1v.1l.2.1v.2l.1.1.1.1.1.2v.1h.1v.1l.2.2v.1l.1.2v.1h.1v.1l.1.2.1.1v.2l.2.1v.1l.1.2v.1l.1.2.1.1v.2l.1.1v.2l.1.1.1.2v.1l.1.1v.2l.1.1v.2h.1v.1l.1.2v.1l.1.2V37.6h.1V38l.1.2v.1l.1.2V38.7l.1.1v.2l.1.1v.4l.1.1v.5l.1.1v.7h.1v1h.1V92.6h-.1v.8h-.1v.6l-.1.1v.4h-.1v.5h-.1V95.4h-.1v.4h-.1v.4l-.1.1v.2l-.1.1v.2h-.1V97h-.1V97.4h-.1v.2l-.1.2v.1l-.1.1v.2h-.1v.2h-.1v.2l-.1.1v.1l-.1.1v.2h-.1v.2l-.1.1v.1h-.1v.2h-.1v.2l-.1.1-.1.1v.2h-.1v.1l-.1.1v.1h-.1v.2h-.1v.2h-.1v.1h-.1v.2h-.1v.1l-.1.1v.1h-.1v.1l-.1.1v.1h-.1v.2h-.1v.1l-.1.1-.1.1v.1h-.1v.2h-.1l-.1.2h-.1v.1h-.1v.1h-.1v.1l-.1.1-.1.1v.1h-.1v.1l-.1.1-.1.1v.1h-.1l-.1.1v.1h-.1v.1h-.1v.1l-.1.1h-.1v.1h-.1v.1l-.1.1h-.1v.1l-.1.1-.1.1h-.1v.1l-.1.1-.1.1h-.1v.1h-.1v.1h-.1v.1h-.1v.1h-.1l-.1.1v.1h-.1l-.1.1-.1.1h-.1v.1h-.1l-.1.1v.1h-.1v.1h-.1l-.1.1h-.1v.1h-.1l-.1.1-.1.1h-.1v.1h-.1l-.1.1h-.1v.1h-.1l-.1.1-.2.1v.1h-.1l-.1.1h-.1v.1h-.2v.1h-.1v.1h-.2v.1h-.1l-.1.1h-.1v.1h-.2v.1h-.1v.1h-.2l-39.7 22.2h-.1l-.1.1h-.2v.1h-.1l-.1.1h-.1l-.1.1h-.1l-.1.1h-.1l-.1.1h-.1l-.1.1h-.2v.1h-.2v.1h-.2l-.1.1h-.1l-.2.1h-.1l-.2.1h-.1v.1H195.5v.1h-.2l-.1.1H195v.1H194.7l-.1.1h-.2l-.1.1h-.2l-.2.1H193.6l-.1.1h-.4l-.1.1H192.7l-.2.1H192.2l-.2.1h-.6l-.2.1h-.8l-.2.1H186.6l-.2-.1h-.6l-.2-.1H185.3l-.2-.1h-.5v-.1H184.3l-.1-.1H183.9l-.2-.1h-.2l-.1-.1H183l-.2-.1h-.1l-.2-.1h-.2v-.1H182v-.1h-.2v-.1H181.5v-.1h-.2l-.1-.1h-.1l-.2-.1h-.1v-.1h-.2l-.1-.1h-.1l-.1-.1h-.2v-.1h-.2v-.1h-.1l-.1-.1h-.2v-.1h-.2v-.1h-.2v-.1h-.1v-.1h-.2l-.1-.1-.1-.1-36-21-.2-.1-.1-.1h-.1v-.1h-.2v-.1h-.1l-.1-.1h-.1v-.1h-.2v-.1h-.1l-.1-.1v-.1h-.2v-.1h-.1l-.1-.1-.2-.1v-.1h-.1l-.1-.1-.2-.1v-.1h-.1l-.1-.1-.2-.1v-.1h-.1v-.1h-.2v-.1l-.1-.1-.2-.1v-.1h-.1v-.1h-.2v-.1l-.1-.1-.2-.1v-.1h-.1v-.1l-.1-.1h-.1v-.1h-.1v-.1h-.1l-.1-.1v-.1h-.1l-.1-.1v-.1h-.1l-.1-.1v-.1h-.1l-.1-.2-.1-.1h-.1v-.1l-.1-.1h-.1v-.2h-.1l-.1-.1-.1-.1-.1-.1-.1-.2h-.1v-.1h-.1v-.1l-.1-.1-.1-.1-.1-.1v-.1l-.1-.1h-.1v-.1l-.1-.1v-.1h-.1l-.1-.2-.1-.1v-.1h-.1v-.1l-.1-.1-.1-.1-.1-.2-.1-.1v-.1h-.1v-.2h-.1v-.1h-.1v-.1h-.1v-.2h-.1v-.1h-.1V101h-.1v-.1h-.1v-.1l-.1-.2-.1-.1v-.1l-.1-.1-.1-.2-.1-.1v-.1h-.1V99.6h-.1v-.1l-.1-.1v-.1h-.1V99h-.1V99l-.1-.1v-.2l-.1-.1v-.1h-.1v-.2l-.1-.1V98h-.1v-.2h-.1v-.2l-.1-.1v-.2l-.1-.1V97h-.1V96.6h-.1v-.2l-.1-.1v-.2l-.1-.1V95.8h-.1V95.4h-.1V95.1l-.1-.1V94.8l-.1-.1V94.4h-.1V94h-.1v-.4l-.1-.2V93l-.1-.1v-.5l-.1-.1v-.7h-.1V90.8l-.1-.1V44.4l.1-.1V43.6l.1-.1V43l.1-.1V42.3h.1V42l.1-.1v-.5h.1V41l.1-.1v-.2l.1-.1V40.3l.1-.2v-.2h.1V39.5l.1-.1V39.2l.1-.1v-.2l.1-.1v-.2l.1-.1v-.1l.1-.1V38l.1-.1v-.2h.1v-.2l.1-.2.1-.2V37h.1v-.2h.1v-.2l.1-.2.1-.2.1-.2.1-.2v-.2h.1v-.2h.1v-.1l.1-.1V35l.1-.1v-.1l.1-.1v-.1l.1-.1v-.1l.1-.1v-.1l.1-.1V34l.1-.1v-.1h.1v-.1h.1v-.2h.1v-.2h.1v-.2h.1V33l.1-.1.1-.1v-.1l.1-.1v-.1h.1v-.1h.1v-.2h.1v-.1l.1-.1.1-.1v-.1l.1-.1v-.1h.1l.1-.2.1-.1v-.1l.1-.1.1-.1V31h.1l.1-.2.1-.1.1-.1v-.1h.1v-.1h.1v-.2h.1l.1-.1V30l.1-.1h.1v-.1l.2-.2.1-.1v-.1h.1l.1-.2.2-.1V29h.1v-.1l.1-.2h.1l.1-.1v-.1h.2v-.2h.1v-.1h.2V28l.1-.1v-.1h.1v-.1h.2v-.1l.1-.1v-.1h.1l.1-.2h.1l.1-.1h.1V27h.2v-.1h.1l.1-.1v-.1h.1l.2-.2.1-.1h.1l.1-.1v-.1h.2V26h.1l.1-.1h.1l.1-.1v-.1h.1l.2-.1v-.1h.1l.1-.1.1-.1h.1l.1-.1.1-.1h.1V25h.2v-.1l.2-.1.1-.1.1-.1h.1l.1-.1h.1v-.1h.1l.1-.1h.1v-.1h.1V24h.2l33-20.4h.1l.1-.1h.1v-.1h.2v-.1h.1l.1-.1h.1v-.1h.2V3h.1l.1-.1h.1l.1-.1h.1v-.1h.2l.1-.1h.1l.1-.1h.1v-.1H179.5v-.1h.1l.1-.1h.2l.1-.1h.1l.2-.1.1-.1h.2l.1-.1h.2v-.1H181.2v-.1h.2l.1-.1h.2l.1-.1h.2l.2-.1h.2v-.1H182.7l.1-.1H183V1H183.4V1h.4l.1-.1H184.1l.1-.1h.4l.2-.1h.4l.1-.1h.6V.4H187l.1-.1H189zm-.1 9.2H187.3l-.1.1h-.6l-.1.1h-.5v.1h-.4l-.1.1H185.2l-.1.1h-.2l-.1.1H184.6v.1H184.2v.1H184v.1h-.2l-.1.1h-.1l-.1.1h-.1l-.1.1h-.2l-.1.1h-.1v.1h-.2v.1h-.2v.1h-.1l-.1.1h-.1l-.1.1h-.1v.1h-.1l-33 20.4h-.1l-.1.1h-.1l-.1.1-.1.1h-.1v.1h-.1l-.2.1v.1h-.1v.1h-.2v.1h-.1v.1h-.1l-.1.1h-.1v.1h-.1l-.1.1-.1.1-.1.1-.1.1h-.1l-.1.1-.1.1-.1.1-.1.1-.1.1h-.1v.1h-.1v.1h-.1v.1h-.1v.1h-.1v.1h-.1v.1h-.1v.1h-.1v.1h-.1v.1h-.1v.1l-.1.1-.1.1-.1.1-.1.1-.1.1-.1.1v.1h-.1v.1h-.1v.1l-.1.1-.1.1v.1h-.1v.1h-.1v.1h-.1v.2h-.1v.1h-.1v.1l-.1.1v.1h-.1v.1h-.1v.2h-.1v.1l-.1.1v.1h-.1v.1l-.1.1v.1h-.1v.1l-.1.1v.1l-.1.1v.1h-.1v.2h-.1v.1l-.1.1v.1h-.1v.2h-.1v.2h-.1v.2l-.1.1v.1l-.1.1v.1l-.1.1v.2l-.1.1v.1l-.1.1v.2h-.1v.2h-.1v.2l-.1.1V41.4h-.1V41.8h-.1v.2l-.1.1V42.3h-.1V42.7l-.1.1V43l-.1.1v.4h-.1v.5h-.1v.5h-.1v.6h-.1V46l-.1.2V90.8l.1.1v.5l.1.1v.4h.1v.4h.1V92.7l.1.1V93h.1V93.4l.1.1v.2h.1V94h.1v.2h.1V94.5h.1v.2h.1v.2l.1.1v.1l.1.1v.1l.1.1v.1h.1v.2h.1v.2h.1v.1l.1.1v.1h.1v.2h.1v.2h.1v.1h.1v.1l.1.1v.1h.1v.1l.1.1v.1h.1v.1l.1.1v.1h.1v.1l.1.1.1.1.1.1v.1h.1v.1h.1v.1l.1.1.1.1.1.1.1.1v.1h.1l.1.1v.1h.1l.1.1v.1h.1v.1h.1l.1.1v.1h.1l.1.1.1.1h.1v.1h.1v.1h.1v.1h.1v.1h.1l.1.1h.1v.1h.1v.1h.1v.1h.1l.1.1h.1v.1h.1l.1.1h.1v.1h.1l.1.1h.1v.1h.1l.1.1h.1v.1h.1l.1.1 36 21 .1.1h.1l.1.1h.1v.1h.2v.1h.2v.1H184.5v.1h.2v.1h.2v.1H185.2v.1H185.5l.1.1H185.8v.1H186.2l.1.1H186.6l.1.1h.5v.1H188v.1H190.4l.1-.1h.4l.1-.1h.5v-.1H191.9l.1-.1h.2l.1-.1h.2l.1-.1h.2v-.1h.2l.1-.1h.2v-.1h.2v-.1H193.8v-.1h.2v-.1h.1l.1-.1h.1l39.8-22.2h.1v-.1h.1l.1-.1h.1v-.1h.2v-.1h.1v-.1h.1l.1-.1h.1v-.1h.1v-.1h.2v-.1h.1v-.1h.1l.1-.1.1-.1.1-.1h.1v-.1h.1v-.1h.1v-.1h.1v-.1h.1v-.1h.1v-.1h.1v-.1h.1v-.1h.1V98h.1V98h.1v-.1h.1v-.1h.1v-.1h.1v-.2h.1v-.1h.1v-.1l.1-.1V97h.1V97h.1v-.1l.1-.1v-.1h.1v-.1h.1v-.2l.1-.1v-.1h.1V96l.1-.1v-.1h.1v-.2h.1v-.2h.1v-.2h.1V95h.1v-.2h.1V94.5h.1v-.2h.1V94h.1V93.7h.1V93.4h.1V93.1l.1-.1v-.4h.1v-.5h.1V91.3l.1-.1V41.7l-.1-.1v-.4l-.1-.1V40.8l-.1-.1V40.5l-.1-.1V40h-.1v-.2h-.1V39.5l-.1-.1v-.2h-.1v-.1l-.1-.2v-.1h-.1v-.2h-.1v-.1l-.1-.2-.1-.1v-.1l-.1-.1-.1-.2-.1-.1-.1-.1v-.1l-.1-.2h-.1v-.2h-.1l-.1-.2h-.1l-.1-.2h-.1v-.2h-.1l-.1-.1v-.1h-.2v-.1l-.1-.2h-.1l-.1-.1-.1-.1-.1-.1-.1-.1-.1-.1h-.1v-.1l-.1-.1h-.1v-.1h-.1l-.1-.1-.1-.1h-.1V35h-.2v-.1l-.2-.1-.1-.1h-.1v-.1h-.1l-.1-.1h-.1v-.1l-39-22.9h-.1v-.1h-.1l-.1-.1h-.1l-.1-.1h-.1l-.1-.1h-.1l-.1-.1h-.1l-.1-.1h-.1l-.1-.1h-.1l-.1-.1h-.2v-.1h-.2l-.1-.1h-.2v-.1h-.2l-.1-.1H192.9v-.1H192.5V10h-.4V10h-.4l-.1-.1h-.4l-.1-.1h-.6v-.1h-1.7z" fill="#0083C0"/><path d="M162.7 34h14.5v38.5c0 6.2.1 10.1.5 12 .5 2.8 1.6 4.8 3.8 6.6 2.2 1.8 4.7 2.3 8.5 2.3 3.9 0 5.1-.6 7.1-2.3a9 9 0 0 0 3.5-5.7c.4-2.4 1-6.4 1-12V34h14.6v37.3c0 8.5-.4 14.5-1.1 18-.8 3.6-2.1 6.5-4 9-2 2.4-4.7 4.3-8 5.8a32.7 32.7 0 0 1-12.9 2.1c-6.4 0-11.3-.8-14.6-2.3A21 21 0 0 1 164 90c-.9-4-1.4-10-1.4-18V34z" fill="#FFF" fill-rule="nonzero"/><path d="M376 84.5v-42c0-5.4-3-10.4-7.6-13.1L329.4 7a18 18 0 0 0-18.3.2l-32.9 19.8a23 23 0 0 0-11.1 19.7v41c0 6.8 3.6 13.1 9.5 16.6l35.9 21a15.6 15.6 0 0 0 15.5.1l39.8-22.1a16 16 0 0 0 8.2-14v-5z" fill="#33BA91"/><path d="M320.5.1H322.2v.1H323.2v.1h.6l.1.1h.4l.2.1h.4l.1.1H325.3l.2.1H325.9l.1.1H326.2l.1.1H326.7V1H327l.1.1h.2l.1.1H327.6v.1h.2l.2.1h.2v.1h.2l.1.1h.2v.1h.2l.1.1h.2V2h.2l.1.1h.2v.1h.2v.1h.2v.1h.2l.1.1h.1v.1H330.9v.1h.1l.1.1h.1v.1h.2V3h.2V3h.1l.2.1 39 22.3.1.1h.1v.1h.2l.1.1.1.1h.1v.1h.2v.1h.1l.1.1h.1v.1h.1l.1.1h.1v.1h.1l.1.1h.1v.1h.1l.1.1.1.1h.1v.1h.1l.1.1.1.1h.1v.1h.1v.1l.1.1h.1l.1.1.2.2.2.2h.1v.1h.1v.1l.2.1v.1l.2.1.1.1.1.2h.1l.2.2v.1l.2.1v.2h.2l.1.2.1.1.1.1.1.2h.1v.1l.1.1.1.1.1.2h.1v.1l.1.1.1.1.1.2.1.1.1.1v.2h.1v.1l.2.1v.2l.1.1.1.1.1.2.1.1v.2h.1v.1l.2.1v.2l.1.1.1.2v.1l.1.1.1.2.1.1v.2l.1.1.1.2v.1l.1.1.1.2v.1l.1.2.1.1v.2l.1.1v.2l.1.1.1.2v.1l.1.2v.1l.1.2v.1l.1.2v.1l.1.2v.2l.1.1V37.5h.1V37.8l.1.2V38.3l.1.2V38.8l.1.2v.4h.1v.7h.1v.9h.1V91.9l-.1.1v.7l-.1.1v.5h-.1v.5l-.1.1V94.2l-.1.1v.4h-.1V95l-.1.1V95.4h-.1V95.7l-.1.1v.2l-.1.1v.2l-.1.1v.2h-.1V96.9h-.1V97.1h-.1v.2h-.1v.2l-.1.1v.1l-.1.2v.1h-.1v.2l-.1.1v.1h-.1v.2l-.1.1v.2h-.1v.1h-.1v.2h-.1v.1l-.1.1v.2h-.1v.1l-.1.1-.1.2v.1h-.1v.1l-.1.1v.1h-.1v.1l-.1.1v.1h-.1v.2h-.1v.1l-.1.1-.1.1v.1h-.1v.1l-.1.1v.1h-.1v.1h-.1v.1l-.1.1v.1h-.1v.1l-.1.1-.1.1v.1h-.1v.1l-.1.1h-.1v.1h-.1v.1l-.1.1v.1h-.1v.1h-.1l-.1.1v.1h-.1v.1h-.1v.1h-.1v.1h-.1v.1l-.1.1-.1.1h-.1v.1l-.1.1h-.1v.1h-.1v.1l-.1.1h-.1v.1h-.1v.1l-.2.1v.1h-.1l-.1.1-.1.1-.1.1-.1.1h-.1v.1h-.1l-.1.1-.1.1h-.1v.1h-.1v.1h-.1v.1h-.1l-.1.1-.1.1h-.1v.1h-.1l-.1.1-.2.1v.1h-.1l-.1.1h-.1v.1h-.2v.1h-.1v.1h-.2v.1h-.2v.1h-.1v.1h-.2v.1h-.1v.1h-.2v.1h-.1l-39.9 22.2-.1.1h-.2v.1h-.1v.1h-.2v.1h-.1l-.1.1h-.2v.1h-.2l-.1.1h-.2v.1h-.1l-.2.1h-.1v.1h-.2l-.1.1h-.1l-.1.1h-.2v.1H327.4v.1h-.2l-.1.1H326.9v.1h-.2l-.2.1h-.2l-.2.1h-.1l-.2.1H325.5l-.2.1h-.1l-.2.1H324.7l-.2.1h-.4l-.2.1h-.5l-.1.1h-.7l-.2.1H321l-.2.1H318.5l-.1-.1h-.7l-.2-.1h-.4l-.2-.1H316.6l-.2-.1H316l-.2-.1H315.6l-.1-.1h-.2l-.2-.1h-.1l-.2-.1H314.5v-.1H314.2v-.1h-.2l-.1-.1H313.6v-.1h-.1l-.2-.1h-.2v-.1h-.2l-.1-.1h-.1l-.1-.1h-.1l-.1-.1h-.2v-.1h-.2l-.1-.1h-.2v-.1h-.2v-.1h-.1l-.1-.1h-.2v-.1h-.1l-.2-.1-.1-.1h-.1l-.1-.1h-.1v-.1h-.1l-36-21-.1-.1h-.1v-.1h-.1l-.2-.1-.1-.1h-.1l-.1-.1-.2-.1-.1-.1-.1-.1h-.1v-.1h-.2v-.1h-.1l-.1-.1v-.1h-.2v-.1h-.1v-.1h-.1l-.1-.1-.1-.1h-.1v-.1h-.2v-.1l-.1-.1h-.1v-.1h-.1v-.1h-.1l-.1-.1-.1-.1-.1-.1h-.1v-.1l-.1-.1h-.1v-.1h-.1v-.1h-.1l-.1-.1-.2-.2h-.1v-.2h-.2v-.1l-.2-.1-.1-.2h-.1l-.1-.2h-.1v-.1h-.1v-.1l-.1-.1h-.1v-.1l-.1-.1h-.1v-.2h-.1l-.1-.1-.1-.1-.1-.1-.1-.2h-.1v-.1h-.1v-.1l-.1-.1h-.1v-.1l-.1-.1v-.1h-.1v-.1h-.1v-.1l-.1-.1v-.1h-.1l-.1-.1v-.1l-.1-.1-.1-.2h-.1v-.1h-.1v-.1l-.1-.1v-.1l-.1-.1-.1-.2-.1-.1-.1-.1-.1-.2-.1-.1v-.1h-.1v-.2h-.1v-.1l-.1-.1v-.1h-.1v-.2h-.1v-.1l-.1-.1v-.1h-.1v-.2l-.1-.1v-.1h-.1V99l-.1-.2-.1-.1v-.2h-.1v-.2h-.1v-.1l-.1-.1V98h-.1v-.2h-.1v-.2l-.1-.1v-.1l-.1-.1v-.1l-.1-.2v-.2h-.1v-.2h-.1v-.2h-.1V96h-.1v-.2l-.1-.1v-.2l-.1-.1V95.2h-.1V95l-.1-.1v-.2l-.1-.1V94.3l-.1-.1V94l-.1-.2v-.2l-.1-.2V93l-.1-.1V92.7l-.1-.1v-.4l-.1-.1v-.5h-.1v-.8h-.1V90l-.1-.2V43.7l.1-.2V43l.1-.2v-.5l.1-.1v-.5h.1v-.5l.1-.1V40.8l.1-.1V40.4l.1-.2V39.8l.1-.1v-.2l.1-.1v-.2l.1-.1v-.4h.1v-.2l.1-.2v-.2l.1-.1v-.2h.1v-.2l.1-.1v-.2l.1-.1V37h.1V36.7h.1v-.2l.1-.2.1-.2.1-.2v-.2h.1v-.2h.1v-.2h.1v-.2h.1V35l.1-.2.1-.2.1-.2.1-.2.1-.2.1-.2.1-.1v-.1l.1-.1v-.1h.1v-.1l.1-.1V33l.1-.1v-.1l.1-.1v-.1l.1-.1v-.1h.1l.1-.2.1-.2.1-.1v-.1l.1-.1.1-.1v-.1l.1-.1v-.1h.2V31h.1l.1-.2.1-.1v-.1h.1v-.1l.1-.1.2-.2V30h.1l.1-.1v-.1l.2-.1v-.2h.2v-.1l.1-.1v-.1l.1-.1h.1V29l.2-.2.1-.1v-.1h.1v-.1h.1v-.2h.1l.1-.1.1-.1.2-.2.1-.1v-.1h.1l.2-.2.1-.1v-.1h.2v-.2h.1l.1-.1V27h.2v-.2h.1l.1-.1.2-.2.1-.1h.1l.1-.2.2-.1.1-.1.1-.1h.1v-.1l.2-.1v-.1h.1l.1-.2h.2v-.1l.2-.1V25h.2V25l.1-.1h.1l.1-.1.1-.1.2-.1v-.1h.2v-.1l.1-.1h.1l.1-.1.1-.1h.1l.1-.1v-.1h.1l.2-.1.2-.1v-.1h.2v-.1h.1l.1-.1.1-.1h.1l.1-.1h.1l33-19.8.1-.1h.1v-.1h.2V3h.2V3h.1l.2-.1.1-.1h.1v-.1H310.3v-.1h.1l.1-.1h.1v-.1h.2l.1-.1h.2v-.1h.2V2h.2l.1-.1h.1l.1-.1h.2v-.1h.2l.1-.1h.2l.1-.1h.1l.2-.1h.1l.1-.1H313.3v-.1h.2l.1-.1H314l.1-.1h.2V1h.4V.8h.4l.1-.1H315.4V.6h.4l.1-.1h.5V.4h.5l.1-.1h.8l.2-.1H319.2l.2-.1h1.2zm-.1 9.3H318.7l-.1.1h-.5l-.1.1h-.4l-.1.1H317.2v.1h-.4v.1H316.5l-.1.1H316.2v.1h-.2l-.1.1h-.2v.1H315.3v.1h-.2l-.1.1h-.1l-.1.1h-.1l-.1.1h-.1l-.1.1h-.1l-.1.1h-.1l-.1.1h-.1l-.1.1h-.1v.1h-.2v.1h-.1l-33 19.8-.1.1h-.2v.1l-.1.1h-.1l-.1.1-.2.1-.1.1h-.1v.1h-.1v.1h-.1l-.1.1h-.1v.1h-.2v.1l-.1.1-.1.1h-.1v.1h-.1l-.1.1h-.1v.1h-.1v.1h-.1v.1h-.1v.1h-.1l-.1.1-.1.1-.1.1-.1.1-.1.1-.1.1h-.1v.1h-.1v.1h-.1v.1h-.1v.1l-.1.1-.1.1-.1.1-.1.1-.1.1-.1.1v.1h-.1v.1l-.1.1-.1.1-.1.1-.1.2h-.1v.1h-.1v.1h-.1v.2h-.1v.1h-.1v.1l-.1.1-.1.1v.1l-.1.1-.1.1v.1l-.1.1-.1.1-.1.1v.1l-.1.1v.1h-.1v.1l-.1.1v.1l-.1.1-.1.2-.1.1v.1l-.1.1v.1l-.1.1v.1l-.1.1v.2h-.1v.2h-.1v.2h-.1v.1l-.1.1v.2h-.1v.2h-.1v.2l-.1.2-.1.2v.1l-.1.1v.2l-.1.1v.2h-.1v.4h-.1v.2l-.1.1V42h-.1v.4l-.1.1v.2l-.1.2v.4h-.1v.5h-.1v.7h-.1v.9l-.1.1V89.9l.1.1v.6l.1.1v.4h.1v.4h.1V91.8l.1.1V92.2h.1V92.5l.1.1v.2h.1V93h.1v.2l.1.1v.1l.1.1v.2h.1v.2h.1v.2l.1.1v.1l.1.1v.1l.1.1v.1h.1v.2h.1v.1l.1.1v.1l.1.1v.1h.1v.1l.1.1v.1h.1v.1l.1.1v.1h.1v.1l.1.1v.1h.1v.1l.1.1v.1h.1v.1l.1.1.1.1.1.1v.1h.1v.1l.1.1h.1v.1l.1.1.1.1v.1h.1l.1.1v.1h.1v.1h.1v.1h.1v.1h.1v.1h.1v.1h.1v.1h.1l.1.1.1.1.1.1h.1v.1h.1v.1h.1v.1h.1l.1.1.1.1h.1v.1h.1v.1h.1l.1.1.1.1h.1v.1h.1l.1.1h.1v.1h.1l.1.1h.1v.1h.2v.1h.1l.1.1 36 21 .1.1h.1l.1.1h.1v.1h.2v.1h.2v.1H316v.1h.2v.1H316.5v.1h.2v.1h.4v.1h.2l.1.1h.4v.1h.4v.1h.6l.1.1h1l.1.1h1.8l.2-.1h.5v-.1h.4l.1-.1h.2l.2-.1h.2l.1-.1H324v-.1h.2v-.1H324.5v-.1h.2v-.1H325v-.1h.2v-.1h.2v-.1h.1l.1-.1h.1l39.8-22.2h.1v-.1h.2v-.1h.1l.1-.1h.1V99h.1l.1-.1h.1v-.1h.1l.1-.1h.1v-.1h.1l.1-.1.1-.1h.1v-.1h.1v-.1h.1V98h.1V98h.1l.1-.1.1-.1h.1v-.1h.1v-.1h.1v-.1h.1v-.1h.1v-.1h.1v-.1l.1-.1.1-.1.1-.1.1-.1v-.1h.1v-.1h.1v-.1h.1v-.2h.1v-.1h.1V96l.1-.1v-.1h.1v-.1l.1-.1v-.1h.1v-.1l.1-.1v-.1h.1V95h.1v-.2h.1v-.1l.1-.1v-.1l.1-.1v-.2h.1V94l.1-.1v-.1l.1-.1v-.2h.1V93.2h.1V93l.1-.1v-.2l.1-.1V92.3h.1V92l.1-.1v-.4h.1v-.6l.1-.1V40.6l-.1-.1v-.4l-.1-.1v-.2l-.1-.2v-.2l-.1-.1v-.2l-.1-.1V39l-.1-.2v-.2h-.1v-.2l-.1-.1v-.1l-.1-.2-.1-.1v-.2h-.1v-.1h-.1v-.2l-.1-.1-.1-.2-.1-.1v-.1l-.1-.1-.1-.2-.1-.1-.1-.1v-.1h-.1v-.1l-.1-.1h-.1V36l-.1-.1-.1-.1v-.1h-.1v-.1l-.1-.1h-.1v-.1h-.1v-.2h-.2V35l-.1-.1-.1-.1h-.1v-.1h-.1l-.1-.2h-.1l-.1-.1-.1-.1h-.1v-.1h-.1v-.1h-.1V34h-.1l-.1-.1h-.1v-.1h-.1l-.1-.1h-.1v-.1h-.2v-.1h-.1l-.1-.1h-.1L327 11h-.1l-.1-.1h-.1l-.1-.1h-.1l-.1-.1h-.1l-.1-.1h-.1l-.1-.1h-.1l-.1-.1h-.2v-.1h-.2v-.1h-.2l-.1-.1H324.8V10H324.4V10H324.1l-.1-.1H323.7v-.1H323.4l-.1-.1h-.4l-.1-.1h-.5l-.1-.1H321.4v-.1h-1.2z" fill="#00A88A"/><path d="M355.6 65.5c0 16.2-3 21-9.2 27.7-6.1 6.7-14.3 9.4-24.4 9.4a36.6 36.6 0 0 1-35.6-36c0-10.8 4-20.1 11.2-27 6.2-6 15.5-10 25.1-10 11.6 0 23.6 5.5 31 16.3L343 55c-4.6-8.6-11.3-11.5-20.9-11.8a22 22 0 0 0-21.3 23.3c.4 7.5 4 20.4 20.9 22.8 8.9 1.2 19-8.3 19-13.4h-16.7V63.1h31.7v2.4z" fill="#FFF" fill-rule="nonzero"/><path d="M507.4 84.7v-42c0-5.4-3-10.4-7.6-13l-39-22.4a18 18 0 0 0-18.3.2l-32.9 19.8A23 23 0 0 0 398.5 47v41c0 6.8 3.6 13.2 9.5 16.6l35.9 21a15.6 15.6 0 0 0 15.5.2l39.8-22.2a16 16 0 0 0 8.2-14v-4.9z" fill="#EBB951"/><path d="M451.9.3H453.6l.1.1h1l.1.1H455.4l.1.1h.5l.2.1H456.6l.1.1h.4l.1.1H457.5l.1.1H457.9l.1.1H458.2v.1H458.6l.1.1h.2l.1.1h.1l.2.1h.2l.1.1h.2v.1h.2l.1.1h.2l.1.1h.1l.2.1.1.1h.2l.1.1h.2v.1h.1l.1.1h.2v.1h.2v.1h.1l.1.1h.2v.1h.2V3h.1l.1.1h.1v.1h.2v.1h.1l39 22.3h.1v.1h.1l.1.1h.1l.1.1.2.1v.1h.2l.1.1.1.1h.1v.1h.1l.1.1.1.1h.1v.1h.1l.1.1h.1v.1h.1l.1.1h.1v.1h.1v.1h.1l.1.1.1.1h.1v.1h.1v.1l.1.1.2.1v.1h.1l.1.1.1.1.1.1.2.1v.2h.2l.1.2.1.1.2.1v.1l.2.2h.1l.1.2.1.1.1.1.1.1.1.2h.1v.1l.1.1.1.1.1.2h.2v.2l.2.1v.2h.1v.1l.1.1.1.1.1.2.1.1.1.1v.2h.1v.1l.2.1v.2l.1.1.1.2h.1v.2h.1v.2l.2.1v.2h.1v.2l.2.2v.1l.1.2v.1l.2.2v.2h.1v.2l.1.1v.2h.1v.1l.1.2v.1l.1.2v.1h.1v.2l.1.1v.2l.1.1v.2l.1.1v.2l.1.1v.2l.1.1v.2l.1.1v.4l.1.1v.2l.1.1V38.5l.1.2V39l.1.2v.4l.1.2v.6h.1V41.5h.1V91.9h-.1v.8h-.1V93.3h-.1v.4l-.1.2V94.1l-.1.2V94.7h-.1V95l-.1.1V95.4h-.1v.2l-.1.2v.2h-.1V96.3l-.1.1v.1l-.1.2v.1h-.1V97l-.1.1v.1l-.1.2v.1h-.1v.2l-.1.1v.1l-.1.2v.1h-.1v.2l-.1.1v.1h-.1v.2l-.1.1v.2h-.1v.1h-.1v.2l-.1.1-.1.1v.2h-.1v.1l-.1.1v.1h-.1v.2h-.1v.2h-.1v.1h-.1v.1l-.1.1-.1.1v.1l-.1.1v.1l-.1.1-.1.1v.1h-.1v.1l-.1.1-.1.2h-.1v.2h-.1v.1h-.1v.1l-.1.1-.1.1v.1h-.1l-.1.1v.1h-.1v.1h-.1v.1l-.1.1-.1.1v.1h-.1l-.1.1v.1h-.1v.1h-.1v.1h-.1v.1h-.1v.1l-.1.1-.1.1h-.1v.1l-.1.1h-.1v.1h-.1v.1l-.1.1h-.1v.1h-.1l-.1.1v.1h-.1v.1h-.1l-.1.1-.1.1-.1.1-.1.1h-.1v.1h-.1l-.1.1-.1.1-.1.1-.1.1h-.1v.1h-.1l-.1.1-.1.1h-.1v.1h-.2v.1h-.1v.1h-.1l-.1.1-.2.1-.1.1-.1.1h-.1v.1h-.1l-.1.1h-.1v.1h-.2l-.1.1-.2.1-.1.1h-.2v.1h-.1l-39.8 22.2-.1.1h-.1l-.1.1h-.1l-.1.1h-.1l-.1.1h-.1l-.1.1h-.2v.1h-.2v.1h-.1l-.2.1h-.1v.1H459.4v.1H459.2v.1h-.1l-.2.1h-.1v.1H458.4v.1H458.1v.1h-.2l-.1.1h-.2l-.2.1H457.2v.1H457l-.1.1h-.4v.1H456.1l-.1.1H455.7l-.2.1h-.5l-.1.1h-.5l-.2.1h-.6l-.2.1H449l-.1-.1h-.5l-.2-.1h-.5v-.1H447.4l-.1-.1h-.4l-.1-.1H446.5l-.2-.1h-.1l-.2-.1h-.2l-.1-.1h-.2l-.1-.1h-.2v-.1H444.8v-.1H444.5v-.1h-.2l-.1-.1h-.1l-.2-.1h-.2v-.1h-.2l-.1-.1h-.2v-.1h-.1l-.2-.1-.1-.1h-.2v-.1h-.1l-.2-.1-.1-.1h-.2v-.1h-.1v-.1h-.2v-.1h-.1l-.1-.1h-.1l-36-21v-.1h-.2v-.1h-.1l-.1-.1h-.1l-.1-.1h-.1v-.1h-.2v-.1l-.1-.1h-.1v-.1h-.1l-.1-.1h-.1l-.1-.1h-.1v-.1l-.2-.1-.1-.1h-.1v-.1h-.2v-.1l-.1-.1-.2-.1-.1-.1v-.1h-.1l-.1-.1h-.1l-.1-.1v-.1h-.1l-.1-.1h-.1v-.1l-.1-.1h-.1v-.1h-.1v-.1h-.1l-.1-.1v-.1h-.2v-.1h-.1v-.1l-.1-.1h-.1v-.1l-.2-.1v-.1h-.1v-.1l-.1-.1h-.1v-.1l-.1-.1h-.1v-.1l-.1-.1h-.1v-.2h-.1l-.1-.1-.1-.1-.1-.1-.1-.2h-.1v-.1h-.1v-.1l-.2-.1v-.1l-.1-.1-.1-.1v-.1h-.1v-.1l-.1-.1h-.1v-.2h-.1v-.1h-.1v-.1h-.1v-.1l-.1-.1v-.1h-.1v-.1l-.1-.1v-.1h-.1l-.1-.2-.1-.1v-.1h-.1v-.2h-.1v-.1l-.1-.1-.1-.2h-.1v-.1l-.1-.1-.1-.2-.1-.1v-.1h-.1v-.2h-.1v-.1l-.1-.1v-.2h-.1v-.1l-.1-.1v-.1h-.1v-.2h-.1v-.1l-.1-.1v-.2h-.1v-.2h-.1v-.1l-.1-.1v-.2h-.1V98h-.1v-.2l-.1-.1v-.1l-.1-.1v-.2h-.1v-.1l-.1-.1V97l-.1-.1v-.1l-.1-.2v-.2h-.1v-.2l-.1-.1v-.2l-.1-.1v-.1l-.1-.2v-.2l-.1-.1V95l-.1-.1V94.6l-.1-.1V94.1h-.1V94l-.1-.1v-.4l-.1-.1V93l-.1-.1V92.6l-.1-.2V92l-.1-.1v-.6l-.1-.1v-.7h-.1v-1.2h-.1V44.4l.1-.2v-.8h.1v-.6l.1-.1V42.2h.1v-.5l.1-.1v-.4h.1v-.4l.1-.1V40.4l.1-.1v-.4h.1V39.5l.1-.1v-.2l.1-.1V39l.1-.1V38.6h.1v-.2l.1-.2V38h.1V37.6l.1-.1v-.2h.1v-.2l.1-.1v-.2l.1-.1v-.1l.1-.1v-.2h.1V36h.1v-.2h.1v-.2h.1v-.2l.1-.2.1-.2.1-.2.1-.2.1-.2.1-.1v-.1l.1-.1V34l.1-.1v-.1l.1-.1v-.1l.1-.1v-.1l.1-.1.1-.1v-.1l.1-.1V33h.1v-.1l.1-.2.1-.2h.1v-.2h.1v-.1l.1-.1V32l.1-.1.1-.1v-.1l.1-.1v-.1h.1v-.1h.1v-.2h.1l.1-.1V31l.1-.1.1-.1v-.1l.1-.1h.1v-.2h.1v-.1h.1v-.1l.1-.1.1-.1v-.1h.1l.1-.2.1-.1.1-.1v-.1l.2-.1v-.1h.1V29h.1l.1-.1v-.1l.2-.1.1-.2.1-.1.1-.1.1-.1.1-.2h.1l.1-.1v-.1h.1l.1-.2h.1v-.1l.2-.1.1-.2h.1V27h.2V27l.1-.1.1-.1v-.1h.2v-.2h.1l.1-.1h.1v-.1l.2-.1V26h.1l.1-.1.1-.1.1-.1.2-.1v-.1h.1l.1-.1.1-.1.1-.1.2-.1V25h.1l.1-.1.1-.1h.1l.1-.1v-.1h.1l.2-.1v-.1h.2v-.1l.1-.1h.1l.1-.1.1-.1h.1l.1-.1h.1v-.1h.1v-.1h.2v-.1h.2v-.1l.2-.1.2-.1.1-.1 33-19.8h.1v-.1h.2v-.1h.2v-.1h.1l.1-.1.2-.1.1-.1h.2v-.1h.1l.2-.1.1-.1h.2v-.1h.2v-.1h.2l.1-.1h.1v-.1h.2l.1-.1h.2l.1-.1h.1v-.1h.2l.1-.1h.2l.1-.1h.1l.2-.1h.2l.1-.1h.2l.1-.1h.1l.2-.1h.2l.1-.1H445.5V1H445.9l.1-.1H446.3l.1-.1h.4V.7h.4l.1-.1h.4V.5h.6l.1-.1h.6l.2-.1H450.3V.2h1.7zm-.1 9.3H450v.1h-.6l-.1.1h-.4l-.1.1H448.4l-.1.1H448v.1H447.7l-.1.1h-.2l-.1.1h-.2v.1H446.8v.1h-.2l-.1.1h-.2v.1h-.2v.1h-.2v.1h-.2v.1h-.2v.1h-.2v.1h-.1l-.1.1h-.1l-.1.1h-.1l-33 19.8-.1.1h-.1v.1h-.2v.1h-.1v.1h-.2v.1h-.1l-.1.1-.1.1-.2.1-.1.1-.2.1v.1h-.2v.1h-.1v.1h-.1l-.1.1-.1.1-.1.1-.1.1h-.1l-.1.1-.1.1-.1.1-.1.1h-.1v.1h-.1v.1h-.1v.1h-.1v.1h-.1v.1l-.1.1-.1.1h-.1v.1h-.1v.1h-.1v.1h-.1v.1h-.1v.1l-.1.1-.1.1-.1.1-.1.1-.1.1v.1l-.1.1-.1.1-.1.1-.1.1v.1h-.1v.1h-.1v.1l-.1.1v.1h-.1v.1h-.1v.2h-.1v.1h-.1v.1l-.1.1v.1h-.1v.1l-.1.1v.1h-.1v.2h-.1v.1l-.1.1-.1.1v.2h-.1v.1l-.1.1v.1l-.1.1-.1.1v.2h-.1v.2h-.1v.1l-.1.1v.2h-.1v.2h-.1v.2h-.1v.2h-.1v.2l-.1.1v.2l-.1.1v.2h-.1v.2l-.1.1v.2h-.1v.4h-.1v.2l-.1.1v.2l-.1.2v.2l-.1.1V42.7l-.1.1v.4h-.1v.5h-.1v.6h-.1V45h-.1V46.5l-.1.1V89.7h.1v.6l.1.1v.4l.1.1v.5h.1v.4h.1v.2l.1.1V92.3h.1V92.7l.1.1v.1l.1.1v.2l.1.1v.2l.1.1v.1l.1.1v.1l.1.1v.1l.1.1v.1l.1.1v.2h.1v.2h.1v.1l.1.1v.1l.1.1v.1h.1v.2h.1v.1l.1.1v.1h.1v.1l.1.1v.1h.1v.1l.1.1v.1h.1v.1l.1.1v.1h.1v.1h.1v.1l.1.1.1.1v.1h.1v.1h.1v.1h.1v.1l.1.1v.1h.1l.1.1v.1h.1v.1h.1v.1h.1v.1h.1v.1h.1v.1h.1v.1h.1v.1h.1v.1h.1v.1h.1l.1.1.1.1.1.1h.1v.1h.1v.1h.1l.1.1h.1v.1l.1.1h.1v.1h.1l.1.1h.1v.1h.1l.1.1h.1v.1h.1l.1.1h.1v.1h.1l.1.1h.1l.1.1h.1v.1l36 21h.1v.1h.2v.1h.1l.1.1h.1l.1.1h.2v.1h.2v.1h.2l.1.1h.2v.1h.2l.1.1H448.5v.1H448.8l.1.1H449.2l.1.1H449.5l.2.1h.5v.1H453.8l.1-.1H454.1l.1-.1H454.5l.2-.1h.2v-.1H455.3v-.1H455.6v-.1H455.9v-.1h.2v-.1h.2l.1-.1h.1l.1-.1h.1l.1-.1h.1l.1-.1h.1L497 99.4h.1v-.1h.2v-.1h.1l.1-.1h.1V99h.1l.1-.1.1-.1h.1v-.1h.1l.1-.1h.1v-.1h.1v-.1h.1l.1-.1.1-.1h.1v-.1h.1V98h.1V98h.1v-.1h.1v-.1h.1l.1-.1.1-.1.1-.1.1-.1.1-.1v-.1h.1V97h.1V97h.1v-.1h.1v-.2h.1v-.1h.1v-.1h.1v-.2h.1v-.1h.1V96l.1-.1v-.1h.1v-.1l.1-.1v-.1h.1v-.1l.1-.1v-.1h.1V95h.1v-.2h.1v-.2h.1v-.2h.1v-.2h.1V94l.1-.1v-.2h.1v-.2l.1-.1v-.2h.1V93l.1-.1V92.5h.1v-.4h.1v-.5h.1V91l.1-.1V40.9l-.1-.2V40.4h-.1V40l-.1-.1v-.2l-.1-.1v-.2l-.1-.2V39l-.1-.1v-.2h-.1v-.1l-.1-.2v-.1l-.1-.1V38h-.1V38l-.1-.1v-.1l-.1-.1v-.1h-.1v-.2h-.1v-.2h-.1V37h-.1v-.2h-.1v-.1h-.1v-.1l-.1-.1-.1-.1v-.1h-.1v-.2h-.1l-.1-.2h-.1v-.2h-.2v-.2h-.1l-.1-.1v-.1h-.2v-.1l-.1-.1-.1-.1-.1-.1h-.1v-.1h-.1v-.1l-.2-.1-.1-.1-.1-.1h-.1v-.1h-.1v-.1h-.1l-.1-.1h-.1V34h-.1V34h-.2v-.1h-.1v-.1h-.2v-.1h-.1l-.1-.1-38.9-22.2-.1-.1h-.1l-.1-.1h-.1l-.1-.1h-.1l-.1-.1h-.1l-.1-.1h-.1l-.1-.1h-.2v-.1h-.2l-.1-.1h-.2v-.1H456.3v-.1H456v-.1H455.7v-.1h-.4V10H455l-.1-.1h-.4v-.1h-.5l-.1-.1h-.7l-.1-.1h-1.4v-.1z" fill="#FCD804"/><path d="M453 29.6a36.5 36.5 0 1 1-.1 73 36.5 36.5 0 0 1 0-73zm0 13.5a23 23 0 1 1 0 46 23 23 0 0 1 0-46z" fill="#FFF"/></g></svg>