<svg enable-background="new 0 0 1500 410" height="410" viewBox="0 0 1500 410" width="1500" xmlns="http://www.w3.org/2000/svg"><path d="m335.1 261.9v-122.3c0-15.9-8.4-30.6-22.1-38.7-29.4-17.3-81.4-47.8-113.2-66.5-16.8-9.9-37.7-9.6-54.3.6-28.2 17.4-72.1 44.5-100.5 62-17.1 10.6-27.5 29.2-27.5 49.3v125.2c0 19.9 10.6 38.4 27.8 48.4l104.7 61.2c13.9 8.1 31.1 8.3 45.2.5 30.6-17 84.7-47.2 115.9-64.6 14.8-8.2 24-23.9 24-40.8z" fill="#ff4088" stroke="#c9177e" stroke-miterlimit="10" stroke-width="25"/><path d="m715.9 259.2v-122.6c0-15.6-8.3-30.1-21.8-38l-113.5-66.8c-16.8-9.9-37.7-9.6-54.3.6l-96.1 59.3c-19.8 12.2-31.9 33.8-31.9 57.1v120.1c0 19.9 10.6 38.4 27.8 48.4l104.7 61.2c13.9 8.1 31.1 8.3 45.2.5l115.9-64.6c14.8-8.2 24-23.9 24-40.8z" fill="#0594cb" stroke="#0083c0" stroke-miterlimit="10" stroke-width="25"/><path d="m96.9 309.9v-207.2h43.4v75.5h71.9v-75.5h43.5v207.2h-43.5v-90.6h-71.9v90.6z" fill="#fff"/><path d="m477.3 109.4h42.3v112.2c0 17.8.5 29.3 1.5 34.6 1.7 8.5 4.8 14.4 11.2 19.5s13.8 6.6 24.8 6.6c11.2 0 15-1.7 20.7-6.6s9.1-9.5 10.3-16.5c1.2-7.1 3.1-18.8 3.1-35.2v-114.6h42.3v108.8c0 24.9-1.1 42.4-3.2 52.7s-6.1 18.9-11.8 26-13.4 12.7-23 16.9-22.2 6.3-37.7 6.3c-18.7 0-32.9-2.3-42.5-6.9-9.7-4.6-17.3-10.5-22.9-17.8s-9.3-15-11.1-23c-2.6-11.9-3.9-29.4-3.9-52.6z" fill="#fff"/><path d="m1099.4 259.2v-122.3c0-15.8-8.5-30.5-22.2-38.3-29.6-16.9-81.9-46.8-113.7-65-16.5-9.4-36.9-9.2-53.2.6-26.5 15.9-67.5 40.5-96 57.6-20.2 12.1-32.6 34-32.6 57.5v119.5c0 19.9 10.6 38.4 27.8 48.4l104.7 61.2c13.9 8.1 31.1 8.3 45.2.5l115.9-64.6c14.8-8.2 24-23.9 24-40.8z" fill="#33ba91" stroke="#00a88a" stroke-miterlimit="10" stroke-width="25"/><path d="m1346.6 34.3c-16.5-9.4-36.9-9.2-53.2.6l-96 57.6c-20.2 12.1-32.6 34-32.6 57.5v119.5c0 19.9 10.6 38.4 27.8 48.4 29.9 17.5 77 45 104.7 61.2 13.9 8.1 31.1 8.3 45.2.5l115.9-64.6c14.8-8.2 24-23.9 24-40.8v-14.4-122.2c0-15.8-8.5-30.5-22.2-38.3z" fill="#ebb951" stroke="#fcd804" stroke-miterlimit="10" stroke-width="25"/><g fill="#fff"><path d="m1039.9 204c0 47.2-8.9 60.9-26.8 80.6-17.9 19.6-41.6 27.6-71.1 27.6-27 0-48.8-9.6-67.6-26.2-20.9-18.4-36.1-47-36.1-78.9 0-31.4 11.7-58.5 32.5-78.7 18.2-17.7 45.3-29.2 73.3-29.2 33.8 0 68.8 16 90.4 47.5l-31.7 26.8c-13.5-25-32.9-33.5-60.8-34.3-30.8-.9-64.8 28.5-62.2 67.8 1.4 21.9 11.7 59.7 61 66.6 25.9 3.6 55.4-24 55.4-39h-48.7v-37.6h92.5z"/><path d="m1323.7 99.2c-58.8 0-106.5 47.7-106.5 106.5s47.7 106.5 106.5 106.5 106.5-47.7 106.5-106.5-47.7-106.5-106.5-106.5zm0 173.4c-37 0-66.9-30-66.9-66.9s30-66.9 66.9-66.9c36.9 0 66.9 30 66.9 66.9s-29.9 66.9-66.9 66.9z"/></g></svg>