<?xml version="1.0" encoding="UTF-8"?>
<svg width="746px" height="162px" viewBox="0 0 746 162" version="1.1" xmlns="http://www.w3.org/2000/svg" xmlns:xlink="http://www.w3.org/1999/xlink">
    <title>Group</title>
    <g id="Page-1" stroke="none" stroke-width="1" fill="none" fill-rule="evenodd">
        <g id="Group" fill="#000000" fill-rule="nonzero">
            <polygon id="Path" points="48.849 126.552 69.07 1.363 97.243 1.363 97.243 160.405 79.521 160.405 79.521 28.855 57.709 160.406 39.079 160.406 17.268 28.855 17.268 160.406 0 160.406 0 1.363 28.627 1.363"></polygon>
            <polygon id="Path" points="164.491 1.363 164.491 18.176 132.682 18.176 132.682 70.887 163.354 70.887 163.354 87.473 132.682 87.473 132.682 143.592 164.945 143.592 164.945 160.405 114.506 160.405 114.506 1.363"></polygon>
            <polygon id="Path" points="196.298 160.406 196.298 18.176 172.442 18.176 172.442 1.363 238.331 1.363 238.331 18.176 214.475 18.176 214.475 160.405 196.298 160.405"></polygon>
            <path d="M307.627,160.406 L289.678,160.406 L285.816,133.823 L256.506,133.823 L252.871,160.406 L235.376,160.406 L259.914,0.909 L283.089,0.909 L307.627,160.406 Z M258.778,117.464 L283.543,117.464 L271.274,29.536 L258.778,117.464 Z" id="Shape"></path>
            <polygon id="Path" points="338.294 1.363 338.294 143.592 368.285 143.592 368.285 160.405 320.118 160.405 320.118 1.363"></polygon>
            <path d="M442.352,109.058 L442.352,132.233 C442.352,152 432.582,161.77 412.816,161.77 L407.817,161.77 C388.277,161.77 378.735,152 378.735,132.688 L378.735,99.288 L396.457,99.288 L396.457,133.369 C396.457,141.548 400.32,145.411 408.499,145.411 L412.134,145.411 C420.313,145.411 424.176,141.549 424.176,133.369 L424.176,109.513 C424.176,101.561 421.45,98.153 416.224,94.29 L393.958,78.159 C382.144,69.752 378.735,61.573 378.735,48.622 L378.735,29.537 C378.735,9.77 388.505,0 408.272,0 L412.816,0 C432.356,0 441.898,9.77 441.898,29.082 L441.898,57.71 L424.176,57.71 L424.176,28.4 C424.176,20.221 420.314,16.358 412.134,16.358 L408.953,16.358 C400.774,16.358 396.911,20.22 396.911,28.4 L396.911,48.394 C396.911,56.346 399.865,59.754 405.09,63.617 L427.129,79.521 C438.717,87.928 442.352,95.426 442.352,109.058 Z" id="Path"></path>
            <polygon id="Path" points="507.328 126.552 527.549 1.363 555.722 1.363 555.722 160.405 538 160.405 538 28.855 516.188 160.406 497.558 160.406 475.747 28.855 475.747 160.406 458.479 160.406 458.479 1.363 487.106 1.363"></polygon>
            <polygon id="Path" points="591.389 160.406 573.213 160.406 573.213 1.363 591.389 1.363"></polygon>
            <polygon id="Path" points="626.375 160.406 626.375 18.176 602.519 18.176 602.519 1.363 668.408 1.363 668.408 18.176 644.552 18.176 644.552 160.405 626.375 160.405"></polygon>
            <polygon id="Path" points="727.022 70.661 727.022 1.363 745.199 1.363 745.199 160.405 727.022 160.405 727.022 87.701 697.486 87.701 697.486 160.406 679.31 160.406 679.31 1.363 697.487 1.363 697.487 70.66 727.022 70.66"></polygon>
        </g>
    </g>
</svg>