<svg xmlns="http://www.w3.org/2000/svg" width="216" height="56" viewBox="0 0 216 56">
  <g fill="none" fill-rule="evenodd" transform="translate(8 8)">
    <path fill="#FFD800" d="M20,40 C8.954305,40 0,31.045695 0,20 C0,8.954305 8.954305,0 20,0 C31.045695,0 40,8.954305 40,20 C40,31.045695 31.045695,40 20,40 Z M20,21.7283951 C20.9545662,21.7283951 21.7283951,20.9545662 21.7283951,20 C21.7283951,19.0454338 20.9545662,18.2716049 20,18.2716049 C19.0454338,18.2716049 18.2716049,19.0454338 18.2716049,20 C18.2716049,20.9545662 19.0454338,21.7283951 20,21.7283951 Z"/>
    <path fill="#191919" d="M5.01078691,20.2065429 C7.10769231,20.2065429 8.46931919,19.0900088 9.422458,17.8645447 L9.422458,19.8797524 L14.5966401,19.8797524 L14.5966401,5.1469496 L9.422458,5.1469496 L9.422458,13.1260831 C9.422458,14.7328028 8.49655172,15.604244 7.27108753,15.604244 C6.0183908,15.604244 5.17418214,14.7328028 5.17418214,13.1260831 L5.17418214,5.1469496 L0,5.1469496 L0,14.7872679 C0,18.13687 1.87904509,20.2065429 5.01078691,20.2065429 Z M17.374359,24.2369584 L17.374359,5.1469496 L22.5485411,5.1469496 L22.5485411,7.10769231 C23.556145,5.88222812 24.8088417,4.82015915 27.0146773,4.82015915 C30.5276746,4.82015915 33.5504863,7.73404067 33.5504863,12.4997347 C33.5504863,17.2926614 30.5276746,20.2065429 27.0419098,20.2065429 C24.8088417,20.2065429 23.5016799,19.198939 22.5485411,18.082405 L22.5485411,24.2369584 L17.374359,24.2369584 Z M25.4351901,15.8765694 C27.1236074,15.8765694 28.4580018,14.5149425 28.4580018,12.4725022 C28.4580018,10.538992 27.1236074,9.15013263 25.4351901,9.15013263 C23.7740053,9.15013263 22.439611,10.538992 22.439611,12.5269673 C22.439611,14.48771 23.7740053,15.8765694 25.4351901,15.8765694 Z M35.8924845,19.8797524 L41.0666667,19.8797524 L41.0666667,0 L35.8924845,0 L35.8924845,19.8797524 Z M51.469496,20.2337754 C46.758267,20.2337754 43.3541998,16.7752431 43.3541998,12.5269673 C43.3541998,8.3331565 46.7854996,4.82015915 51.5239611,4.82015915 C56.2351901,4.82015915 59.6392573,8.27869142 59.6392573,12.5269673 C59.6392573,16.7207781 56.2079576,20.2337754 51.469496,20.2337754 Z M51.5239611,15.8493369 C53.4030062,15.8493369 54.6012378,14.3515473 54.6012378,12.5269673 C54.6012378,10.7296198 53.294076,9.2045977 51.469496,9.2045977 C49.5904509,9.2045977 48.3922193,10.7023873 48.3922193,12.5269673 C48.3922193,14.3243148 49.6993811,15.8493369 51.5239611,15.8493369 Z M66.0389036,20.2065429 C63.2339523,20.2065429 61.0825818,18.5998232 61.0825818,15.604244 C61.0825818,12.5541998 63.3973475,10.9747126 66.8558798,10.9747126 C68.2175066,10.9747126 69.551901,11.247038 70.3961096,11.5465959 L70.3961096,11.3015031 C70.3961096,9.77648099 69.4429708,8.90503979 67.4549956,8.90503979 C65.9027409,8.90503979 64.7045093,9.2045977 63.3973475,9.72201592 L62.3352785,6.07285588 C63.9964633,5.39204244 65.7665782,4.9290893 68.2992042,4.9290893 C70.9407604,4.9290893 72.7381079,5.55543767 73.909107,6.72643678 C75.025641,7.81573828 75.4885942,9.34076039 75.4885942,11.4104332 L75.4885942,19.8797524 L70.3688771,19.8797524 L70.3688771,18.3547303 C69.3612732,19.4712644 67.9724138,20.2065429 66.0389036,20.2065429 Z M67.8907162,16.9658709 C69.3885057,16.9658709 70.4505747,16.0127321 70.4505747,14.5421751 L70.4505747,13.8613616 C69.9331565,13.6435013 69.197878,13.4801061 68.4353669,13.4801061 C66.9375774,13.4801061 66.0661362,14.2153846 66.0661362,15.3591512 C66.0661362,16.3667551 66.8286472,16.9658709 67.8907162,16.9658709 Z M84.094076,20.2065429 C80.6083112,20.2065429 77.5854996,17.2926614 77.5854996,12.5269673 C77.5854996,7.73404067 80.5810787,4.82015915 84.0668435,4.82015915 C86.2999116,4.82015915 87.6070734,5.82776304 88.5874447,6.94429708 L88.5874447,0 L93.7616269,0 L93.7616269,19.8797524 L88.5874447,19.8797524 L88.5874447,17.9190097 C87.5798408,19.1444739 86.2999116,20.2065429 84.094076,20.2065429 Z M85.6735632,15.8765694 C87.334748,15.8765694 88.6691424,14.48771 88.6691424,12.4725022 C88.6691424,10.538992 87.334748,9.15013263 85.6735632,9.15013263 C84.0123784,9.15013263 82.6507515,10.5117595 82.6507515,12.5269673 C82.6507515,14.48771 84.0123784,15.8765694 85.6735632,15.8765694 Z M103.647038,20.2337754 C106.88771,20.2337754 108.848453,18.8721485 110.21008,16.8569408 L106.697082,14.3243148 C105.880106,15.2774536 105.144828,15.8765694 103.919363,15.8765694 C102.176481,15.8765694 100.978249,14.4332449 100.978249,12.5269673 C100.978249,10.6751547 102.122016,9.2045977 104.001061,9.2045977 C105.117595,9.2045977 105.961804,9.66755084 106.66985,10.6479222 L110.128382,8.14252874 C108.875685,6.15455349 106.860477,4.84739169 103.837666,4.84739169 C99.1809019,4.84739169 95.9402299,8.36038904 95.9402299,12.5269673 C95.9402299,16.7480106 99.2081344,20.2337754 103.647038,20.2337754 Z M116.255703,20.2065429 C113.450752,20.2065429 111.299381,18.5998232 111.299381,15.604244 C111.299381,12.5541998 113.614147,10.9747126 117.072679,10.9747126 C118.434306,10.9747126 119.7687,11.247038 120.612909,11.5465959 L120.612909,11.3015031 C120.612909,9.77648099 119.65977,8.90503979 117.671795,8.90503979 C116.11954,8.90503979 114.921309,9.2045977 113.614147,9.72201592 L112.552078,6.07285588 C114.213263,5.39204244 115.983378,4.9290893 118.516004,4.9290893 C121.15756,4.9290893 122.954907,5.55543767 124.125906,6.72643678 C125.24244,7.81573828 125.705393,9.34076039 125.705393,11.4104332 L125.705393,19.8797524 L120.585676,19.8797524 L120.585676,18.3547303 C119.578073,19.4712644 118.189213,20.2065429 116.255703,20.2065429 Z M118.107515,16.9658709 C119.605305,16.9658709 120.667374,16.0127321 120.667374,14.5421751 L120.667374,13.8613616 C120.149956,13.6435013 119.414677,13.4801061 118.652166,13.4801061 C117.154377,13.4801061 116.282935,14.2153846 116.282935,15.3591512 C116.282935,16.3667551 117.045447,16.9658709 118.107515,16.9658709 Z M128.34695,19.8797524 L133.521132,19.8797524 L133.521132,15.3046861 C133.521132,11.9006189 135.046154,10.3483643 137.742175,10.3483643 L138.177896,10.3483643 L138.177896,4.90185676 C135.726967,4.79292661 134.36534,6.10008842 133.521132,8.1152962 L133.521132,5.1469496 L128.34695,5.1469496 L128.34695,19.8797524 Z M147.02847,20.2337754 C142.398939,20.2337754 139.131034,17.1564987 139.131034,12.5269673 C139.131034,8.22422635 142.208311,4.82015915 146.565517,4.82015915 C151.658002,4.82015915 154,8.5510168 154,12.8809903 C154,13.2077807 154,13.5890363 153.972767,13.9430592 L144.114589,13.9430592 C144.523077,15.549779 145.694076,16.3667551 147.300796,16.3667551 C148.52626,16.3667551 149.506631,15.9038019 150.5687,14.8689655 L153.428117,17.2381963 C152.012025,19.0355438 149.969584,20.2337754 147.02847,20.2337754 Z M144.032891,11.3015031 L149.152608,11.3015031 C148.961981,9.66755084 148.008842,8.63271441 146.59275,8.63271441 C145.231123,8.63271441 144.305217,9.69478338 144.032891,11.3015031 Z" transform="translate(46 8)"/>
  </g>
</svg>
