<svg xmlns="http://www.w3.org/2000/svg" xmlns:xlink="http://www.w3.org/1999/xlink" viewBox="0 0 573.6 525.5"><style>@-webkit-keyframes arrowIn{0%{opacity:0;-webkit-transform:translateX(50px);transform:translateX(50px)}40%,to{opacity:1;-webkit-transform:translateX(-50px);transform:translateX(-50px)}}@keyframes arrowIn{0%{opacity:0;-webkit-transform:translateX(50px);transform:translateX(50px)}40%,to{opacity:1;-webkit-transform:translateX(-50px);transform:translateX(-50px)}}.banner-arrow{-webkit-animation:arrowIn 5s infinite ease-in;animation:arrowIn 5s infinite ease-in}.banner-arrow-small{-webkit-animation:arrowIn 5s infinite cubic-bezier(.85,1,.85,1);animation:arrowIn 5s infinite cubic-bezier(.85,1,.85,1);-webkit-animation-delay:.4s;animation-delay:.4s;-webkit-animation-fill-mode:backwards;animation-fill-mode:backwards}@supports (-ms-ime-align:auto){.banner-arrow,.banner-arrow-small{animation:none}}@-webkit-keyframes chartFloat{0%{-webkit-transform:translateY(0);transform:translateY(0)}to{-webkit-transform:translateY(-20px);transform:translateY(-20px)}}@keyframes chartFloat{0%{-webkit-transform:translateY(0);transform:translateY(0)}to{-webkit-transform:translateY(-20px);transform:translateY(-20px)}}.banner-chart{-webkit-animation:chartFloat 4.5s infinite alternate ease-in-out;animation:chartFloat 4.5s infinite alternate ease-in-out}@-webkit-keyframes chartLineGrow{0%,20%{-webkit-transform:scale(0) rotate(20deg);transform:scale(0) rotate(20deg)}40%{-webkit-transform:scale(1) rotate(0);transform:scale(1) rotate(0)}}@keyframes chartLineGrow{0%,20%{-webkit-transform:scale(0) rotate(20deg);transform:scale(0) rotate(20deg)}40%{-webkit-transform:scale(1) rotate(0);transform:scale(1) rotate(0)}}.banner-chart-line{-webkit-animation:chartLineGrow 5s 1s infinite alternate ease-out;animation:chartLineGrow 5s 1s infinite alternate ease-out;-webkit-animation-fill-mode:backwards;animation-fill-mode:backwards;-webkit-transform-origin:left bottom;transform-origin:left bottom;transform-box:fill-box}@-webkit-keyframes chartStatsBarGrow{0%,10%{-webkit-transform:scaleY(.7);transform:scaleY(.7)}30%{-webkit-transform:scaleY(1);transform:scaleY(1)}}@keyframes chartStatsBarGrow{0%,10%{-webkit-transform:scaleY(.7);transform:scaleY(.7)}30%{-webkit-transform:scaleY(1);transform:scaleY(1)}}.banner-stats-bar path{-webkit-animation:chartStatsBarGrow 3s infinite alternate-reverse ease-in-out;animation:chartStatsBarGrow 3s infinite alternate-reverse ease-in-out;-webkit-animation-fill-mode:forwards;animation-fill-mode:forwards;-webkit-transform-origin:center bottom;transform-origin:center bottom;transform-box:fill-box}.banner-stats-bar:nth-child(1) path{-webkit-animation-delay:.2s;animation-delay:.2s}.banner-stats-bar:nth-child(2) path{-webkit-animation-delay:.8s;animation-delay:.8s}.banner-stats-bar:nth-child(3) path{-webkit-animation-delay:.4s;animation-delay:.4s}.banner-stats-bar:nth-child(4) path{-webkit-animation-delay:.2s;animation-delay:.2s}@-webkit-keyframes chartStatsLineFade{0%,30%{opacity:.5}15%{opacity:0}}@keyframes chartStatsLineFade{0%,30%{opacity:.5}15%{opacity:0}}.banner-stats-line{-webkit-animation:chartStatsLineFade 8s infinite ease;animation:chartStatsLineFade 8s infinite ease}.banner-stats-line:nth-child(1){-webkit-animation-delay:.25s;animation-delay:.25s}.banner-stats-line:nth-child(2){-webkit-animation-delay:.5s;animation-delay:.5s}.banner-stats-line:nth-child(3){-webkit-animation-delay:.75s;animation-delay:.75s}.banner-stats-line:nth-child(4){-webkit-animation-delay:1s;animation-delay:1s}@-webkit-keyframes cogFloat{0%{-webkit-transform:translateY(0);transform:translateY(0)}to{-webkit-transform:translateY(-30px);transform:translateY(-30px)}}@keyframes cogFloat{0%{-webkit-transform:translateY(0);transform:translateY(0)}to{-webkit-transform:translateY(-30px);transform:translateY(-30px)}}.banner-cog{-webkit-animation:cogFloat 3s infinite alternate ease-in-out;animation:cogFloat 3s infinite alternate ease-in-out}@-webkit-keyframes targetFloat{0%{-webkit-transform:translateY(0);transform:translateY(0)}to{-webkit-transform:translateY(-12px);transform:translateY(-12px)}}@keyframes targetFloat{0%{-webkit-transform:translateY(0);transform:translateY(0)}to{-webkit-transform:translateY(-12px);transform:translateY(-12px)}}.banner-target{-webkit-animation:targetFloat 4.5s infinite alternate ease-in-out;animation:targetFloat 4.5s infinite alternate ease-in-out}@-webkit-keyframes searchFloat{0%{-webkit-transform:translateY(-20px);transform:translateY(-20px)}to{-webkit-transform:translateY(0);transform:translateY(0)}}@keyframes searchFloat{0%{-webkit-transform:translateY(-20px);transform:translateY(-20px)}to{-webkit-transform:translateY(0);transform:translateY(0)}}.banner-search{-webkit-animation:searchFloat 3.5s infinite alternate ease-in-out;animation:searchFloat 3.5s infinite alternate ease-in-out}.st0{opacity:.13}.st1{fill:#18264f}.st2{opacity:.25}.st3{opacity:.43}.st4{fill:#0bc0eb}.st5{opacity:.6}.st6{opacity:.56}.st7{fill:#101831}.st8{fill:#00a5da}.st9{fill:url(#SVGID_1_)}.st10{fill:url(#SVGID_2_)}.st11{fill:#df4d8a}.st12{opacity:.5;fill:#62c0ed;enable-background:new}.st13{opacity:.27}.st14{opacity:.89}.st15{fill:#1a5787}.st16{fill:#8dd7f7}.st17{opacity:.39}.st18{fill:#1d1b37}.st19{fill:#1a5b8d}.st20{fill:#1785be}.st21{fill:#b1e2f8}.st22{fill:#b6e3f8}.st23{opacity:.73}.st24{fill:#b4e2ee}.st25{fill:#fff}.st26{opacity:.92}.st27{fill:#0e497a}.st28{opacity:.94}.st29{fill:#266593}.st30{fill:#55bbea}.st31{fill:#9cdaed}.st32{fill:#0a8bc7}.st33{fill:#63bdeb}.st34{fill:#c3e7f0}.st35{opacity:.42}.st36{fill:#55a5da}.st37{opacity:.55}.st38{opacity:.53}.st39{opacity:.51}.st40{opacity:.2;enable-background:new}.st41{fill:url(#SVGID_3_)}.st42{fill:url(#SVGID_4_)}.st43,.st44{fill:none;stroke:#fff;stroke-width:3;stroke-miterlimit:10}.st44{stroke-linecap:round;stroke-linejoin:round}.st45{fill:url(#SVGID_5_)}.st46{fill:url(#SVGID_6_)}.st47{fill:#ec93b8}.st48{opacity:.36}.st49{fill:#99999a}.st50{fill:#b63771}.st51{fill:#d1729c}.st52{fill:#049ad0}.st53{opacity:.35}.st54{opacity:.85}.st55{fill:#0ebbed}.st56{clip-path:url(#SVGID_8_)}.st57{fill:#3870b6}.st58{clip-path:url(#SVGID_10_)}.st59{clip-path:url(#SVGID_12_)}.st60{fill:#386fb5}.st61{clip-path:url(#SVGID_14_)}.st62{fill:#376eb4}.st63{clip-path:url(#SVGID_16_)}.st64{fill:#376db3}.st65{clip-path:url(#SVGID_18_)}.st66{fill:#366db2}.st67{clip-path:url(#SVGID_20_)}.st68{fill:#366cb1}.st69{clip-path:url(#SVGID_22_)}.st70{fill:#356bb0}.st71{clip-path:url(#SVGID_24_)}.st72{fill:#356aaf}.st73{clip-path:url(#SVGID_26_)}.st74{fill:#3469ae}.st75{clip-path:url(#SVGID_28_)}.st76{fill:#3468ad}.st77{clip-path:url(#SVGID_30_)}.st78{fill:#3467ac}.st79{clip-path:url(#SVGID_32_)}.st80{fill:#3367ab}.st81{clip-path:url(#SVGID_34_)}.st82{fill:#36a}.st83{clip-path:url(#SVGID_36_)}.st84{fill:#3265a9}.st85{clip-path:url(#SVGID_38_)}.st86{fill:#3264a8}.st87{clip-path:url(#SVGID_40_)}.st88{fill:#3163a7}.st89{clip-path:url(#SVGID_42_)}.st90{fill:#3162a6}.st91{clip-path:url(#SVGID_44_)}.st92{fill:#3061a5}.st93{clip-path:url(#SVGID_46_)}.st94{fill:#3061a4}.st95{clip-path:url(#SVGID_48_)}.st96{fill:#3060a3}.st97{clip-path:url(#SVGID_50_)}.st98{fill:#2f5fa2}.st99{clip-path:url(#SVGID_52_)}.st100{fill:#2f5ea1}.st101{clip-path:url(#SVGID_54_)}.st102{fill:#2e5da0}.st103{clip-path:url(#SVGID_56_)}.st104{fill:#2e5c9f}.st105{clip-path:url(#SVGID_58_)}.st106{fill:#2d5b9e}.st107{clip-path:url(#SVGID_60_)}.st108{fill:#2d5b9d}.st109{clip-path:url(#SVGID_62_)}.st110{fill:#2c5a9c}.st111{clip-path:url(#SVGID_64_)}.st112{fill:#2c599b}.st113{clip-path:url(#SVGID_66_)}.st114{fill:#2b5899}.st115{clip-path:url(#SVGID_68_)}.st116{fill:#2b5798}.st117{clip-path:url(#SVGID_70_)}.st118{fill:#2b5697}.st119{clip-path:url(#SVGID_72_)}.st120{fill:#2a5596}.st121{clip-path:url(#SVGID_74_)}.st122{fill:#2a5595}.st123{clip-path:url(#SVGID_76_)}.st124{fill:#295494}.st125{clip-path:url(#SVGID_78_)}.st126{fill:#295393}.st127{clip-path:url(#SVGID_80_)}.st128{fill:#285292}.st129{clip-path:url(#SVGID_82_)}.st130{fill:#285191}.st131{clip-path:url(#SVGID_84_)}.st132{fill:#275090}.st133{clip-path:url(#SVGID_86_)}.st134{fill:#274f8f}.st135{clip-path:url(#SVGID_88_)}.st136{fill:#274f8e}.st137{clip-path:url(#SVGID_90_)}.st138{fill:#264e8d}.st139{clip-path:url(#SVGID_92_)}.st140{fill:#264d8c}.st141{clip-path:url(#SVGID_94_)}.st142{fill:#254c8b}.st143{clip-path:url(#SVGID_96_)}.st144{fill:#254b8a}.st145{clip-path:url(#SVGID_98_)}.st146{fill:#244a89}.st147{clip-path:url(#SVGID_100_)}.st148{fill:#244988}.st149{clip-path:url(#SVGID_102_)}.st150{fill:#234987}.st151{clip-path:url(#SVGID_104_)}.st152{fill:#234886}.st153{clip-path:url(#SVGID_106_)}.st154{fill:#234785}.st155{clip-path:url(#SVGID_108_)}.st156{fill:#224684}.st157{clip-path:url(#SVGID_110_)}.st158{fill:#224583}.st159{clip-path:url(#SVGID_112_)}.st160{fill:#214482}.st161{clip-path:url(#SVGID_114_)}.st162{fill:#214381}.st163{clip-path:url(#SVGID_116_)}.st164{fill:#204380}.st165{clip-path:url(#SVGID_118_)}.st166{fill:#20427f}.st167{clip-path:url(#SVGID_120_)}.st168{fill:#1f417e}.st169{clip-path:url(#SVGID_122_)}.st170{fill:#1f407d}.st171{clip-path:url(#SVGID_124_)}.st172{fill:#132142}.st173{fill:#1d2e54}.st174{fill:#1896d3}.st175{fill:#294376}.st176{fill:#0284be}.st177{fill:#00599a}.st178{fill:#0c87b9}.st179{fill:#00a7dc}.st180{fill:#45c6ee}.st181{fill:none;stroke:#9cdaed;stroke-width:2;stroke-linecap:round;stroke-linejoin:round;stroke-miterlimit:10}.st182{opacity:.47}.st183{fill:#dce2f2}.st184{opacity:.38}.st185{opacity:.26}.st186{fill:#84d4f6}.st187{opacity:.22}.st188{opacity:.32}.st189{fill:#00bada}.st190{fill:#004e7c}.st191{opacity:.13;enable-background:new}.st192{fill:url(#SVGID_125_)}.st193{fill:url(#SVGID_126_)}.st194{opacity:.49}.st195{opacity:.7}.st196{opacity:.58}.st197{fill:#4fc1e9}.st198{opacity:.45}.st199{fill:#63c4e7}.st200{opacity:.75}.st201{fill:#0b4964}.st202{fill:none}.st203{opacity:.54}.st204{opacity:.68}.st205{fill:#51c8ee}.st206{opacity:.81}.st207{fill:#4daed0}.st208{opacity:.63}.st209{fill:#fceef4}.st210{opacity:.4}.st211{fill:#aad0ee}.st212{fill:#f9d140}.st213{opacity:.57}.st214{fill:#005ea2}.st215{opacity:.34}.st216{fill:#89d4e8}.st217{opacity:.67}.st218{fill:#4e72b6}.st219{fill:url(#SVGID_127_)}.st220{fill:url(#SVGID_128_)}.st221{opacity:.82}.st222{opacity:.2}</style><g class="banner-arrows"><g class="banner-arrow"><path class="st214" d="M572 409l-12.4-.1c-.6 0-1-.5-1-1s.5-1 1-1l12.4.1c.6 0 1 .5 1 1s-.4 1-1 1z"/><path class="st8" d="M556.4 412.4c-.3 0-.5-.1-.7-.3l-3.2-3.5c-.3-.4-.4-.9 0-1.3l3.2-3.6c.4-.4 1-.5 1.4-.1s.5 1 .1 1.4l-2.6 3 2.6 2.8c.4.4.3 1-.1 1.4-.2.1-.5.2-.7.2z"/></g><g class="banner-arrow"><path class="st214" d="M572 337.5l-12.4-.1c-.6 0-1-.5-1-1s.5-1 1-1l12.4.1c.6 0 1 .5 1 1 0 .6-.4 1-1 1z"/><path class="st8" d="M556.4 341c-.3 0-.5-.1-.7-.3l-3.2-3.5c-.3-.4-.4-.9 0-1.3l3.2-3.6c.4-.4 1-.5 1.4-.1s.5 1 .1 1.4l-2.6 3 2.6 2.8c.4.4.3 1-.1 1.4-.2.1-.5.2-.7.2z"/></g><g class="banner-arrow"><path class="st214" d="M572 266.1l-12.4-.1c-.6 0-1-.5-1-1s.5-1 1-1l12.4.1c.6 0 1 .5 1 1s-.4 1-1 1z"/><path class="st8" d="M556.4 269.5c-.3 0-.5-.1-.7-.3l-3.2-3.5c-.3-.4-.4-.9 0-1.3l3.2-3.6c.4-.4 1-.5 1.4-.1s.5 1 .1 1.4l-2.6 3 2.6 2.8c.4.4.3 1-.1 1.4-.2.1-.5.2-.7.2z"/></g><g class="banner-arrow-small st215"><path class="st216" d="M573.1 301.2l-9-.1c-.3 0-.5-.2-.5-.5s.2-.5.5-.5l9 .1c.3 0 .5.2.5.5s-.2.5-.5.5z"/></g><g class="banner-arrow-small st215"><path class="st216" d="M573.1 372.7l-9-.1c-.3 0-.5-.2-.5-.5s.2-.5.5-.5l9 .1c.3 0 .5.2.5.5 0 .2-.2.5-.5.5z"/></g><g class="banner-arrow-small st217"><path class="st218" d="M568.3 354.9l-4.1-.1c-.3 0-.5-.2-.5-.5s.2-.5.5-.5l4.1.1c.3 0 .5.2.5.5 0 .2-.2.5-.5.5z"/></g><g class="banner-arrow-small st217"><path class="st218" d="M568.3 320.8l-4.1-.1c-.3 0-.5-.2-.5-.5s.2-.5.5-.5l4.1.1c.3 0 .5.2.5.5s-.2.5-.5.5z"/></g><g class="banner-arrow-small st217"><path class="st218" d="M568.3 284.2l-4.1-.1c-.3 0-.5-.2-.5-.5s.3-.5.5-.5l4.1.1c.3 0 .5.2.5.5s-.2.5-.5.5z"/></g><g class="banner-arrow-small st217"><path class="st218" d="M568.3 390.2l-4.1-.1c-.3 0-.5-.2-.5-.5s.3-.5.5-.5l4.1.1c.3 0 .5.2.5.5s-.2.5-.5.5z"/></g></g><path d="M2 306.6l213.7 213.7c3.3 3.3 7.9 5.2 12.6 5.2h335.5c4.9 0 7.3-5.9 3.9-9.4L340.4 288.9 6.6 295.1c-5.9.2-8.8 7.3-4.6 11.5z" class="st0"/><path class="st1" d="M253.9 520s92.4.3 97.9.1c.5.2 159.8-.1 159.8-.1s8.4-1.7 14.6-9.5c1.8-2.3 2.8-4.3 2.9-7 .2-.2.3-.5.5-.8.9-2.2 2.4-2.5 1.9-4.8-.2-.9.2-3.5-.2-4.5-.1-1.5-2-4.4-2-4.4s-.2-5.1 0-7.1c.4-5.3.4-8.2 0-13.4.3-.3-.2-36.9-.3-53 0-14.6-.2-194.8-.2-194.8s-10-9.8-13.5-12.7C503.5 195.3 373.5 65.5 365.9 57.8c-4.5-4.5-28.4-28.6-34.1-34.1C325.5 17.6 310.6 1 309.1 1c-4-.3-16.1.9-16.1.9s.3 14.8.2 18.6c0 8.6-.6 73.6-.6 90.5 0 17 .1 98.9.6 122 0 .6.3 33.8.4 41.3-30.5-.1-246.6-.2-253.8 0-8.5.2-26.7-2.6-30.3 8.4-3.4 10.4 6.8 17.8 13.6 24.3 4.6 4.3 157.7 158 160.7 160.7 12.8 13.5 40.2 41.4 47.3 47.2 4 3.3 6.1 5.1 11.1 5 .3.4 11.3.1 11.7.1z"/><path d="M256.3 437.2c0 5.8-9 6.2-20.1 6.2s-20.1-.7-20.1-6.2c0-5.6 9-6.2 20.1-6.2s20.1.5 20.1 6.2z" class="st0"/><g class="st3"><path class="st4" d="M446.1 474.3h-95c-4 0-8-1.6-10.9-4.5-28.9-28.8-58-57.8-86.1-85.9-26.6-26.5-54.2-54-81.8-81.6-1.7-1.7-2.2-4.2-1.3-6.5s3.1-3.7 5.5-3.7h95c4 0 8 1.6 10.9 4.5 29.1 29.1 58.3 58.2 86.5 86.3 26.6 26.5 54.1 53.9 81.4 81.2 1.7 1.7 2.2 4.2 1.3 6.5-1 2.3-3.1 3.7-5.5 3.7zM176.5 293.1c-2 0-3.8 1.2-4.6 3.1s-.4 4 1.1 5.4c27.6 27.6 55.2 55.1 81.8 81.6 28.1 28 57.2 57 86.1 85.9 2.7 2.7 6.4 4.2 10.2 4.2h95c2 0 3.8-1.2 4.6-3.1.8-1.9.4-4-1.1-5.4-27.3-27.3-54.8-54.7-81.4-81.2-28.2-28.1-57.4-57.2-86.5-86.3-2.7-2.7-6.4-4.2-10.2-4.2h-95z"/></g><g class="st5"><path class="st4" d="M246.1 407h-62.2c-.1 0-.3-.1-.4-.1l-23.3-23.3c-7.7-7.7-15.5-15.4-23.3-23.3-.1-.1-.2-.4-.1-.5.1-.2.3-.3.5-.3h62.2c.1 0 .3.1.4.1l23.3 23.3c7.7 7.7 15.5 15.4 23.3 23.3.1.1.2.4.1.5-.1.1-.3.3-.5.3zm-62-1h60.8c-7.6-7.6-15-15-22.5-22.4-7.7-7.7-15.4-15.3-23.2-23.1h-60.8c7.6 7.6 15 15 22.5 22.4 7.7 7.6 15.4 15.3 23.2 23.1z"/></g><g class="st6"><path class="st4" d="M225 482.4c-.3 0-.5-.1-.7-.3l-193-193c-.4-.4-.4-1 0-1.4s1-.4 1.4 0l192.9 192.9c.4.4.4 1 0 1.4-.1.3-.4.4-.6.4z"/></g><path class="st7" d="M308.2 265.8L498.4 456l.2-223.9L308.5 42l-.3 223.8z"/><path class="st8" d="M498.4 457c-.3 0-.5-.1-.7-.3L307.5 266.5c-.2-.2-.3-.4-.3-.7l.3-223.8c0-.4.2-.8.6-.9.4-.2.8-.1 1.1.2l190.2 190.2c.2.2.3.4.3.7l-.3 223.8c0 .4-.2.8-.6.9-.1.1-.2.1-.4.1zM309.2 265.4l188.2 188.2.2-221L309.5 44.4l-.3 221z"/><path class="st4" d="M13.6 298.4c-.2 0-.4-.1-.6-.2-3.2-2.7-5.1-6.6-5.1-10.8 0-7.7 6.3-14 14-14h270.8c.6 0 1 .4 1 1s-.4 1-1 1H21.8c-6.6 0-12 5.4-12 12 0 3.6 1.6 7 4.4 9.2.4.4.5 1 .1 1.4-.2.3-.5.4-.7.4z"/><path class="st4" d="M530.1 489.1c.1-.1.1-.3.1-.4V221.3c0-.3 0-.6-.3-.8L309.8.3c-.1-.1-.2-.2-.3-.2-.2-.1-.3-.1-.4-.1H293c-.6 0-1 .4-1 1v272.5s-.1 0-.1.1c-.4.4-.4 1 0 1.4 36.7 36.7 73.5 73.4 109.1 108.8 35.6 35.5 72.4 72.1 109.1 108.8.1.1.1.1.2.1h-269c-7.7 0-14 6.3-14 14 0 1.2.2 2.3.4 3.4L13.2 295.7c-.4-.4-1-.4-1.4 0s-.4 1 0 1.4l219.6 219.6.5.5c.1.1.1.1.2.1 2.5 2.1 5.7 3.4 9.2 3.4h267.9c10.2 0 19-7.5 20.7-17.5 1.7-1.9 2.7-4.4 2.7-7.2 0-2.6-1-5-2.5-6.9zm-1.9-266.2v264.4c-1.8-1.4-4.1-2.2-6.6-2.2-3.1 0-5.8 1.3-7.8 3.3V222.9h14.4zm-15.7-2c-36.3-36.3-73.2-73.6-108.9-109.7-35.5-36-72.2-73.1-108.3-109.2h13.3l218.9 218.9h-15zM402.3 382.5c-35.4-35.3-71.9-71.7-108.4-108.2 0-.1.1-.2.1-.4V3.5c36 36.1 72.7 73.1 108.2 109 35.9 36.3 73.1 73.9 109.5 110.4v267.7c0 .1 0 .2.1.3-.1.1-.1.3-.2.5 0-.1-.1-.1-.1-.2-36.8-36.6-73.6-73.3-109.2-108.7zm106.9 136.3h-268c-3.3 0-6.3-1.3-8.4-3.5l-.1-.1c-2.1-2.2-3.5-5.1-3.5-8.4 0-6.6 5.4-12 12-12h269.4c0 .4-.1.8-.1 1.2 0 6.1 4.9 11 11 11 2.1 0 4.1-.6 5.7-1.6-2.4 7.8-9.7 13.4-18 13.4zm12.4-13.7c-5 0-9-4-9-9s4-9 9-9 9 4 9 9-4.1 9-9 9z"/><circle class="st4" cx="521.6" cy="496.1" r="2.2"/><g class="banner-chart"><linearGradient id="SVGID_1_" gradientUnits="userSpaceOnUse" x1="389.043" y1="80.126" x2="387.348" y2="187.891" gradientTransform="rotate(-4.64 555.335 155.317) scale(.99998)"><stop offset="0" stop-color="#2cade3"/><stop offset="1" stop-color="#d54d8a"/></linearGradient><path class="st9" d="M390.4 70.3c-3.4 0-13.4.7-13.7.7-15.9 1.3-27.9 26.9-25.5 57.1 2.5 30.2 17.9 53.6 33.8 52.3.3 0 4.6-.4 5-.4.3 0 3.4-.3 3.7-.3 15.9-1.3 28.7-26.8 26.3-57-3.3-40-20.7-52.4-29.6-52.4z"/><linearGradient id="SVGID_2_" gradientUnits="userSpaceOnUse" x1="389.777" y1="73.589" x2="371.147" y2="178.82"><stop offset=".003" stop-color="#e6eff1"/><stop offset=".953" stop-color="#bedff0"/><stop offset="1" stop-color="#bcdef0"/></linearGradient><path class="st10" d="M411.2 123.6c2.1 30.2-10 55.7-26.9 56.8S352 158 349.9 127.8c-2.1-30.2 10-55.7 26.9-56.8 16.9-1.2 32.3 22.4 34.4 52.6z"/><g class="banner-chart-bar"><path class="st11" d="M390.2 164.9c-1 0-1.9-.8-1.9-1.9v-61c0-1 .8-1.9 1.9-1.9s1.9.8 1.9 1.9v61c0 1.1-.9 1.9-1.9 1.9z"/></g><g class="banner-chart-bar"><path class="st11" d="M380.5 155.2c-1 0-1.9-.8-1.9-1.9v-38.2c0-1 .8-1.9 1.9-1.9 1 0 1.9.8 1.9 1.9v38.2c0 1.1-.9 1.9-1.9 1.9z"/></g><g class="banner-chart-bar"><path class="st11" d="M370.8 145.5c-1 0-1.9-.8-1.9-1.9V125c0-1 .8-1.9 1.9-1.9s1.9.8 1.9 1.9v18.6c0 1.1-.9 1.9-1.9 1.9z"/></g><g class="banner-chart-bar"><path class="st11" d="M361.1 135.8c-1 0-1.9-.8-1.9-1.9V131c0-1 .8-1.9 1.9-1.9s1.9.8 1.9 1.9v2.9c0 1.1-.9 1.9-1.9 1.9z"/></g><path class="banner-chart-line st11" d="M390.4 92.5L389 88c0-.1-.1-.2-.2-.3-.1-.1-.4-.2-.6-.1l-4.5 2.2c-.2.1-.3.4-.2.7.1.2.3.3.4.3.1 0 .2 0 .2-.1l3.3-1.7c-1.7 4.3-10.5 24-31.2 33.7-.2.1-.4.4-.2.7.1.2.3.3.5.3h.2c20.9-9.9 29.8-29.7 31.6-34.2l1 3.2c.1.2.3.3.5.3h.2c.3 0 .5-.3.4-.5z"/></g><path class="st12" d="M170.7 309.2L151 289.5c0-.1 0-.2-.1-.3-.1-.2-.3-.2-.5-.2H96.6c-.2 0-.4.1-.5.3-.1.2 0 .4.1.5l20.1 20.1s.1 0 .1.1h.1c.1 0 .1.1.2.1h53.7c.2 0 .4-.1.5-.3 0-.2-.1-.5-.2-.6zm-27.6-8.5l23.8 8.3h-48.6l10-6.8c.2-.2.3-.5.1-.7s-.5-.3-.7-.1l-11 7.4-18-18 36.7 9.9h.1c.1 0 .2 0 .3-.1l14.6-10.4 18.4 18.4-25.3-8.9c-.3-.1-.5 0-.6.3-.2.4-.1.6.2.7zM99.2 290H149l-13.6 9.7-36.2-9.7z"/><g class="st6"><path class="st4" d="M255.9 512.7c-.6 0-1-.4-1-1v-8c0-.6.4-1 1-1s1 .4 1 1v8c0 .5-.4 1-1 1z"/></g><g class="st6"><path class="st4" d="M263.4 512.7c-.6 0-1-.4-1-1v-8c0-.6.4-1 1-1s1 .4 1 1v8c0 .5-.4 1-1 1z"/></g><g class="st6"><path class="st4" d="M271 512.7c-.6 0-1-.4-1-1v-8c0-.6.4-1 1-1s1 .4 1 1v8c0 .5-.5 1-1 1z"/></g><g class="st6"><path class="st4" d="M278.5 512.7c-.6 0-1-.4-1-1v-8c0-.6.4-1 1-1s1 .4 1 1v8c0 .5-.4 1-1 1z"/></g><g class="st13"><path class="st7" d="M419.1 374.2V205.5c0-.4-.2-.9-.5-1.2-67.8-67.8-32.4-32.1-97.7-97.4-1.1-1.1-2.9-.3-2.9 1.2v168.5c0 .4.2.9.5 1.2l97.7 97.7c1.1.9 2.9.2 2.9-1.3z"/></g><g class="st14"><path class="st15" d="M447.1 505V246c-69.4-69.4-139-138.7-208.4-208.1v258.7c69.6 69.6 138.8 138.7 208.4 208.4z"/><path class="st16" d="M447.1 506c-.3 0-.5-.1-.7-.3L342.2 401.5 238 297.3c-.2-.2-.3-.4-.3-.7V37.8c0-.4.2-.8.6-.9.4-.2.8-.1 1.1.2 34.8 34.8 70.2 70.1 104.4 104.2 34.1 34 69.4 69.2 104 103.9.2.2.3.4.3.7v259c0 .4-.2.8-.6.9-.1.2-.2.2-.4.2zM239.7 296.2l103.9 103.9c34.1 34.1 68.3 68.2 102.5 102.5V246.4c-34.6-34.6-69.7-69.7-103.7-103.6-33.7-33.6-68.5-68.3-102.7-102.5v255.9z"/></g><g class="st17"><path class="st18" d="M296.5 426V302.7l-58.8-58.3v123.1z"/></g><g class="st13"><path class="st18" d="M295.7 142.3v-26.5c0-1.3-.5-2.6-1.5-3.6l-32.7-32.7c-1.3-1.3-3.6-.4-3.6 1.5v27.2c0 .9.4 1.7 1 2.4l33.2 33.2c1.4 1.3 3.6.4 3.6-1.5zm-9.5-21L266.9 102"/><path class="st18" d="M285.9 121.7l-19.3-19.3.7-.7 19.3 19.3-.7.7zm57.4 68.2V164c0-1.7-.7-3.4-1.9-4.6-7.3-7.3-24.2-24.1-32.3-32.3-1.3-1.3-3.6-.4-3.6 1.5v27.2c0 .9.4 1.7 1 2.4l33.2 33.2c1.4 1.3 3.6.4 3.6-1.5zm-9.5-21l-19.3-19.3"/><path class="st18" d="M333.5 169.3L314.2 150l.7-.7 19.3 19.3-.7.7zm57.5 68.3v-26.5c0-1.3-.5-2.6-1.5-3.6l-32.7-32.7c-1.3-1.3-3.6-.4-3.6 1.5v27.2c0 .9.4 1.7 1 2.4l33.2 33.2c1.3 1.3 3.6.3 3.6-1.5zm-9.5-21.1l-19.3-19.3"/><path class="st18" d="M381.1 216.9l-19.3-19.3.7-.7 19.3 19.3-.7.7zm57.5 68.3V259c0-1.6-.6-3.1-1.7-4.2-7.2-7.2-24.3-24.2-32.5-32.5-1.3-1.3-3.6-.4-3.6 1.5V251c0 .9.4 1.7 1 2.4l33.2 33.2c1.3 1.4 3.6.4 3.6-1.4zm-9.5-21l-19.3-19.3"/><path class="st18" d="M428.7 264.5l-19.3-19.3.7-.7 19.3 19.3-.7.7z"/></g><path class="st19" d="M286.5 145.7v-27.2c0-.9-.4-1.7-1-2.4l-33.2-33.2c-1.3-1.3-3.6-.4-3.6 1.5v27.2c0 .9.4 1.7 1 2.4l33.2 33.2c1.4 1.3 3.6.4 3.6-1.5z"/><path class="st16" d="M284.4 148.8c-.8 0-1.6-.3-2.2-.9L249 114.7c-.8-.8-1.3-1.9-1.3-3.1V84.4c0-1.3.7-2.4 1.9-2.9s2.5-.2 3.4.7l32.2 32.2c1.4 1.4 2.3 3.4 2.3 5.5v25.8c0 1.3-.7 2.4-1.9 2.9-.4.1-.8.2-1.2.2zm-33.5-65.5c-.2 0-.4.1-.4.1-.2.1-.7.3-.7 1v27.2c0 .6.2 1.2.7 1.7l33.2 33.2c.5.5 1 .3 1.2.2s.7-.3.7-1v-25.8c0-1.5-.6-3-1.7-4.1l-32.2-32.2c-.3-.2-.6-.3-.8-.3z"/><path class="st16" d="M276.7 125.1l-19.3-19.3c-.2-.2-.2-.5 0-.7s.5-.2.7 0l19.3 19.3-.7.7z"/><path class="st20" d="M334.1 193.3v-26.2c0-1.5-.6-3-1.7-4.1l-32.5-32.5c-1.3-1.3-3.6-.4-3.6 1.5v27.2c0 .9.4 1.7 1 2.4l33.2 33.2c1.4 1.3 3.6.4 3.6-1.5z"/><path class="st21" d="M332 196.4c-.8 0-1.6-.3-2.2-.9l-33.2-33.2c-.8-.8-1.3-1.9-1.3-3.1V132c0-1.3.7-2.4 1.9-2.9s2.5-.2 3.4.7l32.5 32.4c1.3 1.3 2 3.1 2 4.9v26.1c0 1.3-.7 2.4-1.9 2.9-.4.3-.8.3-1.2.3zm-33.5-65.5c-.2 0-.4.1-.4.1-.2.1-.7.3-.7 1v27.2c0 .6.2 1.2.7 1.7l33.2 33.2c.5.5 1 .3 1.2.2s.7-.3.7-1v-26.1c0-1.3-.5-2.6-1.4-3.5l-32.5-32.4c-.3-.3-.6-.4-.8-.4z"/><path class="st22" d="M324.3 172.7L305 153.4c-.2-.2-.2-.5 0-.7s.5-.2.7 0L325 172l-.7.7z"/><path class="st19" d="M381.8 241v-27.2c0-.9-.4-1.7-1-2.4l-33.2-33.2c-1.3-1.3-3.6-.4-3.6 1.5v27.2c0 .9.4 1.7 1 2.4l33.2 33.2c1.3 1.3 3.6.3 3.6-1.5z"/><path class="st16" d="M379.6 244.1c-.8 0-1.6-.3-2.2-.9L344.2 210c-.8-.8-1.3-1.9-1.3-3.1v-27.2c0-1.3.7-2.4 1.9-2.9s2.5-.2 3.4.7l32.5 32.4c1.3 1.3 2 3.1 2 4.9V241c0 1.3-.7 2.4-1.9 2.9-.3.1-.8.2-1.2.2zm-33.5-65.5c-.2 0-.4.1-.4.1-.2.1-.7.3-.7 1v27.2c0 .6.2 1.2.7 1.7l33.2 33.2c.5.5 1 .3 1.2.2s.7-.3.7-1v-26.1c0-1.3-.5-2.6-1.5-3.5L346.8 179c-.2-.4-.5-.4-.7-.4z"/><path class="st16" d="M371.9 220.3L352.6 201c-.2-.2-.2-.5 0-.7s.5-.2.7 0l19.3 19.3-.7.7z"/><path class="st19" d="M429.4 288.6v-26.4c0-1.4-.6-2.8-1.6-3.8-7.1-7.1-24.4-24.3-32.6-32.6-1.3-1.3-3.6-.4-3.6 1.5v27.2c0 .9.4 1.7 1 2.4l33.2 33.2c1.3 1.3 3.6.3 3.6-1.5z"/><path class="st16" d="M427.3 291.7c-.8 0-1.6-.3-2.2-.9l-33.2-33.2c-.8-.8-1.3-1.9-1.3-3.1v-27.2c0-1.3.7-2.4 1.9-2.9s2.5-.2 3.4.7l32.3 32.2c1.4 1.4 2.2 3.4 2.2 5.4v25.8c0 1.3-.7 2.4-1.9 2.9-.4.2-.8.3-1.2.3zm-33.6-65.5c-.2 0-.4.1-.4.1-.2.1-.7.3-.7 1v27.2c0 .6.2 1.2.7 1.7l33.2 33.2c.5.5 1 .3 1.2.2.2-.1.7-.3.7-1v-25.8c0-1.5-.6-3-1.7-4l-32.3-32.2c-.2-.4-.5-.4-.7-.4z"/><path class="st16" d="M419.5 267.9l-19.3-19.3c-.2-.2-.2-.5 0-.7s.5-.2.7 0l19.3 19.3-.7.7z"/><g class="st23"><ellipse class="st24" cx="334.9" cy="381.9" rx=".5" ry=".8"/></g><g class="st23"><ellipse class="st24" cx="304.2" cy="366.7" rx=".3" ry=".4"/></g><g class="st23"><ellipse class="st25" cx="303.9" cy="311.2" rx=".5" ry=".8"/></g><g class="st26"><path class="st27" d="M247 299.6c-14.7-13.8-28.4-28.6-42.7-42.9-7.1-7.1-14.1-14.3-21.2-21.3-6.2-6.2-19.7-20.2-19.8-20.2l-.1-.1c-.1-.1-.1-.2-.2-.3 0-.2-.1-.4-.1-.6-.4-1.9-3.5-1.5-3.4.5.2 4.1-.6 8.3 0 12.4.3 2.3 1.7 3.9 3.6 4.9 4.9 6.4 11.1 12.1 16.7 17.8 7.3 7.3 14.6 14.5 21.9 21.7 14.4 14.3 28.7 28.6 43 43 .4.4 3.4 3.2 3.4 3.2s.1-3.1.1-4.3c.2-1.1-.4-13.1-1.2-13.8z"/></g><g class="st28"><path class="st29" d="M248.6 415c-.3-.4-.7-.7-1-1v-1.5c.1-2 .2-3.9.4-5.9.4-4.2.9-8.4.9-12.6 0-.7-.3-1.1-.7-1.4 0-10.9 0-21.8.1-32.7 0-7.3.1-14.6 0-22-.1-5.7.1-11.8-.8-17.5 1.1-.3 1.8-1.7.8-2.8-14.1-14.4-28.4-28.7-42.7-42.9-10.4-10.3-20.6-21.1-31.5-31.1-3.7-3.7-8-6.8-11.4-10.7-.4-.4-1.9-3.1-2.2-2.7-.1 0-.7-1.4.2 1.1l-.2-.2c-.1.2-.3.1-.3.3-.5.2 0 3.2 0 3.8-.2 16.5-.3 33-.3 49.6v23.8c0 7.8.2 25.3.6 24.8 6.4 6.5 14.2 12.9 20.5 19.5 5.9 6.2 12 12.2 18.1 18.3 12.6 12.6 25.2 25.2 37.7 37.8.5.5 1 .6 1.5.6 2.7 2.6 5.2 5.4 8 8 1.3 1.6 3.8-.9 2.3-2.6z"/></g><path class="st30" d="M177.1 274.1v-7.5c0-1-.4-1.9-1.1-2.6l-4.8-4.8c-.7-.7-1.8-.2-1.8.8v7.5c0 1 .4 1.9 1.1 2.6l4.8 4.8c.6.6 1.8.1 1.8-.8zm0 20.6v-7.5c0-1-.4-1.9-1.1-2.6l-4.8-4.8c-.7-.7-1.8-.2-1.8.8v7.5c0 1 .4 1.9 1.1 2.6l4.8 4.8c.6.6 1.8.1 1.8-.8zm0 20.5v-7.5c0-1-.4-1.9-1.1-2.6l-4.8-4.8c-.7-.7-1.8-.2-1.8.8v7.5c0 1 .4 1.9 1.1 2.6l4.8 4.8c.6.7 1.8.2 1.8-.8zm0 20.6v-7.5c0-1-.4-1.9-1.1-2.6l-4.8-4.8c-.7-.7-1.8-.2-1.8.8v7.5c0 1 .4 1.9 1.1 2.6l4.8 4.8c.6.7 1.8.2 1.8-.8z"/><path class="st31" d="M230.9 324.4c-.1 0-.3 0-.4-.1l-23.1-23.1c-6.5-6.5-13-12.9-23-22.9-.2-.2-.2-.5 0-.7s.5-.2.7 0c10 10 16.5 16.5 23 22.9 6.5 6.5 13.1 13 23.1 23.1.2.2.2.5 0 .7 0 0-.1.1-.3.1zm-3.9 15.8c-.1 0-.3 0-.4-.1-10-10-15.6-15.5-21.1-21.1-5.5-5.5-11.1-11-21.1-21.1-.2-.2-.2-.5 0-.7s.5-.2.7 0c10 10 15.6 15.5 21.1 21.1 5.5 5.5 11.1 11 21.1 21.1.2.2.2.5 0 .7 0 0-.2.1-.3.1zm-12.5 7.2c-.1 0-.3 0-.4-.1l-14.8-14.8c-2.4-2.4-4.8-4.8-14.9-14.8-.2-.2-.2-.5 0-.7s.5-.2.7 0l14.8 14.8c2.4 2.4 4.8 4.8 14.9 14.8.2.2.2.5 0 .7 0 .1-.1.1-.3.1zm-9.5 10.3c-.1 0-.3 0-.4-.1l-20.2-20.1c-.2-.2-.2-.5 0-.7s.5-.2.7 0l20.2 20.1c.2.2.2.5 0 .7 0 0-.1.1-.3.1z"/><path class="st32" d="M249 299.5c-15.7-15.7-30-30-44.4-44.3-14.3-14.3-28.6-28.5-44.2-44.1-.3-.3-.7-.4-1.1-.2-.4.2-.6.5-.6.9v121c0 .3.1.5.3.7l44.3 44.3 44.3 44.3c.2.2.4.3.7.3.1 0 .3 0 .4-.1.4-.2.6-.5.6-.9V300.3c0-.4-.1-.6-.3-.8zm-45.8-42.9c14.3 14.2 28.5 28.5 44.1 44v15c-14.2-14.2-28.5-28.5-42.8-42.7-14.5-14.5-29-28.9-43.5-43.4-.1-.1-.2-.2-.4-.2v-15.1c15.1 14.9 28.9 28.7 42.6 42.4zm1.5 119.7l-44-44V231.9c14.1 14.1 28.3 28.2 42.4 42.4l43.8 43.8c.1.1.2.2.4.2v100.6l-42.6-42.6z"/><path class="st33" d="M316.1 207.5c-.1 0-.3 0-.4-.1L297 188.8c-.2-.2-.2-.5 0-.7s.5-.2.7 0l18.7 18.6c.2.2.2.5 0 .7-.1 0-.2.1-.3.1z"/><path class="st31" d="M291.3 182.7c-.1 0-.3 0-.4-.1l-15.4-15.3c-.2-.2-.2-.5 0-.7s.5-.2.7 0l15.4 15.3c.2.2.2.5 0 .7-.1 0-.2.1-.3.1z"/><path class="st33" d="M269.6 161c-.1 0-.3 0-.4-.1l-17.5-17.4c-.2-.2-.2-.5 0-.7s.5-.2.7 0l17.5 17.4c.2.2.2.5 0 .7-.1 0-.2.1-.3.1z"/><path class="st31" d="M316.1 222.1c-.1 0-.3 0-.4-.1l-32-32-32-32c-.2-.2-.2-.5 0-.7s.5-.2.7 0l32 32 32 32c.2.2.2.5 0 .7-.1 0-.2.1-.3.1z"/><path class="st33" d="M316.1 236.7c-.1 0-.3 0-.4-.1L302 222.9c-.2-.2-.2-.5 0-.7s.5-.2.7 0l13.7 13.7c.2.2.2.5 0 .7-.1.1-.2.1-.3.1z"/><path class="st31" d="M295.2 215.8c-.1 0-.3 0-.4-.1l-16-16c-.2-.2-.2-.5 0-.7s.5-.2.7 0l16 16c.2.2.2.5 0 .7-.1 0-.2.1-.3.1z"/><path class="st33" d="M272.4 193c-.1 0-.3 0-.4-.1l-20.3-20.3c-.2-.2-.2-.5 0-.7s.5-.2.7 0l20.3 20.3c.2.2.2.5 0 .7-.1.1-.2.1-.3.1zm153.5 124.3c-.1 0-.3 0-.4-.1L382 273.7l-8-8c-.2-.2-.2-.5 0-.7s.5-.2.7 0l8 8 43.5 43.5c.2.2.2.5 0 .7 0 .1-.1.1-.3.1zm-61.5-61.4c-.1 0-.3 0-.4-.1l-26-26c-.2-.2-.2-.5 0-.7s.5-.2.7 0l26 26c.2.2.2.5 0 .7 0 0-.1.1-.3.1zm61.5 76.1c-.1 0-.3 0-.4-.1l-29.1-29.1c-.2-.2-.2-.5 0-.7s.5-.2.7 0l29.1 29.1c.2.2.2.5 0 .7 0 0-.1.1-.3.1z"/><path class="st34" d="M389 295c-.1 0-.3 0-.4-.1l-35.2-35.2c-.2-.2-.2-.5 0-.7s.5-.2.7 0l35.2 35.2c.2.2.2.5 0 .7-.1.1-.2.1-.3.1z"/><path class="st31" d="M346.5 252.6c-.1 0-.3 0-.4-.1l-8.1-8.1c-.2-.2-.2-.5 0-.7s.5-.2.7 0l8.1 8.1c.2.2.2.5 0 .7 0 0-.1.1-.3.1z"/><path class="st33" d="M425.9 346.6c-.1 0-.3 0-.4-.1l-15.8-15.8c-.2-.2-.2-.5 0-.7s.5-.2.7 0l15.8 15.8c.2.2.2.5 0 .7 0 0-.1.1-.3.1z"/><path class="st31" d="M402.8 323.4c-.1 0-.3 0-.4-.1l-33.1-33.1c-.2-.2-.2-.5 0-.7s.5-.2.7 0l33.1 33.1c.2.2.2.5 0 .7-.1.1-.2.1-.3.1z"/><path class="st33" d="M360.5 281.1c-.1 0-.3 0-.4-.1l-22-22c-.2-.2-.2-.5 0-.7s.5-.2.7 0l22 22c.2.2.2.5 0 .7 0 .1-.2.1-.3.1z"/><g class="st35"><path class="st36" d="M216.3 186v-83.4c-30.5-30.5-33.4-33.3-63.9-63.7v83.3c30.6 30.5 33.3 33.2 63.9 63.8z"/></g><path class="st16" d="M216.3 187c-.3 0-.5-.1-.7-.3l-31.9-31.9c-8.3-8.3-16.7-16.6-31.9-31.9-.2-.2-.3-.4-.3-.7V39c0-.4.2-.8.6-.9.4-.2.8-.1 1.1.2C168.4 53.4 176.7 61.7 185 70c8.4 8.3 16.7 16.6 32 31.9.2.2.3.4.3.7V186c0 .4-.2.8-.6.9-.1.1-.3.1-.4.1zm-62.9-65.3l31.6 31.6 30.2 30.2V103c-15.1-15.1-23.4-23.3-31.7-31.6-8-8-16.1-16-30.2-30.1v39.2c.1 6.7.1 13.4.1 41.2z"/><path class="st16" d="M192.5 140.1c-.3 0-.6-.2-.7-.4-.1-.2-7.9-17.2-12.7-28.3-2.4-5.5-4-8.7-6.2-9.5-1.7-.7-4 0-7.5 1.6-7.1 3.1-12.6 4.7-12.6 4.7-.4.1-.8-.1-.9-.5-.1-.4.1-.8.5-.9.1 0 5.5-1.5 12.4-4.6 3.9-1.7 6.5-2.5 8.7-1.6 2.6 1 4.4 4.3 7 10.3 4.8 11.1 12.6 28.1 12.7 28.3.2.4 0 .8-.4 1-.1-.1-.2-.1-.3-.1z"/><path class="st16" d="M216.2 144.4c-.3 0-.5-.1-.7-.4l-10.9-20.9-18.3 3.3c-.4.1-.8-.2-.9-.6-.1-.4.2-.8.6-.9l18.9-3.4c.3-.1.6.1.8.4l11.1 21.4c.2.4 0 .8-.3 1 0 .1-.1.1-.3.1zm.1 4.6c-.2 0-.4-.1-.6-.3 0 0-2.3-2.9-4.1-3.8-1.3-.7-2.6-.4-4.1.8-.2.1-.4.3-.6.5-1.2 1.2-3.3 3.2-6.7 1.4-1.7-.9-3.4-2.7-5-4.5-1.6-1.7-3.4-3.6-4.4-3.7-.8-.1-1.5.3-2.3.8-.7.4-1.4.8-2.3 1-2.5.7-4.4-.3-7.3-2.6-.7-.5-1.2-1.1-1.7-1.5-1.7-1.5-2.3-2.1-4.9-1.2-3.1 1.1-5.9-.5-8.3-1.8-.5-.3-.9-.5-1.3-.7-.4-.2-.5-.6-.3-1s.6-.5 1-.3.9.5 1.4.8c2.2 1.2 4.6 2.6 7 1.7 3.4-1.3 4.6-.2 6.4 1.5.5.4 1 .9 1.6 1.4 3.2 2.5 4.4 2.8 6 2.4.7-.2 1.3-.5 1.9-.9 1-.5 1.9-1.1 3.2-1 1.6.1 3.4 2 5.4 4.2 1.6 1.7 3.2 3.4 4.6 4.2 2.4 1.3 3.7 0 4.9-1.2l.6-.6c2.4-2 4.5-1.7 5.7-1 2 1.1 4.4 4.1 4.5 4.2.3.3.2.8-.1 1.1.1 0-.1.1-.2.1zm-5.5 4.8h-.1c-2.3-.4-2.9-2.8-2.9-2.9-.1-.4.2-.8.6-.9.4-.1.8.2.9.6 0 .1.4 1.5 1.7 1.7.4.1.7.5.6.9-.1.3-.4.6-.8.6zm-4.5 7.9h-.1c-1.4-.2-2-1.4-2.2-2-.1-.4.1-.8.5-.9.4-.1.8.1.9.5 0 .1.2.8 1 .9.4.1.7.5.6.9-.1.4-.4.6-.7.6zm-16.4-10.8h-.1c-2.3-.4-2.9-2.8-2.9-2.9-.1-.4.2-.8.6-.9.4-.1.8.2.9.6 0 .1.4 1.5 1.7 1.7.4.1.7.5.6.9-.2.3-.5.6-.8.6zm8.6 1.9h-.1c-2.1-.4-2.6-2.5-2.6-2.6-.1-.4.2-.8.6-.9.4-.1.8.2.9.6 0 .1.3 1.3 1.5 1.5.4.1.7.5.6.9-.3.2-.6.5-.9.5zm12.6 20.2h-.1c-2.2-.4-2.8-2.7-2.8-2.8-.1-.4.2-.8.6-.9.4-.1.8.2.9.6 0 .1.4 1.4 1.6 1.6.4.1.7.5.6.9-.1.3-.5.6-.8.6zm-12.8-11.8h-.1c-2-.4-2.5-2.4-2.5-2.5-.1-.4.2-.8.6-.9.4-.1.8.2.9.6 0 0 .3 1.1 1.3 1.3.4.1.7.5.6.9-.1.3-.4.6-.8.6zm-17.7-16.8h-.1c-1-.2-1.5-1.1-1.6-1.6-.1-.4.2-.8.6-.9.4-.1.8.2.9.6 0 0 .1.4.4.5.4.1.7.5.6.9-.1.3-.5.5-.8.5zm34.4 20.1h-.1c-2.4-.5-3-2.9-3.1-3-.1-.4.2-.8.6-.9.4-.1.8.2.9.6 0 .1.4 1.6 1.9 1.9.4.1.7.5.6.9-.1.2-.4.5-.8.5zm-4.7 36.3c-.1 0-.3 0-.4-.1L181.2 172l-12.3-12.3c-.2-.2-.2-.5 0-.7s.5-.2.7 0l12.3 12.3c6.8 6.7 13.6 13.6 28.7 28.7.2.2.2.5 0 .7-.1.1-.2.1-.3.1z"/><g class="st37"><path class="st16" d="M163.1 153.7c-.1 0-.3 0-.4-.1L152 142.9c-.2-.2-.2-.5 0-.7s.5-.2.7 0l10.7 10.7c.2.2.2.5 0 .7 0 0-.1.1-.3.1z"/></g><path class="st31" d="M210.3 217.6c-.1 0-.3 0-.4-.1l-17.8-17.8c-.2-.2-.2-.5 0-.7s.5-.2.7 0l17.8 17.8c.2.2.2.5 0 .7-.1.1-.2.1-.3.1zM185.7 193c-.1 0-.3 0-.4-.1l-7.1-7.1c-.2-.2-.2-.5 0-.7s.5-.2.7 0l7.1 7.1c.2.2.2.5 0 .7 0 .1-.2.1-.3.1z"/><g class="st38"><path class="st31" d="M171.7 179c-.1 0-.3 0-.4-.1L152 159.6c-.2-.2-.2-.5 0-.7s.5-.2.7 0l19.3 19.3c.2.2.2.5 0 .7 0 .1-.2.1-.3.1z"/></g><g class="st39"><path class="st31" d="M205 229.2c-.1 0-.3 0-.4-.1l-10-10c-.2-.2-.2-.5 0-.7s.5-.2.7 0l10 10c.2.2.2.5 0 .7 0 0-.1.1-.3.1z"/></g><path class="st16" d="M187.8 212c-.1 0-.3 0-.4-.1l-6.5-6.5c-6.8-6.8-13.7-13.6-28.9-28.9-.2-.2-.2-.5 0-.7s.5-.2.7 0l28.9 28.9 6.5 6.5c.2.2.2.5 0 .7 0 0-.1.1-.3.1z"/><g class="banner-cog"><path class="st40" d="M466.4 460.3c-2.4-31.7-20.5-54.8-40.4-53.3s-34.1 27.1-31.7 58.8 20.5 55.1 40.4 53.6 34.1-27.4 31.7-59.1z"/><linearGradient id="SVGID_3_" gradientUnits="userSpaceOnUse" x1="422.799" y1="467.288" x2="411.808" y2="589.715" gradientTransform="translate(0 -70)"><stop offset="0" stop-color="#2cade3"/><stop offset="1" stop-color="#d54d8a"/></linearGradient><path class="st41" d="M420.9 401.1h-12c-18.7 1.4-33.3 27-30.9 58.7s20.2 55.2 38.9 53.7c.4 0 5.5-.1 5.8-.1.4 0 8.1-.5 8.5-.6 17.1-5.7 27.2-23.4 25.6-59-1.4-31.8-18.9-52.5-35.9-52.7z"/><linearGradient id="SVGID_4_" gradientUnits="userSpaceOnUse" x1="412.55" y1="471.031" x2="412.55" y2="581.194" gradientTransform="translate(0 -70)"><stop offset=".003" stop-color="#e6eff1"/><stop offset=".953" stop-color="#bedff0"/><stop offset="1" stop-color="#bcdef0"/></linearGradient><path class="st42" d="M448.6 454.4c-2.4-31.7-20.5-54.8-40.4-53.3s-34.1 27.1-31.7 58.8 20.5 55.1 40.4 53.6 34.1-27.4 31.7-59.1z"/><path class="st11" d="M432.9 449.6c-.3.3-.3.9 0 1.2l2.8 2.7c.2.2.4.2.6.2.1 0 .3 0 .4-.1.1 0 .2-.1.3-.2l2.7-2.8c.3-.3.3-.9 0-1.2-.3-.3-.9-.3-1.2 0l-1.2 1.3c-.3-1.6-.6-3.3-.6-3.3-3.8-19.3-15.5-32.3-28.4-31.4-5.1.3-9.8 2.8-13.6 7.2-6.8 7.9-10.1 20.8-9 35.5 1.8 22.9 14 40.3 28.1 40.3h1.1c13.2-.8 22.9-16.5 23.1-37.4 0-.5-.4-.9-.9-.9s-.9.4-.9.9c-.2 19.9-9.2 34.9-21.5 35.7-13.6.9-25.6-16.1-27.4-38.6-1.1-14 2.1-26.8 8.5-34.2 3.5-4 7.8-6.3 12.4-6.6 12.1-.8 23.1 11.6 26.6 30 0 0 .3 1.7.6 3.3l-1.5-1.4c-.2-.6-.7-.6-1-.2z"/><path class="st11" d="M402.7 480.8c0-2 .7-7.1.9-8.4 0-.3 0-.5-.1-.8l-2.9-3.9c-.2-.2-.4-.4-.7-.4-1-.1-3.7-.3-5-.6-.5-.1-.6-.4-.7-1.6-.1-1.1-.3-2.1-.6-3.2s-.4-1.5 0-1.9c1.5-1.5 3.1-3 4.6-4.5.2-.2.3-.6.4-.9.1-1 .3-2 .3-3 0-.4 0-.8-.2-1.1-1.1-2.5-2.2-4.9-3.3-7.3-.2-.4-.2-.9 0-1.3.6-1.2 1.3-2.5 1.9-3.7.2-.4.3-.4.6-.3 1.9 1 3.7 1.9 5.6 2.8.2.1.6.1.8 0 .7-.5 2.8-1.7 2.8-1.7s.9-6 1-7c.2-1.8.1-2.1.9-2 .9.2 1.9.2 2.8.1.6-.1.8-.1 1 .6.8 2.7 1.5 5.4 2.3 8.1.1.3.3.7.5.8.7.5 1.4 1 2 1.5.2.1.5.2.7.1 1.8-.8 3.6-1.7 5.3-2.6.3-.2.5-.1.8.3.7 1.3 1.4 2.6 2.2 3.8.3.4.3.7.1 1.2-.9 2.4-1.8 4.7-2.6 7.1-.1.3-.1.9-.1 1.3.1.8.4 1.7.5 2.5s.4 1.2.8 1.7l4.8 4.5c.3.3.4.6.3 1.1-.2 1.5-.4 3.1-.5 4.6-.1.6-.3.8-.6.9-1.8.3-3.7.6-5.5.9-.2 0-.5.3-.7.5-.4.7-1.5 2.5-2.1 3.3-.2.3-.3.7-.2 1 .4 1.6 1.5 6.1 1.7 7.3.2.8.1 1.1-.3 1.3-1 .7-2 1.4-2.9 2.1-.3.2-.5.1-.7-.2-1.4-2-2.9-4-4.4-6-.2-.3-.6-.4-.8-.5-.1-.1-1.5-.1-2.2-.1-.4 0-.7.2-.9.5-.2.4-2.6 4.3-3.5 5.8-.2.3-.4.3-.7.1-1-.8-2.1-1.5-3.1-2.2-.1-.3-.2-.5-.3-.6zm3.7-22.6c.4 4.4 3.1 7.7 6 7.4 2.9-.2 5-4.1 4.5-8.4-.4-4.4-3.1-7.6-6.1-7.3-2.9.2-4.9 4-4.4 8.3z"/></g><path d="M84.1 290.3c0 5.8-9 6.2-20.1 6.2s-20.1-.7-20.1-6.2 9-6.2 20.1-6.2 20.1.4 20.1 6.2z" class="st2"/><g class="banner-target"><linearGradient id="SVGID_5_" gradientUnits="userSpaceOnUse" x1="75.005" y1="266.612" x2="68.843" y2="380.619" gradientTransform="rotate(2.769 1673.918 140.73)"><stop offset="0" stop-color="#2cade3"/><stop offset="1" stop-color="#d54d8a"/></linearGradient><path class="st45" d="M96.5 239.4c0-29.6-13-49.2-27.2-49.2-.3 0-8.2.1-8.5.1-14.4.4-26.6 22.8-25.9 50.2.7 27.4 13.5 49.3 28 49 .3 0 3.4-.1 3.7-.1.3 0 3.1-.1 3.3-.1 14.4-.4 26.6-22.5 26.6-49.9z"/><linearGradient id="SVGID_6_" gradientUnits="userSpaceOnUse" x1="63.49" y1="264.525" x2="58.959" y2="360.693" gradientTransform="translate(0 -70)"><stop offset=".003" stop-color="#e6eff1"/><stop offset=".953" stop-color="#bedff0"/><stop offset="1" stop-color="#bcdef0"/></linearGradient><path class="st46" d="M89.8 240c0-28.1-12.7-49.7-28.4-49.7s-28.5 21.5-28.5 49.6 12.7 49.4 28.4 49.4c15.7.1 28.5-21.2 28.5-49.3"/><path class="st11" d="M79 239.4h-1.1c0 8.9-2 16.9-5.2 22.5-1.6 2.8-3.4 5.1-5.5 6.6-2 1.5-4.2 2.3-6.4 2.3s-4.4-.8-6.4-2.3c-3-2.3-5.7-6.2-7.6-11.3-1.9-5.1-3-11.2-3-17.9 0-8.9 2-16.8 5.2-22.4 1.6-2.8 3.4-5 5.5-6.5 2-1.5 4.2-2.3 6.4-2.3s4.4.8 6.4 2.3c3 2.2 5.7 6.1 7.6 11.1s3 11.1 3 17.8l1.1.1 1.1-.1c0-9.2-2.1-17.5-5.4-23.5-1.7-3-3.7-5.5-6.1-7.2-2.3-1.7-4.9-2.7-7.7-2.7s-5.4 1-7.7 2.7c-3.5 2.6-6.3 6.8-8.3 12.1s-3.2 11.7-3.2 18.6c0 9.2 2.1 17.5 5.4 23.6 1.7 3 3.7 5.5 6.1 7.3 2.3 1.8 4.9 2.8 7.7 2.8s5.4-1 7.7-2.8c3.5-2.6 6.3-6.9 8.3-12.3 2-5.3 3.2-11.7 3.2-18.7H79"/><path class="st11" d="M69.8 239.6h-1.1c0 4.8-1 9.1-2.5 12.2-.8 1.5-1.6 2.7-2.6 3.5-.9.8-1.8 1.2-2.7 1.2s-1.8-.4-2.7-1.2c-1.4-1.2-2.7-3.3-3.6-6-.9-2.7-1.5-6.1-1.5-9.6 0-4.8 1-9 2.5-11.9.8-1.5 1.6-2.6 2.5-3.4.9-.7 1.8-1.1 2.8-1.1.9 0 1.8.4 2.8 1.1 1.4 1.1 2.7 3.1 3.6 5.8.9 2.6 1.5 5.9 1.5 9.5h2.1c0-5.1-1-9.6-2.7-12.9-.9-1.7-1.9-3.1-3.1-4.1-1.2-1-2.6-1.6-4.2-1.6-1.5 0-3 .6-4.2 1.6-1.8 1.5-3.3 3.9-4.3 6.8s-1.6 6.4-1.6 10.2c0 5.1 1 9.7 2.7 13.1.9 1.7 1.9 3.2 3.1 4.2 1.2 1 2.6 1.7 4.2 1.7 1.5 0 3-.6 4.2-1.7 1.8-1.6 3.2-4 4.2-7s1.6-6.5 1.6-10.3h-1"/><path class="st47" d="M61.4 198.4c-.4 0-.7.3-.7.7v3.2c0 .4.3.7.7.7s.7-.3.7-.7v-3.2c0-.4-.3-.7-.7-.7m22.4 22.2c-.2 0-.4.1-.5.2l-2.3 2.3c-.3.3-.3.8 0 1.1.1.1.3.2.5.2s.4-.1.5-.2l2.3-2.3c.3-.3.3-.8 0-1.1-.1-.1-.3-.2-.5-.2m-41.2 40.5c-.2 0-.4.1-.5.2l-2.3 2.3c-.3.3-.3.8 0 1.1.1.1.3.2.5.2s.4-.1.5-.2l2.3-2.3c.3-.3.3-.8 0-1.1-.2-.2-.3-.2-.5-.2m-3.9-42.5c-.2 0-.4.1-.5.2-.3.3-.3.8 0 1.1l2.3 2.3c.1.1.3.2.5.2s.4-.1.5-.2c.3-.3.3-.8 0-1.1l-2.3-2.3c-.1-.1-.3-.2-.5-.2m40.7 41.1c-.2 0-.4.1-.5.2-.3.3-.3.8 0 1.1l2.3 2.3c.1.1.3.2.5.2s.4-.1.5-.2c.3-.3.3-.8 0-1.1l-2.3-2.3c-.1-.1-.3-.2-.5-.2"/><g class="st48"><path class="st49" d="M60.2 280.6c-.4 0-.7-.3-.7-.7v-3.2c0-.4.3-.7.7-.7s.7.3.7.7v3.2c0 .4-.3.7-.7.7m-5.5-9.2c-.9 5-1.8 10.3-2.8 15.2 2.9 1.7 6.1 2.7 9.4 2.7h1.3c.1-5.3.1-11 .1-16.3-.6.1-1.2.1-1.8.1-2.2 0-4.3-.6-6.2-1.7m2.6-14c-.1.3-.1.6-.2.9-.7 3.6-1.3 7.2-2 10.8 1.8 1.2 3.7 1.8 5.7 1.8.6 0 1.2-.1 1.8-.2v-12.5c-.6.2-1.2.3-1.8.3-1.2.1-2.4-.3-3.5-1.1m3.8-19.6c-1.1 5.7-2.3 11.4-3.4 17.1.1.1.2.2.4.3.9.8 1.8 1.2 2.7 1.2.6 0 1.2-.2 1.8-.5-.1-5.4-.4-10.7-.6-16.1-.2-.7-.6-1.4-.9-2"/></g><path class="st50" d="M55.2 269.1c-.1.8-.3 1.6-.4 2.4 1.9 1.1 4 1.7 6.1 1.7.6 0 1.2 0 1.8-.1v-2.3c-.6.1-1.2.2-1.8.2-2-.1-3.9-.7-5.7-1.9m2.6-14.2c-.2.8-.3 1.7-.5 2.5 1.1.8 2.3 1.2 3.6 1.2.6 0 1.2-.1 1.8-.3v-2.4c-.6.3-1.2.5-1.8.5-.9 0-1.8-.4-2.7-1.2-.2-.1-.3-.2-.4-.3"/><path class="st51" d="M60.2 275.9c-.4 0-.7.3-.7.7v3.2c0 .4.3.7.7.7s.7-.3.7-.7v-3.2c0-.3-.3-.7-.7-.7"/><path class="st11" d="M62.1 239.4c0 1-.6 1.6-1.3 1.6s-1.3-.7-1.3-1.6c0-1 .6-1.5 1.3-1.5.8 0 1.3.5 1.3 1.5z"/><path class="st52" d="M60 238.3c-3.1-1.1-6.3-2.3-9.4-3.4-.6-.2-1.2.1-1.4.7-.2.6.1 1.2.7 1.4 1.2.4 2.4.9 3.6 1.3h-26l-5.5-5.5c-.4-.4-1.1-.4-1.6 0-.4.4-.4 1.1 0 1.6l3.9 3.9H21l-5.5-5.5c-.4-.4-1.1-.4-1.6 0-.4.4-.4 1.1 0 1.6l3.9 3.9h-3.3L9 232.8c-.4-.4-1.1-.4-1.6 0-.4.4-.4 1.1 0 1.6l3.9 3.9H8.2c-.6 0-1.1.5-1.1 1.1s.5 1.1 1.1 1.1h3.3l-4.1 4.1c-.4.4-.4 1.1 0 1.6s1.1.4 1.6 0l5.6-5.6h3.3l-4.1 4.1c-.4.4-.4 1.1 0 1.6.4.4 1.1.4 1.6 0l5.6-5.6h3.3l-4.1 4.1c-.4.4-.4 1.1 0 1.6s1.1.4 1.6 0l5.6-5.6h25.7c-1.2.4-2.3.9-3.5 1.3-.6.2-.9.9-.7 1.4.2.6.9.9 1.4.7 3.1-1.1 6.3-2.3 9.4-3.4.5-.2.7-.6.7-1.1.3-.8 0-1.2-.4-1.4z"/></g><g class="st53"><path class="st18" d="M403 509V340.3c0-.4-.2-.9-.5-1.2-67.8-67.8-32.4-32.1-97.7-97.4-1.1-1.1-2.9-.3-2.9 1.2v168.5c0 .4.2.9.5 1.2l97.7 97.7c1.1 1 2.9.2 2.9-1.3z"/></g><path class="st7" d="M272.8 412.2l-1.4-1.4c-8.7-8.7.5 1 1.4 1.4zM296 251.9c1.4 1.5 2.8 3 4.1 4.5.5.4 1 .7 1.5 1.1 3.7 3-6.8-8-13.3-14.3-.1.1-.1.2-.2.3 3 2.4 5.6 5.3 7.9 8.4z"/><g class="st54"><path class="st1" d="M386.3 388.5c.4-10.5 0-46.3 0-46.3h-15.5v31.2s-.2 127-.2 134.9c3.5.1 16.4.1 16.4.1s-1.2-107.1-.7-119.9z"/></g><path class="st55" d="M386.4 341.7S312 267 310.1 264.8c-1.5-1.7-26.3-24.9-26.3-24.9l-14.5.3s73.7 74.4 100.9 101.5h16.2z"/><path class="st7" d="M304.1 392.3c-.1 0-.1.1 0 .1s.1-.1 0-.1z"/><defs><path id="SVGID_7_" d="M354.3 352l-58.1-58.1c0 35.1.1 71.4.1 106.5 7.1 7.1 15.1 14 22.2 21 .1-.4.5-.6.8-.3l34.9 34.9c.1-34.6.1-69.3.1-104z"/></defs><clipPath id="SVGID_8_"><use xlink:href="#SVGID_7_" overflow="visible"/></clipPath><g class="st56"><path class="st57" d="M296.3 372.9l58 57.3V456h-58z"/></g><defs><path id="SVGID_9_" d="M354.3 352l-58.1-58.1c0 35.1.1 71.4.1 106.5 7.1 7.1 15.1 14 22.2 21 .1-.4.5-.6.8-.3l34.9 34.9c.1-34.6.1-69.3.1-104z"/></defs><clipPath id="SVGID_10_"><use xlink:href="#SVGID_9_" overflow="visible"/></clipPath><g class="st58"><path class="st57" d="M296.3 371.4l58 57.3v1.5l-58-57.3z"/></g><defs><path id="SVGID_11_" d="M354.3 352l-58.1-58.1c0 35.1.1 71.4.1 106.5 7.1 7.1 15.1 14 22.2 21 .1-.4.5-.6.8-.3l34.9 34.9c.1-34.6.1-69.3.1-104z"/></defs><clipPath id="SVGID_12_"><use xlink:href="#SVGID_11_" overflow="visible"/></clipPath><g class="st59"><path class="st60" d="M296.3 370l58 57.3v1.4l-58-57.3z"/></g><defs><path id="SVGID_13_" d="M354.3 352l-58.1-58.1c0 35.1.1 71.4.1 106.5 7.1 7.1 15.1 14 22.2 21 .1-.4.5-.6.8-.3l34.9 34.9c.1-34.6.1-69.3.1-104z"/></defs><clipPath id="SVGID_14_"><use xlink:href="#SVGID_13_" overflow="visible"/></clipPath><g class="st61"><path class="st62" d="M296.3 368.5l58 57.3v1.5l-58-57.3z"/></g><defs><path id="SVGID_15_" d="M354.3 352l-58.1-58.1c0 35.1.1 71.4.1 106.5 7.1 7.1 15.1 14 22.2 21 .1-.4.5-.6.8-.3l34.9 34.9c.1-34.6.1-69.3.1-104z"/></defs><clipPath id="SVGID_16_"><use xlink:href="#SVGID_15_" overflow="visible"/></clipPath><g class="st63"><path class="st64" d="M296.3 367l58 57.3v1.5l-58-57.3z"/></g><defs><path id="SVGID_17_" d="M354.3 352l-58.1-58.1c0 35.1.1 71.4.1 106.5 7.1 7.1 15.1 14 22.2 21 .1-.4.5-.6.8-.3l34.9 34.9c.1-34.6.1-69.3.1-104z"/></defs><clipPath id="SVGID_18_"><use xlink:href="#SVGID_17_" overflow="visible"/></clipPath><g class="st65"><path class="st66" d="M296.3 365.6l58 57.3v1.4l-58-57.3z"/></g><defs><path id="SVGID_19_" d="M354.3 352l-58.1-58.1c0 35.1.1 71.4.1 106.5 7.1 7.1 15.1 14 22.2 21 .1-.4.5-.6.8-.3l34.9 34.9c.1-34.6.1-69.3.1-104z"/></defs><clipPath id="SVGID_20_"><use xlink:href="#SVGID_19_" overflow="visible"/></clipPath><g class="st67"><path class="st68" d="M296.3 364.1l58 57.3v1.5l-58-57.3z"/></g><defs><path id="SVGID_21_" d="M354.3 352l-58.1-58.1c0 35.1.1 71.4.1 106.5 7.1 7.1 15.1 14 22.2 21 .1-.4.5-.6.8-.3l34.9 34.9c.1-34.6.1-69.3.1-104z"/></defs><clipPath id="SVGID_22_"><use xlink:href="#SVGID_21_" overflow="visible"/></clipPath><g class="st69"><path class="st70" d="M296.3 362.6l58 57.3v1.5l-58-57.3z"/></g><defs><path id="SVGID_23_" d="M354.3 352l-58.1-58.1c0 35.1.1 71.4.1 106.5 7.1 7.1 15.1 14 22.2 21 .1-.4.5-.6.8-.3l34.9 34.9c.1-34.6.1-69.3.1-104z"/></defs><clipPath id="SVGID_24_"><use xlink:href="#SVGID_23_" overflow="visible"/></clipPath><g class="st71"><path class="st72" d="M296.3 361.2l58 57.2v1.5l-58-57.3z"/></g><defs><path id="SVGID_25_" d="M354.3 352l-58.1-58.1c0 35.1.1 71.4.1 106.5 7.1 7.1 15.1 14 22.2 21 .1-.4.5-.6.8-.3l34.9 34.9c.1-34.6.1-69.3.1-104z"/></defs><clipPath id="SVGID_26_"><use xlink:href="#SVGID_25_" overflow="visible"/></clipPath><g class="st73"><path class="st74" d="M296.3 359.7l58 57.3v1.4l-58-57.2z"/></g><defs><path id="SVGID_27_" d="M354.3 352l-58.1-58.1c0 35.1.1 71.4.1 106.5 7.1 7.1 15.1 14 22.2 21 .1-.4.5-.6.8-.3l34.9 34.9c.1-34.6.1-69.3.1-104z"/></defs><clipPath id="SVGID_28_"><use xlink:href="#SVGID_27_" overflow="visible"/></clipPath><g class="st75"><path class="st76" d="M296.3 358.2l58 57.3v1.5l-58-57.3z"/></g><defs><path id="SVGID_29_" d="M354.3 352l-58.1-58.1c0 35.1.1 71.4.1 106.5 7.1 7.1 15.1 14 22.2 21 .1-.4.5-.6.8-.3l34.9 34.9c.1-34.6.1-69.3.1-104z"/></defs><clipPath id="SVGID_30_"><use xlink:href="#SVGID_29_" overflow="visible"/></clipPath><g class="st77"><path class="st78" d="M296.3 356.7l58 57.3v1.5l-58-57.3z"/></g><defs><path id="SVGID_31_" d="M354.3 352l-58.1-58.1c0 35.1.1 71.4.1 106.5 7.1 7.1 15.1 14 22.2 21 .1-.4.5-.6.8-.3l34.9 34.9c.1-34.6.1-69.3.1-104z"/></defs><clipPath id="SVGID_32_"><use xlink:href="#SVGID_31_" overflow="visible"/></clipPath><g class="st79"><path class="st80" d="M296.3 355.3l58 57.3v1.4l-58-57.3z"/></g><defs><path id="SVGID_33_" d="M354.3 352l-58.1-58.1c0 35.1.1 71.4.1 106.5 7.1 7.1 15.1 14 22.2 21 .1-.4.5-.6.8-.3l34.9 34.9c.1-34.6.1-69.3.1-104z"/></defs><clipPath id="SVGID_34_"><use xlink:href="#SVGID_33_" overflow="visible"/></clipPath><g class="st81"><path class="st82" d="M296.3 353.8l58 57.3v1.5l-58-57.3z"/></g><defs><path id="SVGID_35_" d="M354.3 352l-58.1-58.1c0 35.1.1 71.4.1 106.5 7.1 7.1 15.1 14 22.2 21 .1-.4.5-.6.8-.3l34.9 34.9c.1-34.6.1-69.3.1-104z"/></defs><clipPath id="SVGID_36_"><use xlink:href="#SVGID_35_" overflow="visible"/></clipPath><g class="st83"><path class="st84" d="M296.3 352.3l58 57.3v1.5l-58-57.3z"/></g><defs><path id="SVGID_37_" d="M354.3 352l-58.1-58.1c0 35.1.1 71.4.1 106.5 7.1 7.1 15.1 14 22.2 21 .1-.4.5-.6.8-.3l34.9 34.9c.1-34.6.1-69.3.1-104z"/></defs><clipPath id="SVGID_38_"><use xlink:href="#SVGID_37_" overflow="visible"/></clipPath><g class="st85"><path class="st86" d="M296.3 350.9l58 57.3v1.4l-58-57.3z"/></g><defs><path id="SVGID_39_" d="M354.3 352l-58.1-58.1c0 35.1.1 71.4.1 106.5 7.1 7.1 15.1 14 22.2 21 .1-.4.5-.6.8-.3l34.9 34.9c.1-34.6.1-69.3.1-104z"/></defs><clipPath id="SVGID_40_"><use xlink:href="#SVGID_39_" overflow="visible"/></clipPath><g class="st87"><path class="st88" d="M296.3 349.4l58 57.3v1.5l-58-57.3z"/></g><defs><path id="SVGID_41_" d="M354.3 352l-58.1-58.1c0 35.1.1 71.4.1 106.5 7.1 7.1 15.1 14 22.2 21 .1-.4.5-.6.8-.3l34.9 34.9c.1-34.6.1-69.3.1-104z"/></defs><clipPath id="SVGID_42_"><use xlink:href="#SVGID_41_" overflow="visible"/></clipPath><g class="st89"><path class="st90" d="M296.3 347.9l58 57.3v1.5l-58-57.3z"/></g><defs><path id="SVGID_43_" d="M354.3 352l-58.1-58.1c0 35.1.1 71.4.1 106.5 7.1 7.1 15.1 14 22.2 21 .1-.4.5-.6.8-.3l34.9 34.9c.1-34.6.1-69.3.1-104z"/></defs><clipPath id="SVGID_44_"><use xlink:href="#SVGID_43_" overflow="visible"/></clipPath><g class="st91"><path class="st92" d="M296.3 346.5l58 57.3v1.4l-58-57.3z"/></g><defs><path id="SVGID_45_" d="M354.3 352l-58.1-58.1c0 35.1.1 71.4.1 106.5 7.1 7.1 15.1 14 22.2 21 .1-.4.5-.6.8-.3l34.9 34.9c.1-34.6.1-69.3.1-104z"/></defs><clipPath id="SVGID_46_"><use xlink:href="#SVGID_45_" overflow="visible"/></clipPath><g class="st93"><path class="st94" d="M296.3 345l58 57.3v1.5l-58-57.3z"/></g><defs><path id="SVGID_47_" d="M354.3 352l-58.1-58.1c0 35.1.1 71.4.1 106.5 7.1 7.1 15.1 14 22.2 21 .1-.4.5-.6.8-.3l34.9 34.9c.1-34.6.1-69.3.1-104z"/></defs><clipPath id="SVGID_48_"><use xlink:href="#SVGID_47_" overflow="visible"/></clipPath><g class="st95"><path class="st96" d="M296.3 343.5l58 57.3v1.5l-58-57.3z"/></g><defs><path id="SVGID_49_" d="M354.3 352l-58.1-58.1c0 35.1.1 71.4.1 106.5 7.1 7.1 15.1 14 22.2 21 .1-.4.5-.6.8-.3l34.9 34.9c.1-34.6.1-69.3.1-104z"/></defs><clipPath id="SVGID_50_"><use xlink:href="#SVGID_49_" overflow="visible"/></clipPath><g class="st97"><path class="st98" d="M296.3 342.1l58 57.2v1.5l-58-57.3z"/></g><defs><path id="SVGID_51_" d="M354.3 352l-58.1-58.1c0 35.1.1 71.4.1 106.5 7.1 7.1 15.1 14 22.2 21 .1-.4.5-.6.8-.3l34.9 34.9c.1-34.6.1-69.3.1-104z"/></defs><clipPath id="SVGID_52_"><use xlink:href="#SVGID_51_" overflow="visible"/></clipPath><g class="st99"><path class="st100" d="M296.3 340.6l58 57.3v1.4l-58-57.2z"/></g><defs><path id="SVGID_53_" d="M354.3 352l-58.1-58.1c0 35.1.1 71.4.1 106.5 7.1 7.1 15.1 14 22.2 21 .1-.4.5-.6.8-.3l34.9 34.9c.1-34.6.1-69.3.1-104z"/></defs><clipPath id="SVGID_54_"><use xlink:href="#SVGID_53_" overflow="visible"/></clipPath><g class="st101"><path class="st102" d="M296.3 339.1l58 57.3v1.5l-58-57.3z"/></g><defs><path id="SVGID_55_" d="M354.3 352l-58.1-58.1c0 35.1.1 71.4.1 106.5 7.1 7.1 15.1 14 22.2 21 .1-.4.5-.6.8-.3l34.9 34.9c.1-34.6.1-69.3.1-104z"/></defs><clipPath id="SVGID_56_"><use xlink:href="#SVGID_55_" overflow="visible"/></clipPath><g class="st103"><path class="st104" d="M296.3 337.6l58 57.3v1.5l-58-57.3z"/></g><defs><path id="SVGID_57_" d="M354.3 352l-58.1-58.1c0 35.1.1 71.4.1 106.5 7.1 7.1 15.1 14 22.2 21 .1-.4.5-.6.8-.3l34.9 34.9c.1-34.6.1-69.3.1-104z"/></defs><clipPath id="SVGID_58_"><use xlink:href="#SVGID_57_" overflow="visible"/></clipPath><g class="st105"><path class="st106" d="M296.3 336.2l58 57.3v1.4l-58-57.3z"/></g><defs><path id="SVGID_59_" d="M354.3 352l-58.1-58.1c0 35.1.1 71.4.1 106.5 7.1 7.1 15.1 14 22.2 21 .1-.4.5-.6.8-.3l34.9 34.9c.1-34.6.1-69.3.1-104z"/></defs><clipPath id="SVGID_60_"><use xlink:href="#SVGID_59_" overflow="visible"/></clipPath><g class="st107"><path class="st108" d="M296.3 334.7l58 57.3v1.5l-58-57.3z"/></g><defs><path id="SVGID_61_" d="M354.3 352l-58.1-58.1c0 35.1.1 71.4.1 106.5 7.1 7.1 15.1 14 22.2 21 .1-.4.5-.6.8-.3l34.9 34.9c.1-34.6.1-69.3.1-104z"/></defs><clipPath id="SVGID_62_"><use xlink:href="#SVGID_61_" overflow="visible"/></clipPath><g class="st109"><path class="st110" d="M296.3 333.2l58 57.3v1.5l-58-57.3z"/></g><defs><path id="SVGID_63_" d="M354.3 352l-58.1-58.1c0 35.1.1 71.4.1 106.5 7.1 7.1 15.1 14 22.2 21 .1-.4.5-.6.8-.3l34.9 34.9c.1-34.6.1-69.3.1-104z"/></defs><clipPath id="SVGID_64_"><use xlink:href="#SVGID_63_" overflow="visible"/></clipPath><g class="st111"><path class="st112" d="M296.3 331.8l58 57.3v1.4l-58-57.3z"/></g><defs><path id="SVGID_65_" d="M354.3 352l-58.1-58.1c0 35.1.1 71.4.1 106.5 7.1 7.1 15.1 14 22.2 21 .1-.4.5-.6.8-.3l34.9 34.9c.1-34.6.1-69.3.1-104z"/></defs><clipPath id="SVGID_66_"><use xlink:href="#SVGID_65_" overflow="visible"/></clipPath><g class="st113"><path class="st114" d="M296.3 330.3l58 57.3v1.5l-58-57.3z"/></g><defs><path id="SVGID_67_" d="M354.3 352l-58.1-58.1c0 35.1.1 71.4.1 106.5 7.1 7.1 15.1 14 22.2 21 .1-.4.5-.6.8-.3l34.9 34.9c.1-34.6.1-69.3.1-104z"/></defs><clipPath id="SVGID_68_"><use xlink:href="#SVGID_67_" overflow="visible"/></clipPath><g class="st115"><path class="st116" d="M296.3 328.8l58 57.3v1.5l-58-57.3z"/></g><defs><path id="SVGID_69_" d="M354.3 352l-58.1-58.1c0 35.1.1 71.4.1 106.5 7.1 7.1 15.1 14 22.2 21 .1-.4.5-.6.8-.3l34.9 34.9c.1-34.6.1-69.3.1-104z"/></defs><clipPath id="SVGID_70_"><use xlink:href="#SVGID_69_" overflow="visible"/></clipPath><g class="st117"><path class="st118" d="M296.3 327.4l58 57.3v1.4l-58-57.3z"/></g><defs><path id="SVGID_71_" d="M354.3 352l-58.1-58.1c0 35.1.1 71.4.1 106.5 7.1 7.1 15.1 14 22.2 21 .1-.4.5-.6.8-.3l34.9 34.9c.1-34.6.1-69.3.1-104z"/></defs><clipPath id="SVGID_72_"><use xlink:href="#SVGID_71_" overflow="visible"/></clipPath><g class="st119"><path class="st120" d="M296.3 325.9l58 57.3v1.5l-58-57.3z"/></g><defs><path id="SVGID_73_" d="M354.3 352l-58.1-58.1c0 35.1.1 71.4.1 106.5 7.1 7.1 15.1 14 22.2 21 .1-.4.5-.6.8-.3l34.9 34.9c.1-34.6.1-69.3.1-104z"/></defs><clipPath id="SVGID_74_"><use xlink:href="#SVGID_73_" overflow="visible"/></clipPath><g class="st121"><path class="st122" d="M296.3 324.4l58 57.3v1.5l-58-57.3z"/></g><defs><path id="SVGID_75_" d="M354.3 352l-58.1-58.1c0 35.1.1 71.4.1 106.5 7.1 7.1 15.1 14 22.2 21 .1-.4.5-.6.8-.3l34.9 34.9c.1-34.6.1-69.3.1-104z"/></defs><clipPath id="SVGID_76_"><use xlink:href="#SVGID_75_" overflow="visible"/></clipPath><g class="st123"><path class="st124" d="M296.3 323l58 57.2v1.5l-58-57.3z"/></g><defs><path id="SVGID_77_" d="M354.3 352l-58.1-58.1c0 35.1.1 71.4.1 106.5 7.1 7.1 15.1 14 22.2 21 .1-.4.5-.6.8-.3l34.9 34.9c.1-34.6.1-69.3.1-104z"/></defs><clipPath id="SVGID_78_"><use xlink:href="#SVGID_77_" overflow="visible"/></clipPath><g class="st125"><path class="st126" d="M296.3 321.5l58 57.3v1.4l-58-57.2z"/></g><defs><path id="SVGID_79_" d="M354.3 352l-58.1-58.1c0 35.1.1 71.4.1 106.5 7.1 7.1 15.1 14 22.2 21 .1-.4.5-.6.8-.3l34.9 34.9c.1-34.6.1-69.3.1-104z"/></defs><clipPath id="SVGID_80_"><use xlink:href="#SVGID_79_" overflow="visible"/></clipPath><g class="st127"><path class="st128" d="M296.3 320l58 57.3v1.5l-58-57.3z"/></g><defs><path id="SVGID_81_" d="M354.3 352l-58.1-58.1c0 35.1.1 71.4.1 106.5 7.1 7.1 15.1 14 22.2 21 .1-.4.5-.6.8-.3l34.9 34.9c.1-34.6.1-69.3.1-104z"/></defs><clipPath id="SVGID_82_"><use xlink:href="#SVGID_81_" overflow="visible"/></clipPath><g class="st129"><path class="st130" d="M296.3 318.5l58 57.3v1.5l-58-57.3z"/></g><defs><path id="SVGID_83_" d="M354.3 352l-58.1-58.1c0 35.1.1 71.4.1 106.5 7.1 7.1 15.1 14 22.2 21 .1-.4.5-.6.8-.3l34.9 34.9c.1-34.6.1-69.3.1-104z"/></defs><clipPath id="SVGID_84_"><use xlink:href="#SVGID_83_" overflow="visible"/></clipPath><g class="st131"><path class="st132" d="M296.3 317.1l58 57.3v1.4l-58-57.3z"/></g><defs><path id="SVGID_85_" d="M354.3 352l-58.1-58.1c0 35.1.1 71.4.1 106.5 7.1 7.1 15.1 14 22.2 21 .1-.4.5-.6.8-.3l34.9 34.9c.1-34.6.1-69.3.1-104z"/></defs><clipPath id="SVGID_86_"><use xlink:href="#SVGID_85_" overflow="visible"/></clipPath><g class="st133"><path class="st134" d="M296.3 315.6l58 57.3v1.5l-58-57.3z"/></g><defs><path id="SVGID_87_" d="M354.3 352l-58.1-58.1c0 35.1.1 71.4.1 106.5 7.1 7.1 15.1 14 22.2 21 .1-.4.5-.6.8-.3l34.9 34.9c.1-34.6.1-69.3.1-104z"/></defs><clipPath id="SVGID_88_"><use xlink:href="#SVGID_87_" overflow="visible"/></clipPath><g class="st135"><path class="st136" d="M296.3 314.1l58 57.3v1.5l-58-57.3z"/></g><defs><path id="SVGID_89_" d="M354.3 352l-58.1-58.1c0 35.1.1 71.4.1 106.5 7.1 7.1 15.1 14 22.2 21 .1-.4.5-.6.8-.3l34.9 34.9c.1-34.6.1-69.3.1-104z"/></defs><clipPath id="SVGID_90_"><use xlink:href="#SVGID_89_" overflow="visible"/></clipPath><g class="st137"><path class="st138" d="M296.3 312.7l58 57.3v1.4l-58-57.3z"/></g><defs><path id="SVGID_91_" d="M354.3 352l-58.1-58.1c0 35.1.1 71.4.1 106.5 7.1 7.1 15.1 14 22.2 21 .1-.4.5-.6.8-.3l34.9 34.9c.1-34.6.1-69.3.1-104z"/></defs><clipPath id="SVGID_92_"><use xlink:href="#SVGID_91_" overflow="visible"/></clipPath><g class="st139"><path class="st140" d="M296.3 311.2l58 57.3v1.5l-58-57.3z"/></g><defs><path id="SVGID_93_" d="M354.3 352l-58.1-58.1c0 35.1.1 71.4.1 106.5 7.1 7.1 15.1 14 22.2 21 .1-.4.5-.6.8-.3l34.9 34.9c.1-34.6.1-69.3.1-104z"/></defs><clipPath id="SVGID_94_"><use xlink:href="#SVGID_93_" overflow="visible"/></clipPath><g class="st141"><path class="st142" d="M296.3 309.7l58 57.3v1.5l-58-57.3z"/></g><defs><path id="SVGID_95_" d="M354.3 352l-58.1-58.1c0 35.1.1 71.4.1 106.5 7.1 7.1 15.1 14 22.2 21 .1-.4.5-.6.8-.3l34.9 34.9c.1-34.6.1-69.3.1-104z"/></defs><clipPath id="SVGID_96_"><use xlink:href="#SVGID_95_" overflow="visible"/></clipPath><g class="st143"><path class="st144" d="M296.3 308.3l58 57.3v1.4l-58-57.3z"/></g><defs><path id="SVGID_97_" d="M354.3 352l-58.1-58.1c0 35.1.1 71.4.1 106.5 7.1 7.1 15.1 14 22.2 21 .1-.4.5-.6.8-.3l34.9 34.9c.1-34.6.1-69.3.1-104z"/></defs><clipPath id="SVGID_98_"><use xlink:href="#SVGID_97_" overflow="visible"/></clipPath><g class="st145"><path class="st146" d="M296.3 306.8l58 57.3v1.5l-58-57.3z"/></g><defs><path id="SVGID_99_" d="M354.3 352l-58.1-58.1c0 35.1.1 71.4.1 106.5 7.1 7.1 15.1 14 22.2 21 .1-.4.5-.6.8-.3l34.9 34.9c.1-34.6.1-69.3.1-104z"/></defs><clipPath id="SVGID_100_"><use xlink:href="#SVGID_99_" overflow="visible"/></clipPath><g class="st147"><path class="st148" d="M296.3 305.3l58 57.3v1.5l-58-57.3z"/></g><defs><path id="SVGID_101_" d="M354.3 352l-58.1-58.1c0 35.1.1 71.4.1 106.5 7.1 7.1 15.1 14 22.2 21 .1-.4.5-.6.8-.3l34.9 34.9c.1-34.6.1-69.3.1-104z"/></defs><clipPath id="SVGID_102_"><use xlink:href="#SVGID_101_" overflow="visible"/></clipPath><g class="st149"><path class="st150" d="M296.3 303.9l58 57.2v1.5l-58-57.3z"/></g><defs><path id="SVGID_103_" d="M354.3 352l-58.1-58.1c0 35.1.1 71.4.1 106.5 7.1 7.1 15.1 14 22.2 21 .1-.4.5-.6.8-.3l34.9 34.9c.1-34.6.1-69.3.1-104z"/></defs><clipPath id="SVGID_104_"><use xlink:href="#SVGID_103_" overflow="visible"/></clipPath><g class="st151"><path class="st152" d="M296.3 302.4l58 57.3v1.4l-58-57.2z"/></g><defs><path id="SVGID_105_" d="M354.3 352l-58.1-58.1c0 35.1.1 71.4.1 106.5 7.1 7.1 15.1 14 22.2 21 .1-.4.5-.6.8-.3l34.9 34.9c.1-34.6.1-69.3.1-104z"/></defs><clipPath id="SVGID_106_"><use xlink:href="#SVGID_105_" overflow="visible"/></clipPath><g class="st153"><path class="st154" d="M296.3 300.9l58 57.3v1.5l-58-57.3z"/></g><defs><path id="SVGID_107_" d="M354.3 352l-58.1-58.1c0 35.1.1 71.4.1 106.5 7.1 7.1 15.1 14 22.2 21 .1-.4.5-.6.8-.3l34.9 34.9c.1-34.6.1-69.3.1-104z"/></defs><clipPath id="SVGID_108_"><use xlink:href="#SVGID_107_" overflow="visible"/></clipPath><g class="st155"><path class="st156" d="M296.3 299.4l58 57.3v1.5l-58-57.3z"/></g><defs><path id="SVGID_109_" d="M354.3 352l-58.1-58.1c0 35.1.1 71.4.1 106.5 7.1 7.1 15.1 14 22.2 21 .1-.4.5-.6.8-.3l34.9 34.9c.1-34.6.1-69.3.1-104z"/></defs><clipPath id="SVGID_110_"><use xlink:href="#SVGID_109_" overflow="visible"/></clipPath><g class="st157"><path class="st158" d="M296.3 298l58 57.3v1.4l-58-57.3z"/></g><defs><path id="SVGID_111_" d="M354.3 352l-58.1-58.1c0 35.1.1 71.4.1 106.5 7.1 7.1 15.1 14 22.2 21 .1-.4.5-.6.8-.3l34.9 34.9c.1-34.6.1-69.3.1-104z"/></defs><clipPath id="SVGID_112_"><use xlink:href="#SVGID_111_" overflow="visible"/></clipPath><g class="st159"><path class="st160" d="M296.3 296.5l58 57.3v1.5l-58-57.3z"/></g><defs><path id="SVGID_113_" d="M354.3 352l-58.1-58.1c0 35.1.1 71.4.1 106.5 7.1 7.1 15.1 14 22.2 21 .1-.4.5-.6.8-.3l34.9 34.9c.1-34.6.1-69.3.1-104z"/></defs><clipPath id="SVGID_114_"><use xlink:href="#SVGID_113_" overflow="visible"/></clipPath><g class="st161"><path class="st162" d="M296.3 295l58 57.3v1.5l-58-57.3z"/></g><defs><path id="SVGID_115_" d="M354.3 352l-58.1-58.1c0 35.1.1 71.4.1 106.5 7.1 7.1 15.1 14 22.2 21 .1-.4.5-.6.8-.3l34.9 34.9c.1-34.6.1-69.3.1-104z"/></defs><clipPath id="SVGID_116_"><use xlink:href="#SVGID_115_" overflow="visible"/></clipPath><g class="st163"><path class="st164" d="M296.6 293.9l57.7 57v1.4l-58-57.3v-1.1z"/></g><defs><path id="SVGID_117_" d="M354.3 352l-58.1-58.1c0 35.1.1 71.4.1 106.5 7.1 7.1 15.1 14 22.2 21 .1-.4.5-.6.8-.3l34.9 34.9c.1-34.6.1-69.3.1-104z"/></defs><clipPath id="SVGID_118_"><use xlink:href="#SVGID_117_" overflow="visible"/></clipPath><g class="st165"><path class="st166" d="M298.1 293.9l56.2 55.5v1.5l-57.7-57z"/></g><defs><path id="SVGID_119_" d="M354.3 352l-58.1-58.1c0 35.1.1 71.4.1 106.5 7.1 7.1 15.1 14 22.2 21 .1-.4.5-.6.8-.3l34.9 34.9c.1-34.6.1-69.3.1-104z"/></defs><clipPath id="SVGID_120_"><use xlink:href="#SVGID_119_" overflow="visible"/></clipPath><g class="st167"><path class="st168" d="M299.6 293.9l54.7 54v1.5l-56.2-55.5z"/></g><defs><path id="SVGID_121_" d="M354.3 352l-58.1-58.1c0 35.1.1 71.4.1 106.5 7.1 7.1 15.1 14 22.2 21 .1-.4.5-.6.8-.3l34.9 34.9c.1-34.6.1-69.3.1-104z"/></defs><clipPath id="SVGID_122_"><use xlink:href="#SVGID_121_" overflow="visible"/></clipPath><g class="st169"><path class="st170" d="M301.1 293.9l53.2 52.6v1.4l-54.7-54z"/></g><defs><path id="SVGID_123_" d="M354.3 352l-58.1-58.1c0 35.1.1 71.4.1 106.5 7.1 7.1 15.1 14 22.2 21 .1-.4.5-.6.8-.3l34.9 34.9c.1-34.6.1-69.3.1-104z"/></defs><clipPath id="SVGID_124_"><use xlink:href="#SVGID_123_" overflow="visible"/></clipPath><g class="st171"><path class="st170" d="M354.3 346.5l-53.2-52.6h53.2z"/></g><path class="st7" d="M359.9 352.8c-.1-1.6-4.4-1.7-4.4-1.7s-27.5 31-32.8 37.3c-.1.1-.1.3-.1.4-.1.2-.3.3-.4.5-.4.5-.1 1.5.7 1.2.3-.1.6-.3.9-.4 3.6 5.4 8.9 9.8 13.5 14.3 2.4 2.3 4.9 4.6 7.2 7 1.7 1.7 3.1 3.7 4.8 5.2 2 3.1 4.6 5.8 7.1 8.3 1.4 1.5 3.5-.7 2.2-2.2l-.1-.1c-.7-10.8.2-21.8-.1-32.5-.1-5.8-.4-11.6-.4-17.4-.1-5.6-.6-12.9 2.3-17.9.4-.8.1-1.5-.4-2z"/><path class="st7" d="M321.9 389.1c-.2 0-.5-.1-.7-.3-.4-.4-.4-1-.1-1.4l36.5-39.4c.4-.4 1-.4 1.4-.1.4.4.4 1 .1 1.4l-36.5 39.4c-.2.3-.4.4-.7.4zm-20.7 8.2c3.4 1.3 6.7 2.6 10 4 2.1-1.5 4.1-3.1 5.9-5 .2.2.4.4.7.5.6.4 1.2-.5.9-1.1l-.3-.6c0-.1.1-.3 0-.4-3.1-7.2-6-14.3-9.7-21.1-3.7-6.8-8.1-13.2-10.6-20.7-.6-1.9-3.1-1.4-3.6.2-.6.3-1.1 1-.9 1.9 1.3 5.4-1 12.4-2.5 17.8-1.5 5.6-3.2 11.2-4.7 16.8-.3 1-.6 2.1-.8 3.1 5.3 1.5 10.6 2.7 15.6 4.6z"/><path class="st7" d="M318.8 396.8c-.4 0-.7-.2-.9-.6L295.6 351c-.2-.5 0-1.1.5-1.3.5-.2 1.1 0 1.3.5l22.3 45.2c.2.5 0 1.1-.5 1.3-.1 0-.2.1-.4.1z"/><path class="st172" d="M330.7 341.1s-29.7 28.4-36.1 35.5c-.7 9 10.9 10.8 15.5 18.7 2.9 5 7.1 9.3 10.8 13.6 3 3.4 6 7.4 9.5 10.1.1.1.3.2.4.2 0 .5.1.9.4 1.2.4.6 1 .8 1.7.7h.7c.4 0 .8 0 1.1.1 1.2 0 2.1-1.5 1.6-2.6 1.8-1 3.5-2.9 4.7-4.5 3-3.9 5.7-7.4 7.6-11.9-5.3-18.7-17.9-61.1-17.9-61.1z"/><path class="st7" d="M347.9 401.6c-.4 0-.8-.3-1-.7l-16.1-58.4-33.2 32.7c-.4.4-1 .4-1.4 0s-.4-1 0-1.4l34.4-33.9c.3-.2.6-.3 1-.3.3.1.6.4.7.7l16.5 60c.1.5-.2 1.1-.7 1.2-.1.1-.2.1-.2.1z"/><path class="st173" d="M345.9 377.8c-2.9 1.8-5.8 3.5-8.8 5.3-9.1 5.4-31.8 18-39.7 24.6-.5 8.2 11.7 9 18.1 16 4.1 4.5 9.7 8.3 14.7 12.1 4.1 3 8.1 6.6 12.9 8.9.2.1.4.1.6.2 0 .4.2.8.5 1.1.5.5 1.4.7 2.2.6h2.4c1.5 0 2.6-1.4 1.9-2.4 2.3-1 4.3-2.8 5.9-4.3 3.7-3.6 8.2-6.9 10.5-11.1-7.9-16.8-15.2-33.7-21.2-51z"/><path class="st7" d="M368.9 430.3c-.4 0-.7-.2-.9-.6l-22.8-49.4-47.3 27.5c-.5.3-1.1.1-1.4-.4s-.1-1.1.4-1.4l48.2-28.1c.2-.1.5-.2.8-.1s.5.3.6.5l23.2 50.4c.2.5 0 1.1-.5 1.3 0 .2-.2.3-.3.3z"/><path class="st174" d="M320.9 414.7c-5.3-12.8-6.2-28.3-35.1-33.3-5.4-.9 15.4 29.6 23.6 40.5 5.1 6.8 9.3 9.8 12.6 10.6 1.4 3.1 2.7-8.5-1.1-17.8z"/><path class="st7" d="M322.4 434c-.3 0-.8-.1-1.2-.7-3.8-1.1-8.1-4.8-12.7-10.8-3.7-4.9-10.2-14.1-15.8-22.8-10.2-16-9.1-17.7-8.6-18.5.2-.3.7-.9 1.8-.7 25.4 4.4 29.9 17.1 33.8 28.3.7 1.9 1.3 3.8 2.1 5.6 2.7 6.5 3.7 18.4 1.1 19.6-.1-.1-.3 0-.5 0zm-36.5-51.6c.4 3.3 10.9 21.2 24.3 38.8 4.5 5.9 8.5 9.4 12 10.2.5-2.4.6-9.8-2.1-16.4-.8-1.9-1.4-3.8-2.1-5.7-4-11.1-8.1-22.6-32.1-26.9z"/><path class="st174" d="M360.6 424.2c-11.8-8.7-21.1-15.3-41.2-14.1-5.4.3 25.9 33.1 35.7 42.5 6.3 5.8 13.6-22.4 5.5-28.4z"/><path class="st7" d="M357 454.4c-.7 0-1.6-.3-2.4-1.1-4.7-4.5-14.1-14.1-22.2-23.1-15.5-17.2-14.7-19.2-14.4-20.1.2-.6.8-1 1.5-1 20.8-1.2 30.5 6 41.8 14.3 5.1 3.8 4 14 3.5 17-.9 6-3.4 12.6-6.8 13.8-.3.1-.6.2-1 .2zM319.9 411c1.1 3.4 17.1 22.9 36 40.8.7.6 1.1.6 1.5.5 1.8-.6 4.4-5.4 5.4-12.2 1.1-7.1 0-13-2.8-15.1-11.3-8.4-20.3-15-40.1-14z"/><path class="st175" d="M358.8 461.3c-3.2-12.6-13.3-32.3-21.5-44.3-9.2-13.4-26.1-25.7-43.1-16.4-4.8 2.6 15.8 20.4 25.4 30 6.1 6.1 39.9 33.5 39.2 30.7z"/><path class="st7" d="M358.8 462.5c-1.1 0-4.2-1.7-18.5-13.2-9.3-7.4-18.5-15.2-21.3-18-1.9-1.9-4.2-4.1-6.7-6.4-11.9-11.2-20.2-19.5-19.7-23.3.1-.8.5-1.4 1.2-1.8 8-4.4 16.8-4.5 25.4-.4 7 3.4 13.8 9.4 19 17.1 8 11.7 18.3 31.6 21.6 44.6.1.5-.1 1-.5 1.3-.2 0-.3.1-.5.1zm-1-.9zm-51.2-63c-4.5 0-8.6 1.2-12 3-.1.1-.2.1-.2.3-.4 3.1 11.3 14.3 19.1 21.6 2.5 2.4 4.8 4.6 6.7 6.5 5.6 5.5 30.4 25.6 37 29.8-3.7-12.8-13.3-31.1-20.8-42.1-9.6-14.2-20.5-19.1-29.8-19.1z"/><path class="st7" d="M308.9 398.2c-.4 0-.8-.3-1-.7l-.3-1.1c-.2-.5.1-1.1.7-1.2.5-.2 1.1.1 1.2.7l.3 1.1c.2.5-.1 1.1-.7 1.2h-.2zm-4.5.3c-.4 0-.9-.3-1-.8l-.3-1.3c-.1-.5.2-1.1.7-1.2s1.1.2 1.2.7l.3 1.3c.1.5-.2 1.1-.7 1.2 0 .1-.1.1-.2.1zm-4.4.8c-.5 0-.9-.4-1-.9l-.1-1.3c-.1-.5.3-1 .9-1.1.5 0 1 .3 1.1.9l.1 1.3c0 .5-.4 1-1 1.1z"/><path class="st176" d="M354.7 457.7c-.2.1-18.2-17.6-26.6-26-.1.4-31.5-30.5-31.5-30.5s-8.6.2-12 .2l70.2 70.2c.2-4-.1-13.9-.1-13.9z"/><path class="st177" d="M296.4 293.5c-4.3-3.6-7.6-8.3-12.2-11.6 0 39.2-.1 78.5-.1 117.7l.2 1v.4h12.2s-.1-70.9-.1-105.8v-1.7z"/><path class="st178" d="M347.8 319.6l-78.4-78.4c-1 .9-1.3 2.2-.7 3.8.1.2.2.2.4.2-.3 5.2-.1 10.5 0 15.7-.5 13.6-.4 27.2-.5 40.8 0 15.3-.4 30.7.1 46 0 6.8-.1 13.7-.1 20.5 0 12.1-.4 24.3.6 36.3-.1 1.1-.1 2.3.5 3.2 0 .1 0 .2.1.3 2.7 3.3 3.4 4.3 3.1 4.1 11.3 11.3 22.5 22.7 34 33.8.3.3.7.3 1 .2 8.6 9.2 17.7 18.1 26.6 27.1 11 11.4 35.5 35.8 35.5 35.8 0-8.7.4-27 .4-27l.1-29.1c0-37-.3-111-.3-111s-15.1-15-22.4-22.3zm7.3 132.2v19.5c0 .6-1 .6-1 0v-.2c-23.7-23.7-45.8-46.3-69.5-69.9-.4-.4-.9-1-.5-.9V282.1c-.1-.1.4-1.1.5-.8 3.2 3.5 7.5 8.7 11.9 12.5.2-.2.2.5.4.7 19.2 19.2 38.7 37.7 57.9 56.9l.3.3c.3.3.1.6-.1.8v99s.1.2.1.3z"/><path class="st16" d="M327.7 381.2l-5-7.9c-.1-.1-.3-.2-.4-.1-.2.1-.3.2-.3.4V385c0 .1.1.3.2.3s.1.1.2.1.1 0 .2-.1l5-3.6c.1-.1.2-.2.2-.3 0 0-.1-.1-.1-.2z"/><path class="st8" d="M324.7 395.8c-5.5 0-10.2-7.1-10.6-16-.4-9.1 3.8-16.7 9.4-16.9 2.8-.1 5.4 1.5 7.5 4.6 2 3 3.2 7.1 3.4 11.4.4 9.1-3.8 16.7-9.4 16.9h-.3zm-.9-31.9h-.3c-5 .2-8.8 7.4-8.4 15.9s4.8 15.2 9.9 15c5-.2 8.8-7.4 8.4-15.9-.2-4.2-1.4-8-3.3-10.9-1.8-2.6-4-4.1-6.3-4.1z"/><path class="st7" d="M288.2 242.4c-.6-.9-1.7-1.6-3.2-2.2.8.7 2 1.8 3.3 3 0-.2 0-.5-.1-.8z"/><path class="st179" d="M370.4 508.3c-.6 0-1-.4-1-1V342.1c0-.6.4-1 1-1s1 .4 1 1v165.2c0 .6-.5 1-1 1zm16.1.6c-.6 0-1-.4-1-1V342.1c0-.6.4-1 1-1s1 .4 1 1V508c0 .5-.4.9-1 .9zm-118-100.3c-.6 0-1-.4-1-1V240c0-.6.4-1 1-1h16.1c.6 0 1 .4 1 1s-.4 1-1 1h-15.1v166.6c0 .5-.4 1-1 1z"/><path class="st179" d="M386.5 343h-16.2c-.6 0-1-.4-1-1s.4-1 1-1h16.2c.6 0 1 .4 1 1s-.5 1-1 1zm-17.3 166.4c-.3 0-.5-.1-.7-.3-22.5-22.5-36.6-36.6-50.3-50.2-13.7-13.6-27.8-27.7-50.4-50.2-.4-.4-.4-1 0-1.4s1-.4 1.4 0c22.5 22.5 36.7 36.6 50.4 50.2 13.7 13.6 27.8 27.6 50.3 50.2.4.4.4 1 0 1.4-.2.2-.5.3-.7.3z"/><path class="st180" d="M370.4 343.1c-.3 0-.5-.1-.7-.3L267.8 240.7c-.4-.4-.4-1 0-1.4s1-.4 1.4 0l101.9 102.1c.4.4.4 1 0 1.4-.2.2-.5.3-.7.3z"/><path class="st179" d="M386.7 342.9c-.3 0-.5-.1-.7-.3L284.2 240.8c-.4-.4-.4-1 0-1.4s1-.4 1.4 0l101.8 101.8c.4.4.4 1 0 1.4-.2.2-.5.3-.7.3zm-.2 166.5h-17.2c-.6 0-1-.4-1-1s.4-1 1-1h17.2c.6 0 1 .4 1 1s-.4 1-1 1z"/><path class="st4" d="M355.2 351.6c0-.1-.1-.1-.1-.2l-70.5-70.5s-.1 0-.1-.1c-.1-.1-.2-.2-.4-.2-.3 0-.5.2-.5.5v120.1c0 .1.1.1.1.2 17.3 17.3 26.5 26.5 35.5 35.3 8.9 8.9 17.9 17.8 35.2 35.1 0 .1.1.1.2.1h.2c.1 0 .3 0 .4-.1s.2-.3.1-.4V351.8s0-.1-.1-.2zm-59.2 49h-11.4V282.4l11.3 11.3v106.7c0 .1 0 .1.1.2zm58.3 69.7c-16.8-16.8-25.6-25.5-34.3-34.2-8.8-8.7-17.8-17.7-34.6-34.5h11.2l57.7 56.4v12.3zm0-13.7l-57.4-56.1V294.7l57.3 57.3v104.6h.1z"/><g class="st17"><ellipse class="st24" cx="303.2" cy="339.7" rx=".6" ry=".9"/></g><g class="st182"><ellipse class="st183" cx="302.3" cy="312.3" rx=".3" ry=".4"/></g><g class="st184"><ellipse class="st183" cx="327.6" cy="334.4" rx=".3" ry=".4"/></g><g class="st13"><ellipse class="st24" cx="341.2" cy="357.7" rx=".4" ry=".5"/></g><g class="st2"><ellipse class="st25" cx="305.3" cy="355.2" rx=".4" ry=".6"/></g><g class="st185"><ellipse class="st16" cx="315.7" cy="343.3" rx=".4" ry=".6"/></g><g class="st35"><path class="st186" d="M320.7 332.9s-.2-.4-.4-.5c-1.8-1.8-12.4-12.4-14.2-14.1-.9-.9-2.2.5-1.3 1.3l5.3 5.3c.1.3.5.7.1 1.2-.3.3-.6.5-1.1.1l-1.1-1.1c-.9-.9-2.2.5-1.3 1.3 1.7 1.8 3.5 3.5 5.2 5.3.1.1.4.3.5.4.8.8 2.1-.5 1.3-1.3 0 0-.2-.4-.4-.5l-1.4-1.4c-.3-.3-.4-.7-.2-1.1.1-.2.2-.3.4-.4.6-.1 1.1.5 1.4.8.1.1 1.3 1.3 1.4 1.3 1.9 1.9 3.5 3.6 4.1 4.2.1.1.4.3.5.4.8.9 2.1-.4 1.2-1.2z"/></g><g class="st187"><path class="st186" d="M343.3 349.2l-1.2-1.2c-.1-.1-.2-.2-.4-.3l-.9-.9c-.7-.7-1.9.4-1.1 1.1 1.5 1.5.9 1 2.4 2.5.1.1.4.3.4.3.7.7 1.8-.4 1.1-1.1-.1 0-.2-.3-.3-.4z"/></g><path class="st7" d="M338 418.5c-.3 0-.7-.2-.9-.5-.3-.5-.1-1.1.3-1.4l1.4-.8c.5-.3 1.1-.1 1.4.3.3.5.1 1.1-.3 1.4l-1.4.8c-.1.2-.3.2-.5.2zm3.6 5.3c-.3 0-.7-.2-.9-.5-.3-.5-.1-1.1.3-1.4l1.4-.8c.5-.3 1.1-.1 1.4.3.3.5.1 1.1-.3 1.4l-1.4.8c-.1.1-.3.2-.5.2zm3.6 5.2c-.3 0-.7-.2-.9-.5-.3-.5-.1-1.1.3-1.4l1.4-.8c.5-.3 1.1-.1 1.4.3.3.5.1 1.1-.3 1.4l-1.4.8c-.2.2-.4.2-.5.2zm3.2 5.7c-.4 0-.7-.2-.9-.5-.3-.5-.1-1.1.4-1.4l1.2-.6c.5-.3 1.1-.1 1.4.4s.1 1.1-.4 1.4l-1.2.6c-.2 0-.3.1-.5.1zm2.2 5.6c-.3 0-.7-.2-.8-.5-.3-.5-.2-1.1.3-1.4l1-.6c.5-.3 1.1-.2 1.4.3s.2 1.1-.3 1.4l-1 .6c-.2.1-.4.2-.6.2z"/><g class="st188"><path class="st18" d="M293 418.8v28.7l.5 32 45.2-.1-17.2-17.1v-16.5c0-.7-.3-1.3-.7-1.8-23.3-23.3-4-3.9-26-25.9-.7-.7-1.8-.3-1.8.7z"/></g><path class="st55" d="M293.3 443.3h17.6c-2.3-3.7-17.3-17.4-18.4-19.1-.3-.4-.6-.6-.9-.7-1.3-1.5-2.7-2.9-4.2-3.9-.8-.7-1.7-2.1-2.7-2.3-1.1-.2-6 .1-7.4-.1-3.3-.4-7-.8-9.1.9 8.3 8.4 16.7 16.8 25.1 25.2z"/><path class="st189" d="M292 443.3l-24.5-24.5c-.6.8-1 1.8-1.2 3.2-.4 3.9.5 14 .5 18 0 4.3-.4 13.7 0 14.2.6.7 1.3 1.4 1.9 2 2.4 2.4 4.9 5.5 7.5 7.7 2.5 2.6 5 4.4 7.4 7.2 2 2.3 7.7 7.8 8.6 8.5v-35.4h-.1c-.4 0-.5-.7-.1-.9z"/><path class="st190" d="M311.4 460.4c.2-3.3 1.3-12.3-.1-16.2h-18.1v35.6c4.8.3 12.6-1.3 17.2-.5 1.1.2 2.3-1.4 2.1-2.8-.5-5.3-1.4-10.7-1.1-16.1z"/><path class="st7" d="M292.5 479.8c-.6 0-1-.4-1-1v-35c0-.6.4-1 1-1s1 .4 1 1v35c0 .5-.4 1-1 1zm19.9.5c-.6 0-1-.4-1-1v-35.6c0-.6.4-1 1-1s1 .4 1 1v35.6c0 .6-.5 1-1 1zm-46.2-24.5c-.6 0-1-.4-1-1v-37.6c0-.6.4-1 1-1h19.6c.6 0 1 .4 1 1s-.4 1-1 1h-18.6v36.6c0 .5-.5 1-1 1z"/><path class="st7" d="M312.3 444.6h-19.9c-.6 0-1-.4-1-1s.4-1 1-1h19.9c.6 0 1 .4 1 1s-.4 1-1 1zm-20.9 36.1c-.3 0-.5-.1-.7-.3l-25-24.8c-.4-.4-.4-1 0-1.4s1-.4 1.4 0l25 24.8c.4.4.4 1 0 1.4-.2.2-.4.3-.7.3z"/><path class="st7" d="M292.5 444.7c-.3 0-.5-.1-.7-.3l-26.2-26.2c-.4-.4-.4-1 0-1.4s1-.4 1.4 0l26.2 26.2c.4.4.4 1 0 1.4-.2.2-.4.3-.7.3zm19.8-.1c-.3 0-.5-.1-.7-.3l-26.4-26.4c-.4-.4-.4-1 0-1.4s1-.4 1.4 0l26.4 26.4c.4.4.4 1 0 1.4-.2.2-.4.3-.7.3zm-.1 36.1h-20.6c-.6 0-1-.4-1-1s.4-1 1-1h20.6c.6 0 1 .4 1 1s-.5 1-1 1zm-34.5-26.5c-.4 0-.8-.3-1-.7l-3.5-12.8c-.1-.5.2-1.1.7-1.2s1.1.2 1.2.7l3.5 12.8c.1.5-.2 1.1-.7 1.2h-.2z"/><path class="st7" d="M277.7 454.2c-.4 0-.8-.2-.9-.6-.2-.5 0-1.1.6-1.3l7.6-3c.5-.2 1.1 0 1.3.6.2.5 0 1.1-.6 1.3l-7.6 3h-.4z"/><path class="st191" d="M146.4 486.5c0 6.8-11.8 8.2-26.3 8.2s-26.3-1.4-26.3-8.2c0-6.8 11.8-8.2 26.3-8.2s26.3 1.4 26.3 8.2z"/><linearGradient id="SVGID_125_" gradientUnits="userSpaceOnUse" x1="124.722" y1="400.748" x2="117.9" y2="526.958" gradientTransform="translate(0 -70)"><stop offset="0" stop-color="#2cade3"/><stop offset="1" stop-color="#d54d8a"/></linearGradient><path class="st192" d="M159.3 391c-2.6-33.9-19.5-60.3-37.5-59-.4 0-8.8.6-9.2.7-18 1.3-31.9 30-29.3 63.9s19.9 60.3 37.9 58.9c.4 0 5.3-.4 5.6-.4.4 0 3.8-.3 4.2-.3 18.1-1.3 30.8-29.9 28.3-63.8z"/><g class="banner-stats"><linearGradient id="SVGID_126_" gradientUnits="userSpaceOnUse" x1="115.21" y1="402.613" x2="115.21" y2="529.342" gradientTransform="translate(0 -70)"><stop offset=".003" stop-color="#e6eff1"/><stop offset=".953" stop-color="#bedff0"/><stop offset="1" stop-color="#bcdef0"/></linearGradient><path class="st193" d="M149.9 391.9c-2.6-33.9-20.2-60.3-39.3-58.8-19.2 1.4-32.6 30.1-30.1 64 2.6 33.9 20.2 60.3 39.3 58.8 19.2-1.5 32.7-30.1 30.1-64z"/><g class="banner-stats-lines"><g class="banner-stats-line st194"><path class="st11" d="M92.4 367.1c-.2 0-.4-.1-.6-.2-.3-.3-.3-.8 0-1.1l14-14.3c.3-.3.8-.3 1.1 0 .3.3.3.8 0 1.1l-14 14.3c-.1.1-.3.2-.5.2z"/></g><g class="banner-stats-line st194"><path class="st11" d="M113.7 381.4c-.4 0-.7-.2-.8-.6l-7.3-28.5c-.1-.4.2-.9.6-1s.9.1 1 .6l7.3 28.5c.1.4-.2.9-.6 1-.1-.1-.2 0-.2 0z"/></g><g class="banner-stats-line st194"><path class="st11" d="M113.7 381.4c-.3 0-.6-.2-.8-.5-.2-.4 0-.9.5-1l17.8-7c.4-.2.9 0 1.1.5.2.4 0 .9-.5 1l-17.8 7c-.1-.1-.2 0-.3 0z"/></g><g class="banner-stats-line st194"><path class="st11" d="M137.5 404.9c-.4 0-.7-.3-.8-.6l-6.1-30.5c-.1-.4.2-.9.6-.9.4-.1.9.2 1 .6l6.1 30.5c.1.4-.2.9-.6.9h-.2z"/></g><path class="st11" d="M116.4 380.5c-.1-1.7-1.3-3.1-2.8-3.1s-2.6 1.4-2.5 3.2c.1 1.7 1.3 3.1 2.8 3.1 1.4 0 2.5-1.4 2.5-3.2zm15.1-9.4c-1.5-.1-2.9 1.3-2.9 3s1.3 3.2 2.8 3.3c1.5.1 2.9-1.3 2.9-3s-1.3-3.2-2.8-3.3zm8.7 33.2c.1-1.7-1.1-3.2-2.6-3.3s-2.7 1.2-2.8 3 1.1 3.2 2.6 3.3c1.5.1 2.8-1.2 2.8-3zM109 351.7c-.3-1.7-1.7-2.9-3.2-2.7-1.5.2-2.4 1.7-2.1 3.5s1.7 2.9 3.2 2.7c1.4-.3 2.4-1.8 2.1-3.5zm-14 14.2c-.3-1.7-1.7-2.9-3.2-2.7-1.5.2-2.4 1.7-2.1 3.5.3 1.7 1.7 2.9 3.2 2.7s2.4-1.8 2.1-3.5z"/></g><g class="banner-stats-bars"><g class="banner-stats-bar"><path class="st11" d="M120.9 429.1c-1.2 0-2.1-.9-2.1-2.1v-28.9c0-1.2 1-2.1 2.1-2.1s2.1.9 2.1 2.1V427c0 1.2-.9 2.1-2.1 2.1z"/></g><g class="banner-stats-bar"><path class="st11" d="M111 419.4c-1.2 0-2.1-.9-2.1-2.1v-11.1c0-1.2 1-2.1 2.1-2.1s2.1.9 2.1 2.1v11.1c.1 1.1-.9 2.1-2.1 2.1z"/></g><g class="banner-stats-bar"><path class="st11" d="M101.2 409.6c-1.2 0-2.1-.9-2.1-2.1v-23.8c0-1.2 1-2.1 2.1-2.1s2.1.9 2.1 2.1v23.8c0 1.2-.9 2.1-2.1 2.1z"/></g><g class="banner-stats-bar"><path class="st11" d="M91.3 399.7c-1.2 0-2.1-.9-2.1-2.1V392c0-1.2 1-2.1 2.1-2.1s2.1.9 2.1 2.1v5.6c.1 1.2-.9 2.1-2.1 2.1z"/></g><g class="banner-stats-bar"><path class="st11" d="M130.5 438.7c-1.2 0-2.1-.9-2.1-2.1v-12.5c0-1.2 1-2.1 2.1-2.1s2.1.9 2.1 2.1v12.5c.1 1.1-.9 2.1-2.1 2.1z"/></g></g></g><g class="st195"><path class="st16" d="M130.4 79.8L96.8 45.6l-.1-5.8v-.2c0-.1 0-.1-.1-.2v-.1c0-.1 0-.1-.1-.1l-.1-.1s0-.1-.1-.1l-7.7-7.7c-.5-.5-1.2-.5-1.7 0s-.5 1.2 0 1.7l7.4 7.4.9 50.1c0 1.6.6 3 1.8 4.1l23.3 23.3c.2.2.5.4.9.4s.6-.1.9-.4c.5-.5.5-1.2 0-1.7L98.6 92.9c-.7-.7-1-1.5-1-2.5l-.2-8.4 22.6 22.6c.9.9 2.1 1.3 3.3 1.3.5 0 1-.1 1.5-.2 1.7-.5 2.9-1.9 3.2-3.7l2.7-21.3c.1-.3-.1-.7-.3-.9zm-4.8 21.9c-.1.8-.7 1.5-1.5 1.7-.8.3-1.7.1-2.3-.5L97.8 79c-.1-.1-.3-.2-.5-.3l-.5-29.5L128.2 81l-2.6 20.7z"/></g><g class="st195"><path class="st16" d="M98.1 102.6c-2 0-3.6 2.1-3.6 4.7 0 2.7 1.6 4.7 3.6 4.7s3.6-2.1 3.6-4.7-1.6-4.7-3.6-4.7zm0 7c-.5 0-1.2-.9-1.2-2.3s.7-2.3 1.2-2.3 1.2.9 1.2 2.3-.7 2.3-1.2 2.3z"/></g><g class="st195"><path class="st16" d="M110.6 115.2c-2 0-3.6 2.1-3.6 4.7s1.6 4.7 3.6 4.7 3.6-2.1 3.6-4.7-1.6-4.7-3.6-4.7zm0 7c-.5 0-1.2-.9-1.2-2.3s.7-2.3 1.2-2.3 1.2.9 1.2 2.3-.7 2.3-1.2 2.3z"/></g><g class="st195"><path class="st16" d="M116.8 86c.2.2.5.3.8.3s.5-.1.7-.3c.4-.4.4-1.1 0-1.5l-12.2-12.2c-.4-.4-1.1-.4-1.5 0s-.4 1.1 0 1.5L116.8 86z"/></g><g class="st196"><g class="st17"><path class="st18" d="M259.6 231.1c-.1-2.2-1-4.3-2.5-5.9l-19.3-19.3v22.5l15.7 15.7c.7.7 1.7 1.1 2.6 1.1.5 0 1-.1 1.5-.3 1.4-.6 2.3-2 2.2-3.5l-.2-10.3z"/></g></g><g class="st26"><path class="st27" d="M243.2 245.5l-17.4-17.4c-1.2-1.2-2-2.9-2-4.6l-.2-11.3c-.1-2.7 3.2-4.2 5.1-2.2l17.5 17.5c1.5 1.5 2.3 3.5 2.4 5.5l.2 10.2c0 2.9-3.6 4.4-5.6 2.3z"/></g><path class="st197" d="M245.9 247.3c-1.1 0-2.1-.4-3-1.3l-17.4-17.4c-1.4-1.4-2.2-3.3-2.3-5.3L223 212c-.1-1.6.9-3.2 2.4-3.8s3.3-.3 4.4.8l17.5 17.5c1.7 1.7 2.6 3.9 2.7 6.2l.2 10.2c.1 1.8-.9 3.3-2.5 4-.7.3-1.2.4-1.8.4zM227 209.8c-.3 0-.6.1-.8.2-.6.3-1.2.9-1.2 1.9l.2 11.3c.1 1.5.7 2.9 1.7 4l17.4 17.4c.8.8 1.8.8 2.5.5s1.4-1 1.3-2.1l-.2-10.2c-.1-1.8-.8-3.6-2.1-4.9l-17.5-17.5c-.4-.4-.9-.6-1.3-.6z"/><g class="st198"><path class="st176" d="M118.6 189.1l-40.3-40.3c-1.2-1.2-1.8-2.7-1.9-4.4l-.2-10.6c-.1-2.6 3-3.9 4.8-2.1l40.4 40.4c1.4 1.4 2.2 3.3 2.3 5.2l.2 9.6c0 2.7-3.3 4.2-5.3 2.2z"/></g><path class="st16" d="M120.7 190.5c-.9 0-1.8-.4-2.5-1l-40.3-40.3c-1.3-1.3-2-2.9-2.1-4.7l-.2-10.6c-.1-1.4.7-2.6 2-3.2 1.3-.6 2.7-.3 3.7.7l40.4 40.4c1.5 1.5 2.3 3.5 2.4 5.6l.2 9.6c0 1.5-.8 2.8-2.1 3.4-.5 0-1 .1-1.5.1zM79 131.3c-.4 0-.7.1-1 .2-.7.3-1.4 1.1-1.4 2.2l.2 10.6c.1 1.5.7 3 1.8 4l40.3 40.3c.9.9 2 .9 2.8.5.8-.3 1.6-1.1 1.5-2.4l-.2-9.6c-.1-1.8-.8-3.6-2.1-4.9L80.6 132c-.5-.5-1.1-.7-1.6-.7z"/><path class="st199" d="M139.6 205.8c-.3-.8-.8-2.6-1.1-3.4-.1-.2-.1-.6-.1-.8.1-.2.1-.4.2-.5.6-.5 1.1-1.2 1.5-2.1.8-1.7 1.1-3.8.9-6-.2-2.2-.8-4.3-1.8-5.8-1.1-1.7-2.6-2.6-4.1-2.4-1.5.1-2.8 1.2-3.7 3-.8 1.7-1.1 3.8-.9 6s.8 4.3 1.8 5.8c1 1.4 2.2 2.3 3.4 2.4l.7.7c.1.1.2.4.3.6.5 1.5.6 2.4 1.1 3.9.2.6.5 2.1 1.4 2.2 1.3.1 1.6-1.1 1.3-1.8-.5-1-.5-.8-.9-1.8zm-5.6-7.3c-.8-1.2-1.4-3-1.5-4.8s.1-3.6.8-5c.5-1.1 1.3-1.8 2-1.9h.1c.7 0 1.5.6 2.2 1.6.8 1.2 1.4 3 1.5 4.8s-.1 3.6-.8 5c-.5 1.1-1.3 1.8-2 1.9-.8 0-1.6-.6-2.3-1.6z"/><g class="st200"><path class="st201" d="M469.8 228.6c-.2 0-.4.1-.6.3-.3.3-.3.9 0 1.2l13.3 13.4c.2.2.4.3.6.3s.4-.1.6-.3c.3-.3.3-.9 0-1.2l-13.3-13.4c-.2-.2-.4-.3-.6-.3m0 7.9c-.2 0-.4.1-.6.3-.3.3-.3.9 0 1.2l13.3 13.4c.2.2.4.3.6.3s.4-.1.6-.3c.3-.3.3-.9 0-1.2l-13.3-13.4c-.2-.3-.4-.3-.6-.3m0 7.8c-.2 0-.4.1-.6.3-.3.3-.3.9 0 1.2l13.3 13.4c.2.2.4.3.6.3s.4-.1.6-.3c.3-.3.3-.9 0-1.2l-13.3-13.4c-.2-.2-.4-.3-.6-.3"/></g><g class="st185"><path class="st202" d="M106.4 48.1h17.1"/><path class="st8" d="M123.5 48.6h-17.1c-.3 0-.5-.2-.5-.5s.2-.5.5-.5h17.1c.3 0 .5.2.5.5s-.2.5-.5.5z"/></g><g class="st203"><path class="st202" d="M113.7 55.3h8.5"/><path class="st8" d="M122.2 55.8h-8.5c-.3 0-.5-.2-.5-.5s.2-.5.5-.5h8.5c.3 0 .5.2.5.5s-.2.5-.5.5z"/></g><g class="st185"><path class="st202" d="M120.9 62.5H138"/><path class="st8" d="M138 63h-17.1c-.3 0-.5-.2-.5-.5s.2-.5.5-.5H138c.3 0 .5.2.5.5s-.3.5-.5.5z"/></g><g class="st203"><path class="st202" d="M128.1 69.8h8.6"/><path class="st8" d="M136.7 70.3h-8.5c-.3 0-.5-.2-.5-.5s.2-.5.5-.5h8.5c.3 0 .5.2.5.5s-.3.5-.5.5z"/></g><g class="st185"><path class="st202" d="M98.5 138.7h17"/><path class="st8" d="M115.5 139.2h-17c-.3 0-.5-.2-.5-.5s.2-.5.5-.5h17.1c.3 0 .5.2.5.5s-.3.5-.6.5z"/></g><g class="st203"><path class="st202" d="M105.7 145.9h26.1"/><path class="st8" d="M131.8 146.4h-26.1c-.3 0-.5-.2-.5-.5s.2-.5.5-.5h26.1c.3 0 .5.2.5.5s-.2.5-.5.5z"/></g><g class="st185"><path class="st202" d="M113 153.2h27.6"/><path class="st8" d="M140.6 153.7H113c-.3 0-.5-.2-.5-.5s.2-.5.5-.5h27.6c.3 0 .5.2.5.5s-.3.5-.5.5z"/></g><g class="st203"><path class="st202" d="M120.2 160.4h11.6"/><path class="st8" d="M131.8 160.9h-11.6c-.3 0-.5-.2-.5-.5s.2-.5.5-.5h11.6c.3 0 .5.2.5.5s-.2.5-.5.5z"/></g><g class="st185"><path class="st202" d="M165.6 38.9h22.6"/><path class="st8" d="M188.2 39.4h-22.6c-.3 0-.5-.2-.5-.5s.2-.5.5-.5h22.6c.3 0 .5.2.5.5s-.2.5-.5.5z"/></g><g class="st203"><path class="st202" d="M172.8 46.1h13"/><path class="st8" d="M185.8 46.6h-13c-.3 0-.5-.2-.5-.5s.2-.5.5-.5h13c.3 0 .5.2.5.5s-.2.5-.5.5z"/></g><g class="st185"><path class="st202" d="M180.1 53.4h40.4"/><path class="st8" d="M220.5 53.9h-40.4c-.3 0-.5-.2-.5-.5s.2-.5.5-.5h40.4c.3 0 .5.2.5.5s-.2.5-.5.5z"/></g><g class="st203"><path class="st202" d="M187.3 60.6h23"/><path class="st8" d="M210.3 61.1h-23c-.3 0-.5-.2-.5-.5s.2-.5.5-.5h23c.3 0 .5.2.5.5s-.2.5-.5.5z"/></g><g class="st185"><path class="st202" d="M194.5 67.8h35.8"/><path class="st8" d="M230.3 68.3h-35.7c-.3 0-.5-.2-.5-.5s.2-.5.5-.5h35.7c.3 0 .5.2.5.5s-.2.5-.5.5z"/></g><g class="st203"><path class="st202" d="M201.8 75.1h8.5"/><path class="st8" d="M210.3 75.6h-8.5c-.3 0-.5-.2-.5-.5s.2-.5.5-.5h8.5c.3 0 .5.2.5.5s-.2.5-.5.5z"/></g><g class="st185"><path class="st202" d="M209 82.3h17.1"/><path class="st8" d="M226.1 82.8H209c-.3 0-.5-.2-.5-.5s.2-.5.5-.5h17.1c.3 0 .5.2.5.5s-.3.5-.5.5z"/></g><g class="st203"><path class="st202" d="M216.2 89.5h6"/><path class="st8" d="M222.2 90h-5.9c-.3 0-.5-.2-.5-.5s.2-.5.5-.5h5.9c.3 0 .5.2.5.5s-.3.5-.5.5z"/></g><g class="st204"><path class="st205" d="M421.6 362h-27c-.3 0-.5-.2-.5-.5s.2-.5.5-.5h27c.3 0 .5.2.5.5s-.3.5-.5.5z"/></g><g class="st206"><path class="st202" d="M394.7 369.1h17.5"/><path class="st8" d="M412.2 369.6h-17.5c-.3 0-.5-.2-.5-.5s.2-.5.5-.5h17.5c.3 0 .5.2.5.5s-.2.5-.5.5z"/></g><path class="st207" d="M231.3 221.9c-.2-.2-.5-.2-.7 0s-.2.5 0 .7l10.9 10.9s.3.3.7-.1c.3-.3 0-.6 0-.6l-10.9-10.9z"/><g class="st208"><ellipse class="st11" cx="130.4" cy="240.9" rx=".7" ry="1"/></g><g class="st184"><ellipse class="st11" cx="49.2" cy="84.6" rx="1.5" ry="2.1"/></g><g class="st5"><ellipse class="st209" cx="548.1" cy="438.7" rx=".5" ry=".9"/></g><g class="st210"><ellipse class="st211" cx="541.6" cy="322.9" rx=".5" ry=".9"/></g><g class="st210"><ellipse class="st211" cx="533.6" cy="157.7" rx=".5" ry=".9"/></g><g class="st39"><ellipse class="st212" cx="16.1" cy="178.5" rx=".7" ry="1.1"/></g><g class="st213"><ellipse class="st8" cx="551.6" cy="226.9" rx=".5" ry=".9"/></g><g class="st210"><ellipse class="st8" cx="72.1" cy="173" rx=".5" ry=".9"/></g><ellipse class="st8" cx="135.3" cy="126.7" rx=".5" ry=".9"/><ellipse class="st8" cx="226.2" cy="194.2" rx=".4" ry=".6"/><g class="st196"><path class="st209" d="M462.9 112.2c0 .5-.3.8-.6.8s-.6-.3-.6-.8.3-.8.6-.8c.3-.1.6.2.6.8z"/></g><g class="banner-search"><linearGradient id="SVGID_127_" gradientUnits="userSpaceOnUse" x1="237.454" y1="424.204" x2="233.168" y2="504.925" gradientTransform="translate(0 -70)"><stop offset="0" stop-color="#2cade3"/><stop offset="1" stop-color="#d54d8a"/></linearGradient><path class="st219" d="M238.9 350.5h-6.2c-12.3 0-23.2 19-23.2 42.3 0 23.4 10.4 42.3 22.7 42.3h6.7c12.3 0 22.4-18.9 22.4-42.3 0-23.3-10.1-42.3-22.4-42.3z"/><linearGradient id="SVGID_128_" gradientUnits="userSpaceOnUse" x1="244.151" y1="426.954" x2="216.878" y2="501.86" gradientTransform="translate(0 -70)"><stop offset=".003" stop-color="#e6eff1"/><stop offset=".953" stop-color="#bedff0"/><stop offset="1" stop-color="#bcdef0"/></linearGradient><ellipse class="st220" cx="231.1" cy="392.8" rx="23.7" ry="42.3"/><path class="st11" d="M231.1 378.9c-.5-.5-1.5-1-2.2-.4-.1.1-.1.3-.1.4.2.5.7 1 1.1 1.4.4.5.7 1 1 1.5.8 1.2 2.5.1 1.7-1.1-.4-.6-.8-1.3-1.5-1.8z"/><path class="st11" d="M236.1 413.7c-.6-1.7-1.3-5.4-1.9-7.1-.1-.3-.1-1.4 0-1.7.2-.4.3-.8.4-1.1 1.3-1 2.5-2.4 3.4-4.1 1.8-3.3 2.8-7.7 2.8-12.3 0-4.6-1.1-8.9-3-12.2-2.1-3.7-5-5.7-8.2-5.6-3.2 0-6 2.1-8.1 5.8-1.8 3.3-2.8 7.7-2.8 12.3s1.1 8.9 3 12.2c1.8 3.1 4.1 5 6.7 5.5.4.4.7.9 1.3 1.5.2.2.4.9.5 1.2.7 3.1 1 5.1 1.7 8.2.3 1.3.7 4.4 2.5 4.7 2.7.5 3.5-2 3-3.6-.6-2-.6-1.7-1.3-3.7zm-10.7-15.9c-1.5-2.7-2.4-6.3-2.4-10.2 0-3.9.8-7.5 2.2-10.2 1.3-2.3 2.9-3.6 4.5-3.6h.2c1.5.1 3.1 1.4 4.3 3.5 1.5 2.7 2.4 6.3 2.4 10.2 0 3.9-.8 7.5-2.2 10.2-1.3 2.3-2.9 3.6-4.5 3.6s-3.2-1.3-4.5-3.5z"/></g><g class="st221"><path class="st205" d="M250.3 215.3h-8.4c-.3 0-.5-.2-.5-.5s.2-.5.5-.5h8.4c.3 0 .5.2.5.5s-.2.5-.5.5z"/></g><g class="st203"><path class="st202" d="M248.8 221.7h10"/><path class="st8" d="M258.8 222.2h-10.1c-.3 0-.5-.2-.5-.5s.2-.5.5-.5h10.1c.3 0 .5.2.5.5s-.2.5-.5.5z"/></g><g class="st221"><path class="st205" d="M270.8 229.1h-15.1c-.3 0-.5-.2-.5-.5s.2-.5.5-.5h15.1c.3 0 .5.2.5.5s-.2.5-.5.5z"/></g><g class="st222"><path class="st18" d="M249.8 184.7v-77.1c0-.7-.3-1.4-.8-1.9l-11.3-11.1v80.5l10.4 10.3c.6.6 1.7.2 1.7-.7z"/></g></svg>