<svg width="300" height="265" viewBox="0 0 300 265" version="1.1" xmlns="http://www.w3.org/2000/svg" xmlns:xlink="http://www.w3.org/1999/xlink"><title>collab</title><desc>Created with Sketch.</desc><defs><linearGradient x1="50%" y1="2.25%" x2="50%" y2="100%" id="linearGradient-1"><stop stop-color="#B2DE3F" offset="0%"/><stop stop-color="#CAE87C" offset="97.058%"/></linearGradient><linearGradient x1="2.046%" y1="2.026%" x2="99.359%" y2="98.385%" id="linearGradient-2"><stop stop-color="#E8E7E7" offset="0%"/><stop stop-color="#E1E1E1" offset="100%"/></linearGradient><linearGradient x1="67.028%" y1="84.714%" x2="67.028%" y2="0%" id="linearGradient-3"><stop stop-color="#313D3E" offset="0%"/><stop stop-color="#425253" offset="100%"/></linearGradient></defs><g id="landing" stroke="none" stroke-width="1" fill="none" fill-rule="evenodd"><g id="cms-landing-v6" transform="translate(-330.000000, -889.000000)"><g id="intro" transform="translate(300.000000, 788.000000)"><g id="collab" transform="translate(0.000000, 89.000000)"><path d="M98.3824578,71.0325479 C167.245191,26.209009 249.858483,50.7384109 283.77046,90.3604793 C317.682437,129.982548 247.614113,363.334571 145.828896,285.595118 C44.04368,207.855665 29.5197242,115.856087 98.3824578,71.0325479 Z" id="Path-2-Copy-6" stroke="#313D3E" stroke-width=".967" stroke-dasharray="2.9,5.8" opacity=".3" transform="translate(174.204467, 174.169806) scale(-1, 1) rotate(-45.000000) translate(-174.204467, -174.169806)"/><path d="M40.4709984,172.376506 C62.7155782,158.0676 89.4019711,165.898059 100.356484,178.546514 C111.310996,191.194968 88.6769771,265.687353 55.7975188,240.870781 C22.9180605,216.054209 18.2264185,186.685413 40.4709984,172.376506 Z" id="Path-2-Copy-2" fill="url(#linearGradient-1)" transform="translate(64.963618, 205.300756) rotate(-201.000000) translate(-64.963618, -205.300756)"/><path d="M153.624045,23.7284086 C175.868624,9.24915775 202.555017,17.1728374 213.50953,29.9718684 C224.464042,42.7708995 201.830023,118.150099 168.950565,93.0380915 C136.071107,67.9260842 131.379465,38.2076594 153.624045,23.7284086 Z" id="Path-2-Copy" fill="url(#linearGradient-1)" transform="translate(178.116664, 57.044614) rotate(-45.000000) translate(-178.116664, -57.044614)"/><ellipse id="Oval" fill="url(#linearGradient-2)" cx="177.3" cy="105.59" rx="4" ry="4"/><ellipse id="Oval-Copy" fill="url(#linearGradient-2)" cx="235.367" cy="186.715" rx="4" ry="4"/><ellipse id="Oval-Copy-2" fill="url(#linearGradient-2)" cx="122.467" cy="190.582" rx="4" ry="4"/><path d="M267.224047,177.36561 C289.468627,163.908424 316.15502,171.272786 327.109532,183.168356 C338.064045,195.063926 315.430026,265.12224 282.550567,241.782845 C249.671109,218.44345 244.979467,190.822797 267.224047,177.36561 Z" id="Path-2" fill="url(#linearGradient-1)"/><path d="M153.15738,133.869789 C175.40196,120.412603 202.088353,127.776964 213.042866,139.672534 C223.997378,151.568104 201.363359,221.626418 168.483901,198.287023 C135.604442,174.947628 130.9128,147.326975 153.15738,133.869789 Z" id="Path-2-Copy-3" fill="url(#linearGradient-3)" opacity=".3"/><path d="M153.15738,133.451204 C175.40196,118.971953 202.088353,126.895633 213.042866,139.694664 C223.997378,152.493695 201.363359,227.872894 168.483901,202.760887 C135.604442,177.64888 130.9128,147.930455 153.15738,133.451204 Z" id="Path-2-Copy-4" fill="url(#linearGradient-3)" opacity=".3" transform="translate(177.650000, 166.767409) rotate(-45.000000) translate(-177.650000, -166.767409)"/><path d="M152.190714,130.460151 C174.435294,116.151245 201.121686,123.981704 212.076199,136.630159 C223.030712,149.278613 200.396692,223.770998 167.517234,198.954426 C134.637776,174.137854 129.946134,144.769058 152.190714,130.460151 Z" id="Path-2-Copy-5" fill="url(#linearGradient-3)" opacity=".3" transform="translate(176.683333, 163.384401) rotate(-201.000000) translate(-176.683333, -163.384401)"/><path d="M158.603646,57.4623955 L158.603646,49.2155205 L161.435677,49.2155205 C162.443885,49.2155205 163.274606,49.5374249 163.927865,50.1812432 C164.581123,50.8250615 164.907747,51.6510624 164.907747,52.6592705 L164.907747,54.0243096 C164.907747,55.0362938 164.581123,55.8622947 163.927865,56.5023369 C163.274606,57.1423792 162.443885,57.4623955 161.435677,57.4623955 L158.603646,57.4623955 Z M160.257552,50.4899346 L160.257552,56.1936455 L161.350716,56.1936455 C161.943558,56.1936455 162.408006,55.9935173 162.744076,55.5932549 C163.080145,55.1929925 163.248177,54.670016 163.248177,54.0243096 L163.248177,52.6479424 C163.248177,52.0097882 163.080145,51.4905876 162.744076,51.0903252 C162.408006,50.6900628 161.943558,50.4899346 161.350716,50.4899346 L160.257552,50.4899346 Z M172.724154,53.8373955 L169.308724,53.8373955 L169.308724,56.1936455 L173.301888,56.1936455 L173.301888,57.4623955 L167.654818,57.4623955 L167.654818,49.2155205 L173.29056,49.2155205 L173.29056,50.4899346 L169.308724,50.4899346 L169.308724,52.5629815 L172.724154,52.5629815 L172.724154,53.8373955 Z M178.563802,55.2704034 L178.665755,55.7178643 L178.69974,55.7178643 L178.796029,55.2817315 L180.591536,49.2155205 L182.336068,49.2155205 L179.532357,57.4623955 L177.833138,57.4623955 L175.035091,49.2155205 L176.779622,49.2155205 L178.563802,55.2704034 Z M189.047982,55.3100518 C189.047982,54.9928627 188.935646,54.7379824 188.71097,54.5454034 C188.486294,54.3528243 188.092646,54.1715761 187.530013,54.0016534 C186.548237,53.7184488 185.806253,53.3823845 185.304036,52.9934502 C184.80182,52.604516 184.550716,52.0720994 184.550716,51.3961846 C184.550716,50.7202698 184.838636,50.1680292 185.414486,49.7394463 C185.990335,49.3108635 186.725712,49.0965752 187.620638,49.0965752 C188.526893,49.0965752 189.265101,49.3372955 189.835286,49.8187432 C190.405472,50.3001909 190.68112,50.8939675 190.66224,51.6000909 L190.650911,51.6340752 L189.047982,51.6340752 C189.047982,51.2526931 188.920542,50.9440048 188.665658,50.708001 C188.410773,50.4719972 188.052997,50.3539971 187.592318,50.3539971 C187.150519,50.3539971 186.80879,50.4521732 186.567122,50.6485284 C186.325455,50.8448835 186.204622,51.0959878 186.204622,51.4018487 C186.204622,51.6812771 186.333951,51.9106694 186.592611,52.0900323 C186.851271,52.2693951 187.297783,52.4591393 187.932161,52.6592705 C188.842192,52.9122666 189.531313,53.2464429 189.999544,53.6618096 C190.467776,54.0771763 190.701888,54.6228088 190.701888,55.2987237 C190.701888,56.004847 190.423408,56.5618076 189.866439,56.9696221 C189.30947,57.3774366 188.574093,57.5813409 187.660286,57.5813409 C186.761584,57.5813409 185.978063,57.3500606 185.309701,56.8874932 C184.641338,56.4249258 184.316601,55.7763971 184.335482,54.9418877 L184.34681,54.9079034 L185.955404,54.9079034 C185.955404,55.3987912 186.1055,55.7584556 186.405697,55.9869073 C186.705893,56.2153589 187.124086,56.329583 187.660286,56.329583 C188.109638,56.329583 188.453254,56.2370709 188.691146,56.052044 C188.929038,55.867017 189.047982,55.6196888 189.047982,55.3100518 Z" id="Devs" fill="#FFF"/><path d="M44.2953125,207.586918 L44.3292969,207.586918 L45.5074219,201.934183 L47.1216797,201.934183 L45.1958984,210.181058 L43.6609375,210.181058 L42.1486328,204.737894 L42.1146484,204.737894 L40.6023437,210.181058 L39.0673828,210.181058 L37.1359375,201.934183 L38.7558594,201.934183 L39.9396484,207.581254 L39.9736328,207.586918 L41.5199219,201.934183 L42.7376953,201.934183 L44.2953125,207.586918 Z M51.1544922,206.884574 L51.1544922,210.181058 L49.5005859,210.181058 L49.5005859,201.934183 L52.6101562,201.934183 C53.5503953,201.934183 54.2857721,202.148472 54.8163086,202.577055 C55.3468451,203.005637 55.6121094,203.60319 55.6121094,204.36973 C55.6121094,204.796425 55.5007173,205.162698 55.2779297,205.468558 C55.0551421,205.774419 54.7285178,206.021748 54.2980469,206.210551 C54.7851587,206.354041 55.135383,206.593817 55.3487305,206.929887 C55.5620779,207.265956 55.66875,207.681316 55.66875,208.17598 L55.66875,208.782035 C55.66875,209.012375 55.699902,209.253095 55.762207,209.504203 C55.824512,209.755311 55.9311841,209.941279 56.0822266,210.062113 L56.0822266,210.181058 L54.3773437,210.181058 C54.2263013,210.060225 54.1281252,209.858208 54.0828125,209.575004 C54.0374998,209.291799 54.0148437,209.023703 54.0148437,208.770707 L54.0148437,208.187308 C54.0148437,207.775718 53.9025076,207.455702 53.677832,207.22725 C53.4531564,206.998798 53.1369161,206.884574 52.7291016,206.884574 L51.1544922,206.884574 Z M51.1544922,205.61016 L52.5818359,205.61016 C53.0462914,205.61016 53.3927397,205.511984 53.6211914,205.315629 C53.8496431,205.119274 53.9638672,204.828521 53.9638672,204.443363 C53.9638672,204.065757 53.8496431,203.765565 53.6211914,203.542777 C53.3927397,203.31999 53.0557314,203.208598 52.6101562,203.208598 L51.1544922,203.208598 L51.1544922,205.61016 Z M60.3755859,210.181058 L58.7216797,210.181058 L58.7216797,201.934183 L60.3755859,201.934183 L60.3755859,210.181058 Z M69.171875,203.208598 L66.8382812,203.208598 L66.8382812,210.181058 L65.184375,210.181058 L65.184375,203.208598 L62.8621094,203.208598 L62.8621094,201.934183 L69.171875,201.934183 L69.171875,203.208598 Z M76.6144531,206.556058 L73.1990234,206.556058 L73.1990234,208.912308 L77.1921875,208.912308 L77.1921875,210.181058 L71.5451172,210.181058 L71.5451172,201.934183 L77.1808594,201.934183 L77.1808594,203.208598 L73.1990234,203.208598 L73.1990234,205.281644 L76.6144531,205.281644 L76.6144531,206.556058 Z M81.3099609,206.884574 L81.3099609,210.181058 L79.6560547,210.181058 L79.6560547,201.934183 L82.765625,201.934183 C83.7058641,201.934183 84.4412408,202.148472 84.9717773,202.577055 C85.5023139,203.005637 85.7675781,203.60319 85.7675781,204.36973 C85.7675781,204.796425 85.656186,205.162698 85.4333984,205.468558 C85.2106109,205.774419 84.8839865,206.021748 84.4535156,206.210551 C84.9406274,206.354041 85.2908518,206.593817 85.5041992,206.929887 C85.7175466,207.265956 85.8242187,207.681316 85.8242187,208.17598 L85.8242187,208.782035 C85.8242187,209.012375 85.8553708,209.253095 85.9176758,209.504203 C85.9799808,209.755311 86.0866529,209.941279 86.2376953,210.062113 L86.2376953,210.181058 L84.5328125,210.181058 C84.3817701,210.060225 84.283594,209.858208 84.2382812,209.575004 C84.1929685,209.291799 84.1703125,209.023703 84.1703125,208.770707 L84.1703125,208.187308 C84.1703125,207.775718 84.0579764,207.455702 83.8333008,207.22725 C83.6086252,206.998798 83.2923849,206.884574 82.8845703,206.884574 L81.3099609,206.884574 Z M81.3099609,205.61016 L82.7373047,205.61016 C83.2017601,205.61016 83.5482085,205.511984 83.7766602,205.315629 C84.0051118,205.119274 84.1193359,204.828521 84.1193359,204.443363 C84.1193359,204.065757 84.0051118,203.765565 83.7766602,203.542777 C83.5482085,203.31999 83.2112001,203.208598 82.765625,203.208598 L81.3099609,203.208598 L81.3099609,205.61016 Z M93.2271484,208.028715 C93.2271484,207.711526 93.1148123,207.456645 92.8901367,207.264066 C92.6654611,207.071487 92.2718127,206.890239 91.7091797,206.720316 C90.7274039,206.437112 89.9854192,206.101047 89.4832031,205.712113 C88.9809871,205.323179 88.7298828,204.790762 88.7298828,204.114848 C88.7298828,203.438933 89.0178031,202.886692 89.5936523,202.458109 C90.1695016,202.029526 90.9048783,201.815238 91.7998047,201.815238 C92.7060592,201.815238 93.444268,202.055958 94.0144531,202.537406 C94.5846383,203.018854 94.8602866,203.61263 94.8414062,204.318754 L94.8300781,204.352738 L93.2271484,204.352738 C93.2271484,203.971356 93.0997083,203.662668 92.8448242,203.426664 C92.5899401,203.19066 92.2321638,203.07266 91.7714844,203.07266 C91.3296853,203.07266 90.9879569,203.170836 90.7462891,203.367191 C90.5046212,203.563546 90.3837891,203.814651 90.3837891,204.120512 C90.3837891,204.39994 90.5131172,204.629332 90.7717773,204.808695 C91.0304375,204.988058 91.47695,205.177802 92.1113281,205.377933 C93.0213587,205.63093 93.7104794,205.965106 94.1787109,206.380473 C94.6469424,206.795839 94.8810547,207.341472 94.8810547,208.017387 C94.8810547,208.72351 94.6025744,209.280471 94.0456055,209.688285 C93.4886365,210.0961 92.7532598,210.300004 91.8394531,210.300004 C90.9407507,210.300004 90.1572299,210.068724 89.4888672,209.606156 C88.8205045,209.143589 88.4957681,208.49506 88.5146484,207.660551 L88.5259766,207.626566 L90.1345703,207.626566 C90.1345703,208.117454 90.2846665,208.477119 90.5848633,208.70557 C90.8850601,208.934022 91.3032525,209.048246 91.8394531,209.048246 C92.2888043,209.048246 92.6324207,208.955734 92.8703125,208.770707 C93.1082043,208.58568 93.2271484,208.338352 93.2271484,208.028715 Z" id="Writers" fill="#FFF"/><path d="M270.006315,206.556058 L266.590885,206.556058 L266.590885,208.912308 L270.584049,208.912308 L270.584049,210.181058 L264.936979,210.181058 L264.936979,201.934183 L270.572721,201.934183 L270.572721,203.208598 L266.590885,203.208598 L266.590885,205.281644 L270.006315,205.281644 L270.006315,206.556058 Z M273.047917,210.181058 L273.047917,201.934183 L275.879948,201.934183 C276.888156,201.934183 277.718877,202.256088 278.372135,202.899906 C279.025394,203.543724 279.352018,204.369725 279.352018,205.377933 L279.352018,206.742973 C279.352018,207.754957 279.025394,208.580958 278.372135,209.221 C277.718877,209.861042 276.888156,210.181058 275.879948,210.181058 L273.047917,210.181058 Z M274.701823,203.208598 L274.701823,208.912308 L275.794987,208.912308 C276.387828,208.912308 276.852277,208.71218 277.188346,208.311918 C277.524416,207.911655 277.692448,207.388679 277.692448,206.742973 L277.692448,205.366605 C277.692448,204.728451 277.524416,204.209251 277.188346,203.808988 C276.852277,203.408726 276.387828,203.208598 275.794987,203.208598 L274.701823,203.208598 Z M283.854948,210.181058 L282.201042,210.181058 L282.201042,201.934183 L283.854948,201.934183 L283.854948,210.181058 Z M292.651237,203.208598 L290.317643,203.208598 L290.317643,210.181058 L288.663737,210.181058 L288.663737,203.208598 L286.341471,203.208598 L286.341471,201.934183 L292.651237,201.934183 L292.651237,203.208598 Z M301.470182,206.799613 C301.470182,207.811597 301.150166,208.647982 300.510124,209.308793 C299.870081,209.969603 299.038417,210.300004 298.015104,210.300004 C296.999344,210.300004 296.174287,209.969603 295.539909,209.308793 C294.905531,208.647982 294.588346,207.811597 294.588346,206.799613 L294.588346,205.315629 C294.588346,204.307421 294.904587,203.47198 295.537077,202.809281 C296.169567,202.146583 296.99368,201.815238 298.00944,201.815238 C299.032753,201.815238 299.865361,202.146583 300.507292,202.809281 C301.149222,203.47198 301.470182,204.307421 301.470182,205.315629 L301.470182,206.799613 Z M299.816276,205.304301 C299.816276,204.66237 299.655796,204.135618 299.334831,203.724027 C299.013866,203.312437 298.572073,203.106644 298.00944,203.106644 C297.446807,203.106644 297.010679,203.311493 296.701042,203.721195 C296.391405,204.130898 296.236589,204.658594 296.236589,205.304301 L296.236589,206.799613 C296.236589,207.452872 296.393293,207.985288 296.706706,208.396879 C297.020119,208.808469 297.456247,209.014262 298.015104,209.014262 C298.581513,209.014262 299.023306,208.808469 299.340495,208.396879 C299.657684,207.985288 299.816276,207.452872 299.816276,206.799613 L299.816276,205.304301 Z M305.865495,206.884574 L305.865495,210.181058 L304.211589,210.181058 L304.211589,201.934183 L307.321159,201.934183 C308.261398,201.934183 308.996775,202.148472 309.527311,202.577055 C310.057848,203.005637 310.323112,203.60319 310.323112,204.36973 C310.323112,204.796425 310.21172,205.162698 309.988932,205.468558 C309.766145,205.774419 309.43952,206.021748 309.009049,206.210551 C309.496161,206.354041 309.846386,206.593817 310.059733,206.929887 C310.27308,207.265956 310.379753,207.681316 310.379753,208.17598 L310.379753,208.782035 C310.379753,209.012375 310.410905,209.253095 310.47321,209.504203 C310.535515,209.755311 310.642187,209.941279 310.793229,210.062113 L310.793229,210.181058 L309.088346,210.181058 C308.937304,210.060225 308.839128,209.858208 308.793815,209.575004 C308.748502,209.291799 308.725846,209.023703 308.725846,208.770707 L308.725846,208.187308 C308.725846,207.775718 308.61351,207.455702 308.388835,207.22725 C308.164159,206.998798 307.847919,206.884574 307.440104,206.884574 L305.865495,206.884574 Z M305.865495,205.61016 L307.292839,205.61016 C307.757294,205.61016 308.103742,205.511984 308.332194,205.315629 C308.560646,205.119274 308.67487,204.828521 308.67487,204.443363 C308.67487,204.065757 308.560646,203.765565 308.332194,203.542777 C308.103742,203.31999 307.766734,203.208598 307.321159,203.208598 L305.865495,203.208598 L305.865495,205.61016 Z M317.782682,208.028715 C317.782682,207.711526 317.670346,207.456645 317.445671,207.264066 C317.220995,207.071487 316.827347,206.890239 316.264714,206.720316 C315.282938,206.437112 314.540953,206.101047 314.038737,205.712113 C313.536521,205.323179 313.285417,204.790762 313.285417,204.114848 C313.285417,203.438933 313.573337,202.886692 314.149186,202.458109 C314.725035,202.029526 315.460412,201.815238 316.355339,201.815238 C317.261593,201.815238 317.999802,202.055958 318.569987,202.537406 C319.140172,203.018854 319.41582,203.61263 319.39694,204.318754 L319.385612,204.352738 L317.782682,204.352738 C317.782682,203.971356 317.655242,203.662668 317.400358,203.426664 C317.145474,203.19066 316.787698,203.07266 316.327018,203.07266 C315.885219,203.07266 315.543491,203.170836 315.301823,203.367191 C315.060155,203.563546 314.939323,203.814651 314.939323,204.120512 C314.939323,204.39994 315.068651,204.629332 315.327311,204.808695 C315.585971,204.988058 316.032484,205.177802 316.666862,205.377933 C317.576893,205.63093 318.266013,205.965106 318.734245,206.380473 C319.202476,206.795839 319.436589,207.341472 319.436589,208.017387 C319.436589,208.72351 319.158108,209.280471 318.601139,209.688285 C318.04417,210.0961 317.308794,210.300004 316.394987,210.300004 C315.496285,210.300004 314.712764,210.068724 314.044401,209.606156 C313.376038,209.143589 313.051302,208.49506 313.070182,207.660551 L313.08151,207.626566 L314.690104,207.626566 C314.690104,208.117454 314.8402,208.477119 315.140397,208.70557 C315.440594,208.934022 315.858786,209.048246 316.394987,209.048246 C316.844338,209.048246 317.187955,208.955734 317.425846,208.770707 C317.663738,208.58568 317.782682,208.338352 317.782682,208.028715 Z" id="editors" fill="#FFF"/><path d="M187.093455,156.31191 C187.072892,156.31191 187.052329,156.271263 187.031766,156.25094 L187.998227,150.336874 C187.998227,150.296227 188.01879,150.275904 188.039353,150.275904 L188.059916,150.275904 C188.059916,150.275904 188.080479,150.275904 188.101042,150.296227 L192.522087,154.665726 C192.54265,154.68605 192.54265,154.706373 192.54265,154.726696 C192.54265,154.747019 192.522087,154.767343 192.501524,154.787666 L187.772034,156.799668 L187.751471,156.799668 C187.730908,156.799668 187.730908,156.799668 187.710345,156.779345 C187.545841,156.596435 187.340211,156.433849 187.093455,156.31191 Z M177.284904,152.348876 C177.264341,152.328553 177.264341,152.287906 177.284904,152.24726 L182.240587,144.565071 C182.240587,144.544747 182.26115,144.524424 182.281713,144.524424 C182.302276,144.524424 182.302276,144.524424 182.322839,144.544747 L186.723321,148.914246 C186.743884,148.93457 186.743884,148.954893 186.743884,148.975216 L185.592356,156.108677 C185.592356,156.149324 185.571793,156.169647 185.55123,156.169647 C185.283911,156.25094 185.037155,156.37288 184.831525,156.535466 C184.831525,156.555789 184.810962,156.555789 184.790399,156.555789 L184.769836,156.555789 L177.73729,153.568271 C177.716727,153.547948 177.696164,153.527624 177.696164,153.507301 C177.655038,153.100836 177.511097,152.694371 177.284904,152.348876 Z M201.302489,163.343755 C201.343615,163.364078 201.343615,163.425048 201.302489,163.425048 L201.261363,163.465694 C201.261363,163.486017 201.2408,163.486017 201.220237,163.486017 L201.199674,163.486017 L188.573991,158.141002 C188.553428,158.141002 188.532865,158.100356 188.532865,158.080033 C188.532865,158.059709 188.553428,158.039386 188.573991,158.019063 L193.694179,155.844475 L193.714742,155.844475 C193.714742,155.844475 193.735305,155.844475 193.755868,155.864798 L201.302489,163.343755 Z M200.048146,164.56315 C200.068709,164.583473 200.068709,164.603796 200.068709,164.624119 C200.068709,164.644443 200.068709,164.664766 200.048146,164.685089 L193.344608,171.330792 C193.344608,171.351115 193.324045,171.351115 193.303482,171.351115 L193.282919,171.351115 L185.96249,169.826872 C185.921364,169.826872 185.900801,169.806548 185.900801,169.765902 C185.839112,169.196851 185.571793,168.68877 185.119407,168.343274 C185.098844,168.322951 185.098844,168.302628 185.098844,168.282305 L186.394313,160.335913 C186.394313,160.295267 186.435439,160.274944 186.456002,160.274944 C187.031766,160.193651 187.525278,159.909125 187.854286,159.462014 C187.874849,159.44169 187.895412,159.44169 187.915975,159.44169 L187.936538,159.44169 L200.048146,164.56315 Z M184.009005,157.775184 C184.029568,157.795507 184.050131,157.81583 184.050131,157.856477 C184.029568,157.958093 184.009005,158.080033 184.009005,158.201972 L184.009005,158.303588 L184.009005,158.384881 C184.009005,158.405205 183.988442,158.425528 183.967879,158.445851 L169.429838,164.644443 L169.409275,164.644443 C169.388712,164.644443 169.368149,164.644443 169.347586,164.624119 C169.327023,164.603796 169.327023,164.56315 169.347586,164.542826 L174.796781,156.108677 C174.817344,156.088354 174.837907,156.068031 174.85847,156.068031 L174.879033,156.068031 C175.022974,156.088354 175.146352,156.108677 175.26973,156.108677 C176.09225,156.108677 176.853081,155.702212 177.305467,155.011222 C177.32603,154.990898 177.346593,154.970575 177.367156,154.970575 L177.387719,154.970575 L184.009005,157.775184 Z M191.987449,172.529864 C192.008012,172.529864 192.028575,172.550187 192.028575,172.611157 C192.028575,172.63148 192.028575,172.651804 192.008012,172.672127 L183.08367,181.512741 C183.08367,181.533064 183.063107,181.533064 183.042544,181.533064 L183.001418,181.533064 C182.980855,181.512741 182.960292,181.492418 182.960292,181.451771 L184.502517,171.981136 C184.502517,171.960813 184.52308,171.920167 184.543643,171.920167 C184.913777,171.777904 185.222222,171.534025 185.468978,171.229176 C185.489541,171.229176 185.510104,171.208853 185.530667,171.208853 L185.55123,171.208853 L191.987449,172.529864 Z M183.001418,171.87952 C183.042544,171.899843 183.042544,171.94049 183.001418,171.94049 L181.150748,183.32151 C181.150748,183.341834 181.130185,183.341834 181.130185,183.362157 L180.472169,184.012501 C180.472169,184.032824 180.451606,184.032824 180.431043,184.032824 C180.41048,184.032824 180.41048,184.032824 180.389917,184.012501 L169.532653,168.322951 C169.51209,168.302628 169.51209,168.261981 169.532653,168.241658 C169.594342,168.160365 169.635468,168.079072 169.697157,167.977456 C169.71772,167.957133 169.738283,167.936809 169.758846,167.936809 C169.779409,167.936809 169.779409,167.936809 169.779409,167.936809 L181.705949,170.395923 C181.747075,170.416246 181.767638,170.436569 181.767638,170.456892 C181.932142,171.086913 182.384528,171.635641 183.001418,171.87952 Z M170.026165,166.493859 C170.026165,166.331273 169.985039,166.18901 169.964476,166.026424 C169.964476,165.985777 169.964476,165.965454 170.005602,165.945131 L184.625895,159.705893 L184.646458,159.705893 C184.646458,159.705893 184.667021,159.705893 184.687584,159.726216 C184.790399,159.827832 184.872651,159.888802 184.954903,159.949772 C184.996029,159.949772 184.996029,159.990418 184.996029,160.010741 L183.721123,167.835193 C183.721123,167.87584 183.70056,167.896163 183.659434,167.896163 C182.960292,167.936809 182.343402,168.343274 181.993831,168.952972 C181.973268,168.973295 181.952705,168.993618 181.932142,168.993618 L181.911579,168.993618 L170.087854,166.554828 C170.046728,166.554828 170.026165,166.534505 170.026165,166.493859 Z M165.070481,168.465214 C165.091044,168.485537 165.091044,168.50586 165.091044,168.50586 L162.273913,172.875359 C162.25335,172.895683 162.232787,172.916006 162.212224,172.916006 C162.212224,172.916006 162.191661,172.916006 162.171098,172.895683 L159.682975,170.436569 C159.662412,170.416246 159.662412,170.395923 159.662412,170.375599 C159.662412,170.355276 159.682975,170.334953 159.703538,170.334953 L164.803162,168.160365 L164.823725,168.160365 C164.844288,168.160365 164.864851,168.180688 164.885414,168.201012 C164.947103,168.302628 165.008792,168.383921 165.070481,168.465214 Z M168.442814,169.257821 L179.341204,185.06931 C179.361767,185.089633 179.361767,185.13028 179.341204,185.150603 L176.955896,187.528423 C176.955896,187.548747 176.935333,187.548747 176.91477,187.548747 C176.91477,187.548747 176.894207,187.548747 176.873644,187.528423 L163.260937,174.054108 C163.240374,174.033785 163.240374,173.993138 163.260937,173.972815 L163.2815,173.952492 L166.242573,169.359437 C166.263136,169.339114 166.283699,169.31879 166.304262,169.31879 L166.324825,169.31879 C166.63327,169.420407 166.921152,169.461053 167.229597,169.461053 C167.620294,169.461053 167.990428,169.37976 168.360562,169.217174 L168.381125,169.217174 C168.401688,169.217174 168.422251,169.237497 168.442814,169.257821 Z M166.530455,163.953452 L160.690562,155.43801 C160.669999,155.417687 160.669999,155.37704 160.690562,155.356717 L165.934127,150.153965 C165.934127,150.133641 165.95469,150.133641 165.975253,150.133641 L165.995816,150.133641 C165.995816,150.153965 172.18528,152.755341 172.884422,153.06019 C172.904985,153.080513 172.925548,153.100836 172.925548,153.141483 C172.884422,153.324392 172.863859,153.507301 172.863859,153.69021 C172.863859,154.320231 173.110615,154.909605 173.542438,155.356717 C173.563001,155.37704 173.563001,155.417687 173.542438,155.43801 L168.031554,163.973775 C168.010991,163.994099 167.990428,164.014422 167.969865,164.014422 L167.949302,164.014422 C167.723109,163.953452 167.476353,163.912806 167.25016,163.912806 C167.04453,163.912806 166.818337,163.953452 166.612707,163.994099 L166.592144,163.994099 C166.571581,163.994099 166.551018,163.973775 166.530455,163.953452 Z M167.126782,149.076832 C167.106219,149.056509 167.085656,149.056509 167.106219,149.015863 C167.106219,148.995539 167.106219,148.975216 167.126782,148.954893 L176.91477,139.240379 C176.91477,139.220056 176.935333,139.220056 176.955896,139.220056 C176.976459,139.220056 176.976459,139.220056 176.997022,139.240379 L181.212437,143.406645 C181.233,143.426969 181.233,143.467615 181.212437,143.487938 L176.133376,151.353037 C176.112813,151.37336 176.09225,151.393683 176.071687,151.393683 L176.051124,151.393683 C175.783805,151.31239 175.516486,151.271744 175.249167,151.271744 C174.693966,151.271744 174.138765,151.474976 173.706942,151.820471 C173.686379,151.840795 173.686379,151.840795 173.665816,151.840795 L173.645253,151.840795 C173.377934,151.718855 167.126782,149.076832 167.126782,149.076832 Z M164.700347,165.437049 C164.679784,165.437049 164.679784,165.437049 164.700347,165.437049 L153.061689,162.998259 C153.020563,162.998259 153,162.977936 153,162.957613 C153,162.93729 153,162.916966 153.020563,162.896643 L159.518471,156.474496 C159.518471,156.454173 159.539034,156.454173 159.559597,156.454173 C159.600723,156.474496 159.600723,156.474496 159.621286,156.494819 C159.621286,156.515142 165.193859,164.56315 165.255548,164.644443 C165.276111,164.664766 165.276111,164.705412 165.255548,164.725736 C165.070481,164.928968 164.885414,165.152524 164.762036,165.396403 C164.741473,165.416726 164.72091,165.437049 164.700347,165.437049 Z M164.165709,166.839354 C164.165709,166.859677 164.145146,166.88 164.10402,166.920647 L158.510884,169.298467 L158.490321,169.298467 C158.490321,169.298467 158.469758,169.298467 158.449195,169.278144 L153.945898,164.807029 C153.925335,164.786705 153.904772,164.746059 153.925335,164.725736 C153.945898,164.705412 153.966461,164.685089 153.987024,164.685089 C154.007587,164.685089 154.007587,164.685089 154.007587,164.685089 L164.10402,166.778384 C164.145146,166.778384 164.165709,166.798707 164.165709,166.839354 Z" id="Combined-Shape-Copy-7" fill="#FFF"/></g></g></g></g></svg>