<svg width="318" height="198" viewBox="0 0 318 198" xmlns="http://www.w3.org/2000/svg" xmlns:xlink="http://www.w3.org/1999/xlink"><title>editor</title><defs><rect id="b" width="300" height="180" rx="6"/><filter x="-6%" y="-7.8%" width="112%" filterUnits="objectBoundingBox" id="a"><feOffset dy="1" in="SourceAlpha" result="shadowOffsetOuter1"/><feGaussianBlur stdDeviation="1.5" in="shadowOffsetOuter1" result="shadowBlurOuter1"/><feColorMatrix values="0 0 0 0 0 0 0 0 0 0 0 0 0 0 0 0 0 0 0.147843071 0" in="shadowBlurOuter1" result="shadowMatrixOuter1"/><feOffset dy="3" in="SourceAlpha" result="shadowOffsetOuter2"/><feGaussianBlur stdDeviation="4.5" in="shadowOffsetOuter2" result="shadowBlurOuter2"/><feColorMatrix values="0 0 0 0 0 0 0 0 0 0 0 0 0 0 0 0 0 0 0.0974298007 0" in="shadowBlurOuter2" result="shadowMatrixOuter2"/><feMerge><feMergeNode in="shadowMatrixOuter1"/><feMergeNode in="shadowMatrixOuter2"/></feMerge></filter><linearGradient x1="50%" y1="0%" x2="50%" y2="100%" id="c"><stop stop-color="#4779DD" offset="0%"/><stop stop-color="#3A69C7" offset="100%"/></linearGradient></defs><g transform="translate(9 6)" fill="none" fill-rule="evenodd"><use fill="#000" filter="url(#a)" xlink:href="#b"/><use fill="#FFF" xlink:href="#b"/><path d="M0 19h149v161H6c-3.3137 0-6-2.6863-6-6V19z" fill="#EFF0F4"/><path fill="#AEB1BD" d="M10 31h18v4H10z"/><path fill="#FFF" d="M10 39h129v12H10z"/><path fill="#D4D6DD" d="M16 43h44v4H16z"/><path fill="#AEB1BD" d="M10 59h10v4H10z"/><path fill="#FFF" d="M10 67h129v12H10z"/><path fill="#D4D6DD" d="M16 71h26v4H16z"/><path fill="#AEB1BD" d="M10 87h35v4H10z"/><path fill="#FFF9E5" d="M10 95h42v27.7686H10z"/><circle fill="#FFC500" cx="31" cy="110.4463" r="7.8099"/><path d="M10 110.1683c4.6101 2.4917 9.3585 3.7375 14.245 3.7375 7.33 0 10.2112-5.0507 15.7083-5.0507 3.6648 0 7.6803 1.5082 12.0467 4.5246v9.3889H10v-12.6003z" fill="#D4D6DD"/><path d="M10 115.257c4.6503-2.702 8.896-4.0531 12.7373-4.0531 5.7618 0 11.322 4.9766 15.525 4.9766 2.8018 0 7.3811-2.196 13.7377-6.588v13.1761H10v-7.5116z" fill="#9AA1AE"/><path fill="#AEB1BD" d="M10 131h10v4H10z"/><path fill="#FFF" d="M10 139h129v41H10z"/><path fill="#D4D6DD" d="M16 145h117v4H16zm0 6h117v4H16zm0 6h83v4H16zm0 10h117v4H16zm0 6h43v4H16z"/><path fill="#9AA1AE" d="M61 172h2v6h-2z"/><path fill="#AEB1BD" d="M179 31h91v8h-91z"/><path fill="#D4D6DD" d="M213 42h24v4h-24z"/><path fill="#FFF9E5" d="M164 56h121v80H164z"/><circle fill="#FFC500" cx="224.5" cy="100.5" r="22.5"/><path d="M164 99.6992c13.2815 7.1784 26.9613 10.7676 41.0393 10.7676 21.117 0 29.4178-14.5508 45.2548-14.5508 10.558 0 22.1266 4.345 34.7059 13.0352V136H164V99.6992z" fill="#D4D6DD"/><path d="M164 114.3594c13.3973-7.7845 25.6291-11.6768 36.6955-11.6768 16.5995 0 32.6183 14.3374 44.7266 14.3374 8.0722 0 21.2648-6.3266 39.5779-18.98V136H164v-21.6406z" fill="#9AA1AE"/><path fill="#D4D6DD" d="M164 145h121v4H164zm0 6h121v4H164zm0 6h85.8376v4H164zm0 10h121v4H164zm0 6h44.4701v4H164z"/><path fill="#9AA1AE" d="M210 172h2v6h-2z"/><path d="M6 0h288c3.3137 0 6 2.6863 6 6v13H0V6c0-3.3137 2.6863-6 6-6z" fill="url(#c)"/></g></svg>