<svg width="17" height="16" viewBox="0 0 17 16" version="1.1" xmlns="http://www.w3.org/2000/svg" xmlns:xlink="http://www.w3.org/1999/xlink"><title>Shape Copy</title><desc>Created with Sketch.</desc><g id="Page-1" stroke="none" stroke-width="1" fill="none" fill-rule="evenodd"><g id="jamstack-landing" transform="translate(-1053.000000, -48.000000)" fill="#FFF"><g id="header" transform="translate(250.000000, 40.000000)"><path d="M811.198938,8 C806.671816,8 803,11.6725529 803,16.2027524 C803,19.8271171 805.349142,22.9014191 808.607399,23.9861654 C809.017371,24.0610108 809.167011,23.8082793 809.167011,23.5909199 C809.167011,23.3961167 809.159837,22.8793756 809.15625,22.1950012 C806.875265,22.6907241 806.39406,21.0953885 806.39406,21.0953885 C806.021497,20.1485424 805.483921,19.8958109 805.483921,19.8958109 C804.739308,19.3877847 805.540292,19.3970122 805.540292,19.3970122 C806.363312,19.4549405 806.796345,20.2428682 806.796345,20.2428682 C807.528146,21.4952477 808.715529,21.1333238 809.182898,20.9241667 C809.257205,20.394097 809.469366,20.0321731 809.703563,19.8276298 C807.882772,19.6200106 805.968713,18.9171812 805.968713,15.7731601 C805.968713,14.8775781 806.288492,14.1455282 806.812744,13.5723967 C806.727675,13.3647775 806.446331,12.5312248 806.892176,11.401879 C806.892176,11.401879 807.58093,11.1814438 809.147025,12.2431212 C809.800931,12.061134 810.502497,11.9698841 811.199962,11.9668082 C811.896403,11.9698841 812.597456,12.061134 813.2529,12.2431212 C814.818482,11.1814438 815.505699,11.401879 815.505699,11.401879 C815.953081,12.5312248 815.671225,13.3652901 815.587181,13.5723967 C816.111945,14.1460408 816.430187,14.8780907 816.430187,15.7731601 C816.430187,18.9243581 814.513053,19.61796 812.686113,19.8204528 C812.980781,20.0747223 813.24265,20.5755715 813.24265,21.3404304 C813.24265,22.4369673 813.232401,23.3207587 813.232401,23.5909199 C813.232401,23.8098172 813.379991,24.0645993 813.796626,23.9851401 C817.051807,22.8983433 819.3989,19.8260919 819.3989,16.2027524 C819.3989,11.6725529 815.727596,8 811.198938,8 L811.198938,8 Z" id="Shape-Copy"/></g></g></g></svg>