<svg width="14" height="13" viewBox="0 0 14 13" version="1.1" xmlns="http://www.w3.org/2000/svg" xmlns:xlink="http://www.w3.org/1999/xlink"><title>heart</title><desc>Created with Sketch.</desc><g id="Page-1" stroke="none" stroke-width="1" fill="none" fill-rule="evenodd"><g id="jamstack-landing" transform="translate(-713.000000, -3752.000000)" fill="#FB6D77"><g id="articles" transform="translate(0.000000, 2345.000000)"><path d="M725.879238,1413.84495 C727.525503,1412.19869 727.286611,1409.22984 725.019692,1408.06452 C724.069878,1407.57625 722.919023,1407.55603 721.944531,1407.99308 C721.192974,1408.33013 720.67604,1408.8388 720.338716,1409.42467 C720.200205,1409.66532 719.853604,1409.66829 719.715278,1409.42754 C719.400776,1408.88009 718.929673,1408.39989 718.257251,1408.06377 C717.091367,1407.48106 715.657183,1407.56475 714.597246,1408.32326 C712.751148,1409.64445 712.595381,1412.22912 714.129854,1413.7635 C715.615991,1415.49762 717.211323,1417.11317 719.263379,1418.9961 C719.696074,1419.38965 720.358291,1419.39893 720.792471,1419 C722.423057,1417.51525 724.153467,1415.82056 725.879239,1413.84486 L725.879238,1413.84495 Z" id="heart"/></g></g></g></svg>