<svg width="298" height="507" viewBox="0 0 298 507" version="1.1" xmlns="http://www.w3.org/2000/svg" xmlns:xlink="http://www.w3.org/1999/xlink"><title>helix</title><desc>Created with Sketch.</desc><defs><linearGradient x1="2.563%" y1="49.687%" x2="97.437%" y2="49.687%" id="linearGradient-1"><stop stop-color="#B2DE3F" offset="0%"/><stop stop-color="#FFF" offset="100%"/></linearGradient><linearGradient x1="97.437%" y1="49.687%" x2="2.563%" y2="49.687%" id="linearGradient-2"><stop stop-color="#B2DE3F" offset="0%"/><stop stop-color="#FFF" offset="100%"/></linearGradient><linearGradient x1="50%" y1="97.125%" x2="50%" y2="2.25%" id="linearGradient-3"><stop stop-color="#B2DE3F" offset="0%"/><stop stop-color="#CAE87C" offset="100%"/></linearGradient></defs><g id="landing" stroke="none" stroke-width="1" fill="none" fill-rule="evenodd"><g id="cms-landing-v6" transform="translate(-572.000000, -1465.000000)"><g id="triptych" transform="translate(0.000000, 1205.000000)"><g id="helix" transform="translate(572.000000, 260.000000)"><g transform="translate(58.000000, 0.800049)"><g id="bars" transform="translate(6.000000, 7.000000)" fill-rule="nonzero"><path d="M28,1.5 L30,1.5 L30,0.5 L28,0.5 L28,1.5 Z M32,1.5 L34,1.5 L34,0.5 L32,0.5 L32,1.5 Z M36,1.5 L38,1.5 L38,0.5 L36,0.5 L36,1.5 Z M40,1.5 L42,1.5 L42,0.5 L40,0.5 L40,1.5 Z M44,1.5 L46,1.5 L46,0.5 L44,0.5 L44,1.5 Z M48,1.5 L50,1.5 L50,0.5 L48,0.5 L48,1.5 Z M52,1.5 L54,1.5 L54,0.5 L52,0.5 L52,1.5 Z M56,1.5 L58,1.5 L58,0.5 L56,0.5 L56,1.5 Z M60,1.5 L62,1.5 L62,0.5 L60,0.5 L60,1.5 Z M64,1.5 L66,1.5 L66,0.5 L64,0.5 L64,1.5 Z M68,1.5 L70,1.5 L70,0.5 L68,0.5 L68,1.5 Z M72,1.5 L74,1.5 L74,0.5 L72,0.5 L72,1.5 Z M76,1.5 L78,1.5 L78,0.5 L76,0.5 L76,1.5 Z M80,1.5 L82,1.5 L82,0.5 L80,0.5 L80,1.5 Z M84,1.5 L86,1.5 L86,0.5 L84,0.5 L84,1.5 Z M88,1.5 L90,1.5 L90,0.5 L88,0.5 L88,1.5 Z M92,1.5 L94,1.5 L94,0.5 L92,0.5 L92,1.5 Z M96,1.5 L98,1.5 L98,0.5 L96,0.5 L96,1.5 Z M100,1.5 L102,1.5 L102,0.5 L100,0.5 L100,1.5 Z M104,1.5 L106,1.5 L106,0.5 L104,0.5 L104,1.5 Z M108,1.5 L110,1.5 L110,0.5 L108,0.5 L108,1.5 Z M112,1.5 L114,1.5 L114,0.5 L112,0.5 L112,1.5 Z M116,1.5 L118,1.5 L118,0.5 L116,0.5 L116,1.5 Z M120,1.5 L122,1.5 L122,0.5 L120,0.5 L120,1.5 Z M124,1.5 L126,1.5 L126,0.5 L124,0.5 L124,1.5 Z M128,1.5 L130,1.5 L130,0.5 L128,0.5 L128,1.5 Z M132,1.5 L134,1.5 L134,0.5 L132,0.5 L132,1.5 Z M136,1.5 L138,1.5 L138,0.5 L136,0.5 L136,1.5 Z" id="Path-9" fill="url(#linearGradient-1)"/><path d="M0.5,36.5 L2.5,36.5 L2.5,35.5 L0.5,35.5 L0.5,36.5 Z M4.5,36.5 L6.5,36.5 L6.5,35.5 L4.5,35.5 L4.5,36.5 Z M8.5,36.5 L10.5,36.5 L10.5,35.5 L8.5,35.5 L8.5,36.5 Z M12.5,36.5 L14.5,36.5 L14.5,35.5 L12.5,35.5 L12.5,36.5 Z M16.5,36.5 L18.5,36.5 L18.5,35.5 L16.5,35.5 L16.5,36.5 Z M20.5,36.5 L22.5,36.5 L22.5,35.5 L20.5,35.5 L20.5,36.5 Z M24.5,36.5 L26.5,36.5 L26.5,35.5 L24.5,35.5 L24.5,36.5 Z M28.5,36.5 L30.5,36.5 L30.5,35.5 L28.5,35.5 L28.5,36.5 Z M32.5,36.5 L34.5,36.5 L34.5,35.5 L32.5,35.5 L32.5,36.5 Z M36.5,36.5 L38.5,36.5 L38.5,35.5 L36.5,35.5 L36.5,36.5 Z M40.5,36.5 L42.5,36.5 L42.5,35.5 L40.5,35.5 L40.5,36.5 Z M44.5,36.5 L46.5,36.5 L46.5,35.5 L44.5,35.5 L44.5,36.5 Z M48.5,36.5 L50.5,36.5 L50.5,35.5 L48.5,35.5 L48.5,36.5 Z M52.5,36.5 L54.5,36.5 L54.5,35.5 L52.5,35.5 L52.5,36.5 Z M56.5,36.5 L58.5,36.5 L58.5,35.5 L56.5,35.5 L56.5,36.5 Z M60.5,36.5 L62.5,36.5 L62.5,35.5 L60.5,35.5 L60.5,36.5 Z M64.5,36.5 L66.5,36.5 L66.5,35.5 L64.5,35.5 L64.5,36.5 Z M68.5,36.5 L70.5,36.5 L70.5,35.5 L68.5,35.5 L68.5,36.5 Z M72.5,36.5 L74.5,36.5 L74.5,35.5 L72.5,35.5 L72.5,36.5 Z M76.5,36.5 L78.5,36.5 L78.5,35.5 L76.5,35.5 L76.5,36.5 Z M80.5,36.5 L82.5,36.5 L82.5,35.5 L80.5,35.5 L80.5,36.5 Z M84.5,36.5 L86.5,36.5 L86.5,35.5 L84.5,35.5 L84.5,36.5 Z M88.5,36.5 L90.5,36.5 L90.5,35.5 L88.5,35.5 L88.5,36.5 Z M92.5,36.5 L94.5,36.5 L94.5,35.5 L92.5,35.5 L92.5,36.5 Z M96.5,36.5 L98.5,36.5 L98.5,35.5 L96.5,35.5 L96.5,36.5 Z M100.5,36.5 L102.5,36.5 L102.5,35.5 L100.5,35.5 L100.5,36.5 Z M104.5,36.5 L106.5,36.5 L106.5,35.5 L104.5,35.5 L104.5,36.5 Z M108.5,36.5 L110.5,36.5 L110.5,35.5 L108.5,35.5 L108.5,36.5 Z M112.5,36.5 L114.5,36.5 L114.5,35.5 L112.5,35.5 L112.5,36.5 Z M116.5,36.5 L118.5,36.5 L118.5,35.5 L116.5,35.5 L116.5,36.5 Z M120.5,36.5 L122.5,36.5 L122.5,35.5 L120.5,35.5 L120.5,36.5 Z M124.5,36.5 L126.5,36.5 L126.5,35.5 L124.5,35.5 L124.5,36.5 Z M128.5,36.5 L130.5,36.5 L130.5,35.5 L128.5,35.5 L128.5,36.5 Z M132.5,36.5 L134.5,36.5 L134.5,35.5 L132.5,35.5 L132.5,36.5 Z M136.5,36.5 L138.5,36.5 L138.5,35.5 L136.5,35.5 L136.5,36.5 Z M140.5,36.5 L142.5,36.5 L142.5,35.5 L140.5,35.5 L140.5,36.5 Z M144.5,36.5 L146.5,36.5 L146.5,35.5 L144.5,35.5 L144.5,36.5 Z M148.5,36.5 L150.5,36.5 L150.5,35.5 L148.5,35.5 L148.5,36.5 Z M152.5,36.5 L154.5,36.5 L154.5,35.5 L152.5,35.5 L152.5,36.5 Z M156.5,36.5 L158.5,36.5 L158.5,35.5 L156.5,35.5 L156.5,36.5 Z M160.5,36.5 L162.5,36.5 L162.5,35.5 L160.5,35.5 L160.5,36.5 Z M164.5,36.5 L166.5,36.5 L166.5,35.5 L164.5,35.5 L164.5,36.5 Z" id="Path-9-Copy" fill="url(#linearGradient-2)"/><path d="M28,71.5 L30,71.5 L30,70.5 L28,70.5 L28,71.5 Z M32,71.5 L34,71.5 L34,70.5 L32,70.5 L32,71.5 Z M36,71.5 L38,71.5 L38,70.5 L36,70.5 L36,71.5 Z M40,71.5 L42,71.5 L42,70.5 L40,70.5 L40,71.5 Z M44,71.5 L46,71.5 L46,70.5 L44,70.5 L44,71.5 Z M48,71.5 L50,71.5 L50,70.5 L48,70.5 L48,71.5 Z M52,71.5 L54,71.5 L54,70.5 L52,70.5 L52,71.5 Z M56,71.5 L58,71.5 L58,70.5 L56,70.5 L56,71.5 Z M60,71.5 L62,71.5 L62,70.5 L60,70.5 L60,71.5 Z M64,71.5 L66,71.5 L66,70.5 L64,70.5 L64,71.5 Z M68,71.5 L70,71.5 L70,70.5 L68,70.5 L68,71.5 Z M72,71.5 L74,71.5 L74,70.5 L72,70.5 L72,71.5 Z M76,71.5 L78,71.5 L78,70.5 L76,70.5 L76,71.5 Z M80,71.5 L82,71.5 L82,70.5 L80,70.5 L80,71.5 Z M84,71.5 L86,71.5 L86,70.5 L84,70.5 L84,71.5 Z M88,71.5 L90,71.5 L90,70.5 L88,70.5 L88,71.5 Z M92,71.5 L94,71.5 L94,70.5 L92,70.5 L92,71.5 Z M96,71.5 L98,71.5 L98,70.5 L96,70.5 L96,71.5 Z M100,71.5 L102,71.5 L102,70.5 L100,70.5 L100,71.5 Z M104,71.5 L106,71.5 L106,70.5 L104,70.5 L104,71.5 Z M108,71.5 L110,71.5 L110,70.5 L108,70.5 L108,71.5 Z M112,71.5 L114,71.5 L114,70.5 L112,70.5 L112,71.5 Z M116,71.5 L118,71.5 L118,70.5 L116,70.5 L116,71.5 Z M120,71.5 L122,71.5 L122,70.5 L120,70.5 L120,71.5 Z M124,71.5 L126,71.5 L126,70.5 L124,70.5 L124,71.5 Z M128,71.5 L130,71.5 L130,70.5 L128,70.5 L128,71.5 Z M132,71.5 L134,71.5 L134,70.5 L132,70.5 L132,71.5 Z M136,71.5 L138,71.5 L138,70.5 L136,70.5 L136,71.5 Z" id="Path-9-Copy-2" fill="#EAECEC"/><path d="M57.5,106.5 L59.5,106.5 L59.5,105.5 L57.5,105.5 L57.5,106.5 Z M61.5,106.5 L63.5,106.5 L63.5,105.5 L61.5,105.5 L61.5,106.5 Z M65.5,106.5 L67.5,106.5 L67.5,105.5 L65.5,105.5 L65.5,106.5 Z M69.5,106.5 L71.5,106.5 L71.5,105.5 L69.5,105.5 L69.5,106.5 Z M73.5,106.5 L75.5,106.5 L75.5,105.5 L73.5,105.5 L73.5,106.5 Z M77.5,106.5 L79.5,106.5 L79.5,105.5 L77.5,105.5 L77.5,106.5 Z M81.5,106.5 L83.5,106.5 L83.5,105.5 L81.5,105.5 L81.5,106.5 Z M85.5,106.5 L87.5,106.5 L87.5,105.5 L85.5,105.5 L85.5,106.5 Z M89.5,106.5 L91.5,106.5 L91.5,105.5 L89.5,105.5 L89.5,106.5 Z M93.5,106.5 L95.5,106.5 L95.5,105.5 L93.5,105.5 L93.5,106.5 Z M97.5,106.5 L99.5,106.5 L99.5,105.5 L97.5,105.5 L97.5,106.5 Z M101.5,106.5 L103.5,106.5 L103.5,105.5 L101.5,105.5 L101.5,106.5 Z M105.5,106.5 L107.5,106.5 L107.5,105.5 L105.5,105.5 L105.5,106.5 Z M109.5,106.5 L111.5,106.5 L111.5,105.5 L109.5,105.5 L109.5,106.5 Z" id="Path-9-Copy-3" fill="#EAECEC"/></g><g id="left" transform="translate(82.000000, 0.000000)"><ellipse id="Oval-4" fill="#EAEBEB" cx="63" cy="8" rx="8" ry="8"/><ellipse id="Oval-4-Copy-3" fill="url(#linearGradient-3)" cx="90" cy="43.2" rx="8" ry="8"/><circle id="Oval-4-Copy-5" fill="#EAEBEB" cx="63" cy="78" r="8"/><ellipse id="Oval-4-Copy-4" fill="#EAEBEB" cx="35" cy="113" rx="8" ry="8"/><ellipse id="Oval-4-Copy-6" fill="#EAEBEB" cx="8" cy="148" rx="8" ry="8"/></g><g id="right" transform="translate(35.500000, 60.500000) scale(-1, 1) translate(-35.500000, -60.500000)"><ellipse id="Oval-4-Copy" fill="url(#linearGradient-3)" cx="36" cy="8" rx="8" ry="8"/><ellipse id="Oval-4-Copy-10" fill="#EAEBEB" cx="63" cy="43.2" rx="8" ry="8"/><circle id="Oval-4-Copy-9" fill="#EAEBEB" cx="36" cy="78" r="8"/><ellipse id="Oval-4-Copy-8" fill="#EAEBEB" cx="8" cy="113" rx="8" ry="8"/></g></g><g id="helix-copy" transform="translate(58.000000, 175.800049)"><g id="bars" transform="translate(6.000000, 42.000000)" fill-rule="nonzero"><path d="M28,1.5 L30,1.5 L30,0.5 L28,0.5 L28,1.5 Z M32,1.5 L34,1.5 L34,0.5 L32,0.5 L32,1.5 Z M36,1.5 L38,1.5 L38,0.5 L36,0.5 L36,1.5 Z M40,1.5 L42,1.5 L42,0.5 L40,0.5 L40,1.5 Z M44,1.5 L46,1.5 L46,0.5 L44,0.5 L44,1.5 Z M48,1.5 L50,1.5 L50,0.5 L48,0.5 L48,1.5 Z M52,1.5 L54,1.5 L54,0.5 L52,0.5 L52,1.5 Z M56,1.5 L58,1.5 L58,0.5 L56,0.5 L56,1.5 Z M60,1.5 L62,1.5 L62,0.5 L60,0.5 L60,1.5 Z M64,1.5 L66,1.5 L66,0.5 L64,0.5 L64,1.5 Z M68,1.5 L70,1.5 L70,0.5 L68,0.5 L68,1.5 Z M72,1.5 L74,1.5 L74,0.5 L72,0.5 L72,1.5 Z M76,1.5 L78,1.5 L78,0.5 L76,0.5 L76,1.5 Z M80,1.5 L82,1.5 L82,0.5 L80,0.5 L80,1.5 Z M84,1.5 L86,1.5 L86,0.5 L84,0.5 L84,1.5 Z M88,1.5 L90,1.5 L90,0.5 L88,0.5 L88,1.5 Z M92,1.5 L94,1.5 L94,0.5 L92,0.5 L92,1.5 Z M96,1.5 L98,1.5 L98,0.5 L96,0.5 L96,1.5 Z M100,1.5 L102,1.5 L102,0.5 L100,0.5 L100,1.5 Z M104,1.5 L106,1.5 L106,0.5 L104,0.5 L104,1.5 Z M108,1.5 L110,1.5 L110,0.5 L108,0.5 L108,1.5 Z M112,1.5 L114,1.5 L114,0.5 L112,0.5 L112,1.5 Z M116,1.5 L118,1.5 L118,0.5 L116,0.5 L116,1.5 Z M120,1.5 L122,1.5 L122,0.5 L120,0.5 L120,1.5 Z M124,1.5 L126,1.5 L126,0.5 L124,0.5 L124,1.5 Z M128,1.5 L130,1.5 L130,0.5 L128,0.5 L128,1.5 Z M132,1.5 L134,1.5 L134,0.5 L132,0.5 L132,1.5 Z M136,1.5 L138,1.5 L138,0.5 L136,0.5 L136,1.5 Z" id="Path-9" fill="url(#linearGradient-2)"/><path d="M0.5,36.5 L2.5,36.5 L2.5,35.5 L0.5,35.5 L0.5,36.5 Z M4.5,36.5 L6.5,36.5 L6.5,35.5 L4.5,35.5 L4.5,36.5 Z M8.5,36.5 L10.5,36.5 L10.5,35.5 L8.5,35.5 L8.5,36.5 Z M12.5,36.5 L14.5,36.5 L14.5,35.5 L12.5,35.5 L12.5,36.5 Z M16.5,36.5 L18.5,36.5 L18.5,35.5 L16.5,35.5 L16.5,36.5 Z M20.5,36.5 L22.5,36.5 L22.5,35.5 L20.5,35.5 L20.5,36.5 Z M24.5,36.5 L26.5,36.5 L26.5,35.5 L24.5,35.5 L24.5,36.5 Z M28.5,36.5 L30.5,36.5 L30.5,35.5 L28.5,35.5 L28.5,36.5 Z M32.5,36.5 L34.5,36.5 L34.5,35.5 L32.5,35.5 L32.5,36.5 Z M36.5,36.5 L38.5,36.5 L38.5,35.5 L36.5,35.5 L36.5,36.5 Z M40.5,36.5 L42.5,36.5 L42.5,35.5 L40.5,35.5 L40.5,36.5 Z M44.5,36.5 L46.5,36.5 L46.5,35.5 L44.5,35.5 L44.5,36.5 Z M48.5,36.5 L50.5,36.5 L50.5,35.5 L48.5,35.5 L48.5,36.5 Z M52.5,36.5 L54.5,36.5 L54.5,35.5 L52.5,35.5 L52.5,36.5 Z M56.5,36.5 L58.5,36.5 L58.5,35.5 L56.5,35.5 L56.5,36.5 Z M60.5,36.5 L62.5,36.5 L62.5,35.5 L60.5,35.5 L60.5,36.5 Z M64.5,36.5 L66.5,36.5 L66.5,35.5 L64.5,35.5 L64.5,36.5 Z M68.5,36.5 L70.5,36.5 L70.5,35.5 L68.5,35.5 L68.5,36.5 Z M72.5,36.5 L74.5,36.5 L74.5,35.5 L72.5,35.5 L72.5,36.5 Z M76.5,36.5 L78.5,36.5 L78.5,35.5 L76.5,35.5 L76.5,36.5 Z M80.5,36.5 L82.5,36.5 L82.5,35.5 L80.5,35.5 L80.5,36.5 Z M84.5,36.5 L86.5,36.5 L86.5,35.5 L84.5,35.5 L84.5,36.5 Z M88.5,36.5 L90.5,36.5 L90.5,35.5 L88.5,35.5 L88.5,36.5 Z M92.5,36.5 L94.5,36.5 L94.5,35.5 L92.5,35.5 L92.5,36.5 Z M96.5,36.5 L98.5,36.5 L98.5,35.5 L96.5,35.5 L96.5,36.5 Z M100.5,36.5 L102.5,36.5 L102.5,35.5 L100.5,35.5 L100.5,36.5 Z M104.5,36.5 L106.5,36.5 L106.5,35.5 L104.5,35.5 L104.5,36.5 Z M108.5,36.5 L110.5,36.5 L110.5,35.5 L108.5,35.5 L108.5,36.5 Z M112.5,36.5 L114.5,36.5 L114.5,35.5 L112.5,35.5 L112.5,36.5 Z M116.5,36.5 L118.5,36.5 L118.5,35.5 L116.5,35.5 L116.5,36.5 Z M120.5,36.5 L122.5,36.5 L122.5,35.5 L120.5,35.5 L120.5,36.5 Z M124.5,36.5 L126.5,36.5 L126.5,35.5 L124.5,35.5 L124.5,36.5 Z M128.5,36.5 L130.5,36.5 L130.5,35.5 L128.5,35.5 L128.5,36.5 Z M132.5,36.5 L134.5,36.5 L134.5,35.5 L132.5,35.5 L132.5,36.5 Z M136.5,36.5 L138.5,36.5 L138.5,35.5 L136.5,35.5 L136.5,36.5 Z M140.5,36.5 L142.5,36.5 L142.5,35.5 L140.5,35.5 L140.5,36.5 Z M144.5,36.5 L146.5,36.5 L146.5,35.5 L144.5,35.5 L144.5,36.5 Z M148.5,36.5 L150.5,36.5 L150.5,35.5 L148.5,35.5 L148.5,36.5 Z M152.5,36.5 L154.5,36.5 L154.5,35.5 L152.5,35.5 L152.5,36.5 Z M156.5,36.5 L158.5,36.5 L158.5,35.5 L156.5,35.5 L156.5,36.5 Z M160.5,36.5 L162.5,36.5 L162.5,35.5 L160.5,35.5 L160.5,36.5 Z M164.5,36.5 L166.5,36.5 L166.5,35.5 L164.5,35.5 L164.5,36.5 Z" id="Path-9-Copy" fill="url(#linearGradient-1)"/><path d="M28,71.5 L30,71.5 L30,70.5 L28,70.5 L28,71.5 Z M32,71.5 L34,71.5 L34,70.5 L32,70.5 L32,71.5 Z M36,71.5 L38,71.5 L38,70.5 L36,70.5 L36,71.5 Z M40,71.5 L42,71.5 L42,70.5 L40,70.5 L40,71.5 Z M44,71.5 L46,71.5 L46,70.5 L44,70.5 L44,71.5 Z M48,71.5 L50,71.5 L50,70.5 L48,70.5 L48,71.5 Z M52,71.5 L54,71.5 L54,70.5 L52,70.5 L52,71.5 Z M56,71.5 L58,71.5 L58,70.5 L56,70.5 L56,71.5 Z M60,71.5 L62,71.5 L62,70.5 L60,70.5 L60,71.5 Z M64,71.5 L66,71.5 L66,70.5 L64,70.5 L64,71.5 Z M68,71.5 L70,71.5 L70,70.5 L68,70.5 L68,71.5 Z M72,71.5 L74,71.5 L74,70.5 L72,70.5 L72,71.5 Z M76,71.5 L78,71.5 L78,70.5 L76,70.5 L76,71.5 Z M80,71.5 L82,71.5 L82,70.5 L80,70.5 L80,71.5 Z M84,71.5 L86,71.5 L86,70.5 L84,70.5 L84,71.5 Z M88,71.5 L90,71.5 L90,70.5 L88,70.5 L88,71.5 Z M92,71.5 L94,71.5 L94,70.5 L92,70.5 L92,71.5 Z M96,71.5 L98,71.5 L98,70.5 L96,70.5 L96,71.5 Z M100,71.5 L102,71.5 L102,70.5 L100,70.5 L100,71.5 Z M104,71.5 L106,71.5 L106,70.5 L104,70.5 L104,71.5 Z M108,71.5 L110,71.5 L110,70.5 L108,70.5 L108,71.5 Z M112,71.5 L114,71.5 L114,70.5 L112,70.5 L112,71.5 Z M116,71.5 L118,71.5 L118,70.5 L116,70.5 L116,71.5 Z M120,71.5 L122,71.5 L122,70.5 L120,70.5 L120,71.5 Z M124,71.5 L126,71.5 L126,70.5 L124,70.5 L124,71.5 Z M128,71.5 L130,71.5 L130,70.5 L128,70.5 L128,71.5 Z M132,71.5 L134,71.5 L134,70.5 L132,70.5 L132,71.5 Z M136,71.5 L138,71.5 L138,70.5 L136,70.5 L136,71.5 Z" id="Path-9-Copy-2" fill="#EAECEC"/><path d="M57.5,106.5 L59.5,106.5 L59.5,105.5 L57.5,105.5 L57.5,106.5 Z M61.5,106.5 L63.5,106.5 L63.5,105.5 L61.5,105.5 L61.5,106.5 Z M65.5,106.5 L67.5,106.5 L67.5,105.5 L65.5,105.5 L65.5,106.5 Z M69.5,106.5 L71.5,106.5 L71.5,105.5 L69.5,105.5 L69.5,106.5 Z M73.5,106.5 L75.5,106.5 L75.5,105.5 L73.5,105.5 L73.5,106.5 Z M77.5,106.5 L79.5,106.5 L79.5,105.5 L77.5,105.5 L77.5,106.5 Z M81.5,106.5 L83.5,106.5 L83.5,105.5 L81.5,105.5 L81.5,106.5 Z M85.5,106.5 L87.5,106.5 L87.5,105.5 L85.5,105.5 L85.5,106.5 Z M89.5,106.5 L91.5,106.5 L91.5,105.5 L89.5,105.5 L89.5,106.5 Z M93.5,106.5 L95.5,106.5 L95.5,105.5 L93.5,105.5 L93.5,106.5 Z M97.5,106.5 L99.5,106.5 L99.5,105.5 L97.5,105.5 L97.5,106.5 Z M101.5,106.5 L103.5,106.5 L103.5,105.5 L101.5,105.5 L101.5,106.5 Z M105.5,106.5 L107.5,106.5 L107.5,105.5 L105.5,105.5 L105.5,106.5 Z M109.5,106.5 L111.5,106.5 L111.5,105.5 L109.5,105.5 L109.5,106.5 Z" id="Path-9-Copy-3" fill="#EAECEC"/></g><g id="left" transform="translate(82.000000, 35.000000)"><ellipse id="Oval-4" fill="url(#linearGradient-3)" cx="63" cy="8" rx="8" ry="8"/><ellipse id="Oval-4-Copy-3" fill="#EAEBEB" cx="90" cy="43.2" rx="8" ry="8"/><circle id="Oval-4-Copy-5" fill="#EAEBEB" cx="63" cy="78" r="8"/><ellipse id="Oval-4-Copy-4" fill="#EAEBEB" cx="35" cy="113" rx="8" ry="8"/><ellipse id="Oval-4-Copy-6" fill="#EAEBEB" cx="8" cy="148" rx="8" ry="8"/></g><g id="right" transform="translate(35.500000, 95.500000) scale(-1, 1) translate(-35.500000, -95.500000) translate(0.000000, 35.000000)"><ellipse id="Oval-4-Copy" fill="#EAEBEB" cx="36" cy="8" rx="8" ry="8"/><circle id="Oval-4-Copy-10" fill="url(#linearGradient-3)" cx="63" cy="43.2" r="8"/><ellipse id="Oval-4-Copy-9" fill="#EAEBEB" cx="36" cy="78" rx="8" ry="8"/><circle id="Oval-4-Copy-8" fill="#EAEBEB" cx="8" cy="113" r="8"/></g><g id="Group-8" transform="translate(55.000000, 0.000000)"><path d="M8.5,8.5 L10.5,8.5 L10.5,7.5 L8.5,7.5 L8.5,8.5 Z M12.5,8.5 L14.5,8.5 L14.5,7.5 L12.5,7.5 L12.5,8.5 Z M16.5,8.5 L18.5,8.5 L18.5,7.5 L16.5,7.5 L16.5,8.5 Z M20.5,8.5 L22.5,8.5 L22.5,7.5 L20.5,7.5 L20.5,8.5 Z M24.5,8.5 L26.5,8.5 L26.5,7.5 L24.5,7.5 L24.5,8.5 Z M28.5,8.5 L30.5,8.5 L30.5,7.5 L28.5,7.5 L28.5,8.5 Z M32.5,8.5 L34.5,8.5 L34.5,7.5 L32.5,7.5 L32.5,8.5 Z M36.5,8.5 L38.5,8.5 L38.5,7.5 L36.5,7.5 L36.5,8.5 Z M40.5,8.5 L42.5,8.5 L42.5,7.5 L40.5,7.5 L40.5,8.5 Z M44.5,8.5 L46.5,8.5 L46.5,7.5 L44.5,7.5 L44.5,8.5 Z M48.5,8.5 L50.5,8.5 L50.5,7.5 L48.5,7.5 L48.5,8.5 Z M52.5,8.5 L54.5,8.5 L54.5,7.5 L52.5,7.5 L52.5,8.5 Z M56.5,8.5 L58.5,8.5 L58.5,7.5 L56.5,7.5 L56.5,8.5 Z M60.5,8.5 L62.5,8.5 L62.5,7.5 L60.5,7.5 L60.5,8.5 Z" id="Path-9-Copy-3" fill="#EAECEC" fill-rule="nonzero"/><circle id="Oval-4-Copy-4" fill="#EAEBEB" cx="62" cy="8" r="8"/><circle id="Oval-4-Copy-8" fill="#EAEBEB" cx="8" cy="8" r="8"/></g></g><g id="helix-copy-2" transform="translate(58.000000, 385.800049)"><g id="bars" transform="translate(6.000000, 42.000000)" fill-rule="nonzero"><path d="M28,1.5 L30,1.5 L30,0.5 L28,0.5 L28,1.5 Z M32,1.5 L34,1.5 L34,0.5 L32,0.5 L32,1.5 Z M36,1.5 L38,1.5 L38,0.5 L36,0.5 L36,1.5 Z M40,1.5 L42,1.5 L42,0.5 L40,0.5 L40,1.5 Z M44,1.5 L46,1.5 L46,0.5 L44,0.5 L44,1.5 Z M48,1.5 L50,1.5 L50,0.5 L48,0.5 L48,1.5 Z M52,1.5 L54,1.5 L54,0.5 L52,0.5 L52,1.5 Z M56,1.5 L58,1.5 L58,0.5 L56,0.5 L56,1.5 Z M60,1.5 L62,1.5 L62,0.5 L60,0.5 L60,1.5 Z M64,1.5 L66,1.5 L66,0.5 L64,0.5 L64,1.5 Z M68,1.5 L70,1.5 L70,0.5 L68,0.5 L68,1.5 Z M72,1.5 L74,1.5 L74,0.5 L72,0.5 L72,1.5 Z M76,1.5 L78,1.5 L78,0.5 L76,0.5 L76,1.5 Z M80,1.5 L82,1.5 L82,0.5 L80,0.5 L80,1.5 Z M84,1.5 L86,1.5 L86,0.5 L84,0.5 L84,1.5 Z M88,1.5 L90,1.5 L90,0.5 L88,0.5 L88,1.5 Z M92,1.5 L94,1.5 L94,0.5 L92,0.5 L92,1.5 Z M96,1.5 L98,1.5 L98,0.5 L96,0.5 L96,1.5 Z M100,1.5 L102,1.5 L102,0.5 L100,0.5 L100,1.5 Z M104,1.5 L106,1.5 L106,0.5 L104,0.5 L104,1.5 Z M108,1.5 L110,1.5 L110,0.5 L108,0.5 L108,1.5 Z M112,1.5 L114,1.5 L114,0.5 L112,0.5 L112,1.5 Z M116,1.5 L118,1.5 L118,0.5 L116,0.5 L116,1.5 Z M120,1.5 L122,1.5 L122,0.5 L120,0.5 L120,1.5 Z M124,1.5 L126,1.5 L126,0.5 L124,0.5 L124,1.5 Z M128,1.5 L130,1.5 L130,0.5 L128,0.5 L128,1.5 Z M132,1.5 L134,1.5 L134,0.5 L132,0.5 L132,1.5 Z M136,1.5 L138,1.5 L138,0.5 L136,0.5 L136,1.5 Z" id="Path-9" fill="#EAECEC"/><path d="M0.5,36.5 L2.5,36.5 L2.5,35.5 L0.5,35.5 L0.5,36.5 Z M4.5,36.5 L6.5,36.5 L6.5,35.5 L4.5,35.5 L4.5,36.5 Z M8.5,36.5 L10.5,36.5 L10.5,35.5 L8.5,35.5 L8.5,36.5 Z M12.5,36.5 L14.5,36.5 L14.5,35.5 L12.5,35.5 L12.5,36.5 Z M16.5,36.5 L18.5,36.5 L18.5,35.5 L16.5,35.5 L16.5,36.5 Z M20.5,36.5 L22.5,36.5 L22.5,35.5 L20.5,35.5 L20.5,36.5 Z M24.5,36.5 L26.5,36.5 L26.5,35.5 L24.5,35.5 L24.5,36.5 Z M28.5,36.5 L30.5,36.5 L30.5,35.5 L28.5,35.5 L28.5,36.5 Z M32.5,36.5 L34.5,36.5 L34.5,35.5 L32.5,35.5 L32.5,36.5 Z M36.5,36.5 L38.5,36.5 L38.5,35.5 L36.5,35.5 L36.5,36.5 Z M40.5,36.5 L42.5,36.5 L42.5,35.5 L40.5,35.5 L40.5,36.5 Z M44.5,36.5 L46.5,36.5 L46.5,35.5 L44.5,35.5 L44.5,36.5 Z M48.5,36.5 L50.5,36.5 L50.5,35.5 L48.5,35.5 L48.5,36.5 Z M52.5,36.5 L54.5,36.5 L54.5,35.5 L52.5,35.5 L52.5,36.5 Z M56.5,36.5 L58.5,36.5 L58.5,35.5 L56.5,35.5 L56.5,36.5 Z M60.5,36.5 L62.5,36.5 L62.5,35.5 L60.5,35.5 L60.5,36.5 Z M64.5,36.5 L66.5,36.5 L66.5,35.5 L64.5,35.5 L64.5,36.5 Z M68.5,36.5 L70.5,36.5 L70.5,35.5 L68.5,35.5 L68.5,36.5 Z M72.5,36.5 L74.5,36.5 L74.5,35.5 L72.5,35.5 L72.5,36.5 Z M76.5,36.5 L78.5,36.5 L78.5,35.5 L76.5,35.5 L76.5,36.5 Z M80.5,36.5 L82.5,36.5 L82.5,35.5 L80.5,35.5 L80.5,36.5 Z M84.5,36.5 L86.5,36.5 L86.5,35.5 L84.5,35.5 L84.5,36.5 Z M88.5,36.5 L90.5,36.5 L90.5,35.5 L88.5,35.5 L88.5,36.5 Z M92.5,36.5 L94.5,36.5 L94.5,35.5 L92.5,35.5 L92.5,36.5 Z M96.5,36.5 L98.5,36.5 L98.5,35.5 L96.5,35.5 L96.5,36.5 Z M100.5,36.5 L102.5,36.5 L102.5,35.5 L100.5,35.5 L100.5,36.5 Z M104.5,36.5 L106.5,36.5 L106.5,35.5 L104.5,35.5 L104.5,36.5 Z M108.5,36.5 L110.5,36.5 L110.5,35.5 L108.5,35.5 L108.5,36.5 Z M112.5,36.5 L114.5,36.5 L114.5,35.5 L112.5,35.5 L112.5,36.5 Z M116.5,36.5 L118.5,36.5 L118.5,35.5 L116.5,35.5 L116.5,36.5 Z M120.5,36.5 L122.5,36.5 L122.5,35.5 L120.5,35.5 L120.5,36.5 Z M124.5,36.5 L126.5,36.5 L126.5,35.5 L124.5,35.5 L124.5,36.5 Z M128.5,36.5 L130.5,36.5 L130.5,35.5 L128.5,35.5 L128.5,36.5 Z M132.5,36.5 L134.5,36.5 L134.5,35.5 L132.5,35.5 L132.5,36.5 Z M136.5,36.5 L138.5,36.5 L138.5,35.5 L136.5,35.5 L136.5,36.5 Z M140.5,36.5 L142.5,36.5 L142.5,35.5 L140.5,35.5 L140.5,36.5 Z M144.5,36.5 L146.5,36.5 L146.5,35.5 L144.5,35.5 L144.5,36.5 Z M148.5,36.5 L150.5,36.5 L150.5,35.5 L148.5,35.5 L148.5,36.5 Z M152.5,36.5 L154.5,36.5 L154.5,35.5 L152.5,35.5 L152.5,36.5 Z M156.5,36.5 L158.5,36.5 L158.5,35.5 L156.5,35.5 L156.5,36.5 Z M160.5,36.5 L162.5,36.5 L162.5,35.5 L160.5,35.5 L160.5,36.5 Z M164.5,36.5 L166.5,36.5 L166.5,35.5 L164.5,35.5 L164.5,36.5 Z" id="Path-9-Copy" fill="url(#linearGradient-2)"/><path d="M28,71.5 L30,71.5 L30,70.5 L28,70.5 L28,71.5 Z M32,71.5 L34,71.5 L34,70.5 L32,70.5 L32,71.5 Z M36,71.5 L38,71.5 L38,70.5 L36,70.5 L36,71.5 Z M40,71.5 L42,71.5 L42,70.5 L40,70.5 L40,71.5 Z M44,71.5 L46,71.5 L46,70.5 L44,70.5 L44,71.5 Z M48,71.5 L50,71.5 L50,70.5 L48,70.5 L48,71.5 Z M52,71.5 L54,71.5 L54,70.5 L52,70.5 L52,71.5 Z M56,71.5 L58,71.5 L58,70.5 L56,70.5 L56,71.5 Z M60,71.5 L62,71.5 L62,70.5 L60,70.5 L60,71.5 Z M64,71.5 L66,71.5 L66,70.5 L64,70.5 L64,71.5 Z M68,71.5 L70,71.5 L70,70.5 L68,70.5 L68,71.5 Z M72,71.5 L74,71.5 L74,70.5 L72,70.5 L72,71.5 Z M76,71.5 L78,71.5 L78,70.5 L76,70.5 L76,71.5 Z M80,71.5 L82,71.5 L82,70.5 L80,70.5 L80,71.5 Z M84,71.5 L86,71.5 L86,70.5 L84,70.5 L84,71.5 Z M88,71.5 L90,71.5 L90,70.5 L88,70.5 L88,71.5 Z M92,71.5 L94,71.5 L94,70.5 L92,70.5 L92,71.5 Z M96,71.5 L98,71.5 L98,70.5 L96,70.5 L96,71.5 Z M100,71.5 L102,71.5 L102,70.5 L100,70.5 L100,71.5 Z M104,71.5 L106,71.5 L106,70.5 L104,70.5 L104,71.5 Z M108,71.5 L110,71.5 L110,70.5 L108,70.5 L108,71.5 Z M112,71.5 L114,71.5 L114,70.5 L112,70.5 L112,71.5 Z M116,71.5 L118,71.5 L118,70.5 L116,70.5 L116,71.5 Z M120,71.5 L122,71.5 L122,70.5 L120,70.5 L120,71.5 Z M124,71.5 L126,71.5 L126,70.5 L124,70.5 L124,71.5 Z M128,71.5 L130,71.5 L130,70.5 L128,70.5 L128,71.5 Z M132,71.5 L134,71.5 L134,70.5 L132,70.5 L132,71.5 Z M136,71.5 L138,71.5 L138,70.5 L136,70.5 L136,71.5 Z" id="Path-9-Copy-2" fill="#EAECEC"/></g><g id="left" transform="translate(137.000000, 35.000000)"><ellipse id="Oval-4" fill="#EAEBEB" cx="8" cy="8" rx="8" ry="8"/><ellipse id="Oval-4-Copy-3" fill="url(#linearGradient-3)" cx="35" cy="43.2" rx="8" ry="8"/><circle id="Oval-4-Copy-5" fill="#EAEBEB" cx="8" cy="78" r="8"/></g><g id="right" transform="translate(21.500000, 78.000000) scale(-1, 1) translate(-21.500000, -78.000000) translate(0.000000, 35.000000)" fill="#EAEBEB"><ellipse id="Oval-4-Copy" cx="8" cy="8" rx="8" ry="8"/><ellipse id="Oval-4-Copy-10" cx="35" cy="43.2" rx="8" ry="8"/><circle id="Oval-4-Copy-9" cx="8" cy="78" r="8"/></g><g id="Group-8" transform="translate(55.000000, 0.000000)"><path d="M8.5,8.5 L10.5,8.5 L10.5,7.5 L8.5,7.5 L8.5,8.5 Z M12.5,8.5 L14.5,8.5 L14.5,7.5 L12.5,7.5 L12.5,8.5 Z M16.5,8.5 L18.5,8.5 L18.5,7.5 L16.5,7.5 L16.5,8.5 Z M20.5,8.5 L22.5,8.5 L22.5,7.5 L20.5,7.5 L20.5,8.5 Z M24.5,8.5 L26.5,8.5 L26.5,7.5 L24.5,7.5 L24.5,8.5 Z M28.5,8.5 L30.5,8.5 L30.5,7.5 L28.5,7.5 L28.5,8.5 Z M32.5,8.5 L34.5,8.5 L34.5,7.5 L32.5,7.5 L32.5,8.5 Z M36.5,8.5 L38.5,8.5 L38.5,7.5 L36.5,7.5 L36.5,8.5 Z M40.5,8.5 L42.5,8.5 L42.5,7.5 L40.5,7.5 L40.5,8.5 Z M44.5,8.5 L46.5,8.5 L46.5,7.5 L44.5,7.5 L44.5,8.5 Z M48.5,8.5 L50.5,8.5 L50.5,7.5 L48.5,7.5 L48.5,8.5 Z M52.5,8.5 L54.5,8.5 L54.5,7.5 L52.5,7.5 L52.5,8.5 Z M56.5,8.5 L58.5,8.5 L58.5,7.5 L56.5,7.5 L56.5,8.5 Z M60.5,8.5 L62.5,8.5 L62.5,7.5 L60.5,7.5 L60.5,8.5 Z" id="Path-9-Copy-3" fill="url(#linearGradient-1)" fill-rule="nonzero"/><ellipse id="Oval-4-Copy-4" fill="#EAEBEB" cx="62" cy="8" rx="8" ry="8"/><ellipse id="Oval-4-Copy-8" fill="url(#linearGradient-3)" cx="8" cy="8" rx="8" ry="8"/></g></g><polygon id="Path-3" fill="#BCBCBC" fill-rule="nonzero" opacity=".4" points="65.0389438 8.50151893 1.03894383 3.50151893 0.961056166 4.49848107 64.9610562 9.49848107"/><polygon id="Path-4" fill="#BCBCBC" fill-rule="nonzero" opacity=".4" points="252.242821 30.4370786 297.242821 5.43707864 296.757179 4.56292136 251.757179 29.5629214"/><polygon id="Path-5" fill="#BCBCBC" fill-rule="nonzero" opacity=".4" points="228.132741 213.482058 297.132741 194.482058 296.867259 193.517942 227.867259 212.517942"/><polygon id="Path-6" fill="#BCBCBC" fill-rule="nonzero" opacity=".4" points="249.373705 442.332182 297.373705 388.332182 296.626295 387.667818 248.626295 441.667818"/><polygon id="Path-7" fill="#BCBCBC" fill-rule="nonzero" opacity=".4" points="89.0227038 391.500516 1.02270383 387.500516 0.97729617 388.499484 88.9772962 392.499484"/><polygon id="Path-8" fill="#BCBCBC" fill-rule="nonzero" opacity=".4" points="44.3156357 232.612219 1.3156357 197.612219 0.684364301 198.387781 43.6843643 233.387781"/></g></g></g></g></svg>