<svg id="bloomreach-logo" xmlns="http://www.w3.org/2000/svg" viewBox="0 0 236 45" width="236" height="45"><style>.p{fill:#18bdde}</style><path class="p" d="M31.6 32.7c0-3.1-1.2-5.9-3.1-8l-4.2 4.2c.9 1 1.4 2.4 1.4 3.9 0 3.2-2.6 5.9-5.9 5.9-3.2 0-5.9-2.6-5.9-5.9V43c.7.4 1.4.7 2.2 1 .7.2 1.5.4 2.2.5.5.1.9.1 1.4.1 6.7-.1 11.9-5.4 11.9-11.9zM14 22.6V9.3H8.2v23.5c0-4.4 2.3-8.2 5.8-10.2zm132.9-6.8h4.5V19h.1c.9-2.2 3.2-3.7 5.5-3.7.3 0 .7.1 1 .2v4.4c-.4-.1-1.1-.2-1.7-.2-3.5 0-4.6 2.5-4.6 5.5V33H147V15.8h-.1zm16.7 9.7c.1 3 1.6 4.3 4.2 4.3 1.9 0 3.4-1.2 3.7-2.2h4.1c-1.3 4-4.1 5.8-8 5.8-5.4 0-8.8-3.7-8.8-9 0-5.1 3.6-9.1 8.8-9.1 5.8 0 8.7 4.9 8.3 10.2h-12.3zm7.6-2.9c-.4-2.4-1.5-3.7-3.8-3.7-3 0-3.8 2.3-3.9 3.7h7.7zm7-1.5c.3-4.4 4.2-5.7 8.1-5.7 3.4 0 7.5.8 7.5 4.9v8.9c0 1.6.2 3.1.6 3.8h-4.8c-.2-.5-.3-1.1-.3-1.7-1.5 1.6-3.7 2.1-5.8 2.1-3.3 0-5.8-1.6-5.8-5.1 0-3.9 2.9-4.8 5.8-5.2 2.9-.4 5.6-.3 5.6-2.3s-1.4-2.3-3.1-2.3c-1.8 0-3 .7-3.1 2.6h-4.7zm10.9 3.5c-.8.7-2.5.7-3.9 1-1.5.3-2.8.8-2.8 2.5 0 1.8 1.4 2.2 2.9 2.2 3.7 0 3.8-2.9 3.8-3.9v-1.8zm19.1-2.7c-.3-1.9-1.5-3-3.5-3-3 0-4 3.1-4 5.6s1 5.4 3.9 5.4c2.2 0 3.5-1.4 3.8-3.5h4.5c-.6 4.5-3.7 7-8.3 7-5.2 0-8.7-3.7-8.7-8.8 0-5.3 3.2-9.3 8.8-9.3 4 0 7.8 2.1 8.1 6.5l-4.6.1zm6.7-12.6h4.7v8.9h.1c1.2-1.9 3.3-2.9 5-2.9 5 0 6.3 2.8 6.3 7.1V33h-4.7v-9.7c0-2.8-.8-4.2-3-4.2-2.6 0-3.7 1.4-3.7 4.9v9h-4.7V9.3zm18.7 22h-.6v1.6h-.3v-1.6h-.6v-.2h1.5v.2zm2.4 1.6h-.3v-1.5l-.6 1.5h-.2l-.6-1.5v1.5h-.3v-1.8h.5l.5 1.4.5-1.4h.5v1.8z"/><path d="M22.2.3C9.9.3 0 10.2 0 22.5c0 6.9 3.2 13.1 8.2 17.2V9.3H14v13.3c1.5-.9 3.7-1.6 5.9-1.6.2 0 2.7 0 4.9 1.1 2.3 1.1 3.6 2.6 3.6 2.6 1.9 2.1 3.2 4.8 3.2 7.9-.1 6.1-4 9.6-7.5 11-2.9 1.2-5.5.8-5.6.8 1.2.2 2.6.1 3.8.1 12.3 0 22.2-9.9 22.2-22.2-.1-12.1-10-22-22.3-22zm28 9h4.7v8.6h.1c1.2-1.8 3.3-2.6 5.4-2.6 3.4 0 7.1 2.8 7.1 9 0 6.3-3.7 9.1-7.1 9.1-2.5 0-4.6-.8-5.6-2.7h-.1V33h-4.5V9.3zm8.6 9.6c-2.8 0-4 2.6-4 5.5s1.2 5.5 4 5.5 4-2.6 4-5.5-1.2-5.5-4-5.5zm11.1-9.6h4.7V33h-4.7V9.3zM86 15.4c5.4 0 8.9 3.6 8.9 9.1 0 5.4-3.5 9-8.9 9s-8.9-3.6-8.9-9c0-5.6 3.5-9.1 8.9-9.1zm0 14.5c3.2 0 4.2-2.8 4.2-5.5 0-2.8-1-5.5-4.2-5.5s-4.1 2.8-4.1 5.5c-.1 2.7.9 5.5 4.1 5.5zm19.9-14.5c5.4 0 8.9 3.6 8.9 9.1 0 5.4-3.5 9-8.9 9s-8.9-3.6-8.9-9c0-5.6 3.5-9.1 8.9-9.1zm0 14.5c3.2 0 4.2-2.8 4.2-5.5 0-2.8-1-5.5-4.2-5.5s-4.1 2.8-4.1 5.5c-.1 2.7.9 5.5 4.1 5.5zm11.3-14.1h4.4v2.3h.1c1.2-1.8 3-2.8 5.2-2.8s4.1.8 5 2.9c1-1.5 2.8-2.9 5.2-2.9 3.7 0 6.3 1.7 6.3 6.1V33h-4.7v-9.7c0-2.3-.2-4.2-2.9-4.2s-3.2 2.2-3.2 4.3V33H128v-9.6c0-2 .1-4.3-2.9-4.3-.9 0-3.2.6-3.2 3.9v10h-4.7V15.8z"/><circle cx="19.9" cy="32.8" r="5.9"/></svg>