<svg width="139" height="50" viewBox="0 0 139 50" version="1.1" xmlns="http://www.w3.org/2000/svg" xmlns:xlink="http://www.w3.org/1999/xlink"><title>netlify-logo</title><desc>Created with Sketch.</desc><defs><linearGradient x1="67.028%" y1="83.471%" x2="67.028%" y2=".979%" id="linearGradient-1"><stop stop-color="#F0F0F0" offset="0%"/><stop stop-color="#FFF" offset="100%"/></linearGradient></defs><g id="landing" stroke="none" stroke-width="1" fill="none" fill-rule="evenodd"><g id="cms-landing-v6" transform="translate(-696.000000, -2195.000000)"><g id="netlify-logo" transform="translate(696.000000, 2195.000000)"><g id="logo-v1-01"><g id="Layer_1"><g id="Page-1_1_"><g id="logo"><g id="Page-1"><g id="logo-text-dark_jm-copy"><path d="M35.2690917,17.6829268 C35.2478196,17.6829268 35.2265475,17.6408747 35.2052755,17.6198486 L36.2050628,11.5012616 C36.2050628,11.4592094 36.2263348,11.4381833 36.2476069,11.4381833 L36.268879,11.4381833 C36.268879,11.4381833 36.290151,11.4381833 36.3114231,11.4592094 L40.8849181,15.979815 C40.9061902,16.000841 40.9061902,16.0218671 40.9061902,16.0428932 C40.9061902,16.0639193 40.8849181,16.0849453 40.863646,16.1059714 L35.97107,18.1875526 L35.9497979,18.1875526 C35.9285258,18.1875526 35.9285258,18.1875526 35.9072538,18.1665265 C35.7370772,17.9772918 35.5243565,17.8090833 35.2690917,17.6829268 Z M25.1223144,13.5828427 C25.1010423,13.5618167 25.1010423,13.5197645 25.1223144,13.4777124 L30.2488832,5.52985702 C30.2488832,5.50883095 30.2701553,5.48780488 30.2914274,5.48780488 C30.3126994,5.48780488 30.3126994,5.48780488 30.3339715,5.50883095 L34.8861944,10.0294365 C34.9074665,10.0504626 34.9074665,10.0714886 34.9074665,10.0925147 L33.7162306,17.4726661 C33.7162306,17.5147183 33.6949585,17.5357443 33.6736864,17.5357443 C33.3971495,17.6198486 33.1418847,17.746005 32.929164,17.9142136 C32.929164,17.9352397 32.9078919,17.9352397 32.8866199,17.9352397 L32.8653478,17.9352397 L25.5902999,14.8444071 C25.5690279,14.823381 25.5477558,14.8023549 25.5477558,14.7813288 C25.5052117,14.3608074 25.3563072,13.940286 25.1223144,13.5828427 Z M49.9680919,24.9579479 C50.010636,24.9789739 50.010636,25.0420521 49.9680919,25.0420521 L49.9255478,25.0841043 C49.9255478,25.1051304 49.9042757,25.1051304 49.8830036,25.1051304 L49.8617315,25.1051304 L36.8006807,19.5752733 C36.7794086,19.5752733 36.7581366,19.5332212 36.7581366,19.5121951 C36.7581366,19.491169 36.7794086,19.470143 36.8006807,19.4491169 L42.0974261,17.1993272 L42.1186981,17.1993272 C42.1186981,17.1993272 42.1399702,17.1993272 42.1612423,17.2203532 L49.9680919,24.9579479 Z M48.6704956,26.2195122 C48.6917677,26.2405383 48.6917677,26.2615643 48.6917677,26.2825904 C48.6917677,26.3036165 48.6917677,26.3246426 48.6704956,26.3456686 L41.7358009,33.2211943 C41.7358009,33.2422204 41.7145288,33.2422204 41.6932568,33.2422204 L41.6719847,33.2422204 L34.0991278,31.6652649 C34.0565837,31.6652649 34.0353116,31.6442389 34.0353116,31.6021867 C33.9714954,31.0134567 33.6949585,30.4878049 33.226973,30.1303616 C33.2057009,30.1093356 33.2057009,30.0883095 33.2057009,30.0672834 L34.5458413,21.8460892 C34.5458413,21.804037 34.5883854,21.7830109 34.6096575,21.7830109 C35.2052755,21.6989066 35.7158051,21.4045416 36.0561583,20.941968 C36.0774303,20.920942 36.0987024,20.920942 36.1199745,20.920942 L36.1412465,20.920942 L48.6704956,26.2195122 Z M32.0782812,19.196804 C32.0995533,19.2178301 32.1208254,19.2388562 32.1208254,19.2809083 C32.0995533,19.3860387 32.0782812,19.5121951 32.0782812,19.6383516 L32.0782812,19.7434819 L32.0782812,19.8275862 C32.0782812,19.8486123 32.0570091,19.8696384 32.0357371,19.8906644 L16.9963837,26.3036165 L16.9751117,26.3036165 C16.9538396,26.3036165 16.9325675,26.3036165 16.9112955,26.2825904 C16.8900234,26.2615643 16.8900234,26.2195122 16.9112955,26.1984861 L22.548394,17.4726661 C22.569666,17.45164 22.5909381,17.430614 22.6122102,17.430614 L22.6334822,17.430614 C22.7823867,17.45164 22.9100191,17.4726661 23.0376516,17.4726661 C23.8885344,17.4726661 24.6756009,17.0521447 25.1435865,16.3372582 C25.1648585,16.3162321 25.1861306,16.2952061 25.2074027,16.2952061 L25.2286748,16.2952061 L32.0782812,19.196804 Z M40.3318443,34.4617325 C40.3531164,34.4617325 40.3743884,34.4827586 40.3743884,34.5458368 C40.3743884,34.5668629 40.3743884,34.587889 40.3531164,34.6089151 L31.1210381,43.7552565 C31.1210381,43.7762826 31.099766,43.7762826 31.0784939,43.7762826 L31.0359498,43.7762826 C31.0146777,43.7552565 30.9934057,43.7342304 30.9934057,43.6921783 L32.5888109,33.8940286 C32.5888109,33.8730025 32.610083,33.8309504 32.631355,33.8309504 C33.0142523,33.6837679 33.3333333,33.431455 33.5885982,33.1160639 C33.6098702,33.1160639 33.6311423,33.0950378 33.6524144,33.0950378 L33.6736864,33.0950378 L40.3318443,34.4617325 Z M31.0359498,33.7888982 C31.0784939,33.8099243 31.0784939,33.8519765 31.0359498,33.8519765 L29.1214635,45.626577 C29.1214635,45.647603 29.1001914,45.647603 29.1001914,45.6686291 L28.4194852,46.3414634 C28.4194852,46.3624895 28.3982131,46.3624895 28.3769411,46.3624895 C28.355669,46.3624895 28.355669,46.3624895 28.3343969,46.3414634 L17.1027441,30.1093356 C17.081472,30.0883095 17.081472,30.0462574 17.1027441,30.0252313 C17.1665603,29.941127 17.2091044,29.8570227 17.2729207,29.7518923 C17.2941927,29.7308663 17.3154648,29.7098402 17.3367369,29.7098402 C17.3580089,29.7098402 17.3580089,29.7098402 17.3580089,29.7098402 L29.6958094,32.253995 C29.7383535,32.275021 29.7596256,32.2960471 29.7596256,32.3170732 C29.9298022,32.9688814 30.3977877,33.5365854 31.0359498,33.7888982 Z M17.6132738,28.2169891 C17.6132738,28.0487805 17.5707296,27.901598 17.5494576,27.7333894 C17.5494576,27.6913373 17.5494576,27.6703112 17.5920017,27.6492851 L32.7164433,21.1942809 L32.7377154,21.1942809 C32.7377154,21.1942809 32.7589874,21.1942809 32.7802595,21.215307 C32.8866199,21.3204373 32.9717081,21.3835156 33.0567964,21.4465938 C33.0993406,21.4465938 33.0993406,21.4886459 33.0993406,21.509672 L31.7804722,29.6047098 C31.7804722,29.646762 31.7592002,29.6677881 31.716656,29.6677881 C30.9934057,29.7098402 30.3552436,30.1303616 29.9936184,30.7611438 C29.9723463,30.7821699 29.9510742,30.803196 29.9298022,30.803196 L29.9085301,30.803196 L17.67709,28.2800673 C17.6345458,28.2800673 17.6132738,28.2590412 17.6132738,28.2169891 Z M12.486705,30.2565181 C12.507977,30.2775442 12.507977,30.2985702 12.507977,30.2985702 L9.59370347,34.8191758 C9.5724314,34.8402019 9.55115933,34.8612279 9.52988726,34.8612279 C9.52988726,34.8612279 9.50861519,34.8612279 9.48734312,34.8402019 L6.91342268,32.2960471 C6.89215061,32.275021 6.89215061,32.253995 6.89215061,32.2329689 C6.89215061,32.2119428 6.91342268,32.1909167 6.93469475,32.1909167 L12.210168,29.941127 L12.2314401,29.941127 C12.2527122,29.941127 12.2739843,29.9621531 12.2952563,29.9831791 C12.3590725,30.0883095 12.4228887,30.1724138 12.486705,30.2565181 Z M15.9753244,31.0765349 L27.2495214,47.4348192 C27.2707934,47.4558452 27.2707934,47.4978974 27.2495214,47.5189235 L24.7819613,49.9789739 C24.7819613,50 24.7606892,50 24.7394171,50 C24.7394171,50 24.7181451,50 24.696873,49.9789739 L10.6147628,36.038688 C10.5934907,36.0176619 10.5934907,35.9756098 10.6147628,35.9545837 L10.6360349,35.9335576 L13.6992129,31.1816653 C13.720485,31.1606392 13.7417571,31.1396131 13.7630291,31.1396131 L13.7843012,31.1396131 C14.1033823,31.2447435 14.4011912,31.2867956 14.7202723,31.2867956 C15.1244416,31.2867956 15.5073389,31.2026913 15.8902361,31.0344828 L15.9115082,31.0344828 C15.9327803,31.0344828 15.9540523,31.0555088 15.9753244,31.0765349 Z M13.9970219,25.58873 L7.95575409,16.7788057 C7.93448203,16.7577796 7.93448203,16.7157275 7.95575409,16.6947014 L13.3801319,11.3120269 C13.3801319,11.2910008 13.401404,11.2910008 13.422676,11.2910008 L13.4439481,11.2910008 C13.4439481,11.3120269 19.8468411,14.0033642 20.5700915,14.3187553 C20.5913635,14.3397813 20.6126356,14.3608074 20.6126356,14.4028595 C20.5700915,14.5920942 20.5488194,14.7813288 20.5488194,14.9705635 C20.5488194,15.6223717 20.8040842,16.2321278 21.2507977,16.6947014 C21.2720698,16.7157275 21.2720698,16.7577796 21.2507977,16.7788057 L15.549883,25.6097561 C15.5286109,25.6307822 15.5073389,25.6518082 15.4860668,25.6518082 L15.4647947,25.6518082 C15.230802,25.58873 14.9755371,25.5466779 14.7415444,25.5466779 C14.5288237,25.5466779 14.2948309,25.58873 14.0821102,25.6307822 L14.0608381,25.6307822 C14.039566,25.6307822 14.018294,25.6097561 13.9970219,25.58873 Z M14.6139119,10.1976451 C14.5926399,10.176619 14.5713678,10.176619 14.5926399,10.1345669 C14.5926399,10.1135408 14.5926399,10.0925147 14.6139119,10.0714886 L24.7394171,0.0210260723 C24.7394171,0 24.7606892,0 24.7819613,0 C24.8032334,0 24.8032334,0 24.8245054,0.0210260723 L29.1852797,4.3313709 C29.2065518,4.35239697 29.2065518,4.39444912 29.1852797,4.41547519 L23.9310785,12.5525652 C23.9098064,12.5735913 23.8885344,12.5946173 23.8672623,12.5946173 L23.8459902,12.5946173 C23.5694533,12.510513 23.2929164,12.4684609 23.0163795,12.4684609 C22.4420336,12.4684609 21.8676877,12.6787216 21.4209743,13.0361648 C21.3997022,13.0571909 21.3997022,13.0571909 21.3784301,13.0571909 L21.3571581,13.0571909 C21.0806211,12.9310345 14.6139119,10.1976451 14.6139119,10.1976451 Z M12.1038077,27.1236333 C12.0825356,27.1236333 12.0825356,27.1236333 12.1038077,27.1236333 L0.0638162093,24.6005046 C0.0212720698,24.6005046 0,24.5794786 0,24.5584525 C0,24.5374264 0,24.5164003 0.0212720698,24.4953743 L6.74324612,17.8511354 C6.74324612,17.8301093 6.76451819,17.8301093 6.78579026,17.8301093 C6.8283344,17.8511354 6.8283344,17.8511354 6.84960647,17.8721615 C6.84960647,17.8931876 12.6143374,26.2195122 12.6781536,26.3036165 C12.6994257,26.3246426 12.6994257,26.3666947 12.6781536,26.3877208 C12.486705,26.5979815 12.2952563,26.8292683 12.1676239,27.0815812 C12.1463518,27.1026072 12.1250798,27.1236333 12.1038077,27.1236333 Z M11.5507339,28.5744323 C11.5507339,28.5954584 11.5294618,28.6164844 11.4869177,28.6585366 L5.7009147,31.118587 L5.67964263,31.118587 C5.67964263,31.118587 5.65837056,31.118587 5.63709849,31.097561 L0.97851521,26.4718251 C0.95724314,26.450799 0.93597107,26.4087468 0.95724314,26.3877208 C0.97851521,26.3666947 0.999787279,26.3456686 1.02105935,26.3456686 C1.04233142,26.3456686 1.04233142,26.3456686 1.04233142,26.3456686 L11.4869177,28.5113541 C11.5294618,28.5113541 11.5507339,28.5323802 11.5507339,28.5744323 Z" id="Combined-Shape-Copy-3" fill="#FFF"/><path d="M100.899489,12.5840336 L104.269827,12.5840336 L104.269827,34.4747899 L100.899489,34.4747899 L100.899489,12.5840336 Z M66.4167199,18.7605042 C69.555347,18.7605042 71.1351929,20.6092437 71.1773221,24.2647059 L71.1773221,34.4537815 L67.8069843,34.4537815 L67.8069843,24.4747899 C67.8069843,23.5084034 67.6174028,22.7731092 67.1961105,22.3109244 C66.7748183,21.8277311 66.1007507,21.5966387 65.1739078,21.5966387 C63.8257727,21.5966387 62.8146714,22.2268908 62.1406038,23.487395 L62.1406038,34.4537815 L58.770266,34.4537815 L58.770266,19.0336134 L61.9299577,19.0336134 L62.0352807,20.8193277 C63.1517051,19.4537815 64.6051633,18.7605042 66.4167199,18.7605042 Z M80.9723664,18.7605042 C83.0156337,18.7605042 84.5954796,19.4327731 85.7540332,20.7773109 C86.849393,22.1218487 87.4181375,24.012605 87.4181375,26.4705882 L87.4181375,27.8571429 L77.6020286,27.8571429 C77.7073516,29.1386555 78.1075793,30.1470588 78.8448407,30.8823529 C79.5610375,31.6176471 80.4878804,31.9957983 81.5832402,31.9957983 C83.1209568,31.9957983 84.3848335,31.3445378 85.3538056,30.0630252 L87.1653622,31.8487395 C86.5755531,32.7731092 85.7750978,33.487395 84.7639965,33.9915966 C83.7528951,34.4957983 82.6154061,34.7478992 81.372594,34.7478992 C79.2240037,34.7478992 77.4967055,34.0546218 76.169635,32.6680672 C74.8425645,31.2815126 74.1684969,29.4327731 74.1684969,27.1428571 L74.1684969,26.7226891 C74.1684969,25.1890756 74.4634015,23.8235294 75.032146,22.605042 C75.6219551,21.3865546 76.4224104,20.4411765 77.4756409,19.7689076 C78.5288715,19.0966387 79.6874251,18.7605042 80.9723664,18.7605042 Z M84.0477997,25.3151261 L84.0688643,25.3151261 L84.0688643,25.0630252 C83.9846059,23.907563 83.6897013,23.0252101 83.163086,22.4369748 C82.6364707,21.8487395 81.8992093,21.5546218 80.9723664,21.5546218 C80.0455235,21.5546218 79.2871975,21.8697479 78.718453,22.5420168 C78.1497085,23.1932773 77.7705455,24.1176471 77.6230932,25.3151261 L84.0477997,25.3151261 Z M95.0013977,31.4915966 C95.2331084,31.7647059 95.633336,31.8907563 96.2442097,31.8697479 C96.6233727,31.8697479 97.0236004,31.8277311 97.423828,31.7226891 L97.423828,34.4117647 C96.6444373,34.6428571 95.9071759,34.7478992 95.1909792,34.7478992 C92.6000319,34.7478992 91.294026,33.2773109 91.294026,30.3361345 L91.294026,21.5966387 L88.8294665,21.5966387 L88.8294665,19.0336134 L91.294026,19.0336134 L91.294026,15.2941176 L94.6643639,15.2941176 L94.6643639,19.0336134 L97.3185049,19.0336134 L97.3185049,21.5966387 L94.6643639,21.5966387 L94.6643639,30.210084 C94.6643639,30.7983193 94.7696869,31.2394958 95.0013977,31.4915966 Z M109.49385,19.0546218 L112.864188,19.0546218 L112.864188,34.4747899 L109.49385,34.4747899 L109.49385,19.0546218 Z M131.990855,29.5168067 L135.066289,19.0546218 L138.668337,19.0546218 L132.685988,36.8067227 C131.759145,39.3907563 130.200363,40.6932773 128.009644,40.6932773 C127.525158,40.6932773 126.977478,40.6092437 126.387669,40.4411765 L126.387669,37.7521008 L127.019607,37.7941176 C127.862192,37.7941176 128.515194,37.6260504 128.936487,37.3109244 C129.378844,36.9957983 129.715877,36.4705882 129.968653,35.7142857 L130.453139,34.3907563 L125.165921,19.0546218 L128.810099,19.0546218 L131.990855,29.5168067 Z M119.478476,13.6764706 C120.405319,12.7521008 121.711325,12.2689076 123.354365,12.289916 C123.965238,12.289916 124.576112,12.3739496 125.25018,12.5420168 L125.165921,15.2521008 C124.807823,15.1890756 124.365466,15.1470588 123.88098,15.1470588 C122.259005,15.1470588 121.45855,15.987395 121.45855,17.6890756 L121.45855,19.0546218 L124.512918,19.0546218 L124.512918,21.6176471 L121.45855,21.6176471 L121.45855,34.4747899 L118.088212,34.4747899 L118.088212,21.6176471 L115.792169,21.6176471 L115.792169,19.0546218 L118.088212,19.0546218 L118.088212,17.6470588 C118.088212,15.9243697 118.551633,14.6008403 119.478476,13.6764706 Z M112.864188,12.2689076 L112.864188,15.2941176 L109.49385,15.2941176 L109.49385,12.2689076 L112.864188,12.2689076 Z" id="Combined-Shape-Copy-4" fill="url(#linearGradient-1)"/></g></g></g></g></g></g></g></g></g></svg>