<svg width="125" height="32" viewBox="0 0 125 32" version="1.1" xmlns="http://www.w3.org/2000/svg" xmlns:xlink="http://www.w3.org/1999/xlink"><title>smashing-logo</title><desc>Created with Sketch.</desc><g id="landing" stroke="none" stroke-width="1" fill="none" fill-rule="evenodd"><g id="cms-landing-v6" transform="translate(-250.000000, -518.000000)" fill="#FFF"><g id="hero-(green)"><g id="smashing-logo" transform="translate(250.000000, 518.000000)"><path d="M39.6979891,21.1804106 L42.1793478,27.6394834 L44.6504348,21.1804106 L45.6551087,21.1804106 L45.6551087,28.5470861 L44.9722826,28.5470861 L44.9722826,22.1811258 L44.9527174,22.1811258 L42.5007065,28.5470861 L41.8579891,28.5470861 L39.3961957,22.1811258 L39.3766304,22.1811258 L39.3766304,28.5470861 L38.6933152,28.5470861 L38.6933152,21.1804106 L39.6979891,21.1804106 L39.6979891,21.1804106 Z M52.0646739,21.1804106 L54.8771739,28.5470861 L54.1434783,28.5470861 L53.2698913,26.2565166 L50.0054348,26.2565166 L49.1416304,28.5500265 L48.4177174,28.5500265 L51.3016304,21.1843311 L52.0646739,21.1843311 L52.0646739,21.1804106 Z M53.0390217,25.6581457 L51.6528261,21.8816954 L50.21625,25.6581457 L53.0434239,25.6581457 L53.0390217,25.6581457 Z M63.2863043,28.5470861 L63.1958152,27.2057748 L63.17625,27.2057748 C63.0549457,27.4669801 62.9057609,27.6924106 62.7286957,27.8820662 C62.5511413,28.0707417 62.355,28.2251126 62.1407609,28.3461589 C61.9255435,28.4667152 61.6971196,28.553947 61.4525543,28.6093245 C61.2079891,28.6642119 60.9551087,28.6916556 60.6944022,28.6916556 C60.1319022,28.6916556 59.6378804,28.5867815 59.212337,28.3770331 C58.7867935,28.1672848 58.4346196,27.8869669 58.1528804,27.5360795 C57.8711413,27.1851921 57.6608152,26.7794172 57.5199457,26.318755 C57.3790761,25.8580927 57.3086413,25.3729272 57.3086413,24.8632583 C57.3086413,24.3550596 57.3820109,23.869404 57.5238587,23.4087417 C57.6657065,22.9480795 57.8760326,22.5403444 58.1597283,22.1860265 C58.4434239,21.8317086 58.7955978,21.5489404 59.2211413,21.3396821 C59.6466848,21.1304238 60.1407065,21.0250596 60.7032065,21.0250596 C61.079837,21.0250596 61.4320109,21.0765166 61.7695109,21.1799205 C62.1070109,21.2828344 62.4053804,21.4372053 62.6646196,21.6440132 C62.9238587,21.8498411 63.1488587,22.1046755 63.329837,22.4036159 C63.5108152,22.707457 63.6379891,23.0603046 63.7015761,23.4670596 L63.0167935,23.4670596 C62.9972283,23.2514305 62.92875,23.0358013 62.8113587,22.8201722 C62.6939674,22.5996424 62.5374457,22.4036159 62.3417935,22.2271921 C62.14125,22.0458675 61.9064674,21.8988477 61.6325543,21.7861325 C61.3586413,21.6734172 61.0504891,21.6146093 60.7080978,21.6146093 C60.2336413,21.6146093 59.8227717,21.7077219 59.4852717,21.893947 C59.1428804,22.0801722 58.8640761,22.3252053 58.6488587,22.6290464 C58.4336413,22.9328874 58.2722283,23.2808344 58.1646196,23.6630861 C58.0619022,24.0453377 58.0080978,24.4422914 58.0080978,24.8490464 C58.0080978,25.246 58.0619022,25.638053 58.1646196,26.030106 C58.267337,26.4172583 58.42875,26.7652053 58.6488587,27.0690464 C58.8689674,27.3728874 59.1477717,27.6179205 59.490163,27.8041457 C59.8325543,27.9903709 60.2385326,28.0785828 60.7178804,28.0785828 C61.1140761,28.0785828 61.46625,28.0099735 61.7792935,27.8776556 C62.092337,27.7404371 62.3515761,27.5542119 62.5667935,27.3140795 C62.7820109,27.073947 62.9434239,26.7848079 63.0510326,26.4564636 C63.1586413,26.1232185 63.2075543,25.7654702 63.202663,25.3734172 L60.7619022,25.3734172 L60.7619022,24.7853377 L63.8042935,24.7853377 L63.8042935,28.5294437 L63.3102717,28.5294437 L63.2863043,28.5470861 Z M70.0773913,21.1804106 L72.8898913,28.5470861 L72.1561957,28.5470861 L71.2826087,26.2560265 L68.017663,26.2560265 L67.1538587,28.5470861 L66.4299457,28.5470861 L69.3109239,21.1804106 L70.0739674,21.1804106 L70.0773913,21.1804106 Z M71.0517391,25.6581457 L69.6655435,21.8816954 L68.2289674,25.6581457 L71.05125,25.6581457 L71.0517391,25.6581457 Z M80.474837,21.1804106 L80.474837,21.7988742 L75.7532609,27.9492053 L80.576087,27.9492053 L80.576087,28.5470861 L74.9902174,28.5470861 L74.9902174,27.9281325 L79.7117935,21.7787815 L75.311087,21.7787815 L75.311087,21.1809007 L80.474837,21.1809007 L80.474837,21.1804106 Z M84.2827174,21.1804106 L84.2827174,28.5470861 L83.5998913,28.5470861 L83.5998913,21.1804106 L84.2827174,21.1804106 L84.2827174,21.1804106 Z M88.6516304,21.1804106 L92.83125,27.4120927 L92.8508152,27.4120927 L92.8508152,21.1789404 L93.5346196,21.1789404 L93.5346196,28.5456159 L92.7715761,28.5456159 L88.5919565,22.3134437 L88.5723913,22.3134437 L88.5723913,28.5456159 L87.8890761,28.5456159 L87.8890761,21.1799205 L88.6521196,21.1799205 L88.6516304,21.1804106 Z M102.044022,21.1804106 L102.044022,21.7782914 L97.773913,21.7782914 L97.773913,24.4408212 L101.773043,24.4408212 L101.773043,25.038702 L97.7744022,25.038702 L97.7744022,27.9496954 L102.097826,27.9496954 L102.097826,28.5475762 L97.0940217,28.5475762 L97.0940217,21.1804106 L102.045978,21.1804106 L102.044022,21.1804106 Z" id="Shape"/><path d="M18.8653409,20.6513974 C19.8503261,21.538393 20.2628999,22.6857607 19.9187914,24.0214718 C19.5802823,25.3307978 18.5560166,25.7648361 17.3697076,25.9618331 C14.8069647,26.3916294 12.4399462,25.8109039 10.2043439,24.5602018 C9.82375445,24.3458976 9.45309123,24.1124196 8.92708711,23.7991078 C8.09880032,25.7689932 7.31675098,27.6254484 6.48990645,29.589395 C7.89314968,30.2120312 9.19976086,30.7926718 10.590363,31.4095389 L10.590363,31.4444079 L8.48634657,31.9241746 C6.87346525,32.2909352 5.27161305,31.2834676 4.90366469,29.6733011 L0.0757953329,8.48449807 C-0.292153028,6.87433161 0.715144848,5.27103714 2.32539615,4.90453105 L7.37707177,3.75309108 C3.92572124,9.77846819 6.96008625,14.8344706 11.7040495,17.0587045 C13.4109328,17.8589943 15.1625265,18.5640943 16.8663556,19.3740558 C17.5768005,19.711462 18.2846154,20.128193 18.8653409,20.6513974 Z M31.9246656,23.5151504 C32.2913414,25.1253169 31.2841284,26.7286114 29.6720106,27.095372 L26.6475718,27.7835041 C26.6421421,27.7752747 26.6367123,27.7667059 26.6281436,27.7570342 C26.9584232,26.2894828 27.3276442,24.7981763 27.4284334,23.5416203 C27.7754264,19.1964021 25.7721143,16.183247 21.8828229,14.3870278 C20.3047257,13.6580879 18.6540061,13.0888157 17.056311,12.3948296 C16.2393078,12.0410494 15.4349457,11.6281362 14.6865776,11.1455698 C13.668081,10.4866224 13.2427812,9.53107658 13.5854474,8.3098138 C13.9142,7.14454502 15.0082885,6.37920903 16.1286773,6.21411161 C18.7407119,5.82809246 21.0069412,6.34569748 23.4018719,8.25950405 C24.0370643,6.41696255 25.534055,2.53199799 25.534055,2.53199799 C25.534055,2.53199799 24.7814449,2.23259984 24.4582069,2.10389851 C23.2398287,1.61700535 21.9693591,1.242185 20.5032499,0.765048365 C20.5032499,0.765048365 20.5032499,0.763606095 20.500535,0.762248665 L23.5141144,0.0753042624 C25.1257231,-0.291286668 26.7275753,0.716011207 27.0955237,2.32626251 L31.9246656,23.5151504 Z" id="Combined-Shape"/><path d="M111.058696,11.7961325 C111.058696,8.24609272 113.931359,5.36646358 117.472174,5.36646358 C119.9325,5.36646358 122.068043,6.75482119 123.146087,8.79202649 L120.788478,9.5594702 C120.069457,8.49357616 118.8525,7.79229139 117.472174,7.79229139 C115.266196,7.79229139 113.478913,9.58348344 113.478913,11.7961325 C113.478913,14.0063311 115.266685,15.7989934 117.472663,15.7989934 C118.699402,15.7989934 119.796033,15.2466887 120.527772,14.3748609 L119.123967,14.6061722 L117.421793,12.8997616 L121.08538,12.2989404 L124.753859,11.6976291 L124.152228,15.3711656 L123.550598,19.0417616 L121.843533,17.3363311 L122.009837,16.3267947 C120.845707,17.4931523 119.236467,18.2184503 117.460924,18.2184503 C113.91962,18.2184503 111.043533,15.3368609 111.043533,11.7887815 L111.058696,11.7961325 Z M36.9123913,13.7103311 C36.9006522,14.4836556 37.0405435,15.1496556 37.3330435,15.7117616 C37.6250543,16.2743576 38.0178261,16.736 38.5084239,17.1001192 C39.01125,17.4627682 39.5830435,17.7249536 40.2252717,17.8891258 C40.8807065,18.0655497 41.5522826,18.1537616 42.2419565,18.1537616 C43.0945109,18.1537616 43.8423913,18.0547682 44.4846196,17.8562914 C45.1400543,17.6553642 45.6829891,17.3809272 46.1153804,17.0290596 C46.5585326,16.6664106 46.8916304,16.240053 47.1132065,15.7475364 C47.3352717,15.2564901 47.4458152,14.7218278 47.4477717,14.1499205 C47.4477717,13.4461854 47.2961413,12.8737881 46.9928804,12.4263576 C46.7042935,11.970596 46.3521196,11.607947 45.94125,11.3393907 C45.5352717,11.0688742 45.1195109,10.8757881 44.6988587,10.7581722 C44.2928804,10.6283046 43.9700543,10.5410728 43.7352717,10.4945166 L41.8227717,10.0029801 C41.3434239,9.87409272 40.9667935,9.74422517 40.6830978,9.61582781 C40.4140761,9.4869404 40.2330978,9.34629139 40.140163,9.19437086 C40.0472283,9.04392053 40.0032065,8.84299338 40.0032065,8.59649007 C40.0032065,8.32793377 40.0619022,8.10495364 40.1792935,7.92901987 C40.2966848,7.75455629 40.4434239,7.60802649 40.6195109,7.48992053 C40.8102717,7.37328477 41.0108152,7.28997351 41.2358152,7.24341722 C41.4559239,7.19686093 41.6809239,7.17284768 41.9010326,7.17284768 C42.2434239,7.17284768 42.5515761,7.20323179 42.8303804,7.2625298 C43.1238587,7.31986755 43.3830978,7.41935099 43.6032065,7.56049007 C43.8282065,7.70260927 44.0042935,7.8937351 44.1314674,8.14366887 C44.2733152,8.38870199 44.3564674,8.70234437 44.3809239,9.0747947 L47.0466848,9.0747947 C47.0466848,8.34949669 46.9097283,7.73691391 46.6260326,7.2321457 C46.3570109,6.71757616 45.990163,6.29611921 45.5205978,5.96777483 C45.0559239,5.63943046 44.5178804,5.40419868 43.9113587,5.26698013 C43.3195109,5.1150596 42.6934239,5.04154967 42.0379891,5.04154967 C41.4754891,5.04154967 40.9178804,5.11996026 40.3553804,5.27188079 C39.7928804,5.42380132 39.2939674,5.65903311 38.8488587,5.97757616 C38.40375,6.29611921 38.0417935,6.69307285 37.7629891,7.17333775 C37.4939674,7.64380132 37.3619022,8.19757616 37.3619022,8.84446358 C37.3619022,9.42274172 37.4646196,9.91280795 37.679837,10.3195629 C37.8999457,10.7214172 38.1885326,11.0546623 38.5407065,11.3241987 C38.8928804,11.5937351 39.2890761,11.8191656 39.7341848,11.9906887 C40.1783152,12.1573113 40.6341848,12.2945298 41.0988587,12.4121457 C41.55375,12.5444636 42.007663,12.6620795 42.4488587,12.7649934 C42.8939674,12.8728079 43.290163,12.9953245 43.642337,13.1374437 C43.9945109,13.2795629 44.2733152,13.4559868 44.4836413,13.6667152 C44.7071739,13.8774437 44.81625,14.1567815 44.81625,14.4949272 C44.81625,14.8134702 44.7360326,15.078106 44.5716848,15.2888344 C44.4088043,15.4897616 44.2038587,15.6465828 43.9592935,15.7641987 C43.7122826,15.8818146 43.4505978,15.9651258 43.1693478,16.0092318 C42.8880978,16.0435364 42.626413,16.0631391 42.3818478,16.0631391 C42.0198913,16.0631391 41.6677174,16.0190331 41.3302174,15.9406225 C40.9878261,15.8426093 40.6894565,15.7102914 40.4351087,15.5338675 C40.1856522,15.3476424 39.99,15.1075099 39.8383696,14.8134702 C39.6867391,14.5194305 39.6084783,14.1665828 39.6084783,13.7451258 L36.9427174,13.7451258 L36.9123913,13.7103311 Z M67.4757065,8.42055629 L69.0521739,13.0242384 L65.8092391,13.0242384 L67.4761957,8.42055629 L67.4757065,8.42055629 Z M61.3972826,17.7190728 L61.3972826,5.32921854 L57.5233696,5.32921854 L54.7182065,13.9558543 L51.7907609,5.33068874 L47.9168478,5.33068874 L47.9168478,17.8714834 L50.493587,17.8714834 L50.5288043,9.0747947 L53.5966304,17.8763841 L55.7184783,17.8763841 L58.8205435,8.99148344 L58.8205435,17.8763841 L64.1095109,17.8763841 L65.0916848,15.0879073 L69.772663,15.0879073 L70.7186413,17.8812848 L73.5766304,17.8812848 L68.8956522,5.34049007 L66.0733696,5.34049007 L61.3972826,17.7342649 L61.3972826,17.7190728 Z M72.712337,13.7103311 C72.701087,14.4836556 72.8414674,15.1496556 73.1329891,15.7117616 C73.4264674,16.2743576 73.8167935,16.736 74.3069022,17.1001192 C74.8107065,17.4627682 75.3829891,17.7249536 76.0261957,17.8891258 C76.6806522,18.0655497 77.3527174,18.1537616 78.041413,18.1537616 C78.8949457,18.1537616 79.6438043,18.0547682 80.2865217,17.8562914 C80.9409783,17.6553642 81.483913,17.3809272 81.9163043,17.0290596 C82.361413,16.6664106 82.6940217,16.240053 82.916087,15.7475364 C83.137663,15.2564901 83.2486957,14.7218278 83.2486957,14.1499205 C83.2486957,13.4461854 83.0970652,12.8737881 82.7938043,12.4263576 C82.5013043,11.970596 82.1505978,11.607947 81.7411957,11.3393907 C81.3322826,11.0688742 80.9170109,10.8757881 80.4963587,10.7581722 C80.0874457,10.6283046 79.7665761,10.5410728 79.5327717,10.4945166 L77.6217391,10.0029801 C77.1423913,9.87409272 76.7628261,9.74422517 76.4820652,9.61582781 C76.2130435,9.4869404 76.0320652,9.34629139 75.9391304,9.19437086 C75.8452174,9.04392053 75.79875,8.84299338 75.79875,8.59649007 C75.79875,8.32793377 75.8574457,8.10495364 75.974837,7.92901987 C76.09125,7.75455629 76.2370109,7.60802649 76.4126087,7.48992053 C76.5999457,7.37328477 76.803913,7.28997351 77.0259783,7.24341722 C77.2475543,7.19686093 77.4701087,7.17284768 77.6921739,7.17284768 C78.0316304,7.17284768 78.34125,7.20323179 78.6215217,7.2625298 C78.9135326,7.31986755 79.1708152,7.41935099 79.3933696,7.56049007 C79.6144565,7.70260927 79.7905435,7.8937351 79.9186957,8.14366887 C80.0590761,8.38870199 80.14125,8.70234437 80.1652174,9.0747947 L82.83,9.0747947 C82.83,8.34949669 82.6881522,7.73691391 82.4093478,7.2321457 C82.1403261,6.71757616 81.7725,6.29611921 81.3048913,5.96777483 C80.8367935,5.63943046 80.2997283,5.40419868 79.6907609,5.26698013 C79.0954891,5.1150596 78.4698913,5.04154967 77.8154348,5.04154967 C77.2544022,5.04154967 76.6943478,5.11996026 76.1328261,5.27188079 C75.5713043,5.42380132 75.0684783,5.65903311 74.624837,5.97757616 C74.1807065,6.29611921 73.8177717,6.69307285 73.5379891,7.17333775 C73.2689674,7.64380132 73.1369022,8.19757616 73.1369022,8.84446358 C73.1369022,9.42274172 73.2445109,9.91280795 73.454837,10.3195629 C73.679837,10.7214172 73.9635326,11.0546623 74.3157065,11.3241987 C74.6678804,11.5937351 75.0640761,11.8191656 75.5091848,11.9906887 C75.9542935,12.1573113 76.4091848,12.2945298 76.87875,12.4121457 C77.3336413,12.5444636 77.7836413,12.6620795 78.22875,12.7649934 C78.6738587,12.8728079 79.0700543,12.9953245 79.4222283,13.1374437 C79.7744022,13.2795629 80.0532065,13.4559868 80.2635326,13.6667152 C80.4836413,13.8774437 80.5961413,14.1567815 80.5961413,14.4949272 C80.5961413,14.8134702 80.5129891,15.078106 80.3515761,15.2888344 C80.190163,15.4897616 79.9847283,15.6465828 79.740163,15.7641987 C79.4955978,15.8818146 79.2314674,15.9651258 78.952663,16.0092318 C78.6738587,16.0435364 78.4097283,16.0631391 78.165163,16.0631391 C77.8032065,16.0631391 77.4510326,16.0190331 77.1135326,15.9406225 C76.7760326,15.8426093 76.477663,15.7102914 76.2184239,15.5338675 C75.9738587,15.3476424 75.7733152,15.1075099 75.6216848,14.8134702 C75.4700543,14.5194305 75.3966848,14.1665828 75.3966848,13.7451258 L72.7309239,13.7451258 L72.712337,13.7103311 Z M83.7163043,17.8709934 L86.467663,17.8709934 L86.467663,12.4606623 L91.5350543,12.4606623 L91.5350543,17.8709934 L94.286413,17.8709934 L94.286413,5.32921854 L91.5345652,5.32921854 L91.5345652,10.1431391 L86.4671739,10.1431391 L86.4671739,5.33068874 L83.7163043,5.33068874 L83.7163043,17.8714834 L83.7163043,17.8709934 Z M95.5434783,17.8709934 L98.2958152,17.8709934 L98.2958152,5.32921854 L95.5434783,5.32921854 L95.5434783,17.8709934 L95.5434783,17.8709934 Z M99.5528804,17.8709934 L102.12962,17.8709934 L102.163859,9.47517881 L107.37163,17.8714834 L110.123967,17.8714834 L110.123967,5.33019868 L107.541359,5.33019868 L107.50712,13.746596 L102.288098,5.33019868 L99.5489674,5.33019868 L99.5489674,17.8709934 L99.5528804,17.8709934 Z" id="SMASHING_1_"/></g></g></g></g></svg>