<svg viewBox="0 0 182 47"><g id="Page-1" stroke="none" stroke-width="1" fill="none" fill-rule="evenodd"><g id="netlify-cms-logo" fill-rule="nonzero"><g id="Page-1" transform="translate(0.037816, 0.193617)" fill="#FFF"><path d="M10.7064017,26.533354 C10.7064017,26.5527157 10.68704,26.5728519 10.6475421,26.6123498 L5.28435064,28.8962562 L5.26498894,28.8962562 C5.26498894,28.8962562 5.24485277,28.8962562 5.2247166,28.87612 L0.907057021,24.58092 C0.886920851,24.5615583 0.867559149,24.5220604 0.886920851,24.5034732 C0.907057021,24.4841115 0.927193191,24.4639753 0.946554894,24.4639753 L0.965916596,24.4639753 L10.6475421,26.4752689 C10.68704,26.4752689 10.7064017,26.4946306 10.7064017,26.533354 Z M11.2190996,25.186554 C11.1997379,25.186554 11.1997379,25.186554 11.2190996,25.186554 L0.0590144681,22.8437881 C0.0195165957,22.8437881 0.000154893617,22.8236519 0.000154893617,22.8042902 C0.000154893617,22.7849285 0.000154893617,22.7655668 0.0195165957,22.7462051 L6.25088681,16.5760179 C6.25088681,16.5566562 6.27024851,16.5566562 6.28961021,16.5566562 C6.32910809,16.5760179 6.32910809,16.5760179 6.34924426,16.5953796 C6.34924426,16.6155157 11.6922996,24.3470306 11.7519336,24.4244774 C11.7712953,24.4446136 11.7712953,24.4841115 11.7519336,24.5034732 C11.5745804,24.6986391 11.3964528,24.9131668 11.2787336,25.1478306 C11.2585974,25.1664179 11.2384613,25.186554 11.2190996,25.186554 Z M13.5463762,9.46949872 C13.52624,9.44936255 13.5061038,9.44936255 13.52624,9.41063915 C13.52624,9.39127745 13.52624,9.37191574 13.5463762,9.35177957 L22.9313804,0.0194391489 C22.9313804,7.74468085e-05 22.9515166,7.74468085e-05 22.9708783,7.74468085e-05 C22.99024,7.74468085e-05 22.99024,7.74468085e-05 23.0103762,0.0194391489 L27.0523251,4.02189021 C27.0716868,4.04125191 27.0716868,4.08074979 27.0523251,4.10011149 L22.1816953,11.6565966 C22.1623336,11.6751838 22.1429719,11.69532 22.1228357,11.69532 L22.103474,11.69532 C21.8471251,11.6170987 21.5907762,11.5776009 21.3344272,11.5776009 C20.8023677,11.5776009 20.2695336,11.7727668 19.8551932,12.1050136 C19.8358315,12.1251498 19.8358315,12.1251498 19.8164698,12.1251498 L19.7963336,12.1251498 C19.5399847,12.0074306 13.5463762,9.46949872 13.5463762,9.46949872 Z M12.9740443,23.7607583 L7.37464,15.5800519 C7.35450383,15.5614647 7.35450383,15.5219668 7.37464,15.5026051 L12.4024868,10.5041881 C12.4024868,10.4848264 12.4218485,10.4848264 12.4419847,10.4848264 L12.4613464,10.4848264 C12.4613464,10.5041881 18.3960953,13.0033966 19.0667847,13.2961455 C19.0861464,13.3155072 19.1062826,13.3348689 19.1062826,13.3743668 C19.0667847,13.5501711 19.047423,13.7252009 19.047423,13.9010051 C19.047423,14.5066391 19.2836357,15.0727753 19.6979762,15.5026051 C19.7173379,15.5219668 19.7173379,15.5614647 19.6979762,15.5800519 L14.4137804,23.7808945 C14.3936443,23.8002562 14.3742826,23.8196179 14.3541464,23.8196179 L14.3347847,23.8196179 C14.1179336,23.7607583 13.8809464,23.7220349 13.6640953,23.7220349 C13.466606,23.7220349 13.2505294,23.7607583 13.05304,23.8002562 L13.0329038,23.8002562 C13.0135421,23.8002562 12.9941804,23.7808945 12.9740443,23.7607583 Z M14.8079847,28.8567583 L25.2578826,44.0471753 C25.2780187,44.066537 25.2780187,44.1052604 25.2578826,44.1253966 L22.9708783,46.409303 C22.9708783,46.4286647 22.9515166,46.4286647 22.9313804,46.4286647 C22.9313804,46.4286647 22.9120187,46.4286647 22.8918826,46.409303 L9.83899745,33.4648434 C9.81886128,33.4454817 9.81886128,33.4059838 9.83899745,33.3866221 L9.85835915,33.3672604 L12.6983336,28.9543413 C12.7176953,28.935754 12.7378315,28.9156179 12.7571932,28.9156179 L12.7765549,28.9156179 C13.0724017,29.0132009 13.3488868,29.0526987 13.6439591,29.0526987 C14.0188017,29.0526987 14.3742826,28.973703 14.7289889,28.8180349 L14.7483506,28.8180349 C14.7684868,28.8180349 14.788623,28.8381711 14.8079847,28.8567583 Z M11.5745804,28.0962306 C11.5939421,28.1148179 11.5939421,28.1341796 11.5939421,28.1341796 L8.89259745,32.3317966 C8.87246128,32.3519328 8.85309957,32.3712945 8.83373787,32.3712945 C8.83373787,32.3712945 8.8136017,32.3712945 8.79424,32.3519328 L6.40810383,29.9898051 C6.38874213,29.9696689 6.38874213,29.9503072 6.38874213,29.9309455 C6.38874213,29.9108094 6.40810383,29.8922221 6.42824,29.8922221 L11.3182315,27.8027072 L11.3375932,27.8027072 C11.3569549,27.8027072 11.3770911,27.8220689 11.3964528,27.8414306 C11.4560868,27.9390136 11.5149464,28.0172349 11.5745804,28.0962306 Z M16.3259421,26.2018817 C16.3259421,26.0454391 16.2864443,25.9083583 16.2670826,25.7526902 C16.2670826,25.7131923 16.2670826,25.6938306 16.305806,25.6752434 L30.3260017,19.6808604 L30.3453634,19.6808604 C30.3453634,19.6808604 30.3647251,19.6808604 30.3848613,19.7002221 C30.4832187,19.7978051 30.5622145,19.8558902 30.6412102,19.9147498 C30.6807081,19.9147498 30.6807081,19.9534732 30.6807081,19.9736094 L29.457823,27.4898221 C29.457823,27.52932 29.4384613,27.5494562 29.3989634,27.5494562 C28.728274,27.5874051 28.1365804,27.9785115 27.8020102,28.5640094 C27.781874,28.5833711 27.7617379,28.6035072 27.7423762,28.6035072 L27.7230145,28.6035072 L16.3855762,26.2599668 C16.3460783,26.2599668 16.3259421,26.2406051 16.3259421,26.2018817 Z M28.7677719,31.376103 C28.8072698,31.3946902 28.8072698,31.4341881 28.7677719,31.4341881 L26.9934655,42.367354 C26.9934655,42.3874902 26.9733294,42.3874902 26.9733294,42.4068519 L26.3421379,43.0318477 C26.3421379,43.0512094 26.3227762,43.0512094 26.3034145,43.0512094 C26.2832783,43.0512094 26.2832783,43.0512094 26.2639166,43.0318477 L15.8527421,27.9591498 C15.8333804,27.9390136 15.8333804,27.9002902 15.8527421,27.8809285 C15.9123762,27.8027072 15.9510996,27.724486 16.0107336,27.626903 C16.0300953,27.6075413 16.0502315,27.5874051 16.0695932,27.5874051 L16.0897294,27.5874051 L27.5255251,29.9503072 C27.565023,29.9696689 27.5843847,29.9898051 27.5843847,30.0083923 C27.7423762,30.6148009 28.1760783,31.1414391 28.7677719,31.376103 Z M37.3845038,32.0010987 C37.4038655,32.0010987 37.4240017,32.019686 37.4240017,32.0785455 C37.4240017,32.0986817 37.4240017,32.1180434 37.4038655,32.1366306 L28.8467677,40.6302221 C28.8467677,40.6503583 28.8266315,40.6503583 28.8072698,40.6503583 L28.7677719,40.6503583 C28.7476357,40.6302221 28.728274,40.6108604 28.728274,40.5713626 L30.2075081,31.473686 C30.2075081,31.4543243 30.2268698,31.4148264 30.2462315,31.4148264 C30.6017123,31.2777455 30.8975591,31.0438562 31.1337719,30.7503328 C31.1531336,30.7503328 31.1732698,30.7317455 31.193406,30.7317455 L31.2127677,30.7317455 L37.3845038,32.0010987 Z M29.7335336,17.8260094 C29.7536698,17.8453711 29.773806,17.8647328 29.773806,17.9034562 C29.7536698,18.0010391 29.7335336,18.1187583 29.7335336,18.235703 L29.7335336,18.333286 L29.7335336,18.4115072 C29.7335336,18.4308689 29.7141719,18.4502306 29.6948102,18.4695923 L15.7543847,24.4244774 L15.7342485,24.4244774 C15.7148868,24.4244774 15.6947506,24.4244774 15.6753889,24.4058902 C15.6560272,24.3865285 15.6560272,24.3470306 15.6753889,24.3268945 L20.9007251,16.2244094 C20.9200868,16.2050477 20.940223,16.185686 20.9595847,16.185686 L20.9797209,16.185686 C21.1175762,16.2050477 21.2360698,16.2244094 21.3537889,16.2244094 C22.1429719,16.2244094 22.8725209,15.8340774 23.306223,15.1703583 C23.3255847,15.1509966 23.3457209,15.1316349 23.3650826,15.1316349 L23.3852187,15.1316349 L29.7335336,17.8260094 Z M45.1136953,24.3470306 C45.133057,24.3663923 45.133057,24.3865285 45.133057,24.4058902 C45.133057,24.4244774 45.133057,24.4446136 45.1136953,24.4639753 L38.6856102,30.8486902 C38.6856102,30.8680519 38.6662485,30.8680519 38.6461123,30.8680519 L38.6267506,30.8680519 L31.6069719,29.4035328 C31.567474,29.4035328 31.5481123,29.3841711 31.5481123,29.3454477 C31.4884783,28.7986732 31.2321294,28.3107583 30.7984272,27.9785115 C30.7790655,27.9591498 30.7790655,27.9390136 30.7790655,27.9196519 L32.0213123,20.28572 C32.0213123,20.2469966 32.0608102,20.2268604 32.0801719,20.2268604 C32.6323677,20.1494136 33.1055677,19.8760264 33.4215506,19.4461966 C33.4409123,19.4268349 33.460274,19.4268349 33.4804102,19.4268349 L33.4997719,19.4268349 L45.1136953,24.3470306 Z M46.3164443,23.1752604 C46.3559421,23.1946221 46.3559421,23.2534817 46.3164443,23.2534817 L46.2769464,23.2922051 C46.2769464,23.3123413 46.2568102,23.3123413 46.2374485,23.3123413 L46.2180868,23.3123413 L34.1116017,18.1768434 C34.0914655,18.1768434 34.0713294,18.13812 34.0713294,18.1187583 C34.0713294,18.0993966 34.0914655,18.0792604 34.1116017,18.0598987 L39.0209549,15.9711583 L39.0403166,15.9711583 C39.0403166,15.9711583 39.0604528,15.9711583 39.0798145,15.99052 L46.3164443,23.1752604 Z M23.2860868,12.6122902 C23.2667251,12.5929285 23.2667251,12.5542051 23.2860868,12.5147072 L28.038223,5.13480085 C28.038223,5.11543915 28.0575847,5.09607745 28.0777209,5.09607745 C28.097857,5.09607745 28.097857,5.09607745 28.1172187,5.11543915 L32.3365209,9.31305617 C32.356657,9.33319234 32.356657,9.35177957 32.356657,9.37191574 L31.2522655,16.2244094 C31.2522655,16.2639072 31.2321294,16.2832689 31.2127677,16.2832689 C30.9564187,16.3614902 30.7194315,16.4784349 30.5227166,16.6348774 C30.5227166,16.6542391 30.5033549,16.6542391 30.4832187,16.6542391 L30.463857,16.6542391 L23.7197889,13.7840604 C23.7004272,13.7646987 23.6802911,13.745337 23.6802911,13.7252009 C23.6415677,13.3348689 23.5029379,12.944537 23.2860868,12.6122902 Z M32.6912272,16.4195753 C32.6718655,16.4195753 32.6517294,16.3808519 32.6323677,16.3614902 L33.559406,10.6799923 C33.559406,10.6404945 33.5787677,10.6211328 33.5989038,10.6211328 L33.6182655,10.6211328 C33.6182655,10.6211328 33.6376272,10.6211328 33.6577634,10.6404945 L37.8972017,14.8381115 C37.9165634,14.8582477 37.9165634,14.8776094 37.9165634,14.8969711 C37.9165634,14.9163328 37.8972017,14.9356945 37.87784,14.9558306 L33.3425549,16.8881285 L33.3224187,16.8881285 C33.303057,16.8881285 33.303057,16.8881285 33.2829209,16.8687668 C33.1257038,16.6929626 32.9282145,16.5372945 32.6912272,16.4195753 Z" id="Fill-1"/><path d="M102.353702,14.1747796 L105.508111,14.1747796 L105.508111,11.3634604 L102.353702,11.3634604 L102.353702,14.1747796 Z M111.699209,12.671537 C110.831804,13.5304221 110.398102,14.7602774 110.398102,16.361103 L110.398102,17.669954 L108.248953,17.669954 L108.248953,20.0514434 L110.398102,20.0514434 L110.398102,32.0007115 L113.553285,32.0007115 L113.553285,20.0514434 L116.411847,20.0514434 L116.411847,17.669954 L113.553285,17.669954 L113.553285,16.4006009 C113.553285,14.819137 114.302196,14.0376987 115.820153,14.0376987 C116.273991,14.0376987 116.687557,14.0771966 117.022902,14.1360562 L117.102672,11.6167115 C116.470706,11.4610434 115.899149,11.3828221 115.327591,11.3828221 C113.789498,11.3634604 112.566613,11.8126519 111.699209,12.671537 Z M123.411489,27.3926264 L120.434434,17.669954 L117.022902,17.669954 L121.972528,31.9224902 L121.518689,33.1523455 C121.282477,33.8555626 120.966494,34.3434774 120.552928,34.6362264 C120.158723,34.9289753 119.546894,35.0854179 118.758485,35.0854179 L118.166791,35.0466945 L118.166791,37.5451285 C118.718987,37.7015711 119.231685,37.7797923 119.685523,37.7797923 C121.73554,37.7797923 123.194638,36.5692987 124.062817,34.1676732 L129.662221,17.669954 L126.290187,17.669954 L123.411489,27.3926264 Z M102.353702,32.0007115 L105.508111,32.0007115 L105.508111,17.669954 L102.353702,17.669954 L102.353702,32.0007115 Z M88.7881191,29.2281157 C88.5712681,28.9934519 88.4721362,28.5837583 88.4721362,28.0369838 L88.4721362,20.0320817 L90.9566298,20.0320817 L90.9566298,17.6498179 L88.4721362,17.6498179 L88.4721362,14.1747796 L85.3177277,14.1747796 L85.3177277,17.6498179 L83.0105872,17.6498179 L83.0105872,20.0320817 L85.3177277,20.0320817 L85.3177277,28.1539285 C85.3177277,30.8878009 86.5406128,32.2539626 88.9654723,32.2539626 C89.6361617,32.2539626 90.3254383,32.1563796 91.0557617,31.9418519 L91.0557617,29.4426434 C90.6801447,29.5402264 90.3060766,29.5797243 89.9513702,29.5797243 C89.3798128,29.599086 89.0041957,29.4813668 88.7881191,29.2281157 Z M78.5349362,23.4877583 L72.520417,23.4877583 C72.6590468,22.3748477 73.0137532,21.5159626 73.5458128,20.9103285 C74.0786468,20.2861072 74.788834,19.9933583 75.6562383,19.9933583 C76.5236426,19.9933583 77.2136936,20.2659711 77.7062553,20.8127455 C78.1995915,21.35952 78.4760766,22.1796817 78.5542979,23.2538689 L78.5542979,23.4877583 L78.5349362,23.4877583 Z M75.6562383,17.3965668 C74.4527149,17.3965668 73.3684596,17.7086774 72.3825617,18.3336732 C71.3966638,18.9578945 70.6477532,19.8369157 70.0955574,20.9691881 C69.5634979,22.1014604 69.2870128,23.3708136 69.2870128,24.7958349 L69.2870128,25.1861668 C69.2870128,27.3144051 69.9182043,29.0329498 71.1604511,30.3216647 C72.4026979,31.6096051 74.0197872,32.2539626 76.0303064,32.2539626 C77.1935574,32.2539626 78.2584511,32.0200732 79.2048511,31.55152 C80.1520255,31.0829668 80.9001617,30.4192477 81.4523574,29.5603626 L79.7570468,27.899903 C78.8501447,29.0910349 77.6675319,29.6966689 76.2277957,29.6966689 C75.2024,29.6966689 74.3349957,29.3450604 73.6650809,28.6619796 C72.9742553,27.9788987 72.6001872,27.0417923 72.5010553,25.8506604 L81.6893447,25.8506604 L81.6893447,24.5619455 C81.6893447,22.2772647 81.1572851,20.5199966 80.1318894,19.2707796 C79.047634,18.0207881 77.5684,17.3965668 75.6562383,17.3965668 Z M62.0310213,17.3965668 C60.3357106,17.3965668 58.9749702,18.0409243 57.9302128,19.309503 L57.8310809,17.6498179 L54.8741617,17.6498179 L54.8741617,31.9813498 L58.0285702,31.9813498 L58.0285702,21.7893498 C58.6597617,20.6175796 59.6061617,20.0320817 60.8677702,20.0320817 C61.7351745,20.0320817 62.366366,20.2466094 62.7605702,20.6958009 C63.1547745,21.1256306 63.3321277,21.8087115 63.3321277,22.7070945 L63.3321277,31.9813498 L66.4873106,31.9813498 L66.4873106,22.5119285 C66.4478128,19.114337 64.9693532,17.3965668 62.0310213,17.3965668 Z M94.3085277,32.0007115 L97.4637106,32.0007115 L97.4637106,11.6562094 L94.3085277,11.6562094 L94.3085277,32.0007115 Z" id="Fill-3"/></g><path d="M139.255639,29.651388 C140.058599,29.651388 140.724781,29.4175624 141.254206,28.9499044 C141.78363,28.4822464 142.065985,27.9043003 142.10128,27.2160489 L145.132218,27.2160489 C145.096923,28.1072462 144.81898,28.9388709 144.298379,29.7109479 C143.777779,30.4830248 143.071891,31.0940594 142.180693,31.54407 C141.289496,31.9940805 140.327723,32.2190824 139.295346,32.2190824 C137.292358,32.2190824 135.704109,31.5705476 134.530552,30.2734583 C133.356995,28.976369 132.770225,27.1851774 132.770225,24.8998296 L132.770225,24.5689411 C132.770225,22.3894783 133.352583,20.6446105 134.517316,19.3342856 C135.682049,18.0239608 137.270298,17.3688082 139.28211,17.3688082 C140.985091,17.3688082 142.372603,17.8651359 143.444687,18.8578063 C144.516771,19.8504766 145.079276,21.1541641 145.132218,22.7689079 L142.10128,22.7689079 C142.065985,21.9483004 141.785836,21.2732947 141.260823,20.7438705 C140.735811,20.2144463 140.067423,19.9497382 139.255639,19.9497382 C138.214438,19.9497382 137.41149,20.3269473 136.846771,21.0813768 C136.282052,21.8358062 135.995285,22.9806689 135.986461,24.515999 L135.986461,25.032185 C135.986461,26.5851626 136.266611,27.7432607 136.826918,28.5065139 C137.387225,29.2697671 138.196791,29.651388 139.255639,29.651388 Z M150.360931,17.633519 L150.45358,19.1291348 C151.459486,17.9555779 152.835968,17.3688082 154.583068,17.3688082 C156.497819,17.3688082 157.808124,18.1011673 158.514023,19.5659076 C159.555224,18.1011673 161.019942,17.3688082 162.908222,17.3688082 C164.487671,17.3688082 165.663416,17.8055766 166.435493,18.6791265 C167.20757,19.5526764 167.602426,20.8409226 167.620074,22.5439037 L167.620074,31.9543717 L164.403838,31.9543717 L164.403838,22.6365525 C164.403838,21.7277077 164.205307,21.0615256 163.808239,20.6379862 C163.411171,20.2144469 162.753812,20.0026803 161.836143,20.0026803 C161.103773,20.0026803 160.505974,20.1990056 160.042728,20.5916618 C159.579482,20.9843181 159.255214,21.498293 159.069916,22.1336021 L159.083151,31.9543717 L155.866915,31.9543717 L155.866915,22.5306682 C155.822797,20.8453345 154.962496,20.0026803 153.285985,20.0026803 C151.99772,20.0026803 151.084477,20.5276848 150.546229,21.5777094 L150.546229,31.9543717 L147.329993,31.9543717 L147.329993,17.633519 L150.360931,17.633519 Z M178.725366,28.0631233 C178.725366,27.4895805 178.489335,27.0528121 178.017265,26.752805 C177.545195,26.452798 176.7621,26.1880899 175.667957,25.9586727 C174.573813,25.7292555 173.66057,25.4380766 172.9282,25.0851271 C171.32228,24.3086384 170.519332,23.1836288 170.519332,21.7100648 C170.519332,20.4747417 171.039925,19.44238 172.081126,18.6129488 C173.122327,17.7835176 174.445867,17.3688082 176.051787,17.3688082 C177.763592,17.3688082 179.146692,17.7923412 180.201129,18.6394199 C181.255565,19.4864986 181.782776,20.5850373 181.782776,21.935069 L178.566539,21.935069 C178.566539,21.3174074 178.337126,20.8034325 177.878292,20.3931287 C177.419457,19.982825 176.810629,19.7776762 176.051787,19.7776762 C175.345888,19.7776762 174.770148,19.9409129 174.32455,20.2673911 C173.878951,20.5938694 173.656155,21.0306378 173.656155,21.5777094 C173.656155,22.0718387 173.86351,22.4556655 174.278225,22.7292013 C174.692941,23.0027371 175.531183,23.2784748 176.792977,23.5564224 C178.054772,23.8343702 179.045221,24.1652553 179.764356,24.5490879 C180.48349,24.9329204 181.017318,25.3939537 181.365856,25.9322016 C181.714394,26.4704495 181.88866,27.1233963 181.88866,27.8910613 C181.88866,29.1793268 181.354832,30.2227181 180.28716,31.0212662 C179.219488,31.8198144 177.820946,32.2190824 176.091494,32.2190824 C174.917937,32.2190824 173.87234,32.007316 172.954671,31.5837766 C172.037002,31.1602372 171.322291,30.5778794 170.810514,29.8366855 C170.298737,29.0954916 170.042853,28.2969555 170.042853,27.441053 L173.16644,27.441053 C173.210559,28.1998944 173.497326,28.7844581 174.02675,29.1947619 C174.556174,29.6050656 175.25765,29.8102144 176.131201,29.8102144 C176.978279,29.8102144 177.622402,29.6491837 178.063589,29.3271173 C178.504776,29.0050509 178.725366,28.5837238 178.725366,28.0631233 Z" id="cms" fill="#C9FA4B"/></g></g></svg>