<svg height="20" viewBox="0 0 22 20" width="22" xmlns="http://www.w3.org/2000/svg"><path d="m403.5 22-3.5-4h7zm-4-5.75h-2.75c-.276142 0-.5.2238576-.5.5v2.75c0 .2761424-.223858.5-.5.5h-1.5c-.276142 0-.5-.2238576-.5-.5v-2.75c0-.2761424-.223858-.5-.5-.5h-2.75c-.276142 0-.5-.2238576-.5-.5v-1.5c0-.2761424.223858-.5.5-.5h2.75c.276142 0 .5-.2238576.5-.5v-2.75c0-.2761424.223858-.5.5-.5h1.5c.276142 0 .5.2238576.5.5v2.75c0 .2761424.223858.5.5.5h2.75c.276142 0 .5.2238576.5.5v1.5c0 .2761424-.223858.5-.5.5z" fill="#7a8291" fill-rule="evenodd" transform="translate(-387 -6)"/></svg>