<svg height="20" viewBox="0 0 22 20" width="22" xmlns="http://www.w3.org/2000/svg"><path d="m13.2 15.8190158c.812093-.5774258 1.3813953-1.5254384 1.3813953-2.4045046 0-1.9477349-1.4651162-3.44731836-3.3488372-3.44731836h-5.2325581v12.06561436h5.8939535c1.7497674 0 3.1060465-1.4651103 3.1060465-3.2663342 0-1.309981-.72-2.4303595-1.8-2.9474572zm-5.09208984-3.697249h2.84948734c.7883581 0 1.4247436.5774259 1.4247436 1.2927444 0 .7153186-.6363855 1.2927444-1.4247436 1.2927444h-2.84948734zm3.32440184 7.7564664h-3.32440184v-2.5854888h3.32440184c.7883582 0 1.4247437.5774258 1.4247437 1.2927444 0 .7153185-.6363855 1.2927444-1.4247437 1.2927444z" fill="#7a8291" transform="translate(0 -6)"/></svg>