<svg width="20" height="20" viewBox="0 0 20 20" 
    xmlns="http://www.w3.org/2000/svg">
    <path d="m 9.5,10 h 2 V 5 h -2 v 5" fill="#000" fill-rule="evenodd"/>
    <path d="m 9.5,9 h 6 v 2 h -6 V 9" fill="#000" fill-rule="evenodd"/>
    <path d="m 7.3088381,1 a 9.8,9.8 0 0 1 12.1999999,6 9.4,9.4 0 0 1 -6.2,12 C 8.3088381,20.5 3.0088381,18 1.2088381,13.2 c -0.2,-0.6 0.1,-1.3 0.7,-1.5 0.7,-0.2 1.4,0.1 1.6,0.7 a 7.3,7.3 0 0 0 8.9999999,4.3 7,7 0 0 0 4.7,-8.9 A 7.3,7.3 0 0 0 5.2088381,5 l 2.4,2.4 c 0.5,0.5 0.3,0.8 -0.3,0.8 h -5.5 c -0.7,0 -1.19999998,-0.5 -1.19999998,-1.1 V 1.8 c 0,-0.7 0.39999998,-0.8 0.89999998,-0.4 l 2,2 c 1,-1 2.3,-1.9 3.8,-2.4 z" fill="#000" fill-rule="evenodd"/>
</svg>