<svg viewBox="0 0 24 24"><path d="m22.5567568 11.4918919c-1.4270271-1.4918919-5.7081082-5.4918919-10.1621622-5.4918919-4.80000001 0-8.84324325 4-10.18378379 5.4918919-.28108108.3027027-.28108108.7783784 0 1.0810811 1.34054054 1.4702702 5.40540541 5.427027 10.18378379 5.427027 4.7567568 0 8.8-3.9135135 10.1621622-5.4054054.3027027-.3027027.3027027-.8 0-1.1027027zm-10.1405406 4.6918919c-2.2918919 0-4.15135134-1.8594595-4.15135134-4.1513514 0-2.29189186 1.85945944-4.15135132 4.15135134-4.15135132s4.1513514 1.85945946 4.1513514 4.15135132c0 2.2918919-1.8810811 4.1513514-4.1513514 4.1513514zm0-2.7891892c.7523014 0 1.3621622-.6098608 1.3621622-1.3621622s-.6098608-1.3621621-1.3621622-1.3621621-1.3621621.6098607-1.3621621 1.3621621.6098607 1.3621622 1.3621621 1.3621622z"/></svg>