<svg height="26" width="26" xmlns="http://www.w3.org/2000/svg"><g fill="none"><path d="m22.616 14.971-1.096-3.471-2.173-6.882a.37.37 0 0 0 -.71 0l-2.172 6.882h-7.213l-2.173-6.883a.37.37 0 0 0 -.71 0l-2.172 6.882-1.097 3.472c-.1.317.01.664.27.86l9.487 7.094 9.487-7.094a.781.781 0 0 0 .27-.86" fill="#fc6d26"/><path d="m12.858 22.925 3.607-11.425h-7.214z" fill="#e24329"/><path d="m12.858 22.925-3.607-11.425h-5.054z" fill="#fc6d26"/><path d="m4.197 11.499-1.097 3.472c-.1.317.01.664.27.86l9.487 7.094-8.66-11.425z" fill="#fca326"/><path d="m4.197 11.499h5.053l-2.17-6.882a.37.37 0 0 0 -.71 0l-2.172 6.882z" fill="#e24329"/><path d="m12.858 22.925 3.607-11.425h5.055z" fill="#fc6d26"/><path d="m21.52 11.499 1.096 3.472c.1.317-.01.664-.271.86l-9.487 7.094 8.662-11.425z" fill="#fca326"/><path d="m21.52 11.499h-5.055l2.172-6.882a.37.37 0 0 1 .71 0z" fill="#e24329"/></g></svg>