<svg width="26" height="26" xmlns="http://www.w3.org/2000/svg"><g fill-rule="nonzero" fill="none"><path d="M22.616 14.971L21.52 11.5l-2.173-6.882a.37.37 0 0 0-.71 0l-2.172 6.882H9.252L7.079 4.617a.37.37 0 0 0-.71 0l-2.172 6.882L3.1 14.971c-.1.317.01.664.27.86l9.487 7.094 9.487-7.094a.781.781 0 0 0 .27-.86" fill="#FC6D26"/><path d="M12.858 22.925L16.465 11.5H9.251z" fill="#E24329"/><path d="M12.858 22.925L9.251 11.5H4.197z" fill="#FC6D26"/><path d="M4.197 11.499L3.1 14.971c-.1.317.01.664.27.86l9.487 7.094L4.197 11.5z" fill="#FCA326"/><path d="M4.197 11.499H9.25L7.08 4.617a.37.37 0 0 0-.71 0l-2.172 6.882z" fill="#E24329"/><path d="M12.858 22.925L16.465 11.5h5.055z" fill="#FC6D26"/><path d="M21.52 11.499l1.096 3.472c.1.317-.01.664-.271.86l-9.487 7.094L21.52 11.5z" fill="#FCA326"/><path d="M21.52 11.499h-5.055l2.172-6.882a.37.37 0 0 1 .71 0l2.173 6.882z" fill="#E24329"/></g></svg>