<svg height="24" viewBox="0 0 24 24" width="24" xmlns="http://www.w3.org/2000/svg"><path d="m5 3h3c1.1045695 0 2 .8954305 2 2v3c0 1.1045695-.8954305 2-2 2h-3c-1.1045695 0-2-.8954305-2-2v-3c0-1.1045695.8954305-2 2-2zm11 0h3c1.1045695 0 2 .8954305 2 2v3c0 1.1045695-.8954305 2-2 2h-3c-1.1045695 0-2-.8954305-2-2v-3c0-1.1045695.8954305-2 2-2zm0 11h3c1.1045695 0 2 .8954305 2 2v3c0 1.1045695-.8954305 2-2 2h-3c-1.1045695 0-2-.8954305-2-2v-3c0-1.1045695.8954305-2 2-2zm-11 0h3c1.1045695 0 2 .8954305 2 2v3c0 1.1045695-.8954305 2-2 2h-3c-1.1045695 0-2-.8954305-2-2v-3c0-1.1045695.8954305-2 2-2z"/></svg>