<svg height="20" viewBox="0 0 22 20" width="22" xmlns="http://www.w3.org/2000/svg"><path d="m359 9h12c1.656854 0 3 1.3431458 3 3v8c0 1.6568542-1.343146 3-3 3h-12c-1.656854 0-3-1.3431458-3-3v-8c0-1.6568542 1.343146-3 3-3zm2.48655 7.204594-2.338769 3.232155c-.123411.1705523-.189849.3757019-.189849.586221 0 .5522847.447715 1 1 1h9.953212c.221104 0 .435974-.0732777.611005-.208373.437204-.3374486.518071-.9654282.180622-1.4026317l-3.405305-4.4119653-3.451684 4.4690437zm1.01345-2.204594c.828427 0 1.5-.6715729 1.5-1.5s-.671573-1.5-1.5-1.5-1.5.6715729-1.5 1.5.671573 1.5 1.5 1.5z" fill="#7a8291" transform="translate(-354 -6)"/></svg>