<svg height="20" viewBox="0 0 22 20" width="22" xmlns="http://www.w3.org/2000/svg"><path d="m113.682856 16.3147066-1.2558-1.2522577 1.253144-1.2540289c.696092-.6969779.690778-1.8128511 0-2.5036297-.331308-.333308-.781859-.5207277-1.251815-.5207277s-.920508.1874197-1.251815.5207277l-2.506287 2.5062865c-.333089.3314239-.520357.7819318-.520357 1.2518149s.187268.920391.520357 1.2518149l-1.249601 1.2469439-.625243-.6252432c-1.037917-1.0367623-1.039106-2.7185436-.002657-3.756773l3.135073-3.1359578c1.381557-1.38155725 3.625702-1.37270112 5.007259.0088561 1.381489 1.3827959 1.382678 3.6229983.002657 5.0072595zm-9.393703-.6261289v-.0026568l1.252257 1.2487152-1.252257 1.2566857c-.333143.3315754-.520433.7822298-.520433 1.2522577s.18729.9206823.520433 1.2522577c.696978.6952066 1.812851.6907786 2.503629 0l2.506287-2.5062866c.696978-.6969779.690779-1.8128511 0-2.5036297l1.248715-1.2487152.622587.6243576c.499437.4971794.78065 1.1725691.781646 1.8772847.000997.7047155-.278304 1.380898-.776333 1.8794883l-3.135072 3.1350722c-1.382643 1.3805908-3.622541 1.3794015-5.003717-.0026568-1.381489-1.3827959-1.382678-3.6229983-.002657-5.0072595z" fill="#7a8291" transform="translate(-99 -6)"/></svg>