<svg height="20" viewBox="0 0 22 20" width="22" xmlns="http://www.w3.org/2000/svg"><path d="m329.013584 10.0231934v2h-11v-2zm0 5v2h-11v-2zm0 5v2h-11v-2zm-16.409781-5.0384017v-4.7538462h-.017656l-1.094679.5446154-.220702-1.05230771 1.518427-.73846154h1.112335v6.00000005zm2.458497 7.9969868h-4v-.834679l.728851-.6895174c1.232104-1.1522198 1.830802-1.8145194 1.848156-2.5040368 0-.4808477-.277658-.8618968-.928417-.8618968-.4859 0-.911063.2540327-1.206073.4899203l-.373102-.9889131c.425162-.3356861 1.084598-.607864 1.848156-.607864 1.275488 0 1.978308.7802433 1.978308 1.8508098 0 .9889131-.685467 1.7782291-1.501085 2.5403272l-.520607.4536299v.0181452h2.125813z" fill="#7a8291" transform="translate(-309 -6)"/></svg>