<svg height="24" viewBox="0 0 24 24" width="24" xmlns="http://www.w3.org/2000/svg"><path d="m4.5 3h15c.8284271 0 1.5.67157288 1.5 1.5 0 .82842712-.6715729 1.5-1.5 1.5h-15c-.82842712 0-1.5-.67157288-1.5-1.5 0-.82842712.67157288-1.5 1.5-1.5zm0 5h15c.8284271 0 1.5.67157288 1.5 1.5 0 .8284271-.6715729 1.5-1.5 1.5h-15c-.82842712 0-1.5-.6715729-1.5-1.5 0-.82842712.67157288-1.5 1.5-1.5zm0 5h15c.8284271 0 1.5.6715729 1.5 1.5s-.6715729 1.5-1.5 1.5h-15c-.82842712 0-1.5-.6715729-1.5-1.5s.67157288-1.5 1.5-1.5zm0 5h15c.8284271 0 1.5.6715729 1.5 1.5s-.6715729 1.5-1.5 1.5h-15c-.82842712 0-1.5-.6715729-1.5-1.5s.67157288-1.5 1.5-1.5z"/></svg>