<svg height="24" viewBox="0 0 24 24" width="24" xmlns="http://www.w3.org/2000/svg"><path d="m5.02734375 4.04492188h13.97419545c1.6568542 0 3 1.34314575 3 2.99999999v9.99084473c0 1.6568543-1.3431458 3-3 3h-13.97419545c-1.65685425 0-3-1.3431457-3-3v-9.99084472c0-1.65685425 1.34314575-3 3-3zm2.87339833 8.48001632-4.11369937 5.5035644h16.45479749l-5.4849325-6.8794555-4.0725624 5.104556zm1.59223888-2.5249382c.83230364 0 1.50701904-.67471541 1.50701904-1.50701904 0-.83230364-.6747154-1.50701905-1.50701904-1.50701905s-1.50701905.67471541-1.50701905 1.50701905c0 .83230363.67471541 1.50701904 1.50701905 1.50701904z"/></svg>