<svg viewBox="0 0 182 47" xmlns="http://www.w3.org/2000/svg"><g fill="none"><g fill="#fff" transform="translate(.037816 .193617)"><path d="m10.7064017 26.533354c0 .0193617-.0193617.0394979-.0588596.0789958l-5.36319146 2.2839064h-.0193617s-.02013617 0-.04027234-.0201362l-4.31765958-4.2952c-.02013617-.0193617-.03949787-.0588596-.02013617-.0774468.02013617-.0193617.04027234-.0394979.05963404-.0394979h.01936171l9.6816255 2.0112936c.0394979 0 .0588596.0193617.0588596.0580851zm.5126979-1.3468c-.0193617 0-.0193617 0 0 0l-11.16008513-2.3427659c-.03949787 0-.05885958-.0201362-.05885958-.0394979s0-.0387234.01936171-.0580851l6.23137021-6.1701872c0-.0193617.0193617-.0193617.0387234-.0193617.03949788.0193617.03949788.0193617.05963405.0387234 0 .0201361 5.34305534 7.751651 5.40268934 7.8290978.0193617.0201362.0193617.0596341 0 .0789958-.1773532.1951659-.3554808.4096936-.4732.6443574-.0201362.0185873-.0402723.0387234-.059634.0387234zm2.3272766-15.71705528c-.0201362-.02013617-.0402724-.02013617-.0201362-.05885957 0-.0193617 0-.03872341.0201362-.05885958l9.3850042-9.33234042c0-.0193617.0201362-.0193617.0394979-.0193617s.0193617 0 .0394979.0193617l4.0419489 4.00245106c.0193617.0193617.0193617.05885958 0 .07822128l-4.8706298 7.55648511c-.0193617.0185872-.0387234.0387234-.0588596.0387234h-.0193617c-.2563489-.0782213-.5126978-.1177191-.7690468-.1177191-.5320595 0-1.0648936.1951659-1.479234.5274127-.0193617.0201362-.0193617.0201362-.0387234.0201362h-.0201362c-.2563489-.1177192-6.2499574-2.65565108-6.2499574-2.65565108zm-.5723319 14.29125958-5.5994043-8.1807064c-.02013617-.0185872-.02013617-.0580851 0-.0774468l5.0278468-4.998417c0-.0193617.0193617-.0193617.0394979-.0193617h.0193617c0 .0193617 5.9347489 2.5185702 6.6054383 2.8113191.0193617.0193617.0394979.0387234.0394979.0782213-.0394979.1758043-.0588596.3508341-.0588596.5266383 0 .605634.2362127 1.1717702.6505532 1.6016.0193617.0193617.0193617.0588596 0 .0774468l-5.2841958 8.2008426c-.0201361.0193617-.0394978.0387234-.059634.0387234h-.0193617c-.2168511-.0588596-.4538383-.097583-.6706894-.097583-.1974893 0-.4135659.0387234-.6110553.0782213h-.0201362c-.0193617 0-.0387234-.0193617-.0588595-.0394979zm1.8339404 5.096 10.4498979 15.190417c.0201361.0193617.0201361.0580851 0 .0782213l-2.2870043 2.2839064c0 .0193617-.0193617.0193617-.0394979.0193617 0 0-.0193617 0-.0394978-.0193617l-13.05288515-12.9444596c-.02013617-.0193617-.02013617-.0588596 0-.0782213l.0193617-.0193617 2.83997445-4.4129191c.0193617-.0185873.0394979-.0387234.0588596-.0387234h.0193617c.2958468.097583.5723319.1370808.8674042.1370808.3748426 0 .7303235-.0789957 1.0850298-.2346638h.0193617c.0201362 0 .0402724.0201362.0596341.0387234zm-3.2334043-.7605277c.0193617.0185873.0193617.037949.0193617.037949l-2.70134465 4.197617c-.02013617.0201362-.03949788.0394979-.05885958.0394979 0 0-.02013617 0-.03949787-.0193617l-2.38613617-2.3621277c-.0193617-.0201362-.0193617-.0394979-.0193617-.0588596 0-.0201361.0193617-.0387234.03949787-.0387234l4.8899915-2.0895149h.0193617c.0193617 0 .0394979.0193617.0588596.0387234.059634.097583.1184936.1758043.1781276.2548zm4.7513617-1.8943489c0-.1564426-.0394978-.2935234-.0588595-.4491915 0-.0394979 0-.0588596.0387234-.0774468l14.0201957-5.994383h.0193617s.0193617 0 .0394979.0193617c.0983574.097583.1773532.1556681.2563489.2145277.0394979 0 .0394979.0387234.0394979.0588596l-1.2228851 7.5162127c0 .0394979-.0193617.0596341-.0588596.0596341-.6706894.0379489-1.262383.4290553-1.5969532 1.0145532-.0201362.0193617-.0402723.0394978-.059634.0394978h-.0193617l-11.3374383-2.3435404c-.0394979 0-.0596341-.0193617-.0596341-.0580851zm12.4418298 5.1742213c.0394979.0185872.0394979.0580851 0 .0580851l-1.7743064 10.9331659c0 .0201362-.0201361.0201362-.0201361.0394979l-.6311915.6249958c0 .0193617-.0193617.0193617-.0387234.0193617-.0201362 0-.0201362 0-.0394979-.0193617l-10.4111745-15.0726979c-.0193617-.0201362-.0193617-.0588596 0-.0782213.0596341-.0782213.0983575-.1564425.1579915-.2540255.0193617-.0193617.0394979-.0394979.0588596-.0394979h.0201362l11.4357957 2.3629021c.0394979.0193617.0588596.0394979.0588596.0580851.1579915.6064086.5916936 1.1330468 1.1833872 1.3677107zm8.6167319.6249957c.0193617 0 .0394979.0185873.0394979.0774468 0 .0201362 0 .0394979-.0201362.0580851l-8.5570978 8.4935915c0 .0201362-.0201362.0201362-.0394979.0201362h-.0394979c-.0201362-.0201362-.0394979-.0394979-.0394979-.0789957l1.4792341-9.0976766c0-.0193617.0193617-.0588596.0387234-.0588596.3554808-.1370809.6513276-.3709702.8875404-.6644936.0193617 0 .0394979-.0185873.0596341-.0185873h.0193617zm-7.6509702-14.1750893c.0201362.0193617.0402724.0387234.0402724.0774468-.0201362.0975829-.0402724.2153021-.0402724.3322468v.097583.0782212c0 .0193617-.0193617.0387234-.0387234.0580851l-13.9404255 5.9548851h-.0201362c-.0193617 0-.0394979 0-.0588596-.0185872-.0193617-.0193617-.0193617-.0588596 0-.0789957l5.2253362-8.1024851c.0193617-.0193617.0394979-.0387234.0588596-.0387234h.0201362c.1378553.0193617.2563489.0387234.374068.0387234.789183 0 1.518732-.390332 1.9524341-1.0540511.0193617-.0193617.0394979-.0387234.0588596-.0387234h.0201361zm15.3801617 6.5210212c.0193617.0193617.0193617.0394979.0193617.0588596 0 .0185872 0 .0387234-.0193617.0580851l-6.4280851 6.3847149c0 .0193617-.0193617.0193617-.0394979.0193617h-.0193617l-7.0197787-1.4645191c-.0394979 0-.0588596-.0193617-.0588596-.0580851-.059634-.5467745-.3159829-1.0346894-.7496851-1.3669362-.0193617-.0193617-.0193617-.0394979-.0193617-.0588596l1.2422468-7.6339319c0-.0387234.0394979-.0588596.0588596-.0588596.5521958-.0774468 1.0253958-.350834 1.3413787-.7806638.0193617-.0193617.0387234-.0193617.0588596-.0193617h.0193617zm1.202749-1.1717702c.0394978.0193617.0394978.0782213 0 .0782213l-.0394979.0387234c0 .0201362-.0201362.0201362-.0394979.0201362h-.0193617l-12.1064851-5.1354979c-.0201362 0-.0402723-.0387234-.0402723-.0580851s.0201361-.0394979.0402723-.0588596l4.9093532-2.0887404h.0193617s.0201362 0 .0394979.0193617zm-23.0303575-10.5629702c-.0193617-.0193617-.0193617-.0580851 0-.097583l4.7521362-7.37990635c0-.0193617.0193617-.0387234.0394979-.0387234.0201361 0 .0201361 0 .0394978.0193617l4.2193022 4.19761702c.0201361.02013617.0201361.0387234.0201361.05885957l-1.1043915 6.85249366c0 .0394978-.0201361.0588595-.0394978.0588595-.256349.0782213-.4933362.195166-.6900511.3516085 0 .0193617-.0193617.0193617-.0394979.0193617h-.0193617l-6.7440681-2.8701787c-.0193617-.0193617-.0394978-.0387234-.0394978-.0588595-.0387234-.390332-.1773532-.7806639-.3942043-1.1129107zm9.4051404 3.8072851c-.0193617 0-.0394978-.0387234-.0588595-.0580851l.9270383-5.6814979c0-.0394978.0193617-.0588595.0394978-.0588595h.0193617s.0193617 0 .0394979.0193617l4.2394383 4.197617c.0193617.0201362.0193617.0394979.0193617.0588596s-.0193617.0387234-.0387234.0588595l-4.5352851 1.9322979h-.0201362c-.0193617 0-.0193617 0-.0394978-.0193617-.1572171-.1758042-.3547064-.3314723-.5916937-.4491915z"/><path d="m102.353702 14.1747796h3.154409v-2.8113192h-3.154409zm9.345507-1.5032426c-.867405.8588851-1.301107 2.0887404-1.301107 3.689566v1.308851h-2.149149v2.3814894h2.149149v11.9492681h3.155183v-11.9492681h2.858562v-2.3814894h-2.858562v-1.2693531c0-1.5814639.748911-2.3629022 2.266868-2.3629022.453838 0 .867404.0394979 1.202749.0983575l.07977-2.5193447c-.631966-.1556681-1.203523-.2338894-1.775081-.2338894-1.538093-.0193617-2.760978.4298298-3.628382 1.2887149zm11.71228 14.7210894-2.977055-9.7226724h-3.411532l4.949626 14.2525362-.453839 1.2298553c-.236212.7032171-.552195 1.1911319-.965761 1.4838809-.394205.2927489-1.006034.4491915-1.794443.4491915l-.591694-.0387234v2.498434c.552196.1564426 1.064894.2346638 1.518732.2346638 2.050017 0 3.509115-1.2104936 4.377294-3.6121191l5.599404-16.4977192h-3.372034zm-21.057787 4.6080851h3.154409v-14.3307575h-3.154409zm-13.5655829-2.7725958c-.216851-.2346638-.3159829-.6443574-.3159829-1.1911319v-8.0049021h2.4844936v-2.3822638h-2.4844936v-3.4750383h-3.1544085v3.4750383h-2.3071405v2.3822638h2.3071405v8.1218468c0 2.7338724 1.2228851 4.1000341 3.6477446 4.1000341.6706894 0 1.359966-.097583 2.0902894-.3121107v-2.4992085c-.375617.097583-.7496851.1370809-1.1043915.1370809-.5715574.0193617-.9471745-.0983575-1.1632511-.3516086zm-10.2531829-5.7403574h-6.0145192c.1386298-1.1129106.4933362-1.9717957 1.0253958-2.5774298.532834-.6242213 1.2430212-.9169702 2.1104255-.9169702s1.5574553.2726128 2.050017.8193872c.4933362.5467745.7698213 1.3669362.8480426 2.4411234v.2338894zm-2.8786979-6.0911915c-1.2035234 0-2.2877787.3121106-3.2736766.9371064-.9858979.6242213-1.7348085 1.5032425-2.2870043 2.6355149-.5320595 1.1322723-.8085446 2.4016255-.8085446 3.8266468v.3903319c0 2.1282383.6311915 3.846783 1.8734383 5.1354979 1.2422468 1.2879404 2.8593361 1.9322979 4.8698553 1.9322979 1.163251 0 2.2281447-.2338894 3.1745447-.7024426.9471744-.4685532 1.6953106-1.1322723 2.2475063-1.9911574l-1.6953106-1.6604596c-.9069021 1.1911319-2.0895149 1.7967659-3.5292511 1.7967659-1.0253957 0-1.8928-.3516085-2.5627148-1.0346893-.6908256-.6830809-1.0648937-1.6201873-1.1640256-2.8113192h9.1882894v-1.2887149c0-2.2846808-.5320596-4.0419489-1.5574553-5.2911659-1.0842554-1.2499915-2.5634894-1.8742128-4.4756511-1.8742128zm-13.625217 0c-1.6953107 0-3.0560511.6443575-4.1008085 1.9129362l-.0991319-1.6596851h-2.9569192v14.3315319h3.1544085v-10.192c.6311915-1.1717702 1.5775915-1.7572681 2.8392-1.7572681.8674043 0 1.4985958.2145277 1.8928.6637192.3942043.4298297.5715575 1.1129106.5715575 2.0112936v9.2742553h3.1551829v-9.4694213c-.0394978-3.3975915-1.5179574-5.1153617-4.4562893-5.1153617zm32.2775064 14.6041447h3.1551829v-20.3445021h-3.1551829z"/></g><path d="m139.255639 29.651388c.80296 0 1.469142-.2338256 1.998567-.7014836.529424-.467658.811779-1.0456041.847074-1.7338555h3.030938c-.035295.8911973-.313238 1.722822-.833839 2.494899-.5206.7720769-1.226488 1.3831115-2.117686 1.8331221-.891197.4500105-1.85297.6750124-2.885347.6750124-2.002988 0-3.591237-.6485348-4.764794-1.9456241s-1.760327-3.0882809-1.760327-5.3736287v-.3308885c0-2.1794628.582358-3.9243306 1.747091-5.2346555 1.164733-1.3103248 2.752982-1.9654774 4.764794-1.9654774 1.702981 0 3.090493.4963277 4.162577 1.4889981 1.072084.9926703 1.634589 2.2963578 1.687531 3.9111016h-3.030938c-.035295-.8206075-.315444-1.4956132-.840457-2.0250374-.525012-.5294242-1.1934-.7941323-2.005184-.7941323-1.041201 0-1.844149.3772091-2.408868 1.1316386-.564719.7544294-.851486 1.8992921-.86031 3.4346222v.516186c0 1.5529776.28015 2.7110757.840457 3.4743289s1.369873 1.1448741 2.428721 1.1448741zm11.105292-12.017869.092649 1.4956158c1.005906-1.1735569 2.382388-1.7603266 4.129488-1.7603266 1.914751 0 3.225056.7323591 3.930955 2.1970994 1.041201-1.4647403 2.505919-2.1970994 4.394199-2.1970994 1.579449 0 2.755194.4367684 3.527271 1.3103183s1.166933 2.1617961 1.184581 3.8647772v9.410468h-3.216236v-9.3178192c0-.9088448-.198531-1.5750269-.595599-1.9985663-.397068-.4235393-1.054427-.6353059-1.972096-.6353059-.73237 0-1.330169.1963253-1.793415.5889815-.463246.3926563-.787514.9066312-.972812 1.5419403l.013235 9.8207696h-3.216236v-9.4237035c-.044118-1.6853337-.904419-2.5279879-2.58093-2.5279879-1.288265 0-2.201508.5250045-2.739756 1.5750291v10.3766623h-3.216236v-14.3208527zm28.364435 10.4296043c0-.5735428-.236031-1.0103112-.708101-1.3103183-.47207-.300007-1.255165-.5647151-2.349308-.7941323-1.094144-.2294172-2.007387-.5205961-2.739757-.8735456-1.60592-.7764887-2.408868-1.9014983-2.408868-3.3750623 0-1.2353231.520593-2.2676848 1.561794-3.097116s2.364741-1.2441406 3.970661-1.2441406c1.711805 0 3.094905.423533 4.149342 1.2706117 1.054436.8470787 1.581647 1.9456174 1.581647 3.2956491h-3.216237c0-.6176616-.229413-1.1316365-.688247-1.5419403-.458835-.4103037-1.067663-.6154525-1.826505-.6154525-.705899 0-1.281639.1632367-1.727237.4897149-.445599.3264783-.668395.7632467-.668395 1.3103183 0 .4941293.207355.8779561.62207 1.1514919.414716.2735358 1.252958.5492735 2.514752.8272211 1.261795.2779478 2.252244.6088329 2.971379.9926655.719134.3838325 1.252962.8448658 1.6015 1.3831137s.522804 1.1911947.522804 1.9588597c0 1.2882655-.533828 2.3316568-1.6015 3.1302049-1.067672.7985482-2.466214 1.1978162-4.195666 1.1978162-1.173557 0-2.219154-.2117664-3.136823-.6353058s-1.63238-1.0058972-2.144157-1.7470911-.767661-1.53973-.767661-2.3956325h3.123587c.044119.7588414.330886 1.3434051.86031 1.7537089.529424.4103037 1.2309.6154525 2.104451.6154525.847078 0 1.491201-.1610307 1.932388-.4830971s.661777-.7433935.661777-1.263994z" fill="#c9fa4b"/></g></svg>