<svg width="21" height="21" viewBox="0 0 21 21" xmlns="http://www.w3.org/2000/svg"><g fill="#000" fill-rule="evenodd"><path d="M4.7 20.5H15c2.1 0 3.8-1.7 3.8-3.8v-6.4c0-.5-.4-.9-.8-.9-.5 0-1 .4-1 .9v6.4a2 2 0 0 1-2 2H4.7a2 2 0 0 1-2-2V6.2c0-1.1.8-2 2-2H11c.5 0 .8-.4.8-1 0-.4-.3-.8-.8-.8H4.7C2.6 2.4.9 4.1.9 6.2v10.5c0 2 1.7 3.8 3.8 3.8z"/><path d="M20.9 7.2V1.9v-.2h-.1v-.2l-.1-.1-.2-.2h-.1l-.2-.2H14.5c-.5 0-.8.3-.8.8s.3 1 .8 1H18l-8 8c-.4.3-.4.8 0 1.2.3.3.9.3 1.2 0l8-8v3.2c0 .5.4.9.9.9s.8-.4.9-1z"/></g></svg>