<svg height="24" viewBox="0 0 24 24" width="24" xmlns="http://www.w3.org/2000/svg"><path d="m3 8h1.98059082v11.0444336c0 .5522847.44771525 1 1 1h11.01940918v1.9555664h-12.25c-.9625 0-1.75-.7875-1.75-1.75zm6-6h6.0737305l4.9262695 5.04125977v8.95874023c0 1.1045695-.8954305 2-2 2h-9c-1.1045695 0-2-.8954305-2-2v-12c0-1.1045695.8954305-2 2-2zm.94 8.1099997c-.51914767 0-.94.4208523-.94.94 0 .5191476.42085233.94.94.94h7.12c.5191477 0 .94-.4208524.94-.94 0-.5191477-.4208523-.94-.94-.94zm0 3.8900003c-.51914767 0-.94.4208523-.94.94s.42085233.94.94.94h7.12c.5191477 0 .94-.4208523.94-.94s-.4208523-.94-.94-.94zm4.0540186-6.12426758h4.3436279l-4.3436279-4.34143066z"/></svg>