<svg height="24" viewBox="0 0 24 24" width="24" xmlns="http://www.w3.org/2000/svg"><path d="m13.365625 3 5.625 5.49263495.009375 10.67648675c0 1.0069831-.84375 1.8308783-1.875 1.8308783h-11.259375c-1.03125 0-1.865625-.8238952-1.865625-1.8308783v-14.33824338c0-1.00698308.834375-1.83087832 1.865625-1.83087832zm-6.425625 9.1099997c-.51914767 0-.94.4208523-.94.94 0 .5191476.42085233.94.94.94h9.12c.5191477 0 .94-.4208524.94-.94 0-.5191477-.4208523-.94-.94-.94zm0 3.8900003c-.51914767 0-.94.4208523-.94.94s.42085233.94.94.94h9.12c.5191477 0 .94-.4208523.94-.94s-.4208523-.94-.94-.94zm5.072598-6h5.1392974l-5.1392974-5.05314891z"/></svg>