<svg viewBox="0 0 24 24"><path d="m12.8086276 8.18202896c0 .49706225-.4017845.89884675-.8988467.89884675-.4970623 0-.8988468-.4017845-.8988468-.89884675v-4.1239276l-2.43497581 2.4358747c-.35144908.35144908-.91952022.35144908-1.2709693 0s-.35144908-.91952023 0-1.27096931l3.96930721-3.9702061c.3370676-.33706753.9339018-.33706753 1.2709693 0l4.0259346 4.0259346c.3514491.35144908.3514491.91952022 0 1.2709693-.1752751.17527512-.4053798.2633621-.6354846.2633621s-.4602095-.08808698-.6354847-.2633621l-2.4916032-2.49160319zm.0152252 11.74930824 2.4349759-2.4349759c.351449-.3505502.9195202-.351449 1.2709693 0 .351449.3514491.351449.9195203 0 1.2709693l-3.9693073 3.9693073c-.1752751.1752751-.4053799.2633621-.6354846.2633621-.2301048 0-.4602096-.088087-.6354847-.2633621l-4.02593459-4.0259346c-.35144908-.3514491-.35144908-.9195202 0-1.2709693s.91952023-.3514491 1.27096931 0l2.49160318 2.4916032v-4.1239276c0-.4970623.4017845-.8988468.8988468-.8988468.4970622 0 .8988467.4017845.8988467.8988468zm-.901816-6.4783849c-.837169 0-1.5158285-.6786596-1.5158285-1.5158286s.6786595-1.5158286 1.5158285-1.5158286c.8371691 0 1.5158286.6786596 1.5158286 1.5158286s-.6786595 1.5158286-1.5158286 1.5158286z"/></svg>