<svg viewBox="0 0 24 24"><path d="m20.5257919 18.2361128c.6322775.6322774.6322775 1.6574017 0 2.2896791-.6322774.6322775-1.6574017.6322775-2.2896791 0l-3.3414852-3.3414852c-.2368377-.2368377-.6656031-.2967701-.963706-.1374303 0 0 .0405408-.0096968-.220218.1080969-.8631283.3899046-1.8210951.6069315-2.8297512.6069315-3.80024506 0-6.8809524-3.0807074-6.8809524-6.8809524 0-3.80024506 3.08070734-6.8809524 6.8809524-6.8809524 3.800245 0 6.8809524 3.08070734 6.8809524 6.8809524 0 1.012028-.2184804 1.9730273-.6108477 2.8384043-.1168354.2576838-.1051364.2138242-.1051364.2138242-.1604092.2941546-.0982926.7247681.138386.9614467zm-9.6767823-3.466001c2.1655649 0 3.9211022-1.7555373 3.9211022-3.9211022 0-2.16556486-1.7555373-3.92110209-3.9211022-3.92110209-2.16556486 0-3.92110209 1.75553723-3.92110209 3.92110209 0 2.1655649 1.75553723 3.9211022 3.92110209 3.9211022z"/></svg>