<svg height="24" viewBox="0 0 24 24" width="24" xmlns="http://www.w3.org/2000/svg"><path d="m18.886759 12.8744229c.0370426-.2876452.0648245-.5752904.0648245-.8809134 0-.3056231-.0277819-.5932683-.0648245-.8809135l1.9539953-1.4831705c.1759521-.13483369.2222553-.37753432.1111277-.5752904l-1.8521282-3.11016369c-.1111277-.19775607-.361165-.26966737-.5648991-.19775607l-2.3058996.89889124c-.4815533-.3595565-1.0001492-.65619061-1.5650483-.88091342l-.3519044-2.38206179c-.0277819-.2157339-.2222554-.37753432-.4537714-.37753432h-3.7042564c-.23151599 0-.42598945.16180042-.45377137.37753432l-.35190436 2.38206179c-.56489909.22472281-1.08349499.53034583-1.56504832.88091342l-2.30589959-.89889124c-.21299474-.08090021-.4537714 0-.56489909.19775607l-1.85212819 3.11016369c-.12038833.19775608-.06482448.44045671.11112769.5752904l1.95399524 1.4831705c-.03704257.2876452-.06482449.5842794-.06482449.8809135s.02778192.5932682.06482449.8809134l-1.95399524 1.4831705c-.17595217.1348337-.22225538.3775343-.11112769.5752904l1.85212819 3.1101637c.11112769.1977561.36116499.2696674.56489909.1977561l2.30589959-.8988913c.48155333.3595565 1.00014923.6561907 1.56504832.8809135l.35190436 2.3820618c.02778192.2157339.22225538.3775343.45377137.3775343h3.7042564c.231516 0 .4259895-.1618004.4537714-.3775343l.3519044-2.3820618c.5648991-.2247228 1.083495-.5303459 1.5650483-.8809135l2.3058996.8988913c.2129947.0809002.4537714 0 .5648991-.1977561l1.8521282-3.1101637c.1111276-.1977561.0648244-.4404567-.1111277-.5752904zm-6.8772817 2.1312871c-1.6615648 0-3.01320044-1.3516356-3.01320044-3.0132005 0-1.6615648 1.35163564-3.01320042 3.01320044-3.01320042s3.0132005 1.35163562 3.0132005 3.01320042c0 1.6615649-1.3516357 3.0132005-3.0132005 3.0132005z"/></svg>