<svg height="32" viewBox="0 0 32 32" width="32" xmlns="http://www.w3.org/2000/svg"><path d="m16.5 18c-3.025 0-5.5-2.6341463-5.5-5.8536585v-.292683c0-3.21951216 2.475-5.8536585 5.5-5.8536585s5.5 2.63414634 5.5 5.8536585v.292683c0 3.2195122-2.475 5.8536585-5.5 5.8536585zm-.5 11c-3.7384245 0-7.1916785-1.6889619-9.39075171-4.3351212-.9071177-1.0639197-.79716404-2.7007193.30237256-3.6009591.82465246-.6547198 1.84172382-1.0639197 2.96874884-1.0639197h12.64467101c.7421872 0 1.4293975.19096 2.0616311.4910399 1.4293976.7365598 1.8692122 2.5915993.8796293 3.873759-2.2265616 2.8098392-5.5904346 4.6352011-9.4663011 4.6352011z" fill="#1e2532"/></svg>