<svg height="24" viewBox="0 0 24 24" width="24" xmlns="http://www.w3.org/2000/svg"><path d="m2.97546387 7.00422571c.00105229-.47698245.41119474-.94691774.89682448-.9479513h9.45107595l-.8165213 1.8959026h-8.63455465c-.48562974-.00103355-.89577219-.47096884-.89682448-.9479513zm.01672363 8.97061429c.00105229.4769825.39447111 1.0624565.88010085 1.0634901h4.69643724c.01083761-.5799341.09978735-1.4254344.20483398-1.9962158h-4.90127122c-.48562974.0010335-.87904856.5240396-.88010085 1.001022zm7.9210205-5.0085314.7613657-1.99709421h-7.80228535c-.48606628 0-.93307937.52113588-.93307937.9985471 0 .47741121.44701309.99854711.93307937.99854711zm-7.96350097 2.074684c.00105229.4769825.43695158.965176.92258132.9662095h5.3080095c.09566314-.258076.30103904-.7165802.41838582-.9683922l.44579023-.9640268h-6.17218555c-.48562974.0010335-.92152903.4892271-.92258132.9662095zm17.09896117-5.90779798.3955158-.84881369c.3884378-.76352487.3209091-1.67451926-.1760303-2.37473072s-1.3438005-1.07763615-2.2075514-.9838502c-.863751.09378596-1.6062286.64378083-1.9354505 1.43369677l-4.7125704 10.18964912c-.8613645 1.8637725-1.1055307 3.9460491-.6980854 5.95335.0384601.1918649.1688166.3537118.3500645.4346302.1812478.0809184.3911118.0709635.563577-.0267334 1.8068539-1.0205037 3.2421059-2.5721878 4.1034761-4.4363627l3.6288572-7.84327162z"/></svg>