<svg width="24" height="24" viewBox="0 0 24 24" fill="none" xmlns="http://www.w3.org/2000/svg">
<path d="M18.1605 0H5.83952C2.61444 0 0 2.61415 0 5.83886V18.1584C0 21.3831 2.61444 23.9973 5.83952 23.9973H18.1605C21.3856 23.9973 24 21.3831 24 18.1584V5.83886C24 2.61415 21.3856 0 18.1605 0Z" fill="#FF0082"/>
<path d="M9.34403 3.58527L3.57098 4.11286L4.26067 11.6654L8.02281 11.3226L7.64889 7.21612L9.65979 7.03333C11.652 6.85262 13.2537 8.44787 13.4718 10.8262L17.1654 10.4897C16.7852 6.32502 13.2724 3.23215 9.34611 3.58735L9.34403 3.58527Z" fill="white"/>
<path d="M17.3981 12.8576C17.3981 15.2463 15.946 16.9807 13.9475 16.9807H11.9283V12.8513H8.15164V20.4412H13.9475C17.8966 20.4412 21.1083 17.0388 21.1083 12.8576C21.1083 12.8555 21.1083 12.8534 21.1083 12.8513H17.3981C17.3981 12.8513 17.3981 12.8555 17.3981 12.8576Z" fill="white"/>
</svg>
