<svg width="335" height="90" viewBox="0 0 335 90" fill="none" xmlns="http://www.w3.org/2000/svg">
<path d="M30.73 0.149188L0 2.94919L3.67 43.1592L23.7 41.3292L21.71 19.4692L32.42 18.4892C43.03 17.5192 51.56 26.0192 52.71 38.6792L72.38 36.8892C70.34 14.7192 51.64 -1.75081 30.73 0.149188Z" fill="#FF0082" class="no-fill"/>
<path d="M73.61 49.5091C73.61 62.2291 65.88 71.4591 55.24 71.4591H44.49V49.4691H24.38V89.8891H55.24C76.26 89.8891 93.36 71.7791 93.36 49.5091C93.36 49.4991 93.36 49.4891 93.36 49.4691H73.61C73.61 49.4691 73.61 49.4891 73.61 49.5091Z" fill="#FF0082" class="no-fill"/>
<path d="M131.65 23.7092H151.66C166.07 23.7092 175.95 32.7992 175.95 46.7692C175.95 60.7392 166.07 69.8292 151.66 69.8292H131.65V23.7092ZM151.16 61.0592C159.91 61.0592 165.63 55.5892 165.63 46.7692C165.63 37.9492 159.9 32.4792 151.16 32.4792H141.85V61.0692H151.16V61.0592Z" fill="black" class="no-fill"/>
<path d="M207.61 58.6891L212.83 64.6191C209.68 68.3691 204.96 70.3491 198.86 70.3491C187.16 70.3491 179.54 62.6391 179.54 52.0991C179.54 41.5591 187.22 33.8491 197.66 33.8491C207.22 33.8491 215.09 40.4391 215.15 51.7691L190.11 56.8391C191.56 60.3291 194.7 62.1091 199.11 62.1091C202.7 62.1091 205.28 60.9891 207.61 58.6791V58.6891ZM189.17 51.0491L205.66 47.6891C204.72 44.0691 201.76 41.6291 197.67 41.6291C192.76 41.6291 189.36 45.0591 189.17 51.0491Z" fill="black" class="no-fill"/>
<path d="M218.25 52.0991C218.25 41.4291 226.12 33.8491 237.13 33.8491C244.24 33.8491 249.84 37.0791 252.3 42.8691L244.69 47.1491C242.86 43.7891 240.16 42.2791 237.08 42.2791C232.11 42.2791 228.21 45.8991 228.21 52.0891C228.21 58.2791 232.11 61.8991 237.08 61.8991C240.16 61.8991 242.87 60.4491 244.69 57.0291L252.3 61.3791C249.85 67.0491 244.25 70.3391 237.13 70.3391C226.12 70.3391 218.25 62.7591 218.25 52.0891V52.0991Z" fill="black" class="no-fill"/>
<path d="M290.93 34.3791V69.8191H281.55V65.7391C279.1 68.8391 275.51 70.3491 270.98 70.3491C261.41 70.3491 254.05 63.2391 254.05 52.0991C254.05 40.9591 261.41 33.8491 270.98 33.8491C275.13 33.8491 278.66 35.2291 281.11 38.1291V34.3791H290.93ZM281.3 52.0991C281.3 45.9691 277.52 42.2891 272.68 42.2891C267.84 42.2891 264 45.9791 264 52.0991C264 58.2191 267.78 61.9091 272.68 61.9091C277.58 61.9091 281.3 58.2191 281.3 52.0991Z" fill="black" class="no-fill"/>
<path d="M334.54 52.0991C334.54 63.2291 327.18 70.3491 317.68 70.3491C313.46 70.3491 310 68.9691 307.49 66.0691V82.5991H297.67V34.3791H307.05V38.4591C309.5 35.3591 313.15 33.8491 317.68 33.8491C327.18 33.8491 334.54 40.9591 334.54 52.0991ZM324.6 52.0991C324.6 45.9691 320.89 42.2891 315.98 42.2891C311.07 42.2891 307.36 45.9791 307.36 52.0991C307.36 58.2191 311.07 61.9091 315.98 61.9091C320.89 61.9091 324.6 58.2191 324.6 52.0991Z" fill="black" class="no-fill"/>
</svg>
