<svg xmlns="http://www.w3.org/2000/svg" width="22" height="20" viewBox="0 0 22 20"><path fill="#7A8291" fill-rule="evenodd" d="M195.036,22 L189.504,22 L189.504,20.896 L190.512,19.984 C192.216,18.46 193.044,17.584 193.068,16.672 C193.068,16.036 192.684,15.532 191.784,15.532 C191.112,15.532 190.524,15.868 190.116,16.18 L189.6,14.872 C190.188,14.428 191.1,14.068 192.156,14.068 C193.92,14.068 194.892,15.1 194.892,16.516 C194.892,17.824 193.944,18.868 192.816,19.876 L192.096,20.476 L192.096,20.5 L195.036,20.5 L195.036,22 Z M180,14 L187,14 L187,22 L180,22 L180,14 Z M182,14 L182,17 L185,17 L185,14 L182,14 Z M182,19 L182,22 L185,22 L185,19 L182,19 Z" transform="translate(-177 -6)"/></svg>