<svg xmlns="http://www.w3.org/2000/svg" width="22" height="20" viewBox="0 0 22 20"><path fill="#7A8291" d="M329.013584,10.0231934 L329.013584,12.0231934 L318.013584,12.0231934 L318.013584,10.0231934 L329.013584,10.0231934 Z M329.013584,15.0231934 L329.013584,17.0231934 L318.013584,17.0231934 L318.013584,15.0231934 L329.013584,15.0231934 Z M329.013584,20.0231934 L329.013584,22.0231934 L318.013584,22.0231934 L318.013584,20.0231934 L329.013584,20.0231934 Z M312.603803,14.9847917 L312.603803,10.2309455 L312.586147,10.2309455 L311.491468,10.7755609 L311.270766,9.72325319 L312.789193,8.98479165 L313.901528,8.98479165 L313.901528,14.9847917 L312.603803,14.9847917 Z M315.0623,22.9817785 L311.0623,22.9817785 L311.0623,22.1470995 L311.791151,21.4575821 C313.023255,20.3053623 313.621953,19.6430627 313.639307,18.9535453 C313.639307,18.4726976 313.361649,18.0916485 312.71089,18.0916485 C312.22499,18.0916485 311.799827,18.3456812 311.504817,18.5815688 L311.131715,17.5926557 C311.556877,17.2569696 312.216313,16.9847917 312.979871,16.9847917 C314.255359,16.9847917 314.958179,17.765035 314.958179,18.8356015 C314.958179,19.8245146 314.272712,20.6138306 313.457094,21.3759287 L312.936487,21.8295586 L312.936487,21.8477038 L315.0623,21.8477038 L315.0623,22.9817785 Z" transform="translate(-309 -6)"/></svg>