<svg xmlns="http://www.w3.org/2000/svg" width="22" height="20" viewBox="0 0 22 20"><path fill="#7A8291" d="M14.712 12.557c.092.672.05 1.388-.163 2.156-.532 1.901-1.767 3.196-3.48 3.648a5.6 5.6 0 0 1-1.43.178c-2.092 0-4.25-1.04-5.469-2.251l-.524-.56 1.756-1.638.492.53c.988.979 3.035 1.821 4.563 1.42.893-.236 1.475-.88 1.78-1.969.165-.6.171-1.094.03-1.514Zm-.32-9.91-1.637 1.752c-1.051-.981-3.192-1.761-4.698-1.347-.858.232-1.416.82-1.707 1.797-.544 1.833.668 2.52 3.778 3.455.71.214 1.336.407 1.84.653H19.2v2.4H0v-2.4h5.617C4.261 7.988 3.35 6.52 4.05 4.165c.67-2.258 2.207-3.111 3.378-3.43 2.478-.668 5.436.483 6.965 1.911"/></svg>