<svg xmlns="http://www.w3.org/2000/svg" width="22" height="20" viewBox="0 0 22 20"><path fill="#7A8291" d="M253.102564,19.3198903 L250.051331,16 L253.102564,12.6801097 L251.778331,11.6697083 L247.798462,16 L251.778331,20.3302917 L253.102564,19.3198903 Z M248,10 L260,10 C261.104569,10 262,10.8954305 262,12 L262,20 C262,21.1045695 261.104569,22 260,22 L248,22 C246.895431,22 246,21.1045695 246,20 L246,12 L246,12 C246,10.8954305 246.895431,10 248,10 L248,10 Z M254.927099,19.3198903 L256.144121,20.2553711 L260.12399,15.9250793 L256.144121,11.5947876 L254.927099,12.6801097 L257.978333,16 L254.927099,19.3198903 Z" transform="translate(-243 -6)"/></svg>