<svg xmlns="http://www.w3.org/2000/svg" width="22" height="20" viewBox="0 0 22 20"><path fill="#7A8291" d="M359,9 L371,9 L371,9 C372.656854,9 374,10.3431458 374,12 L374,20 L374,20 C374,21.6568542 372.656854,23 371,23 L359,23 L359,23 C357.343146,23 356,21.6568542 356,20 L356,12 L356,12 C356,10.3431458 357.343146,9 359,9 L359,9 Z M361.48655,16.204594 L359.147781,19.436749 C359.02437,19.6073013 358.957932,19.8124509 358.957932,20.02297 C358.957932,20.5752547 359.405647,21.02297 359.957932,21.02297 L359.957932,21.02297 L369.911144,21.02297 C370.132248,21.02297 370.347118,20.9496923 370.522149,20.814597 C370.959353,20.4771484 371.04022,19.8491688 370.702771,19.4119653 L370.702771,19.4119653 L367.297466,15 L363.845782,19.4690437 L361.48655,16.204594 Z M362.5,14 C363.328427,14 364,13.3284271 364,12.5 C364,11.6715729 363.328427,11 362.5,11 C361.671573,11 361,11.6715729 361,12.5 C361,13.3284271 361.671573,14 362.5,14 Z" transform="translate(-354 -6)"/></svg>