<svg xmlns="http://www.w3.org/2000/svg" xmlns:xlink="http://www.w3.org/1999/xlink" width="24" height="24" viewBox="0 0 24 24">
  <path id="icon-pages@2x-a" d="M3,8 L4.98059082,8 L4.98059082,19.0444336 C4.98059082,19.5967183 5.42830607,20.0444336 5.98059082,20.0444336 L17,20.0444336 L17,22 L4.75,22 C3.7875,22 3,21.2125 3,20.25 L3,8 Z M9,2 L15.0737305,2 L20,7.04125977 L20,16 L20,16 C20,17.1045695 19.1045695,18 18,18 L9,18 C7.8954305,18 7,17.1045695 7,16 L7,4 L7,4 C7,2.8954305 7.8954305,2 9,2 L9,2 Z M9.94,10.1099997 C9.42085233,10.1099997 9,10.530852 9,11.0499997 C9,11.5691473 9.42085233,11.9899997 9.94,11.9899997 L17.06,11.9899997 C17.5791477,11.9899997 18,11.5691473 18,11.0499997 C18,10.530852 17.5791477,10.1099997 17.06,10.1099997 L9.94,10.1099997 Z M9.94,14 C9.42085233,14 9,14.4208523 9,14.94 C9,15.4591477 9.42085233,15.88 9.94,15.88 L17.06,15.88 C17.5791477,15.88 18,15.4591477 18,14.94 C18,14.4208523 17.5791477,14 17.06,14 L9.94,14 Z M13.9940186,7.87573242 L18.3376465,7.87573242 L13.9940186,3.53430176 L13.9940186,7.87573242 Z"/>
  </defs>
</svg>
