<svg xmlns="http://www.w3.org/2000/svg" xmlns:xlink="http://www.w3.org/1999/xlink" width="24" height="24" viewBox="0 0 24 24">
  <path id="icon-pages-alt@2x-a" d="M21,15.25 C21,16.2125 20.2125,17 19.25,17 L8.75,17 C7.7875,17 7,16.2125 7,15.25 L7,4.75 C7,3.7875 7.7875,3 8.75,3 L19.25,3 C20.2125,3 21,3.7875 21,4.75 L21,15.25 Z M9,10 L9,12 L19,12 L19,10 L9,10 Z M9,6 L9,8 L19,8 L19,6 L9,6 Z M3,7 L3,19.25 C3,20.2125 3.7875,21 4.75,21 L17,21 L17,19.0444336 L5.98059082,19.0444336 L5.98059082,19.0444336 C5.42830607,19.0444336 4.98059082,18.5967183 4.98059082,18.0444336 L4.98059082,7 L3,7 Z"/>
  </defs>
</svg>
