<svg xmlns="http://www.w3.org/2000/svg" xmlns:xlink="http://www.w3.org/1999/xlink" width="24" height="24" viewBox="0 0 24 24"><path id="icon-workflow@2x-a" d="M10,4 L13,4 C13.5522847,4 14,4.44771525 14,5 L14,14 L14,14 C14,14.5522847 13.5522847,15 13,15 L10,15 L10,15 C9.44771525,15 9,14.5522847 9,14 L9,5 L9,5 C9,4.44771525 9.44771525,4 10,4 Z M17,4 L20,4 C20.5522847,4 21,4.44771525 21,5 L21,15 C21,15.5522847 20.5522847,16 20,16 L17,16 C16.4477153,16 16,15.5522847 16,15 L16,5 L16,5 C16,4.44771525 16.4477153,4 17,4 Z M3,4 L6,4 C6.55228475,4 7,4.44771525 7,5 L7,19 C7,19.5522847 6.55228475,20 6,20 L3,20 L3,20 C2.44771525,20 2,19.5522847 2,19 L2,5 L2,5 C2,4.44771525 2.44771525,4 3,4 L3,4 Z"/></svg>