<?xml version="1.0" standalone="no"?>
<!DOCTYPE svg PUBLIC "-//W3C//DTD SVG 20010904//EN"
 "http://www.w3.org/TR/2001/REC-SVG-20010904/DTD/svg10.dtd">
<svg version="1.0" xmlns="http://www.w3.org/2000/svg"
 width="16.000000pt" height="16.000000pt" viewBox="0 0 16.000000 16.000000"
 preserveAspectRatio="xMidYMid meet">
<metadata>
Created by potrace 1.11, written by Peter Selinger 2001-2013
</metadata>
<g transform="translate(0.000000,16.000000) scale(0.002286,-0.002286)"
fill="#000000" stroke="none">
<path d="M2750 6290 c-393 -390 -712 -711 -710 -714 3 -2 196 -85 430 -184
234 -99 447 -189 473 -201 49 -21 49 -21 76 -2 74 53 141 66 299 58 33 -2 33
-2 318 438 156 242 288 447 294 455 15 22 145 223 153 237 4 6 -113 131 -298
315 -168 166 -309 304 -313 305 -4 1 -329 -317 -722 -707z"/>
<path d="M4193 6162 c-23 -37 -92 -143 -152 -237 -60 -93 -200 -311 -311 -483
-111 -172 -204 -321 -207 -331 -3 -11 2 -30 11 -42 8 -13 22 -51 30 -83 9 -32
17 -60 19 -62 3 -4 76 -35 227 -99 69 -29 275 -116 459 -194 183 -78 339 -140
345 -137 70 35 110 64 111 81 1 11 5 36 8 55 4 19 9 53 12 75 3 22 8 51 10 65
3 14 7 39 9 55 3 17 14 86 25 155 12 69 23 143 27 165 3 22 7 51 10 65 5 32
33 204 40 250 3 19 10 55 14 80 6 31 5 50 -3 60 -20 24 -627 625 -635 627 -4
1 -26 -28 -49 -65z"/>
<path d="M1495 5040 c-209 -209 -379 -383 -378 -388 2 -7 418 -619 440 -647 4
-5 20 -28 35 -50 15 -22 103 -152 197 -289 l170 -248 109 -2 108 -1 88 135
c48 74 109 169 136 210 26 41 167 259 313 485 l264 409 -33 49 c-19 27 -41 73
-50 103 -15 52 -21 144 -11 161 11 17 -10 31 -108 73 -55 23 -279 118 -497
211 -218 93 -398 169 -400 169 -2 0 -174 -171 -383 -380z"/>
<path d="M5066 5373 c-7 -37 -66 -399 -72 -440 -2 -18 -11 -72 -19 -120 -9
-49 -18 -104 -21 -123 -3 -19 -7 -46 -9 -60 -17 -105 -20 -93 38 -137 l53 -39
43 18 c24 10 57 25 75 33 17 7 119 51 226 95 107 45 209 88 225 95 17 8 52 23
79 35 l50 22 -327 324 c-180 178 -329 324 -331 324 -2 0 -7 -12 -10 -27z"/>
<path d="M3491 4679 c-67 -81 -156 -122 -270 -123 l-63 -1 -234 -360 c-129
-198 -238 -367 -242 -375 -4 -8 -41 -67 -82 -130 -202 -308 -234 -359 -227
-367 5 -4 191 70 342 138 33 14 333 142 1165 496 58 25 119 51 135 58 17 7
127 55 245 105 118 50 218 94 221 98 4 4 9 26 12 49 l5 41 -77 33 c-42 18
-101 43 -131 57 -30 13 -93 40 -140 59 -47 19 -206 86 -353 149 -148 63 -269
114 -270 114 -1 0 -17 -19 -36 -41z"/>
<path d="M5755 4534 c-71 -31 -215 -92 -320 -136 -264 -112 -285 -122 -282
-131 1 -5 93 -47 202 -93 110 -46 209 -88 220 -94 11 -5 81 -34 155 -66 74
-31 149 -62 165 -69 17 -8 75 -32 130 -55 55 -23 114 -47 130 -55 204 -91 822
-345 834 -343 11 3 -59 78 -209 227 -124 122 -371 368 -551 547 -179 178 -329
324 -335 324 -5 0 -67 -26 -139 -56z"/>
<path d="M720 4279 c-454 -445 -720 -713 -712 -720 4 -3 99 -25 212 -48 243
-50 814 -169 850 -177 35 -8 61 -13 95 -20 17 -2 46 -9 65 -14 19 -5 50 -12
68 -15 18 -3 65 -12 105 -21 39 -8 81 -17 92 -19 11 -3 52 -11 90 -19 116 -25
109 -26 153 33 l41 54 -43 61 c-23 34 -130 187 -236 341 -428 620 -447 648
-459 662 -6 7 -16 24 -23 38 -6 14 -14 25 -17 25 -4 0 -15 14 -24 30 -10 17
-21 30 -25 30 -4 0 -109 -99 -232 -221z"/>
<path d="M5030 4045 c-31 -33 -94 -70 -147 -85 -49 -15 -48 -13 -68 -155 -4
-22 -8 -47 -10 -55 -2 -8 -7 -35 -10 -60 -3 -25 -10 -67 -15 -95 -5 -27 -11
-66 -14 -85 -3 -19 -12 -75 -20 -125 -21 -124 -65 -392 -72 -439 -3 -21 -7
-46 -9 -55 -19 -102 -19 -98 24 -147 26 -29 47 -68 58 -103 9 -31 21 -61 27
-67 6 -6 58 -21 116 -32 58 -11 193 -39 300 -62 107 -22 209 -43 225 -46 17
-3 46 -9 65 -14 29 -7 102 -23 215 -46 11 -2 31 -6 45 -9 14 -3 43 -8 65 -11
l40 -5 490 487 490 487 -45 19 c-25 11 -209 89 -410 174 -201 85 -374 158
-385 163 -11 5 -41 18 -67 30 -26 12 -50 21 -53 21 -2 0 -28 11 -57 24 -77 35
-744 316 -751 316 -2 0 -14 -11 -27 -25z"/>
<path d="M4465 3985 c-128 -56 -140 -61 -325 -140 -85 -36 -168 -72 -185 -79
-16 -8 -75 -33 -130 -56 -154 -65 -1196 -509 -1230 -524 -16 -8 -54 -24 -82
-36 -48 -20 -53 -25 -53 -54 0 -17 4 -36 8 -43 6 -10 143 -43 272 -67 14 -2
81 -16 150 -31 69 -14 136 -29 150 -31 60 -12 221 -45 290 -59 243 -51 408
-85 430 -89 14 -3 34 -7 45 -9 11 -3 103 -22 204 -43 l184 -37 19 24 c56 73
132 123 200 131 35 5 38 9 44 50 3 18 14 87 25 153 23 141 26 157 34 210 3 23
8 52 10 65 3 14 10 54 15 90 18 111 51 314 55 340 3 14 12 73 21 133 16 102
16 108 -1 127 -24 27 -35 25 -150 -25z"/>
<path d="M138 3305 c-8 -9 652 -660 665 -657 7 2 172 71 367 154 195 83 374
158 398 167 23 9 42 22 42 28 0 7 -3 13 -7 14 -13 1 -39 6 -266 53 -120 25
-228 48 -240 50 -66 13 -186 38 -217 46 -19 5 -48 11 -65 14 -50 9 -86 16
-180 36 -49 11 -101 22 -115 24 -14 3 -101 21 -195 40 -186 39 -179 38 -187
31z"/>
<path d="M2406 2816 c-17 -27 -25 -13 106 -201 30 -44 111 -161 180 -260 68
-99 140 -202 159 -230 19 -27 86 -124 149 -215 63 -91 274 -397 470 -680 196
-283 387 -560 425 -615 38 -55 70 -102 72 -105 2 -2 28 20 58 50 46 46 56 62
60 100 3 25 7 52 10 60 2 8 7 35 10 60 3 25 12 81 20 125 7 44 16 100 20 125
3 25 10 68 15 95 5 28 12 68 15 90 3 23 8 52 10 65 3 14 8 43 11 65 2 22 18
117 34 210 15 94 31 186 34 205 22 145 77 478 80 493 3 12 -7 23 -34 37 -47
24 -103 89 -127 146 -21 51 -13 48 -218 88 -157 32 -251 51 -350 72 -42 9
-121 26 -145 30 -14 2 -56 11 -95 20 -65 14 -136 29 -195 40 -14 3 -59 12
-100 20 -41 9 -138 29 -215 44 -77 16 -205 43 -285 59 -80 17 -148 31 -151 31
-4 0 -14 -11 -23 -24z"/>
<path d="M1420 2684 c-162 -69 -330 -140 -372 -157 -43 -18 -78 -37 -78 -42 0
-16 360 -366 370 -360 4 3 35 49 69 102 34 54 113 177 176 273 169 259 168
256 149 286 -9 13 -17 24 -18 24 0 0 -134 -57 -296 -126z"/>
<path d="M2185 2642 c-43 -16 -193 -21 -237 -8 -25 7 -29 3 -85 -83 -32 -51
-89 -140 -128 -200 -38 -59 -86 -132 -104 -162 -19 -30 -59 -90 -88 -135 -29
-45 -53 -86 -53 -91 0 -10 424 -435 940 -943 113 -111 388 -383 611 -606 224
-222 412 -405 418 -406 6 -2 89 75 185 171 l175 174 -22 32 c-12 18 -50 73
-83 122 -34 48 -116 167 -182 263 -66 96 -135 195 -152 220 -38 54 -241 348
-351 510 -44 63 -93 135 -110 160 -18 25 -176 254 -352 510 -175 256 -324 470
-331 476 -8 8 -22 6 -51 -4z"/>
<path d="M4683 2343 c-9 -13 -40 -38 -68 -54 l-52 -29 -22 -133 c-11 -72 -23
-143 -25 -157 -6 -32 -37 -228 -41 -255 -2 -11 -26 -157 -53 -325 -28 -168
-53 -323 -56 -345 -4 -22 -11 -68 -17 -103 -12 -67 -8 -83 14 -61 419 410
1287 1276 1287 1284 0 6 -73 25 -162 43 -90 19 -172 35 -183 38 -11 2 -54 11
-95 19 -41 8 -86 18 -100 21 -14 3 -36 7 -50 10 -14 3 -88 18 -165 34 -210 43
-193 42 -212 13z"/>
</g>
</svg>
