<svg xmlns="http://www.w3.org/2000/svg" xmlns:xlink="http://www.w3.org/1999/xlink" width="24" height="24" viewBox="0 0 24 24"><path id="icon-media-alt@2x-a" d="M5.02734375,4.04492188 L19.0015392,4.04492188 C20.6583934,4.04492188 22.0015392,5.38806763 22.0015392,7.04492187 L22.0015392,17.0357666 L22.0015392,17.0357666 C22.0015392,18.6926209 20.6583934,20.0357666 19.0015392,20.0357666 L5.02734375,20.0357666 L5.02734375,20.0357666 C3.3704895,20.0357666 2.02734375,18.6926209 2.02734375,17.0357666 L2.02734375,7.04492188 L2.02734375,7.04492188 C2.02734375,5.38806763 3.3704895,4.04492188 5.02734375,4.04492188 L5.02734375,4.04492188 Z M7.90074208,12.5249382 L3.78704271,18.0285026 L20.2418402,18.0285026 L14.7569077,11.1490471 L10.6843453,16.2536031 L7.90074208,12.5249382 Z M9.49298096,10 C10.3252846,10 11,9.32528459 11,8.49298096 C11,7.66067732 10.3252846,6.98596191 9.49298096,6.98596191 C8.66067732,6.98596191 7.98596191,7.66067732 7.98596191,8.49298096 C7.98596191,9.32528459 8.66067732,10 9.49298096,10 Z"/></svg>