<svg xmlns="http://www.w3.org/2000/svg" xmlns:xlink="http://www.w3.org/1999/xlink" width="32" height="32" viewBox="0 0 32 32"><g fill="none" fill-rule="evenodd"><path fill="#1E2532" fill-rule="nonzero" d="M16.5,18 C13.475,18 11,15.3658537 11,12.1463415 L11,11.8536585 C11,8.63414634 13.475,6 16.5,6 C19.525,6 22,8.63414634 22,11.8536585 L22,12.1463415 C22,15.3658537 19.525,18 16.5,18 Z M16,29 C12.2615755,29 8.8083215,27.3110381 6.60924829,24.6648788 C5.70213059,23.6009591 5.81208425,21.9641595 6.91162085,21.0639197 C7.73627331,20.4091999 8.75334467,20 9.88036969,20 L22.5250407,20 C23.2672279,20 23.9544382,20.19096 24.5866718,20.4910399 C26.0160694,21.2275997 26.455884,23.0826392 25.4663011,24.3647989 C23.2397395,27.1746381 19.8758665,29 16,29 Z" transform="translate(-1381 -11.437) translate(1381 11.437)"/></g></svg>