<svg xmlns="http://www.w3.org/2000/svg" xmlns:xlink="http://www.w3.org/1999/xlink" width="24" height="24" viewBox="0 0 24 24"><path d="M2.97546387,7.00422571 C2.97651616,6.52724326 3.38665861,6.05730797 3.87228835,6.05627441 L13.3233643,6.05627441 L12.506843,7.95217701 L3.87228835,7.95217701 C3.38665861,7.95114346 2.97651616,7.48120817 2.97546387,7.00422571 Z M2.9921875,15.97484 C2.99323979,16.4518225 3.38665861,17.0372965 3.87228835,17.0383301 L8.56872559,17.0383301 C8.5795632,16.458396 8.66851294,15.6128957 8.77355957,15.0421143 L3.87228835,15.0421143 C3.38665861,15.0431478 2.99323979,15.5661539 2.9921875,16.0431363 L2.9921875,15.97484 Z M10.913208,10.9663086 L11.6745737,8.96921439 L3.87228835,8.96921439 C3.38622207,8.96921439 2.93920898,9.49035027 2.93920898,9.96776149 C2.93920898,10.4451727 3.38622207,10.9663086 3.87228835,10.9663086 L10.913208,10.9663086 Z M2.94970703,13.0409926 C2.95075932,13.5179751 3.38665861,14.0061686 3.87228835,14.0072021 L9.18029785,14.0072021 C9.27596099,13.7491261 9.48133689,13.2906219 9.59868367,13.0388099 L10.0444739,12.0747831 L3.87228835,12.0747831 C3.38665861,12.0758166 2.95075932,12.5640102 2.94970703,13.0409926 Z M20.0486682,7.13319462 L20.444184,6.28438093 C20.8326218,5.52085606 20.7650931,4.60986167 20.2681537,3.90965021 C19.7712143,3.20943875 18.9243532,2.83201406 18.0606023,2.92580001 C17.1968513,3.01958597 16.4543737,3.56958084 16.1251518,4.35949678 L11.4125814,14.5491459 C10.5512169,16.4129184 10.3070507,18.495195 10.714496,20.5024959 C10.7529561,20.6943608 10.8833126,20.8562077 11.0645605,20.9371261 C11.2458083,21.0180445 11.4556723,21.0080896 11.6281375,20.9103927 C13.4349914,19.889889 14.8702434,18.3382049 15.7316136,16.47403 L19.3604708,8.63075838 L20.0486682,7.13319462 Z"/></svg>