<?xml version="1.0" encoding="UTF-8"?>
<svg id="Layer_1" xmlns="http://www.w3.org/2000/svg" viewBox="0 0 400 120">
    <defs>
        <style>.cls-1{fill:#ff0082;}</style>
    </defs>
    <path class="cls-1" d="m59.59,13.02l-30.73,2.8,3.67,40.21,20.03-1.83-1.99-21.86,10.71-.98c10.61-.97,19.14,7.53,20.29,20.19h0s19.67-1.79,19.67-1.79c-2.02-22.17-20.72-38.65-41.63-36.75Z" />
    <path class="cls-1" d="m102.46,62.38c0,12.72-7.73,21.95-18.37,21.95h-10.75v-21.99h-20.11v40.42h30.86c21.02,0,38.12-18.11,38.12-40.38,0-.01,0-.02,0-.04h-19.75s0,.02,0,.04Z" />
    <g class="name">
        <path d="m160.51,36.58h20.01c14.41,0,24.29,9.09,24.29,23.06s-9.88,23.06-24.29,23.06h-20.01v-46.11Zm19.51,37.35c8.75,0,14.47-5.47,14.47-14.29s-5.73-14.29-14.47-14.29h-9.31v28.59h9.31Z" />
        <path d="m236.4,71.56l5.22,5.93c-3.15,3.75-7.87,5.73-13.97,5.73-11.7,0-19.32-7.71-19.32-18.25s7.68-18.25,18.12-18.25c9.56,0,17.43,6.59,17.49,17.92l-25.04,5.07c1.45,3.49,4.59,5.27,9,5.27,3.59,0,6.17-1.12,8.5-3.43Zm-18.44-7.64l16.49-3.36c-.94-3.62-3.9-6.06-7.99-6.06-4.91,0-8.31,3.43-8.5,9.42Z" />
        <path d="m247.1,64.97c0-10.67,7.87-18.25,18.88-18.25,7.11,0,12.71,3.23,15.17,9.02l-7.61,4.28c-1.83-3.36-4.53-4.87-7.61-4.87-4.97,0-8.87,3.62-8.87,9.81s3.9,9.81,8.87,9.81c3.08,0,5.79-1.45,7.61-4.87l7.61,4.35c-2.45,5.67-8.05,8.96-15.17,8.96-11.01,0-18.88-7.58-18.88-18.25Z" />
        <path d="m319.78,47.25v35.44h-9.38v-4.08c-2.45,3.1-6.04,4.61-10.57,4.61-9.57,0-16.93-7.11-16.93-18.25s7.36-18.25,16.93-18.25c4.15,0,7.68,1.38,10.13,4.28v-3.75h9.82Zm-9.63,17.72c0-6.13-3.78-9.81-8.62-9.81s-8.68,3.69-8.68,9.81,3.78,9.81,8.68,9.81,8.62-3.69,8.62-9.81Z" />
        <path d="m364.78,64.97c0,11.13-7.36,18.25-16.86,18.25-4.22,0-7.68-1.38-10.19-4.28v16.53h-9.82v-48.22h9.38v4.08c2.45-3.1,6.1-4.61,10.63-4.61,9.5,0,16.86,7.11,16.86,18.25Zm-9.94,0c0-6.13-3.71-9.81-8.62-9.81s-8.62,3.69-8.62,9.81,3.71,9.81,8.62,9.81,8.62-3.69,8.62-9.81Z" />
    </g>

    <style>
        @media (prefers-color-scheme: dark) {g.name {fill: #ffffff;}}
        @media (prefers-color-scheme: light) {g.name {fill: #000000;}}
    </style>
</svg>